<?xml version="1.0" standalone="no"?>
<!DOCTYPE svg PUBLIC "-//W3C//DTD SVG 20010904//EN"
 "http://www.w3.org/TR/2001/REC-SVG-20010904/DTD/svg10.dtd">
<svg version="1.0" xmlns="http://www.w3.org/2000/svg"
 width="1024.000000pt" height="1024.000000pt" viewBox="0 0 1024.000000 1024.000000"
 preserveAspectRatio="xMidYMid meet">

<g transform="translate(0.000000,1024.000000) scale(0.100000,-0.100000)"
fill="#000000" stroke="none">
<path d="M262 4883 l3 -2538 22 -76 c93 -327 319 -574 618 -676 161 -55 104
-53 1872 -53 899 0 1633 3 1631 8 -107 209 -181 443 -258 822 -21 101 -43 186
-49 188 -8 3 -11 114 -11 388 0 319 2 384 14 384 10 0 17 30 26 112 7 62 14
118 17 125 4 9 -5 13 -26 13 l-31 0 2 388 3 387 166 3 c117 2 170 6 177 15 5
6 26 56 47 110 20 53 42 100 49 105 6 4 -90 9 -214 12 l-225 5 -3 388 -2 387
390 0 390 0 0 -157 0 -157 38 36 c20 19 70 59 110 88 80 58 102 89 102 150 l0
40 55 0 c75 0 99 14 189 112 42 46 93 95 113 111 l37 27 -197 0 -197 0 0 385
0 385 385 0 385 0 0 -278 0 -278 123 41 122 40 3 238 2 237 390 0 390 0 0
-132 0 -133 92 7 c51 3 105 7 121 7 l27 1 0 125 0 125 390 0 390 0 0 -155 0
-154 43 -11 c215 -54 453 -134 635 -213 l82 -36 0 794 0 795 -4220 0 -4220 0
2 -2537z m3578 1132 l0 -385 -385 0 -385 0 0 385 0 385 385 0 385 0 0 -385z
m1030 0 l0 -385 -390 0 -390 0 0 385 0 385 390 0 390 0 0 -385z m-3072 -1022
l-3 -388 -387 -3 -388 -2 0 390 0 390 390 0 390 0 -2 -387z m1022 -3 l0 -390
-387 2 -388 3 -3 388 -2 387 390 0 390 0 0 -390z m1020 0 l0 -390 -385 0 -385
0 0 390 0 390 385 0 385 0 0 -390z m-2042 -1022 l2 -388 -390 0 -390 0 0 390
0 390 388 -2 387 -3 3 -387z m1022 2 l0 -390 -390 0 -390 0 0 383 c0 211 3
387 7 390 3 4 179 7 390 7 l383 0 0 -390z m1020 0 l0 -390 -385 0 -385 0 0
390 0 390 385 0 385 0 0 -390z m-2040 -1025 l0 -385 -390 0 -390 0 0 385 0
385 390 0 390 0 0 -385z m1020 0 l0 -385 -390 0 -390 0 0 385 0 385 390 0 390
0 0 -385z m1020 0 l0 -385 -385 0 -385 0 0 385 0 385 385 0 385 0 0 -385z"/>
</g>
</svg>
