<svg xmlns="http://www.w3.org/2000/svg" fill="none" stroke-linecap="square" stroke-miterlimit="10" viewBox="0 0 960 720"><path fill="#69bfd0" d="M606 685a193 193 0 0 1-87-35c-11-8-25-21-35-33a188 188 0 0 1-31-63 183 183 0 0 1 31-158 174 174 0 0 1 75-57 177 177 0 0 1 222 76l12 24a181 181 0 0 1-104 236l-31 8c-7 1-12 2-27 2h-25zm133-154c4-2 7-5 9-10 2-9 0-16-6-21l-4-3H635v-50c0-53 0-54-4-58-2-3-8-5-13-5-8 0-13 2-16 8-2 3-2 4-2 72v68h68l71-1z"></path><path fill="#3c78ce" d="M203 598a64 64 0 0 1-36-24l-1-1c-2-1-7-10-10-19l-2-6V206h566v105l-3-1-3-1-5-3-31-10-8-2v-20h-53v16l-5 1h-10v-17h-54v31l-3 1-4 2-4 1c-5 2-5 3-5-17v-18h-52v52h24l-6 6c-7 8-10 10-14 10s-4 0-5 4l-1 5-14 10-1-9v-10h-52v53h14c17 0 15-1 12 7-3 9-2 8-15 8l-11 1v26l1 27c2 0 2 1 2 3a386 386 0 0 0-3 65l4 16a185 185 0 0 0 12 42l1 3 3 5v2H320c-95 0-113 0-117-2zm55-92v-26h-54v52h54zm68 0v-26h-53v52h53zm68 0v-26h-52v52h52zm-137-69v-26h-53v53h53zm69 0v-26h-53v53h53zm68 0v-26h-52v53h52zm-136-68v-27h-54v53h54zm68 0v-27h-53v53h53zm68 0v-27h-52v53h52zm0-69v-26h-52v52h52zm69 0v-26h-52v52h52z"></path><path fill="#8b9db0" d="M154 128V85l3-7a66 66 0 0 1 28-35c8-4 15-7 23-8l232-1c215 0 227 0 232 2 22 6 38 21 45 42l2 7 1 43v42H154Zm229-9c5-1 9-5 10-10l1-9c-1-8-2-11-8-14l-4-2h-81l-3 2c-5 4-7 7-7 16 0 7 0 8 2 11s5 5 10 7l80-1zm193-1c5-4 7-8 7-16s-1-12-6-15l-4-3h-82l-4 3c-5 3-7 7-7 14s1 11 5 14c4 5 5 5 48 5h40z"></path></svg>
