<svg viewBox="0 0 960 720" fill="none" stroke-linecap="square" stroke-miterlimit="10" xmlns="http://www.w3.org/2000/svg"><path style="fill:#fff;fill-opacity:1;stroke:#000;stroke-width:1.22237" d="M172 278V83l61-1h62V58l2-26c4-10 13-12 20-6l3 4 1 26 1 26 69 1h69l1-24c0-21 0-24 3-29 4-9 12-10 19-3l4 4v52h125v132H242l-45 1v227h194v29H287l-110 1-5 1zm323-90h91l-1-38-1-38-49-1-48-1v51l-4 4c-3 4-4 4-9 4s-7-1-11-8c-2-4-2-9-3-27v-23H321v50l-4 4c-3 4-4 4-9 4s-7-1-11-8c-1-3-2-8-2-27v-24l-35 1-49 1h-14v77l104-1h194z"/><path style="fill:#fff;fill-opacity:1;stroke:#000;stroke-width:1.22237" d="M378 420c1-8 6-20 12-29 5-8 35-39 37-38l-4 13-7 18c-1 3-4 9-7 12-4 7-5 9-1 9 2 0 2 0 0 12l-1 8-15 1h-15zM301 370c0-60-1-94-2-94l-5 3c-8 8-35 24-36 22l-1-10-1-10 6-3c15-9 33-25 42-39l5-7h12v194h-20zM388 288c-6 0-6 0-6-4 0-6 3-16 6-24 11-21 36-32 63-27 8 1 20 7 25 12s11 15 13 20c2 4 1 4-7 12-4 5-9 8-9 8l-2-5c0-5-2-13-4-13l-1-2c0-2-9-10-14-12s-24-2-29 0c-11 4-19 16-21 30-1 6-1 6-4 6l-10-1zM593 694a210 210 0 0 1-127-84 248 248 0 0 1-46-136 237 237 0 0 1 132-224c26-12 55-18 82-18a201 201 0 0 1 136 54 233 233 0 0 1 75 204 257 257 0 0 1-32 100l-1 1c0 5-21 32-37 48a192 192 0 0 1-149 58c-16 0-22 0-33-3zm80-29c26-7 45-16 65-31 31-23 53-53 68-90a228 228 0 0 0-3-167c-27-58-70-95-132-112-20-6-57-5-79 1a191 191 0 0 0-60 27c-12 8-39 36-49 51-16 25-27 49-33 81-2 8-3 16-3 40 0 31 1 39 7 59 5 17 7 21 13 36 24 48 70 89 118 103 19 5 28 6 51 6 21-1 24-1 37-4z"/><path style="fill:#fff;fill-opacity:1;stroke:#000;stroke-width:1.22237" d="m630 482-9-6a430 430 0 0 0-72-39 693 693 0 0 1-35-18c-39-20-40-21-41-29 0-5 4-11 7-13 6-3 5-3 78 34a5205 5205 0 0 0 73 35l63-104 6-3c4-2 5-2 8 0 5 3 8 9 7 13l-5 12c-44 72-60 98-61 102-1 7-5 12-10 15l-5 2-4-1z"/></svg>
