<?xml version="1.0" encoding="UTF-8" standalone="no"?>
<svg
   version="1.1"
   viewBox="0.0 0.0 960.0 720.0"
   fill="none"
   stroke="none"
   stroke-linecap="square"
   stroke-miterlimit="10"
   id="svg5"
   sodipodi:docname="bookingbtn1.svg"
   inkscape:version="1.3 (0e150ed6c4, 2023-07-21)"
   xmlns:inkscape="http://www.inkscape.org/namespaces/inkscape"
   xmlns:sodipodi="http://sodipodi.sourceforge.net/DTD/sodipodi-0.dtd"
   xmlns="http://www.w3.org/2000/svg"
   xmlns:svg="http://www.w3.org/2000/svg">
  <defs
     id="defs5" />
  <sodipodi:namedview
     id="namedview5"
     pagecolor="#ffffff"
     bordercolor="#000000"
     borderopacity="0.25"
     inkscape:showpageshadow="2"
     inkscape:pageopacity="0.0"
     inkscape:pagecheckerboard="0"
     inkscape:deskcolor="#d1d1d1"
     inkscape:zoom="0.81808326"
     inkscape:cx="304.37"
     inkscape:cy="429.05168"
     inkscape:window-width="1902"
     inkscape:window-height="1093"
     inkscape:window-x="160"
     inkscape:window-y="28"
     inkscape:window-maximized="0"
     inkscape:current-layer="svg5" />
  <clipPath
     id="p.0">
    <path
       d="m0 0l960.0 0l0 720.0l-960.0 0l0 -720.0z"
       clip-rule="nonzero"
       id="path1" />
  </clipPath>
  <g
     id="g26">
    <path
       style="fill:#ffffff;fill-opacity:1;stroke:#000000;stroke-width:1.22237"
       d="M 171.74291,278.2665 V 82.53255 l 61.42407,-0.316898 61.42406,-0.316898 0.76668,-23.836204 c 0.42167,-13.109913 1.18989,-24.936337 1.70715,-26.280944 3.61862,-9.40652 13.23652,-12.066682 19.60572,-5.422642 l 3.59021,3.745128 0.78756,25.897331 c 0.43317,14.243532 0.84572,26.034848 0.91678,26.202924 0.0711,0.168075 31.12761,0.305592 69.01454,0.305592 h 68.88533 l 0.6401,-23.591605 c 0.56656,-20.881116 0.93864,-24.176774 3.23847,-28.684812 4.65077,-9.116274 12.47746,-10.439185 19.25361,-3.254358 l 4.11704,4.365328 v 25.582723 25.582724 h 62.34084 62.34085 v 66.007951 66.00795 H 448.80949 c -89.64254,0 -182.87877,0.36422 -207.19162,0.80938 l -44.2052,0.80937 v 113.48218 113.48216 h 96.56719 96.56718 v 14.66843 14.66844 H 286.81625 c -57.05194,0 -106.28287,0.3498 -109.40207,0.77733 l -5.67127,0.77734 z m 323.63079,-90.63199 90.7694,-8e-4 -0.78928,-37.58786 c -0.43412,-20.67332 -1.03322,-37.86289 -1.33137,-38.19904 -0.29815,-0.33616 -22.22448,-0.7883 -48.72515,-1.00477 l -48.18307,-0.39358 v 25.10403 25.10403 l -3.79373,4.32082 c -3.22296,3.67075 -4.57378,4.32083 -8.97832,4.32083 -5.64522,0 -7.48299,-1.4143 -11.09795,-8.54069 -1.7603,-3.47019 -2.27391,-8.52511 -2.7635,-27.19772 l -0.60135,-22.93532 h -69.5037 -69.5037 v 25.39734 25.39734 l -3.5982,3.93953 c -3.01049,3.29607 -4.47695,3.93952 -8.97831,3.93952 -5.79465,0 -7.66173,-1.37613 -11.11228,-8.19029 -1.62187,-3.20285 -1.98096,-8.16877 -1.98096,-27.3945 v -23.48249 l -35.0364,0.80796 c -19.27002,0.44437 -41.27267,0.80796 -48.89478,0.80796 h -13.85838 v 38.70598 38.70598 l 103.59581,-0.81173 c 56.9777,-0.44646 144.44205,-0.81209 194.36522,-0.81253 z"
       id="path21" />
    <path
       style="fill:#ffffff;fill-opacity:1;stroke:#000000;stroke-width:1.22237"
       d="m 377.61407,419.75365 c 0.97975,-7.38576 6.19609,-19.44031 12.59309,-29.10164 5.03414,-7.60302 35.21235,-38.98213 36.37352,-37.82095 0.40674,0.40674 -1.40884,6.17138 -4.03462,12.81032 -2.62579,6.63893 -5.67275,14.82112 -6.77102,18.18263 -1.09827,3.36152 -3.92347,8.82149 -6.27821,12.13327 -4.87162,6.8516 -5.34904,9.2582 -1.83661,9.2582 2.77968,0 2.78152,0.0283 0.75401,11.61251 l -1.4976,8.55658 -15.07047,0.34453 -15.07047,0.34452 z"
       id="path22" />
    <path
       style="fill:#ffffff;fill-opacity:1;stroke:#000000;stroke-width:1.22237"
       d="m 301.31,370.07236 c -0.004,-60.02442 -0.96737,-94.42805 -2.64316,-94.42805 -0.57317,0 -2.72646,1.60964 -4.78508,3.57697 -7.74069,7.39742 -34.41086,23.66111 -35.89544,21.88934 -0.1879,-0.22425 -0.69759,-4.85545 -1.13264,-10.29155 l -0.791,-9.88383 6.0054,-3.26855 c 15.34785,-8.35334 32.97541,-24.46447 41.9492,-38.34046 l 4.97143,-7.68722 h 5.94163 5.94164 v 97.17838 97.17837 h -9.77895 -9.77896 z"
       id="path23" />
    <path
       style="fill:#ffffff;fill-opacity:1;stroke:#000000;stroke-width:1.22237"
       d="m 388.4079,288.1892 c -6.16239,-0.43111 -6.41744,-0.58977 -6.41744,-3.99201 0,-6.35484 2.67515,-16.34289 6.47218,-24.16483 10.08002,-20.76496 35.90302,-32.05726 62.11926,-27.16452 8.48168,1.58293 20.50775,7.48238 25.54831,12.53284 4.78932,4.79874 11.33766,14.78643 13.11497,20.00328 1.25763,3.69147 1.02717,4.08798 -7.01372,12.06725 -4.66912,4.63335 -8.9046,7.8854 -9.66105,7.41789 -0.74084,-0.45786 -1.35005,-2.58773 -1.3538,-4.73304 -0.009,-5.1729 -2.25517,-13.06833 -3.71775,-13.06833 -0.6407,0 -1.16491,-0.78224 -1.16491,-1.73831 0,-2.24149 -9.23152,-10.27311 -14.32358,-12.4618 -5.45936,-2.34658 -23.59214,-2.22284 -29.41539,0.20072 -10.43683,4.34368 -18.3253,16.00395 -20.4607,30.24382 -0.7904,5.27081 -1.13628,5.73908 -4.08622,5.5321 -1.7725,-0.12436 -6.11057,-0.42814 -9.64016,-0.67506 z"
       id="path24" />
    <path
       style="fill:#ffffff;fill-opacity:1;stroke:#000000;stroke-width:1.22237"
       d="m 593.46038,694.33491 c -27.04041,-5.93449 -51.76718,-16.8167 -75.53655,-33.24347 -14.24921,-9.84748 -41.63401,-36.82777 -52.2219,-51.45049 -16.24928,-22.44155 -29.42842,-50.17131 -37.02844,-77.91023 -5.33334,-19.46586 -7.60482,-35.20059 -8.38198,-58.06255 -3.06675,-90.21559 40.36183,-171.76872 114.83593,-215.6467 5.22971,-3.0812 9.75272,-5.60218 10.05113,-5.60218 0.29841,0 3.44545,-1.30817 6.99342,-2.90704 25.82623,-11.63847 54.43758,-17.89374 81.62658,-17.84593 33.95652,0.0597 67.65452,9.30855 99.21028,27.2295 14.30311,8.12293 23.83881,15.14986 37.42048,27.57545 34.75601,31.79757 56.69262,69.31131 69.79451,119.35539 5.23993,20.01453 7.60063,58.23427 5.17881,83.84525 -2.35422,24.8961 -8.67975,50.69469 -17.80517,72.61804 -2.8561,6.86167 -9.68281,20.65879 -10.58433,21.39147 -0.41362,0.33615 -1.13826,1.84883 -1.61034,3.36152 -0.47207,1.51268 -1.3713,2.75033 -1.99831,2.75033 -0.62699,0 -1.13999,0.63064 -1.13999,1.40143 0,4.84082 -21.19619,31.74668 -37.4605,47.55133 -24.11923,23.43759 -44.56841,36.4448 -74.38631,47.31526 -24.17593,8.81363 -40.71353,11.31244 -73.95335,11.1743 -16.30442,-0.0678 -22.62844,-0.62357 -33.00397,-2.90068 z m 79.75218,-29.83092 c 26.19576,-6.83146 44.59296,-15.54489 65.0986,-30.83252 30.45713,-22.7068 52.91957,-52.51899 67.59869,-89.71706 8.65516,-21.93288 11.85359,-36.01105 13.95358,-61.41796 2.93152,-35.46715 -3.65983,-76.27574 -17.11266,-105.94838 -26.32256,-58.05918 -69.72816,-94.91872 -131.66993,-111.81263 -19.95177,-5.44161 -56.98214,-4.93297 -79.45402,1.09137 -18.18587,4.87533 -42.74361,15.18591 -50.11715,21.04172 -0.6723,0.53392 -4.7978,3.27351 -9.16777,6.08798 -12.30813,7.92703 -39.5923,35.93213 -49.27244,50.57439 -16.56915,25.06263 -26.68562,49.62619 -33.44314,81.20249 -1.79985,8.41028 -2.22319,15.98033 -2.22164,39.72701 0.002,31.73866 0.88421,39.64672 6.66633,59.76043 4.71607,16.40535 6.49045,21.1184 13.39685,35.58439 23.13323,48.45431 69.83052,89.21557 117.93785,102.94591 18.63948,5.3199 27.71467,6.37504 50.8376,5.91067 20.44299,-0.41055 23.99189,-0.81351 36.96925,-4.19781 z"
       id="path25" />
    <path
       style="fill:#ffffff;fill-opacity:1;stroke:#000000;stroke-width:1.22237"
       d="m 630.0533,481.81988 c -1.72375,-0.78577 -5.57421,-3.53732 -8.55659,-6.11454 -4.85477,-4.19527 -46.00961,-26.31559 -52.81917,-28.3898 -1.49626,-0.45577 -3.54558,-1.52799 -4.55403,-2.38271 -1.00846,-0.85473 -7.60925,-4.41077 -14.66844,-7.90232 -7.05918,-3.49155 -13.93501,-6.96334 -15.27961,-7.71508 -1.34461,-0.75174 -10.4207,-5.43523 -20.1691,-10.40775 -38.99687,-19.89178 -40.35813,-20.86611 -40.59091,-29.0533 -0.12661,-4.45307 3.12473,-11.01949 6.29686,-12.71716 5.81822,-3.11382 4.98738,-3.47351 78.29935,33.89818 11.76531,5.99752 27.71723,14.05309 35.44872,17.90127 7.73148,3.84818 15.98248,8.08486 18.33554,9.41485 13.51733,7.64021 17.07105,8.99508 18.76336,7.1536 2.10871,-2.2946 62.52784,-101.419 63.38483,-103.98997 0.21457,-0.64373 2.78751,-1.99638 5.71764,-3.00589 4.79502,-1.65202 5.62415,-1.64112 8.29516,0.10899 4.65046,3.0471 7.94242,9.18473 7.28765,13.58728 -0.31332,2.10663 -2.8883,7.6073 -5.72218,12.2237 -43.73779,71.24898 -59.43905,97.79576 -60.25504,101.87574 -1.24951,6.24757 -5.47671,12.09427 -10.65377,14.73542 -2.59469,1.3237 -4.87704,2.36206 -5.0719,2.30745 -0.19485,-0.0546 -1.76462,-0.74218 -3.48837,-1.52796 z"
       id="path26" />
  </g>
</svg>
