<?xml version="1.0" encoding="UTF-8" standalone="no"?>
<!-- Created with Inkscape (http://www.inkscape.org/) -->

<svg
   version="1.1"
   id="svg1"
   width="1365.3333"
   height="1365.3333"
   viewBox="0 0 1365.3333 1365.3333"
   sodipodi:docname="bookbluesvg.svg"
   inkscape:version="1.3 (0e150ed6c4, 2023-07-21)"
   xmlns:inkscape="http://www.inkscape.org/namespaces/inkscape"
   xmlns:sodipodi="http://sodipodi.sourceforge.net/DTD/sodipodi-0.dtd"
   xmlns:xlink="http://www.w3.org/1999/xlink"
   xmlns="http://www.w3.org/2000/svg"
   xmlns:svg="http://www.w3.org/2000/svg">
  <defs
     id="defs1">
    <linearGradient
       id="swatch22"
       inkscape:swatch="solid">
      <stop
         style="stop-color:#000000;stop-opacity:1;"
         offset="0"
         id="stop22" />
    </linearGradient>
    <linearGradient
       id="swatch21"
       inkscape:swatch="solid">
      <stop
         style="stop-color:#000000;stop-opacity:1;"
         offset="0"
         id="stop21" />
    </linearGradient>
    <linearGradient
       id="swatch20"
       inkscape:swatch="solid">
      <stop
         style="stop-color:#000000;stop-opacity:1;"
         offset="0"
         id="stop20" />
    </linearGradient>
    <linearGradient
       id="swatch19"
       inkscape:swatch="solid">
      <stop
         style="stop-color:#000000;stop-opacity:1;"
         offset="0"
         id="stop19" />
    </linearGradient>
    <linearGradient
       id="swatch18"
       inkscape:swatch="solid">
      <stop
         style="stop-color:#000000;stop-opacity:1;"
         offset="0"
         id="stop18" />
    </linearGradient>
    <linearGradient
       id="swatch17"
       inkscape:swatch="solid">
      <stop
         style="stop-color:#000000;stop-opacity:1;"
         offset="0"
         id="stop17" />
    </linearGradient>
    <linearGradient
       id="swatch16"
       inkscape:swatch="solid">
      <stop
         style="stop-color:#000000;stop-opacity:1;"
         offset="0"
         id="stop16" />
    </linearGradient>
    <linearGradient
       id="swatch15"
       inkscape:swatch="solid">
      <stop
         style="stop-color:#b9ccd9;stop-opacity:1;"
         offset="0"
         id="stop15" />
    </linearGradient>
    <linearGradient
       inkscape:collect="always"
       xlink:href="#swatch15"
       id="linearGradient15"
       x1="418.69125"
       y1="735.32776"
       x2="545.46066"
       y2="735.32776"
       gradientUnits="userSpaceOnUse" />
    <linearGradient
       inkscape:collect="always"
       xlink:href="#swatch15"
       id="linearGradient16"
       x1="429.94989"
       y1="492.99765"
       x2="648.18762"
       y2="492.99765"
       gradientUnits="userSpaceOnUse" />
    <linearGradient
       inkscape:collect="always"
       xlink:href="#swatch15"
       id="linearGradient17"
       x1="10.937499"
       y1="462.62656"
       x2="887.5"
       y2="462.62656"
       gradientUnits="userSpaceOnUse" />
    <linearGradient
       inkscape:collect="always"
       xlink:href="#swatch15"
       id="linearGradient18"
       x1="182.10434"
       y1="623.2627"
       x2="314.07025"
       y2="623.2627"
       gradientUnits="userSpaceOnUse" />
    <linearGradient
       inkscape:collect="always"
       xlink:href="#swatch15"
       id="linearGradient20"
       x1="67.025475"
       y1="266.34518"
       x2="830.46875"
       y2="266.34518"
       gradientUnits="userSpaceOnUse" />
    <linearGradient
       inkscape:collect="always"
       xlink:href="#swatch15"
       id="linearGradient21"
       x1="608.86218"
       y1="783.63232"
       x2="1095.3125"
       y2="783.63232"
       gradientUnits="userSpaceOnUse" />
    <linearGradient
       inkscape:collect="always"
       xlink:href="#swatch15"
       id="linearGradient22"
       x1="505.87384"
       y1="894.66156"
       x2="1352.9475"
       y2="894.66156"
       gradientUnits="userSpaceOnUse" />
  </defs>
  <sodipodi:namedview
     id="namedview1"
     pagecolor="#ffffff"
     bordercolor="#000000"
     borderopacity="0.25"
     inkscape:showpageshadow="2"
     inkscape:pageopacity="0.0"
     inkscape:pagecheckerboard="0"
     inkscape:deskcolor="#d1d1d1"
     inkscape:zoom="0.64"
     inkscape:cx="589.84375"
     inkscape:cy="410.9375"
     inkscape:window-width="1920"
     inkscape:window-height="1111"
     inkscape:window-x="-9"
     inkscape:window-y="-9"
     inkscape:window-maximized="1"
     inkscape:current-layer="svg1" />
  <g
     inkscape:groupmode="layer"
     id="layer2"
     inkscape:label="img"
     style="display:inline">
    <g
       id="g22">
      <path
         style="display:inline;fill:#b9ccd9;fill-opacity:1;stroke:url(#linearGradient18);stroke-width:0;stroke-dasharray:none"
         d="m 269.62764,667.1875 c 0.67732,-89.41159 0.5726,-151.54696 -0.25537,-151.52461 -1.65909,0.0448 -10.55448,6.73748 -25.19195,18.95388 -11.64125,9.71574 -36.72866,24.78158 -50.75967,30.48289 -4.94096,2.00769 -9.34909,3.65034 -9.79585,3.65034 -0.44677,0 -0.7779,-9.3164 -0.73586,-20.70312 l 0.0764,-20.70313 25.05374,-16.40625 c 34.63773,-22.68225 54.38917,-43.31352 75.73091,-79.10436 1.3901,-2.33124 4.11747,-2.99136 14.26258,-3.45208 l 12.54381,-0.56964 0.97981,120.85991 c 0.53889,66.47295 1.15287,154.43414 1.3644,195.4693 L 313.28521,818.75 H 290.88235 268.4795 Z"
         id="path8"
         sodipodi:insensitive="true" />
      <path
         style="display:inline;fill:#b9ccd9;fill-opacity:1;stroke:url(#linearGradient17);stroke-width:0;stroke-dasharray:none"
         d="M 10.9375,521.0936 V 130.73616 l 123.4375,1.04887 123.4375,1.04888 0.0153,-46.49508 c 0.015,-45.645369 0.0829,-46.637855 3.7149,-54.30758 2.0348,-4.296875 6.16483,-10.15625 9.17785,-13.020833 4.50086,-4.279145 6.70134,-5.208334 12.33429,-5.208334 8.73332,0 19.24244,4.183954 23.22444,9.246243 2.94758,3.747241 3.09575,6.468198 3.09575,56.849891 V 132.8125 H 448.68499 587.99497 L 587.0343,87.109375 586.07363,41.40625 590.30244,32.8125 c 5.55036,-11.279394 13.48689,-15.625 28.53647,-15.625 11.54331,0 13.64187,1.334849 17.82025,11.335125 1.98759,4.756963 2.40334,14.139916 2.40334,54.239689 V 131.25 H 763.28125 887.5 V 265.625 400 l -328.51562,0.002 c -180.6836,8.8e-4 -365.95704,0.46745 -411.71875,1.03683 l -83.20313,1.03525 v 224.94137 224.9414 l 84.76563,-1.31175 c 71.68892,-1.10939 297.99182,-1.26354 298.98847,-0.20364 0.17593,0.18709 0.83268,13.52378 1.45945,29.63706 l 1.13956,29.29687 H 341.09074 c -60.12868,0 -159.01126,0.46711 -219.73906,1.03802 L 10.9375,911.45103 Z"
         id="path9"
         sodipodi:insensitive="true" />
      <path
         style="display:inline;fill:#c9c9c9;fill-opacity:1;stroke:#000000;stroke-width:0;stroke-dasharray:none"
         d="m 255.46875,192.96875 -189.84375,1.5625 1.5625,147.65625 764.84375,-3.125 -0.78125,-146.875 -189.0625,-0.78125 -0.78125,87.5 0.39063,8.20313 -1.95313,4.6875 -3.90625,7.42187 -5.46875,6.25 -3.90625,3.90625 -14.0625,1.17188 -10.54687,-2.34375 -7.03125,-7.03125 -6.64063,-8.59375 -2.73437,-6.25 V 193.75 l -272.65625,-0.39062 -0.78125,93.35937 -2.34375,6.25 -4.6875,8.59375 -3.125,4.29688 -4.29688,3.125 -5.07812,1.5625 -14.45313,0.78125 -8.98437,-5.46875 -3.51563,-3.125 -1.95312,-1.17188 -3.90625,-7.03125 -2.34375,-4.6875 -1.17188,-3.90625 z"
         id="path14"
         sodipodi:insensitive="true" />
      <path
         style="display:inline;fill:#b9ccd9;fill-opacity:1;stroke:url(#linearGradient16);stroke-width:0;stroke-dasharray:none"
         d="m 607.35108,547.26563 c 0.68347,-3.22266 1.11686,-11.96941 0.96311,-19.43724 -0.27875,-13.53822 -0.30228,-13.6112 -8.05688,-25 -12.20478,-17.92455 -23.96702,-28.35452 -36.62301,-32.47481 -9.83384,-3.2015 -11.69875,-3.32465 -26.29725,-1.7365 -26.3478,2.86633 -43.33204,12.05232 -55.78796,30.17314 -3.82245,5.56088 -5.04201,9.81635 -7.28747,25.42853 -1.48322,10.3125 -2.96975,19.03418 -3.3034,19.3815 -0.69527,0.72376 -39.97746,-2.72366 -40.83775,-3.58394 -1.24976,-1.24977 4.67633,-31.9784 7.71725,-40.01631 10.99,-29.04931 33.1763,-51.82347 59.81853,-61.40353 11.493,-4.13268 14.76575,-4.56377 40.625,-5.35116 25.29873,-0.77034 29.31397,-0.52922 39.95669,2.39943 23.36156,6.4286 37.9638,17.82766 56.41898,44.04276 9.75293,13.85377 14.05288,22.82191 13.48038,28.11521 -0.34664,3.20505 -5.8657,10.15781 -19.75358,24.88501 -10.59989,11.2405 -19.94816,20.43728 -20.77392,20.43728 -0.9142,0 -1.01539,-2.2916 -0.25872,-5.85937 z"
         id="path10"
         sodipodi:insensitive="true" />
      <path
         style="display:inline;fill:#b9ccd9;fill-opacity:1;stroke:url(#linearGradient15);stroke-width:0;stroke-dasharray:none"
         d="m 420.40141,808.23297 c 0.69028,-9.6299 2.50058,-16.23357 8.75756,-31.94627 6.78496,-17.03858 9.72085,-22.16162 21.00484,-36.6528 7.21459,-9.26517 20.50025,-24.52542 29.52369,-33.91169 21.37783,-22.2374 62.78219,-57.52335 64.95181,-55.35373 0.39017,0.39016 -2.36879,7.6739 -6.13101,16.18608 -3.76223,8.51218 -11.55965,27.07825 -17.3276,41.25794 -10.34331,25.42757 -10.63524,25.92058 -21.27977,35.9375 -5.93593,5.58594 -13.65516,14.02344 -17.15384,18.75 l -6.36124,8.59375 11.03835,0.45933 11.03835,0.45933 -1.02835,4.0973 c -0.5656,2.25351 -2.8812,12.94525 -5.14579,23.75942 l -4.11743,19.66212 -34.31986,0.42047 -34.31987,0.42045 z"
         id="path11"
         sodipodi:insensitive="true" />
      <path
         style="display:inline;fill:#b9ccd9;fill-opacity:1;stroke:url(#linearGradient22);stroke-width:0;stroke-miterlimit:0;stroke-dasharray:none;stroke-dashoffset:0"
         d="m 880.46875,1354.6606 c -45.36775,-6.808 -62.11803,-11.2768 -95.59233,-25.5029 -72.63011,-30.8666 -130.77717,-72.8434 -169.17181,-122.1264 -46.29581,-59.425 -69.07652,-102.749 -89.18224,-169.6055 -15.7118,-52.24556 -18.09207,-68.68333 -19.6737,-135.8633 l -0.97484,-41.40625 7.24283,-39.84375 c 9.69642,-53.34128 13.67413,-68.0865 29.966,-111.08276 19.31771,-50.98186 34.76545,-77.79558 69.37743,-120.42325 21.2645,-26.18908 29.16369,-34.50951 53.50922,-56.36264 15.70907,-14.10083 34.89007,-29.89321 42.62444,-35.09417 15.449,-10.38864 37.0553,-22.86131 42.60814,-24.59641 1.95011,-0.60935 9.68449,-3.94851 17.1875,-7.42035 26.7903,-12.39656 46.63583,-18.47963 83.17311,-25.49428 30.95916,-5.94373 38.79374,-6.8742 65.625,-7.79394 54.40927,-1.86507 86.6977,2.47374 129.1803,17.35882 56.8584,19.92208 84.711,34.49859 129.4135,67.72784 23.9764,17.82274 53.168,47.60003 86.9035,88.64728 15.1943,18.48736 32.5605,47.66903 41.6592,70.00261 3.501,8.59375 10.8699,26.17188 16.3753,39.0625 6.0413,14.14574 11.9776,31.34441 14.9736,43.38183 12.9337,51.96599 20.3364,138.41206 16.0208,187.08692 -2.6253,29.61032 -12.6543,74.9031 -23.8725,107.8125 -26.4839,77.6924 -64.9439,137.6864 -123.6135,192.8255 -23.428,22.0182 -37.7734,33.1404 -63.9416,49.5749 -46.3027,29.0795 -117.6738,54.8103 -168.4111,60.7157 -21.32676,2.4822 -69.93398,1.6418 -91.40625,-1.5805 z m 76.91705,-56.2249 c 27.19739,-1.8572 44.1651,-5.4479 74.6455,-15.7964 50.8159,-17.2526 82.182,-35.0238 124.2187,-70.379 25.0389,-21.059 39.1193,-35.8131 60.6434,-63.5447 16.6481,-21.4493 20.3008,-27.3841 35.1005,-57.0312 26.3998,-52.8846 43.2353,-106.82513 46.3874,-148.62408 3.8316,-50.81072 3.6494,-65.00629 -1.3549,-105.56032 -3.8386,-31.10689 -6.0095,-42.82014 -11.5836,-62.5 -14.8912,-52.57431 -48.4834,-117.10876 -78.4864,-150.78125 -26.6884,-29.95239 -64.9663,-63.79846 -87.7813,-77.61794 -28.74,-17.4083 -33.4573,-19.74486 -65.2688,-32.3284 -41.0376,-16.23303 -62.5603,-21.3847 -100.45627,-24.04517 -24.88873,-1.7473 -32.66046,-1.6748 -60.15625,0.56115 -30.77653,2.50273 -32.36531,2.80598 -62.82503,11.99138 -51.87251,15.64261 -90.41797,36.33881 -125.43783,67.35129 -15.91228,14.09142 -52.58606,55.50166 -65.78339,74.27938 -11.6966,16.64244 -33.42359,52.04845 -40.73872,66.38728 -1.93099,3.78506 -4.57196,10.46261 -5.86881,14.83899 -1.29685,4.37637 -5.83633,16.68198 -10.08774,27.34579 -21.15538,53.06411 -28.7464,153.47571 -16.7843,222.0175 4.7293,27.0985 11.28687,48.6861 24.63683,81.1048 27.36354,66.449 61.68506,114.0253 112.72021,156.2523 28.21725,23.3472 38.92405,31.2247 60.15625,44.2597 25.49928,15.6546 38.09516,20.9898 71.4215,30.2518 41.36727,11.4967 75.95617,14.7579 122.68305,11.5671 z"
         id="path12"
         sodipodi:insensitive="true" />
      <path
         style="display:inline;fill:#b9ccd9;fill-opacity:1;stroke:url(#linearGradient21);stroke-width:0;stroke-dasharray:none"
         d="m 921.09375,929.36477 c -6.73076,-2.35277 -14.80934,-8.75835 -16.43356,-13.03035 -0.76764,-2.01904 -3.31497,-4.93823 -5.66075,-6.48707 -2.34578,-1.54886 -65.48262,-33.85543 -140.30412,-71.79238 -74.82149,-37.93695 -138.01384,-70.54406 -140.42744,-72.46024 -7.22885,-5.73903 -9.41441,-10.38981 -9.40564,-20.01479 0.0159,-17.43188 14.31849,-33.01122 28.55315,-31.10195 3.18861,0.42768 46.19858,21.53752 98.57383,48.3813 51.10438,26.1924 113.7143,58.26467 139.13317,71.2717 l 46.21614,23.64915 23.25439,-38.6557 c 12.78993,-21.26062 42.43935,-70.29631 65.88758,-108.96819 41.5828,-68.58011 42.7886,-70.36467 48.9401,-72.42991 10.0565,-3.37632 16.6432,-1.28918 25.8718,8.19793 7.8753,8.09595 10.0201,13.05315 10.0201,23.15874 0,3.30859 -11.7529,23.87637 -41.1828,72.07032 -94.53821,154.81477 -90.61203,148.09574 -90.9942,155.72167 -0.68201,13.60947 -6.397,22.86363 -18.35501,29.72199 -8.4876,4.86793 -15.37594,5.67284 -23.68674,2.76778 z"
         id="path13"
         sodipodi:insensitive="true" />
      <path
         style="display:inline;fill:#ffffff;fill-opacity:1;stroke:url(#linearGradient20);stroke-width:0;stroke-dasharray:none"
         d="M 67.632537,268.55214 C 67.225534,228.70003 66.9589,196.00391 67.040016,195.8941 c 0.08112,-0.1098 42.052524,-0.5265 93.269794,-0.92599 l 93.1223,-0.72634 1.09902,47.53465 c 1.2717,55.00401 1.6822,56.79336 15.13562,65.97392 7.17864,4.89866 8.16377,5.13843 17.90069,4.35685 12.15301,-0.97553 16.34733,-4.02862 21.99909,-16.01344 3.56385,-7.55729 3.68469,-9.09416 3.69946,-47.04754 0.008,-21.57928 0.4624,-42.49725 1.00889,-46.48438 l 0.99364,-7.24933 h 134.16261 134.16262 v 45.78784 45.78785 l 4.41355,6.94653 c 5.92222,9.32105 15.01895,17.06901 20.2502,17.24768 14.41897,0.49248 18.31708,-0.39275 23.52005,-5.34121 11.11691,-10.5731 11.1912,-11.00668 11.1912,-65.30768 v -48.75348 l 59.76563,1.03277 c 32.87109,0.56802 75.05859,1.03376 93.75,1.03498 l 33.98437,0.002 v 71.68382 71.68382 l -108.98437,0.96828 c -59.94141,0.53255 -231.41305,1.40845 -381.04811,1.94645 l -272.063729,0.97817 z"
         id="path15" />
    </g>
  </g>
</svg>
