<?xml version="1.0" encoding="UTF-8" standalone="no"?>
<svg
   version="1.0"
   width="900.000000pt"
   height="900.000000pt"
   viewBox="0 0 900.000000 900.000000"
   preserveAspectRatio="xMidYMid meet"
   id="svg92"
   sodipodi:docname="handyman-png-9-3937882565.svg"
   inkscape:version="1.3 (0e150ed6c4, 2023-07-21)"
   xmlns:inkscape="http://www.inkscape.org/namespaces/inkscape"
   xmlns:sodipodi="http://sodipodi.sourceforge.net/DTD/sodipodi-0.dtd"
   xmlns="http://www.w3.org/2000/svg"
   xmlns:svg="http://www.w3.org/2000/svg">
  <defs
     id="defs92" />
  <sodipodi:namedview
     id="namedview92"
     pagecolor="#ffffff"
     bordercolor="#000000"
     borderopacity="0.25"
     inkscape:showpageshadow="2"
     inkscape:pageopacity="0.0"
     inkscape:pagecheckerboard="0"
     inkscape:deskcolor="#d1d1d1"
     inkscape:document-units="pt"
     inkscape:zoom="0.69416667"
     inkscape:cx="600"
     inkscape:cy="600"
     inkscape:window-width="1920"
     inkscape:window-height="1111"
     inkscape:window-x="-9"
     inkscape:window-y="-9"
     inkscape:window-maximized="1"
     inkscape:current-layer="svg92" />
  <g
     transform="matrix(0.1,0,0,-0.1,-72.388956,793.03721)"
     fill="#000000"
     stroke="none"
     id="g92">
    <path
       d="m 4315,7465 c -5,-2 -23,-6 -38,-10 -38,-8 -24,-24 45,-54 29,-12 74,-33 101,-47 26,-13 52,-24 57,-24 20,0 10,28 -16,45 -14,9 -23,22 -21,29 11,27 -89,74 -128,61 z"
       id="path1" />
    <path
       d="m 4141,7425 c 17,-17 79,-38 79,-26 0,17 -38,41 -65,41 -26,0 -28,-2 -14,-15 z"
       id="path2" />
    <path
       d="m 4250,7370 c 0,-6 7,-10 15,-10 8,0 15,2 15,4 0,2 -7,6 -15,10 -8,3 -15,1 -15,-4 z"
       id="path3" />
    <path
       d="m 4306,7345 c 10,-8 28,-14 39,-14 20,0 20,0 1,14 -11,8 -29,15 -40,15 -20,0 -20,0 0,-15 z"
       id="path4" />
    <path
       d="m 3644,7333 c 3,-10 8,-31 12,-48 4,-16 21,-45 38,-63 32,-35 104,-78 113,-68 3,3 -13,26 -36,51 -33,36 -41,52 -41,82 0,53 -14,72 -39,56 -13,-8 -22,-9 -26,-3 -10,17 -27,11 -21,-7 z"
       id="path5" />
    <path
       d="m 3830,7336 c 0,-7 -13,-19 -30,-26 -39,-16 -38,-38 4,-93 35,-46 86,-135 86,-150 0,-12 -53,1 -114,28 -65,29 -136,41 -136,22 0,-15 84,-77 104,-77 8,0 16,-10 19,-21 5,-17 10,-20 29,-14 50,16 73,11 76,-15 4,-28 29,-60 47,-60 7,0 16,12 20,28 l 7,27 18,-41 c 22,-51 37,-62 54,-38 12,16 14,13 20,-27 20,-123 51,-145 51,-36 1,78 18,107 35,61 7,-16 9,-49 6,-74 l -6,-45 20,23 c 11,13 22,40 26,60 8,44 21,62 43,62 14,-1 14,-2 1,-10 -14,-7 -14,-26 -3,-162 13,-160 16,-189 28,-257 4,-23 3,-41 -2,-41 -17,0 -36,48 -29,74 3,14 3,26 -2,26 -14,0 -50,82 -57,131 -9,59 -21,80 -35,59 -5,-8 -10,-23 -10,-32 0,-10 -5,-18 -11,-18 -6,0 -26,-12 -45,-26 -27,-21 -37,-24 -48,-15 -14,12 -18,11 -73,-17 -28,-15 -53,-15 -53,-2 0,6 -5,10 -11,10 -6,0 -8,-9 -4,-20 5,-16 2,-20 -15,-20 -12,0 -18,5 -15,10 3,6 2,10 -3,10 -9,0 -44,-62 -38,-68 3,-2 121,52 168,78 18,10 48,13 48,6 0,-29 36,-132 52,-148 14,-14 17,-23 9,-31 -28,-28 -7,-88 40,-112 27,-14 32,-14 51,0 28,19 38,19 38,-1 0,-9 7,-28 15,-42 8,-15 24,-61 35,-102 12,-41 33,-99 48,-128 20,-42 23,-55 13,-61 -10,-7 -11,-20 -3,-62 6,-30 13,-83 16,-119 5,-53 4,-60 -5,-37 -6,15 -16,27 -22,27 -7,0 -59,-43 -116,-96 -103,-94 -157,-130 -216,-144 -16,-4 -65,-17 -107,-29 -101,-27 -114,-27 -189,9 -35,16 -95,35 -134,41 -86,14 -140,2 -184,-42 -27,-27 -39,-31 -103,-35 -40,-3 -80,-8 -88,-11 -57,-21 -155,-25 -209,-9 -91,27 -225,5 -254,-41 -4,-7 -23,-33 -42,-58 l -35,-46 29,-37 c 80,-101 131,-240 131,-354 0,-73 -25,-158 -46,-158 -8,0 -14,5 -14,11 0,9 -23,10 -82,5 -103,-9 -90,-9 -172,3 -38,5 -83,16 -100,25 -17,8 -48,18 -68,21 -21,3 -38,10 -38,16 0,6 -13,15 -30,20 -16,6 -28,15 -25,20 15,22 -78,129 -112,129 -21,0 -22,-3 -16,-49 5,-47 4,-51 -25,-69 -29,-17 -30,-19 -15,-35 16,-16 16,-17 -3,-17 -11,0 -36,18 -57,40 -20,22 -40,40 -45,40 -10,0 -32,44 -32,64 0,16 -88,106 -104,106 -6,0 -19,8 -28,18 -26,26 -51,48 -67,57 -11,6 -13,0 -9,-37 9,-78 79,-163 246,-300 42,-34 70,-48 152,-79 71,-25 102,-31 188,-33 56,-2 105,-6 109,-9 3,-4 -1,-17 -10,-31 -16,-23 -15,-24 11,-35 15,-6 39,-13 55,-17 43,-10 32,-24 -20,-24 h -48 l 40,-27 c 36,-25 51,-28 175,-35 126,-7 183,-15 270,-38 135,-35 168,-43 195,-44 21,-1 45,-16 83,-51 44,-41 54,-57 59,-92 8,-58 -4,-72 -146,-187 -66,-53 -123,-101 -126,-107 -9,-13 53,-109 70,-109 8,0 84,59 170,130 87,72 160,130 164,130 3,0 14,-12 23,-28 10,-15 41,-54 69,-87 28,-33 102,-123 165,-200 62,-77 154,-189 204,-250 50,-60 112,-137 138,-170 25,-33 68,-85 96,-115 28,-31 60,-67 71,-80 11,-14 69,-86 129,-160 61,-74 112,-137 116,-140 10,-9 164,-202 222,-280 31,-41 77,-97 102,-124 25,-27 46,-53 46,-56 0,-4 -19,-31 -42,-60 l -41,-52 20,-42 c 32,-66 136,-196 203,-255 l 61,-53 67,32 c 41,20 68,28 70,21 9,-26 94,-121 109,-121 14,0 14,2 1,18 -83,100 -100,124 -91,133 7,7 22,-2 45,-26 l 35,-37 54,27 c 50,26 59,27 144,22 49,-4 108,-12 130,-18 36,-10 60,-9 195,6 123,14 195,41 274,104 39,31 49,35 99,31 15,-1 39,6 52,14 18,12 36,14 64,10 30,-5 50,-1 80,14 24,13 43,17 46,12 9,-15 -4,-48 -20,-52 -10,-2 -12,-8 -5,-17 7,-12 17,-7 49,27 23,23 47,43 53,43 7,1 -4,5 -26,8 l -38,6 31,35 c 17,19 31,39 31,43 0,9 -62,-33 -73,-50 -18,-29 -35,-12 -42,44 -11,83 -7,552 5,593 5,19 10,54 10,77 0,23 13,81 29,129 l 29,87 27,-29 c 15,-16 44,-54 65,-84 21,-30 64,-85 97,-121 49,-54 64,-79 86,-146 37,-112 44,-181 23,-225 -9,-19 -50,-68 -92,-110 -46,-47 -71,-79 -64,-83 16,-10 70,15 70,31 0,8 5,14 11,14 5,0 8,-4 4,-9 -10,-17 12,-21 31,-5 14,11 15,17 7,20 -7,3 -13,14 -13,25 0,14 9,21 30,26 29,5 30,7 14,24 -16,18 -16,19 13,19 19,0 33,6 37,16 9,22 8,24 -9,24 -17,0 -20,16 -5,25 6,3 13,-1 16,-9 3,-9 15,-16 26,-16 17,0 19,2 7,16 -11,13 -9,14 13,9 15,-4 29,-2 32,4 4,6 21,11 38,11 30,0 31,0 13,20 -10,11 -26,22 -36,25 -23,8 -25,42 -4,64 68,71 122,137 118,143 -2,5 -14,8 -26,8 -20,1 -20,2 -6,13 15,11 15,16 3,37 -29,54 -11,78 82,111 70,24 195,50 207,42 5,-3 20,1 34,8 20,11 26,11 33,-1 7,-12 12,-8 20,16 6,16 23,38 39,47 21,12 27,23 26,44 -4,46 -33,155 -44,166 -6,6 -11,18 -11,27 0,8 -12,42 -26,75 -77,178 -97,240 -95,293 1,34 -2,52 -8,48 -6,-4 -8,-13 -5,-20 3,-8 0,-17 -7,-22 -9,-5 -11,4 -6,37 6,48 -18,129 -111,374 -27,72 -59,162 -71,200 -22,71 -75,213 -90,243 -98,197 -104,207 -198,322 -79,96 -80,97 -157,127 -39,15 -135,60 -213,100 -78,39 -152,75 -165,79 -68,21 -250,110 -318,155 -30,20 -116,97 -191,172 -88,87 -155,145 -188,161 -27,14 -53,26 -56,26 -13,0 -3,-66 20,-119 l 24,-59 -23,-80 c -40,-132 -84,-203 -155,-251 -20,-13 -79,-65 -132,-116 -104,-99 -162,-146 -153,-122 8,23 -13,30 -50,17 -33,-10 -34,-13 -29,-53 l 4,-42 -33,40 c -18,22 -68,77 -111,121 -71,74 -77,84 -66,102 10,16 10,26 2,45 -6,13 -9,43 -6,66 5,33 8,39 19,30 11,-9 18,-8 28,0 11,10 20,10 36,1 17,-9 25,-8 39,4 10,9 21,13 26,9 4,-5 4,2 0,15 -5,17 -2,27 10,36 15,11 17,25 13,94 -4,73 -3,82 12,82 10,0 23,7 30,15 7,9 21,13 30,10 12,-4 19,1 23,16 5,17 9,20 19,12 7,-6 23,-14 36,-17 18,-6 22,-3 22,13 0,16 6,21 25,21 14,0 28,-7 31,-15 4,-8 11,-15 18,-15 20,1 95,76 101,103 4,15 11,30 16,33 5,3 9,13 9,23 0,10 7,24 15,31 8,7 15,21 15,32 0,11 11,33 25,50 26,31 32,48 15,48 -5,0 -10,-6 -10,-14 0,-8 -15,-20 -32,-27 -18,-7 -36,-14 -40,-17 -5,-2 -8,8 -8,22 0,38 -16,32 -46,-19 -14,-25 -31,-48 -37,-53 -7,-4 -17,-16 -23,-27 -8,-14 -22,-20 -47,-21 -20,-1 -48,-9 -62,-18 -21,-14 -25,-14 -25,-2 0,12 -28,29 -52,31 -3,0 -10,4 -14,8 -5,4 -16,-2 -25,-14 -23,-31 -66,-20 -71,18 -3,30 -28,45 -28,17 0,-14 -3,-15 -11,-7 -9,9 -9,20 1,43 15,36 30,45 88,55 55,9 105,34 99,49 -3,7 -1,19 3,26 11,17 -23,36 -82,45 -24,3 -58,11 -77,17 -33,10 -33,12 -15,25 10,7 37,14 59,14 134,3 214,1 243,-6 27,-6 31,-5 26,8 -9,24 -35,29 -170,31 -136,2 -159,11 -125,45 12,12 25,21 30,21 9,0 21,24 21,41 0,18 -32,9 -37,-10 -6,-23 -33,-36 -33,-16 0,8 9,20 21,29 15,10 19,20 14,35 -10,33 33,55 95,46 46,-6 50,-5 50,14 0,28 -40,47 -68,32 -15,-8 -27,-7 -49,4 -15,8 -34,15 -40,15 -16,0 -28,44 -17,62 4,7 10,57 14,112 3,60 9,101 16,103 6,2 26,-8 43,-22 45,-38 38,-17 -9,27 -26,25 -45,35 -56,31 -14,-5 -15,-3 -4,18 8,13 20,29 29,36 9,7 11,13 4,13 -6,0 -20,15 -32,32 l -20,33 21,22 c 17,19 19,25 8,38 -20,24 -4,30 48,16 55,-14 482,-14 482,-1 0,5 -8,13 -17,19 -15,8 -16,12 -5,23 11,11 16,10 27,-6 8,-10 12,-22 10,-27 -6,-9 34,-39 54,-39 25,0 40,-34 41,-92 0,-32 5,-58 10,-58 6,0 10,19 10,43 0,23 4,49 9,56 6,9 6,22 0,33 -8,15 -6,18 11,18 14,0 20,7 20,24 0,16 7,26 21,29 16,4 20,11 16,26 -6,24 8,29 17,6 7,-20 26,-18 52,3 29,25 38,56 19,72 -12,10 -16,8 -26,-14 -13,-27 -46,-38 -35,-11 3,8 9,22 12,30 11,26 -26,30 -70,7 -48,-26 -80,-27 -201,-7 -120,20 -408,34 -576,28 l -135,-6 -56,57 c -39,38 -65,56 -82,56 -23,0 -21,-3 25,-47 28,-26 57,-60 65,-75 19,-37 18,-94 -2,-102 -29,-11 -34,-6 -34,29 0,36 -8,43 -28,23 -9,-9 -22,-6 -56,12 -38,19 -48,21 -61,10 -11,-10 -22,-10 -38,-3 -12,6 -35,16 -50,22 -15,6 -30,19 -33,28 -11,36 -20,45 -69,72 -28,14 -57,31 -65,36 -8,5 -23,8 -33,7 -10,-2 -25,2 -33,9 -8,6 -17,9 -20,6 -10,-9 16,-47 32,-47 8,0 12,-5 9,-10 -4,-6 -1,-17 5,-25 13,-16 5,-35 -14,-35 -7,0 -34,23 -60,52 -46,51 -60,86 -31,74 8,-3 15,-1 15,4 0,6 -6,10 -14,10 -7,0 -19,7 -26,15 -16,19 -50,20 -50,1 z m 0,-77 c 0,-6 -4,-7 -10,-4 -5,3 -10,11 -10,16 0,6 5,7 10,4 6,-3 10,-11 10,-16 z m 244,-45 c 4,-11 1,-14 -11,-12 -9,2 -18,9 -21,16 -6,18 25,15 32,-4 z m 1306,-133 c 0,-3 -5,-13 -10,-21 -8,-13 -12,-12 -29,5 l -20,20 29,1 c 17,1 30,-2 30,-5 z m -1070,-75 c 0,-3 -4,-8 -10,-11 -5,-3 -10,-1 -10,4 0,6 5,11 10,11 6,0 10,-2 10,-4 z m -23,-53 c 4,-12 -35,-29 -44,-19 -8,8 18,37 30,33 6,-2 12,-8 14,-14 z m 115,-71 c -3,-46 -7,-55 -29,-63 -14,-5 -27,-8 -29,-7 -1,2 0,23 3,46 5,34 11,46 29,53 13,4 24,14 24,20 0,7 1,10 3,8 2,-2 1,-28 -1,-57 z m 179,-77 c -1,-15 -24,-12 -29,3 -3,9 2,13 12,10 10,-1 17,-7 17,-13 z m 106,-142 c -21,-22 -32,-11 -17,17 9,16 15,19 23,11 8,-8 7,-16 -6,-28 z m 8,-432 c -3,-6 -11,-8 -17,-5 -6,4 -5,9 3,15 16,10 23,4 14,-10 z m 381,-418 c -10,-10 -19,5 -10,18 6,11 8,11 12,0 2,-7 1,-15 -2,-18 z M 2866,5470 c 42,-16 23,-21 -37,-10 -66,13 -95,36 -32,26 23,-3 54,-11 69,-16 z m 1587,-148 c 9,-8 17,-21 17,-29 0,-11 -8,-9 -30,7 -16,12 -30,28 -30,36 0,16 12,12 43,-14 z m 335,-343 c 11,-17 11,-25 -3,-45 -18,-28 -41,-31 -67,-7 -26,23 -22,50 9,67 32,16 44,13 61,-15 z M 3379,4240 c 12,-17 96,-122 187,-233 171,-210 228,-279 604,-736 124,-151 247,-302 274,-335 142,-175 233,-285 263,-319 35,-39 41,-57 20,-57 -13,0 -37,27 -267,311 -220,270 -354,434 -360,439 -3,3 -48,57 -100,121 -454,557 -624,764 -657,797 -12,12 -8,42 6,42 4,0 17,-14 30,-30 z m -189,-37 c 0,-35 -6,-42 -79,-100 -44,-35 -84,-63 -89,-63 -9,0 -22,23 -22,40 0,19 95,122 128,139 55,28 62,26 62,-16 z M 6710,2796 c 0,-2 -8,-10 -17,-17 -16,-13 -17,-12 -4,4 13,16 21,21 21,13 z M 4815,2399 c 22,-28 58,-76 80,-106 l 39,-55 -22,-18 c -13,-11 -22,-29 -22,-45 0,-45 -28,-26 -111,75 -72,88 -94,130 -69,130 14,0 120,-110 120,-125 0,-7 9,-20 21,-31 17,-16 22,-16 29,-4 16,25 12,37 -26,77 -20,21 -40,48 -45,61 -5,14 -20,25 -39,29 -17,3 -32,9 -35,13 -5,8 23,50 33,49 4,0 25,-23 47,-50 z m 78,-38 c 59,-72 80,-112 27,-51 -34,39 -93,120 -87,120 1,0 29,-31 60,-69 z"
       id="path6" />
    <path
       d="m 4122,7259 c 2,-7 10,-15 17,-17 8,-3 12,1 9,9 -2,7 -10,15 -17,17 -8,3 -12,-1 -9,-9 z"
       id="path7" />
    <path
       d="m 3527,7223 c -4,-3 -7,-11 -7,-17 0,-6 5,-5 12,2 6,6 9,14 7,17 -3,3 -9,2 -12,-2 z"
       id="path8" />
    <path
       d="m 3424,7097 c -33,-34 -66,-73 -73,-86 -7,-13 -28,-44 -47,-68 -19,-25 -34,-50 -34,-58 0,-7 -7,-15 -15,-19 -8,-3 -15,-13 -15,-21 0,-9 -4,-14 -9,-10 -11,6 -101,-77 -101,-94 0,-6 11,-13 25,-17 28,-7 55,10 55,35 0,9 16,34 35,56 40,47 45,31 11,-39 -26,-52 -25,-52 28,12 20,24 40,60 46,81 14,52 35,79 51,64 9,-9 7,-20 -10,-48 -11,-20 -21,-41 -21,-46 0,-19 20,2 36,39 34,79 62,127 70,122 5,-3 8,-25 8,-49 -1,-24 1,-39 5,-34 3,5 14,12 24,16 9,3 17,15 17,25 0,37 111,44 147,10 13,-12 26,-18 30,-14 9,8 -113,123 -139,132 -10,3 -18,13 -18,22 -1,20 -23,52 -36,52 -5,0 -36,-28 -70,-63 z m 94,2 c 1,-8 -9,-19 -23,-26 -29,-13 -28,-13 -15,22 10,27 33,30 38,4 z m -115,-112 c -5,-32 -9,-37 -32,-36 h -26 l 23,16 c 12,8 22,23 22,33 0,16 10,33 16,27 2,-2 1,-20 -3,-40 z"
       id="path9" />
    <path
       d="m 5498,6993 c 7,-3 16,-2 19,1 4,3 -2,6 -13,5 -11,0 -14,-3 -6,-6 z"
       id="path10" />
    <path
       d="m 4782,6968 c 6,-18 28,-21 28,-4 0,9 -7,16 -16,16 -9,0 -14,-5 -12,-12 z"
       id="path11" />
    <path
       d="m 3550,6950 c 0,-13 5,-20 13,-17 6,2 12,10 12,17 0,7 -6,15 -12,18 -8,2 -13,-5 -13,-18 z"
       id="path12" />
    <path
       d="m 4857,6923 c -18,-5 -18,-6 -1,-24 17,-19 17,-20 -4,-26 -25,-6 -24,-30 0,-25 11,2 14,-4 10,-23 -3,-20 0,-25 17,-25 14,0 21,-6 21,-20 0,-43 99,-76 160,-54 l 35,12 -32,1 c -45,1 -63,10 -63,32 0,14 7,19 26,19 17,0 28,6 31,20 7,25 20,25 41,1 10,-11 34,-23 55,-27 33,-5 37,-4 37,14 0,32 -52,68 -116,81 -33,6 -74,20 -92,31 -31,19 -82,24 -125,13 z m 111,-104 c -2,-6 -8,-10 -13,-10 -5,0 -11,4 -13,10 -2,6 4,11 13,11 9,0 15,-5 13,-11 z"
       id="path13" />
    <path
       d="m 5228,6896 c -50,-30 -55,-36 -38,-46 11,-7 23,-1 42,17 26,25 28,25 34,7 4,-10 15,-27 26,-37 10,-10 18,-28 19,-40 0,-21 1,-21 8,-2 4,11 5,43 2,70 -5,44 -9,50 -31,52 -14,1 -42,-8 -62,-21 z"
       id="path14" />
    <path
       d="m 3327,6805 c -4,-8 -2,-17 2,-20 5,-2 11,4 14,15 6,23 -8,27 -16,5 z"
       id="path15" />
    <path
       d="m 3400,6804 c 1,-17 37,-57 43,-47 4,6 -5,21 -18,33 -14,13 -25,19 -25,14 z"
       id="path16" />
    <path
       d="m 3494,6735 c 12,-28 26,-33 26,-10 0,8 -9,19 -19,24 -17,10 -18,9 -7,-14 z"
       id="path17" />
    <path
       d="m 3185,6703 c -11,-3 -24,-10 -30,-16 -5,-7 -23,-13 -40,-15 -55,-6 -70,-35 -35,-67 21,-19 18,-38 -5,-29 -22,9 -38,-5 -25,-21 12,-14 6,-35 -9,-35 -4,0 -21,11 -37,25 l -29,25 -17,-23 c -16,-21 -16,-22 2,-25 22,-4 145,-111 173,-151 15,-21 17,-38 13,-86 -9,-98 -23,-129 -101,-227 -85,-106 -100,-142 -22,-54 67,76 256,264 283,283 19,12 33,10 130,-22 60,-19 118,-35 129,-34 14,0 15,2 5,6 -102,33 -316,134 -402,189 -78,51 -104,88 -73,110 13,9 19,28 20,59 2,48 25,90 25,47 0,-39 25,-26 59,31 12,20 19,36 14,36 -4,-1 -17,-3 -28,-6 z"
       id="path18" />
    <path
       d="m 3470,6690 c 0,-5 4,-10 9,-10 6,0 13,5 16,10 3,6 -1,10 -9,10 -9,0 -16,-4 -16,-10 z"
       id="path19" />
    <path
       d="m 5357,6643 c -4,-3 -7,-13 -7,-22 1,-13 3,-13 11,2 11,19 8,33 -4,20 z"
       id="path20" />
    <path
       d="m 3200,6466 c 0,-9 5,-16 10,-16 6,0 10,4 10,9 0,6 -4,13 -10,16 -5,3 -10,-1 -10,-9 z"
       id="path21" />
    <path
       d="m 4780,6276 c 0,-10 9,-16 21,-16 24,0 21,23 -4,28 -10,2 -17,-3 -17,-12 z"
       id="path22" />
    <path
       d="m 5031,6021 c -15,-11 -21,-23 -16,-31 6,-10 10,-9 17,4 5,9 18,16 29,16 12,0 19,5 17,12 -7,19 -21,19 -47,-1 z"
       id="path23" />
    <path
       d="m 5020,5954 c 0,-8 5,-12 10,-9 6,3 10,10 10,16 0,5 -4,9 -10,9 -5,0 -10,-7 -10,-16 z"
       id="path24" />
    <path
       d="m 4790,5930 c -13,-8 -12,-10 3,-10 9,0 17,5 17,10 0,12 -1,12 -20,0 z"
       id="path25" />
    <path
       d="m 2721,5552 c -17,-31 -13,-40 5,-14 9,13 14,26 11,29 -3,2 -10,-4 -16,-15 z"
       id="path26" />
    <path
       d="m 1783,5479 c -7,-7 -13,-17 -13,-21 0,-5 -11,-20 -24,-34 -32,-35 -68,-110 -63,-132 2,-11 7,-3 15,21 6,21 21,49 34,61 47,45 69,78 66,97 -2,16 -5,18 -15,8 z"
       id="path27" />
    <path
       d="m 2545,5295 c -21,-31 -36,-58 -33,-60 2,-2 21,21 42,51 20,31 35,58 33,60 -2,2 -21,-21 -42,-51 z"
       id="path28" />
    <path
       d="m 2468,5183 c -22,-26 -41,-64 -34,-71 7,-6 7,-7 35,42 24,42 23,57 -1,29 z"
       id="path29" />
    <path
       d="m 3398,3865 c -50,-33 -64,-59 -72,-125 -5,-52 -3,-57 28,-94 32,-39 34,-39 104,-40 65,-1 73,1 102,29 35,33 56,91 46,129 -6,24 -11,26 -56,26 -34,0 -56,-6 -69,-17 -10,-10 -37,-33 -60,-52 -39,-33 -51,-51 -32,-51 5,0 22,13 37,29 15,17 32,27 37,24 9,-5 -37,-57 -66,-74 -14,-8 -23,-7 -38,7 -27,24 -24,38 14,67 17,14 45,37 61,51 16,14 37,28 47,31 11,4 19,10 19,15 0,5 9,12 20,15 20,6 27,29 13,38 -5,3 -28,8 -53,11 -37,5 -51,1 -82,-19 z m 52,-229 c 0,-3 -4,-8 -10,-11 -5,-3 -10,-1 -10,4 0,6 5,11 10,11 6,0 10,-2 10,-4 z"
       id="path30" />
    <path
       d="m 3560,3825 c 0,-8 5,-15 10,-15 6,0 10,7 10,15 0,8 -4,15 -10,15 -5,0 -10,-7 -10,-15 z"
       id="path31" />
    <path
       d="m 3250,3791 c 0,-6 4,-13 10,-16 6,-3 7,1 4,9 -7,18 -14,21 -14,7 z"
       id="path32" />
    <path
       d="m 3172,3606 c -6,-50 -21,-194 -32,-321 -12,-126 -28,-288 -36,-360 -17,-157 -37,-480 -38,-626 -1,-104 0,-108 37,-180 53,-104 101,-166 152,-197 34,-20 46,-35 51,-60 3,-18 10,-35 15,-38 5,-3 9,-27 9,-54 0,-58 -4,-60 -123,-67 -67,-5 -90,-10 -96,-22 -13,-25 -30,-110 -36,-181 -5,-69 -5,-68 32,22 16,38 56,81 85,91 11,4 28,-3 45,-17 33,-27 63,-98 44,-104 -26,-9 -94,-91 -122,-149 -31,-62 -31,-63 -15,-104 9,-23 27,-55 40,-73 13,-17 26,-39 29,-48 3,-9 24,-22 46,-28 22,-6 42,-14 45,-19 3,-4 40,-13 83,-20 43,-7 114,-18 158,-26 92,-16 349,-34 445,-32 l 64,2 1,36 c 2,37 -34,96 -42,72 -9,-24 -25,-13 -19,12 4,14 1,33 -6,44 -10,17 -8,23 13,40 13,11 27,20 31,21 12,0 -4,-34 -21,-47 -14,-11 -14,-14 5,-33 18,-18 25,-20 43,-11 11,7 21,18 21,26 0,8 5,15 10,15 11,0 4,-82 -14,-165 -9,-40 -16,-51 -34,-53 -12,-2 -22,-8 -22,-13 0,-5 -4,-9 -10,-9 -5,0 -10,7 -10,16 0,10 -7,14 -22,12 -17,-2 -24,-11 -26,-30 -3,-23 2,-30 25,-39 22,-8 30,-7 39,5 14,20 24,20 24,1 0,-31 -36,-36 -163,-25 -67,6 -151,13 -187,16 -36,3 -83,10 -105,16 -22,6 -53,12 -70,14 -69,7 -114,15 -180,34 -85,23 -323,70 -359,70 -25,0 -35,-13 -17,-24 11,-7 20,-76 9,-76 -4,0 -8,7 -8,16 0,22 -24,12 -29,-12 -1,-10 -10,-27 -18,-36 -14,-16 -14,-18 0,-23 19,-8 17,-79 -2,-98 -12,-10 -13,-9 -7,7 3,10 -1,39 -10,63 -24,61 -44,42 -44,-43 0,-59 2,-64 33,-87 93,-71 298,-133 471,-143 94,-6 104,-5 141,17 46,27 101,65 132,92 33,30 133,67 160,61 20,-5 23,-3 23,25 0,30 -13,41 -24,22 -3,-5 -24,-7 -46,-4 -31,4 -41,2 -46,-11 -7,-17 -34,-22 -34,-6 0,17 -26,11 -44,-9 -10,-11 -15,-25 -11,-31 10,-16 -22,-48 -54,-54 -36,-8 -98,16 -119,45 -31,45 -45,57 -57,52 -9,-3 -5,-12 11,-28 23,-23 35,-73 14,-60 -5,3 -10,13 -10,21 0,8 -7,14 -15,14 -8,0 -15,5 -15,12 0,6 -8,20 -17,31 -10,11 -12,17 -5,13 8,-5 21,-1 33,10 22,20 25,34 7,34 -7,0 -21,14 -30,30 -9,17 -24,30 -31,30 -8,0 -18,7 -21,16 -4,11 -13,14 -30,10 -16,-4 -42,3 -75,20 -28,14 -51,27 -51,30 0,8 84,-8 97,-18 7,-6 19,-8 28,-5 8,4 34,-1 57,-9 24,-9 68,-17 98,-20 30,-2 98,-11 150,-18 52,-8 129,-15 170,-15 63,-1 78,-5 90,-21 13,-18 21,-19 62,-12 25,5 52,5 60,1 7,-5 23,-9 36,-9 12,0 22,-6 22,-13 0,-9 -9,-12 -28,-9 -24,3 -31,-1 -40,-25 -34,-82 -33,-104 6,-109 11,-2 11,1 1,13 -10,12 -10,16 1,23 37,23 47,-17 25,-102 -8,-33 -19,-35 -42,-9 -9,11 -22,17 -29,14 -21,-8 -16,-23 7,-23 12,0 23,-8 26,-20 3,-11 11,-20 18,-20 8,0 11,-8 9,-18 -5,-16 41,-17 910,-19 504,-1 916,1 916,5 0,10 -249,314 -612,747 -9,11 -32,39 -50,62 -27,33 -242,297 -393,481 -16,21 -138,170 -270,332 -133,162 -310,380 -395,484 -85,104 -187,228 -226,276 -140,173 -520,637 -589,721 l -71,85 z M 4390,1450 c 0,-11 -51,-60 -62,-60 -14,0 -8,38 8,54 17,18 54,22 54,6 z m -1044,-56 c -3,-26 -6,-60 -6,-75 0,-31 -17,-39 -26,-14 -8,20 17,135 29,135 6,0 7,-20 3,-46 z m 104,6 c 0,-5 -2,-10 -4,-10 -3,0 -8,5 -11,10 -3,6 -1,10 4,10 6,0 11,-4 11,-10 z m 335,-90 c -3,-5 -10,-10 -16,-10 -5,0 -9,5 -9,10 0,6 7,10 16,10 8,0 12,-4 9,-10 z m 625,-20 c 0,-5 -4,-10 -10,-10 -5,0 -10,5 -10,10 0,6 5,10 10,10 6,0 10,-4 10,-10 z m -980,-50 c 0,-13 -7,-20 -20,-20 -23,0 -26,10 -8,28 18,18 28,15 28,-8 z m 525,2 c -3,-3 -11,0 -18,7 -9,10 -8,11 6,5 10,-3 15,-9 12,-12 z m 42,-8 c -3,-3 -12,-4 -19,-1 -8,3 -5,6 6,6 11,1 17,-2 13,-5 z m 189,-19 c 18,-14 18,-14 -8,-15 -18,0 -28,5 -28,15 0,19 11,19 36,0 z m -590,-32 c -11,-11 -19,6 -11,24 8,17 8,17 12,0 3,-10 2,-21 -1,-24 z m 512,25 c -6,-18 -28,-21 -28,-4 0,9 7,16 16,16 9,0 14,-5 12,-12 z m 139,-20 c -3,-8 -6,-5 -6,6 -1,11 2,17 5,13 3,-3 4,-12 1,-19 z m -82,-58 c 7,-22 26,-25 57,-9 19,10 20,9 13,-7 -4,-11 -11,-37 -14,-59 -5,-33 -10,-41 -31,-43 -14,-2 -31,-9 -38,-14 -7,-6 -14,-9 -16,-7 -1,2 -1,39 2,82 4,75 14,97 27,57 z m -783,-20 c 20,-12 26,-20 17,-20 -9,0 -27,9 -40,20 -31,25 -18,25 23,0 z m 453,-30 c 10,-11 14,-20 9,-20 -5,0 -15,9 -22,20 -7,11 -11,20 -9,20 2,0 12,-9 22,-20 z m 923,5 c 18,-4 30,-10 27,-15 -6,-10 -75,7 -90,22 -7,7 -4,9 10,5 11,-3 35,-8 53,-12 z m -1308,1 c 0,-11 -19,-15 -25,-6 -3,5 1,10 9,10 9,0 16,-2 16,-4 z m 347,-46 c 13,0 14,-3 5,-12 -9,-9 -17,-6 -37,12 -14,13 -25,27 -25,32 0,4 9,-1 20,-12 11,-11 28,-20 37,-20 z m 955,-72 c 49,-10 60,-16 65,-37 3,-13 15,-39 27,-58 l 21,-33 83,6 c 52,4 82,3 82,-4 0,-9 -155,-39 -175,-33 -12,4 -63,2 -270,-10 -22,-2 -181,12 -195,16 -8,2 -31,7 -50,10 -97,16 -177,40 -218,64 -56,33 -61,46 -23,59 27,9 30,8 40,-17 9,-21 24,-30 74,-44 89,-26 345,-56 357,-42 5,6 12,35 16,65 4,30 12,58 18,62 17,11 83,9 148,-4 z m -539,-13 c -3,-13 -30,-18 -51,-10 -14,5 -14,7 -2,16 19,11 56,8 53,-6 z M 4110,829 c 0,-6 -4,-7 -10,-4 -5,3 -10,11 -10,16 0,6 5,7 10,4 6,-3 10,-11 10,-16 z m 15,-162 c 2,-34 0,-56 -4,-51 -5,5 -12,43 -15,84 -5,56 -3,69 4,51 6,-13 12,-51 15,-84 z m 350,76 c 68,-9 362,-8 415,2 19,4 57,9 85,11 44,4 48,3 35,-10 -42,-42 -647,-39 -716,3 -15,9 -5,11 51,7 39,-3 97,-9 130,-13 z m -825,-13 c 0,-5 -4,-10 -10,-10 -5,0 -10,5 -10,10 0,6 5,10 10,10 6,0 10,-4 10,-10 z m 340,0 c 0,-5 -4,-10 -10,-10 -5,0 -10,5 -10,10 0,6 5,10 10,10 6,0 10,-4 10,-10 z m 427,-56 c -3,-3 -12,-4 -19,-1 -8,3 -5,6 6,6 11,1 17,-2 13,-5 z m 203,-24 c 0,-5 -4,-10 -9,-10 -6,0 -13,5 -16,10 -3,6 1,10 9,10 9,0 16,-4 16,-10 z m 65,0 c -3,-5 -10,-10 -16,-10 -5,0 -9,5 -9,10 0,6 7,10 16,10 8,0 12,-4 9,-10 z M 3430,626 c 0,-9 -7,-12 -20,-9 -14,4 -20,0 -20,-12 0,-9 -6,-15 -12,-12 -16,5 -17,32 -1,32 6,0 15,3 19,8 12,12 34,8 34,-7 z m 45,-16 c -3,-5 -10,-10 -16,-10 -5,0 -9,5 -9,10 0,6 7,10 16,10 8,0 12,-4 9,-10 z"
       id="path33" />
    <path
       d="m 4154,1046 c -8,-22 3,-33 18,-18 9,9 9,15 0,24 -9,9 -13,7 -18,-6 z"
       id="path34" />
    <path
       d="m 3280,3663 c 0,-6 8,-17 18,-24 16,-13 16,-13 2,6 -8,11 -16,22 -17,24 -2,2 -3,0 -3,-6 z"
       id="path35" />
    <path
       d="m 3576,3574 c -18,-25 -18,-27 1,-52 26,-36 66,-40 87,-10 21,29 20,51 -2,71 -27,25 -64,20 -86,-9 z"
       id="path36" />
    <path
       d="m 3792,3354 c -66,-56 -89,-99 -90,-166 0,-63 1,-65 120,-210 35,-42 126,-154 203,-249 194,-239 182,-227 246,-245 71,-20 124,-7 181,44 47,43 68,85 68,139 -1,53 -28,105 -102,195 -34,42 -134,164 -220,271 -87,107 -174,207 -194,222 -29,22 -50,29 -103,32 -64,4 -67,3 -109,-33 z"
       id="path37" />
    <path
       d="m 3630,3331 c 0,-6 4,-13 10,-16 6,-3 7,1 4,9 -7,18 -14,21 -14,7 z"
       id="path38" />
    <path
       d="m 3660,3291 c 0,-5 5,-13 10,-16 6,-3 10,-2 10,4 0,5 -4,13 -10,16 -5,3 -10,2 -10,-4 z"
       id="path39" />
    <path
       d="m 6876,2987 c 3,-10 9,-15 12,-12 3,3 0,11 -7,18 -10,9 -11,8 -5,-6 z"
       id="path40" />
    <path
       d="m 7225,2691 c -6,-6 -26,-12 -45,-14 -20,-2 -41,-7 -48,-11 -16,-10 -15,-45 1,-52 20,-7 121,48 125,69 4,18 -18,23 -33,8 z"
       id="path41" />
    <path
       d="m 7100,2453 c 0,-3 7,-15 17,-25 22,-24 8,-36 -17,-13 -18,16 -22,17 -52,1 -61,-30 -91,-61 -83,-86 6,-19 4,-21 -14,-15 -17,5 -21,2 -21,-15 0,-17 -4,-20 -21,-15 -21,7 -22,5 -16,-33 8,-48 -12,-74 -39,-51 -14,12 -19,10 -38,-13 -11,-14 -32,-28 -46,-30 -14,-2 -29,-13 -35,-26 -6,-13 -16,-20 -24,-17 -7,3 -19,1 -25,-4 -6,-5 -35,-14 -64,-20 -29,-6 -63,-18 -76,-26 -13,-8 -33,-14 -46,-13 -12,2 -25,-3 -27,-9 -3,-7 2,-13 11,-13 22,0 20,-19 -1,-27 -10,-4 -31,-17 -46,-30 -16,-13 -32,-23 -37,-23 -16,0 2,38 21,43 22,6 26,37 4,37 -8,0 -15,-7 -15,-16 0,-9 -9,-18 -20,-21 -20,-5 -27,-27 -11,-37 4,-3 7,-42 5,-86 -2,-47 0,-80 6,-80 14,0 94,33 185,76 86,40 219,125 249,158 10,12 22,20 27,19 4,-2 29,16 54,39 25,23 53,42 63,43 9,1 50,23 90,48 40,26 76,47 80,47 4,0 24,17 44,38 38,39 66,92 47,92 -5,0 -12,-7 -15,-15 -4,-8 -12,-15 -19,-15 -20,0 -25,25 -10,47 13,18 11,22 -18,43 -18,13 -36,29 -40,37 -8,14 -27,18 -27,6 z"
       id="path42" />
    <path
       d="m 4390,2396 c 0,-2 8,-10 18,-17 15,-13 16,-12 3,4 -13,16 -21,21 -21,13 z"
       id="path43" />
    <path
       d="m 6371,2344 c 0,-11 3,-14 6,-6 3,7 2,16 -1,19 -3,4 -6,-2 -5,-13 z"
       id="path44" />
    <path
       d="m 4430,2346 c 0,-2 8,-10 18,-17 15,-13 16,-12 3,4 -13,16 -21,21 -21,13 z"
       id="path45" />
    <path
       d="m 4475,2290 c 3,-5 8,-10 11,-10 2,0 4,5 4,10 0,6 -5,10 -11,10 -5,0 -7,-4 -4,-10 z"
       id="path46" />
    <path
       d="m 4510,2251 c 0,-5 7,-15 17,-22 15,-13 15,-12 4,9 -12,23 -21,28 -21,13 z"
       id="path47" />
    <path
       d="m 6119,2219 c -8,-5 -33,-14 -57,-20 -45,-12 -57,-22 -47,-39 5,-8 11,-7 20,0 8,7 23,9 35,5 11,-4 20,-2 20,4 0,6 13,11 30,11 23,0 33,-7 45,-30 18,-35 40,-30 31,6 -7,26 3,31 21,13 15,-15 34,-3 26,16 -3,8 -16,15 -30,15 -13,0 -36,6 -52,14 -18,10 -32,11 -42,5 z"
       id="path48" />
    <path
       d="m 4560,2190 c 6,-11 13,-20 16,-20 2,0 0,9 -6,20 -6,11 -13,20 -16,20 -2,0 0,-9 6,-20 z"
       id="path49" />
    <path
       d="m 5965,2170 c -3,-5 1,-10 9,-10 8,0 18,5 21,10 3,6 -1,10 -9,10 -8,0 -18,-4 -21,-10 z"
       id="path50" />
    <path
       d="m 4600,2143 c 1,-11 50,-70 50,-59 0,4 -11,21 -25,38 -14,16 -25,26 -25,21 z"
       id="path51" />
    <path
       d="m 5790,2110 c 0,-5 4,-10 9,-10 6,0 13,5 16,10 3,6 -1,10 -9,10 -9,0 -16,-4 -16,-10 z"
       id="path52" />
    <path
       d="m 4689,2033 c 18,-24 38,-46 44,-50 17,-10 -28,49 -54,72 -16,14 -13,6 10,-22 z"
       id="path53" />
    <path
       d="m 5170,2055 c 0,-8 5,-15 10,-15 6,0 10,7 10,15 0,8 -4,15 -10,15 -5,0 -10,-7 -10,-15 z"
       id="path54" />
    <path
       d="m 4950,2025 c 13,-14 26,-25 28,-25 3,0 -5,11 -18,25 -13,14 -26,25 -28,25 -3,0 5,-11 18,-25 z"
       id="path55" />
    <path
       d="m 4980,1986 c 0,-2 7,-9 15,-16 13,-11 14,-10 9,4 -5,14 -24,23 -24,12 z"
       id="path56" />
    <path
       d="m 5903,1973 c -20,-7 -15,-23 7,-23 11,0 20,4 20,9 0,13 -12,19 -27,14 z"
       id="path57" />
    <path
       d="m 5167,1955 c 5,-14 63,-52 63,-41 0,3 -4,16 -10,30 -7,18 -17,26 -34,26 -19,0 -24,-4 -19,-15 z"
       id="path58" />
    <path
       d="m 5276,1962 c -9,-15 17,-57 34,-57 9,0 16,-11 18,-27 2,-16 -1,-28 -7,-28 -19,0 -47,-35 -76,-95 -26,-52 -30,-56 -42,-39 -17,23 -17,34 2,34 8,0 15,6 15,14 0,28 -12,46 -32,46 -17,0 -19,-5 -14,-26 6,-22 4,-25 -13,-19 -12,3 -31,-1 -46,-11 -14,-9 -28,-14 -32,-11 -3,4 8,14 26,24 20,12 31,26 31,41 0,13 6,22 15,22 8,0 15,4 15,9 0,19 35,22 48,4 11,-15 14,-16 21,-4 14,22 -4,56 -27,54 -13,-2 -28,9 -43,31 l -23,34 -28,-28 c -32,-33 -36,-55 -11,-69 10,-5 15,-12 12,-16 -4,-3 -24,6 -45,20 -21,14 -44,23 -51,21 -7,-3 -13,1 -13,9 0,27 -26,16 -58,-24 -18,-22 -32,-44 -32,-49 0,-5 -6,-15 -14,-21 -9,-8 -13,-30 -11,-71 2,-50 8,-66 39,-107 19,-26 57,-77 82,-113 26,-36 66,-85 89,-110 23,-25 64,-74 91,-110 28,-36 67,-83 88,-105 20,-22 53,-61 73,-87 36,-47 65,-65 136,-88 24,-7 42,-8 50,-2 7,5 25,12 41,16 67,16 136,121 136,205 0,22 4,31 13,29 13,-5 159,-174 260,-302 221,-281 397,-481 397,-452 0,6 -97,127 -405,507 -250,306 -257,316 -246,324 6,3 44,-34 85,-82 107,-126 132,-153 141,-153 4,0 0,12 -9,26 -10,14 -16,35 -14,47 1,12 -1,27 -5,34 -4,6 -3,14 3,18 5,3 10,-1 10,-9 0,-9 5,-16 10,-16 6,0 10,42 10,105 0,97 -1,105 -17,97 -29,-15 -43,-4 -37,27 9,44 -10,44 -50,1 -39,-42 -69,-52 -65,-22 3,22 -74,102 -98,102 -29,0 -75,49 -69,74 5,23 -18,58 -46,69 -10,3 -18,13 -18,20 0,8 -11,19 -25,25 -14,6 -25,19 -25,27 0,35 -30,63 -75,69 -37,6 -45,12 -56,39 -7,18 -13,37 -13,42 -1,6 -10,15 -21,22 -11,6 -27,24 -35,39 -17,30 -35,40 -44,26 z m -115,-85 c -1,-12 -15,-9 -19,4 -3,6 1,10 8,8 6,-3 11,-8 11,-12 z m -1,-157 c 0,-5 -7,-10 -16,-10 -8,0 -12,5 -9,10 3,6 10,10 16,10 5,0 9,-4 9,-10 z m 122,-136 c -12,-8 -28,-13 -35,-11 -7,3 -1,9 13,15 37,16 47,14 22,-4 z m 410,-197 c -3,-30 1,-47 12,-56 23,-19 20,-50 -6,-72 -30,-24 -53,-25 -43,-1 4,9 9,46 12,82 5,52 16,90 27,90 1,0 0,-19 -2,-43 z"
       id="path59" />
    <path
       d="m 4780,1927 c 0,-11 81,-111 93,-116 6,-2 -8,20 -33,50 -60,74 -60,74 -60,66 z"
       id="path60" />
    <path
       d="m 5706,1921 c -9,-14 42,-51 73,-53 14,-1 37,-3 51,-4 14,-1 33,-3 43,-3 10,-1 17,-9 17,-21 0,-18 30,-43 47,-38 15,3 78,-29 97,-50 28,-32 16,-47 -17,-22 -16,13 -34,19 -44,16 -14,-6 -11,-12 16,-40 18,-19 32,-42 31,-52 -4,-36 0,-43 24,-41 36,3 33,-17 -4,-24 -42,-9 -100,-72 -100,-109 0,-43 18,-46 22,-4 4,43 1,41 143,94 91,34 102,39 63,35 -33,-4 -48,-3 -48,5 0,7 9,14 20,17 13,3 20,14 20,29 0,28 18,41 26,20 3,-9 11,-16 18,-16 6,0 17,-4 25,-9 12,-8 12,-12 2,-25 -12,-14 -11,-16 7,-16 11,0 34,6 52,14 26,10 36,24 51,67 25,72 25,81 -6,73 -20,-5 -25,-2 -25,13 0,27 25,59 34,45 10,-16 26,-15 26,2 0,26 -28,39 -57,28 -16,-5 -37,-13 -47,-16 -18,-6 -18,-7 3,-27 23,-21 21,-50 -4,-76 -16,-15 -75,4 -75,24 0,17 -36,53 -54,53 -8,0 -16,7 -20,15 -3,8 -18,15 -33,15 -46,0 -73,11 -73,30 0,10 7,21 16,24 9,4 14,9 11,13 -4,3 -13,0 -21,-6 -11,-10 -20,-10 -37,-1 -16,9 -28,9 -46,1 -17,-8 -30,-8 -44,0 -12,6 -48,10 -81,10 -34,0 -69,4 -79,10 -11,5 -20,5 -23,0 z m 214,-61 c 0,-5 -4,-10 -10,-10 -5,0 -10,5 -10,10 0,6 5,10 10,10 6,0 10,-4 10,-10 z m 388,-197 c -5,-25 -28,-28 -28,-4 0,12 6,21 16,21 9,0 14,-7 12,-17 z"
       id="path61" />
    <path
       d="m 4710,1910 c 0,-5 5,-10 11,-10 5,0 7,5 4,10 -3,6 -8,10 -11,10 -2,0 -4,-4 -4,-10 z"
       id="path62" />
    <path
       d="m 5850,1705 c 0,-36 89,-138 109,-125 18,11 9,45 -11,45 -20,0 -78,53 -78,72 0,7 -4,13 -10,13 -5,0 -10,-2 -10,-5 z"
       id="path63" />
    <path
       d="m 3182,1547 c -21,-25 -30,-63 -21,-80 13,-23 52,-21 74,3 17,19 18,22 2,55 -17,36 -37,44 -55,22 z"
       id="path64" />
    <path
       d="m 5845,1480 c -3,-5 3,-10 14,-10 12,0 21,5 21,10 0,6 -6,10 -14,10 -8,0 -18,-4 -21,-10 z"
       id="path65" />
    <path
       d="m 6103,1293 c -7,-2 -15,-21 -19,-41 -3,-20 -10,-52 -16,-71 -10,-32 -8,-35 40,-85 70,-72 74,-82 62,-167 -10,-68 -9,-74 12,-106 30,-43 39,-42 34,5 -3,20 -8,88 -11,149 -7,139 -14,162 -49,156 -31,-6 -35,13 -6,22 16,5 20,15 20,56 0,63 -29,98 -67,82 z"
       id="path66" />
    <path
       d="m 2983,1200 c -13,-5 -23,-12 -23,-16 0,-10 44,-43 58,-44 13,0 15,13 6,48 -7,24 -9,25 -41,12 z"
       id="path67" />
    <path
       d="m 5980,1170 c 5,-10 10,-41 10,-67 0,-39 6,-58 31,-91 34,-47 44,-51 59,-23 19,36 10,66 -34,128 -43,59 -89,96 -66,53 z"
       id="path68" />
    <path
       d="m 3098,1123 c 7,-3 16,-2 19,1 4,3 -2,6 -13,5 -11,0 -14,-3 -6,-6 z"
       id="path69" />
    <path
       d="m 2940,1102 c 0,-1 10,-13 23,-26 24,-25 82,-43 267,-82 69,-14 148,-32 175,-40 28,-8 82,-17 120,-20 39,-3 86,-7 105,-10 19,-3 71,-7 115,-10 44,-3 87,-7 95,-11 23,-9 64,-13 78,-8 27,10 -5,39 -44,40 -93,3 -223,18 -274,32 -30,9 -80,19 -110,23 -30,4 -108,22 -173,39 -65,17 -144,32 -175,33 -37,2 -71,10 -98,25 -24,14 -55,22 -73,21 -17,-1 -31,-4 -31,-6 z"
       id="path70" />
    <path
       d="m 5710,1094 c 0,-3 16,-22 35,-42 19,-20 38,-45 41,-54 5,-17 24,-26 24,-12 0,3 -18,26 -40,51 -22,25 -40,50 -40,54 0,5 -4,9 -10,9 -5,0 -10,-3 -10,-6 z"
       id="path71" />
    <path
       d="m 5450,994 c 0,-3 20,-26 44,-52 24,-26 88,-101 141,-167 196,-239 223,-270 230,-263 3,3 -25,41 -62,84 -38,43 -88,104 -113,134 -25,30 -60,70 -77,90 -18,19 -33,38 -33,42 0,4 -6,13 -13,20 -6,7 -32,37 -55,66 -39,46 -62,64 -62,46 z"
       id="path72" />
    <path
       d="m 5548,973 c 6,-10 25,-34 43,-53 18,-19 66,-76 107,-128 41,-51 77,-91 79,-88 6,6 -204,268 -224,279 -12,7 -13,6 -5,-10 z"
       id="path73" />
    <path
       d="m 2910,960 c 0,-5 5,-10 10,-10 6,0 10,5 10,10 0,6 -4,10 -10,10 -5,0 -10,-4 -10,-10 z"
       id="path74" />
    <path
       d="m 5756,905 c -9,-13 -16,-31 -16,-39 0,-17 46,-56 66,-56 22,0 54,38 54,63 0,54 -75,77 -104,32 z m 32,-34 c 3,-8 -1,-12 -9,-9 -7,2 -15,10 -17,17 -3,8 1,12 9,9 7,-2 15,-10 17,-17 z"
       id="path75" />
    <path
       d="m 5899,863 c 12,-24 31,-39 31,-25 0,5 -10,17 -21,28 -22,19 -22,19 -10,-3 z"
       id="path76" />
    <path
       d="m 3425,850 c 3,-5 13,-10 21,-10 8,0 12,5 9,10 -3,6 -13,10 -21,10 -8,0 -12,-4 -9,-10 z"
       id="path77" />
    <path
       d="m 3490,830 c 19,-13 30,-13 30,0 0,6 -10,10 -22,10 -19,0 -20,-2 -8,-10 z"
       id="path78" />
    <path
       d="m 5986,815 c -3,-8 -12,-15 -21,-15 -8,0 -15,-4 -15,-9 0,-16 25,-18 58,-4 28,11 32,16 22,28 -16,19 -36,19 -44,0 z"
       id="path79" />
    <path
       d="m 5869,793 c -61,-69 -67,-135 -19,-201 31,-41 37,-45 98,-57 40,-8 86,9 105,39 13,20 12,25 -15,54 l -29,33 -41,-30 c -53,-39 -61,-32 -14,12 l 36,35 -23,48 c -22,47 -55,94 -67,94 -4,0 -17,-12 -31,-27 z m 19,-202 c -14,-5 -31,15 -23,29 5,8 11,6 20,-7 9,-11 10,-19 3,-22 z"
       id="path80" />
    <path
       d="m 3552,801 c -6,-3 0,-11 12,-17 19,-9 25,-8 34,6 9,15 7,18 -13,18 -12,0 -28,-3 -33,-7 z"
       id="path81" />
    <path
       d="m 6037,776 c -4,-9 5,-19 24,-26 37,-16 43,-10 23,18 -17,25 -39,29 -47,8 z"
       id="path82" />
    <path
       d="m 3520,739 c 0,-5 5,-7 10,-4 6,3 10,8 10,11 0,2 -4,4 -10,4 -5,0 -10,-5 -10,-11 z"
       id="path83" />
    <path
       d="m 3452,724 c 1,-9 9,-19 16,-22 9,-3 13,2 10,14 -1,9 -9,19 -16,22 -9,3 -13,-2 -10,-14 z"
       id="path84" />
    <path
       d="m 3552,714 c 1,-9 9,-19 16,-22 9,-3 13,2 10,14 -1,9 -9,19 -16,22 -9,3 -13,-2 -10,-14 z"
       id="path85" />
    <path
       d="m 2820,684 c 0,-9 11,-30 25,-48 28,-37 31,-47 13,-43 -9,1 -12,-10 -10,-38 2,-22 6,-42 9,-45 2,-3 157,-6 344,-8 l 338,-3 30,30 c 36,37 65,42 31,6 -13,-14 -20,-28 -17,-32 9,-8 84,14 125,38 18,10 39,19 45,19 7,0 21,12 31,27 16,21 17,29 7,45 -7,11 -9,28 -6,38 8,24 -8,33 -46,25 -54,-12 -58,-78 -4,-67 46,8 28,-24 -26,-47 -61,-25 -79,-26 -79,-6 0,20 -22,19 -46,-3 -44,-41 -107,-55 -216,-48 -108,8 -318,56 -380,87 -21,11 -43,19 -50,19 -8,0 -37,15 -66,34 -38,25 -52,31 -52,20 z"
       id="path86" />
    <path
       d="m 3825,671 c -3,-17 -2,-39 4,-50 8,-15 8,-22 -2,-28 -14,-8 -27,-35 -33,-65 -3,-14 3,-18 22,-18 20,0 24,4 19,19 -4,12 0,23 10,28 9,5 17,21 19,36 1,14 9,33 16,42 12,14 10,20 -13,41 -14,13 -28,24 -31,24 -2,0 -7,-13 -11,-29 z"
       id="path87" />
    <path
       d="m 3910,629 c 0,-5 5,-7 10,-4 6,3 10,8 10,11 0,2 -4,4 -10,4 -5,0 -10,-5 -10,-11 z"
       id="path88" />
    <path
       d="m 3650,615 c -7,-9 -10,-18 -7,-21 10,-11 37,5 37,21 0,19 -14,19 -30,0 z"
       id="path89" />
    <path
       d="m 6121,595 c 0,-12 59,-79 64,-73 2,2 -12,21 -30,43 -19,22 -34,36 -34,30 z"
       id="path90" />
    <path
       d="m 3864,556 c -3,-8 -4,-23 -2,-33 5,-25 71,-26 76,0 2,10 -3,17 -13,17 -8,0 -18,7 -21,15 -8,19 -33,19 -40,1 z"
       id="path91" />
    <path
       d="m 3730,520 c 0,-5 5,-10 10,-10 6,0 10,5 10,10 0,6 -4,10 -10,10 -5,0 -10,-4 -10,-10 z"
       id="path92" />
  </g>
</svg>
