<?xml version="1.0" standalone="no"?>
<!DOCTYPE svg PUBLIC "-//W3C//DTD SVG 20010904//EN"
 "http://www.w3.org/TR/2001/REC-SVG-20010904/DTD/svg10.dtd">
<svg version="1.0" xmlns="http://www.w3.org/2000/svg"
 width="650.000000pt" height="620.000000pt" viewBox="0 0 650.000000 620.000000"
 preserveAspectRatio="xMidYMid meet">

<g transform="translate(0.000000,620.000000) scale(0.100000,-0.100000)"
fill="#000000" stroke="none">
<path d="M3861 5601 c-54 -6 -54 -6 -28 -20 15 -8 27 -18 27 -23 0 -4 6 -8 13
-8 7 0 18 -9 24 -20 12 -17 9 -20 -25 -30 -21 -5 -53 -13 -72 -16 l-33 -7 48
-24 c27 -12 52 -23 57 -23 4 0 17 -8 29 -17 73 -60 72 -58 77 -116 3 -38 1
-57 -7 -57 -18 0 -13 -92 6 -120 13 -18 18 -52 21 -143 4 -113 4 -119 -19
-143 -54 -58 -151 -84 -314 -84 -78 0 -98 -4 -150 -29 -74 -35 -104 -67 -144
-153 -18 -36 -38 -69 -46 -72 -8 -3 -15 -11 -15 -18 0 -9 3 -8 10 2 26 40 5
-26 -51 -160 -33 -80 -63 -156 -66 -169 -3 -13 8 -67 26 -125 44 -138 52 -152
82 -148 13 1 62 6 108 10 l84 7 47 53 47 52 37 -81 c29 -63 40 -102 47 -173 9
-85 5 -390 -7 -465 -5 -31 -6 -32 -19 -15 -14 18 -14 18 -15 -3 0 -25 -16 -31
-23 -10 -2 6 -10 -6 -17 -28 -13 -40 -40 -88 -40 -71 0 5 -9 1 -20 -9 -11 -10
-17 -22 -14 -26 3 -5 -5 -13 -18 -18 -13 -5 -42 -27 -65 -50 -23 -23 -46 -41
-51 -41 -6 0 -12 -3 -14 -7 -1 -5 -33 -23 -69 -42 l-66 -34 -2 -56 c-2 -61
-17 -170 -28 -197 -5 -13 -3 -15 13 -6 29 15 174 142 320 279 73 68 134 123
137 123 10 0 26 -89 37 -205 27 -293 74 -534 127 -659 17 -39 30 -98 38 -166
11 -87 22 -126 64 -229 56 -135 82 -250 126 -554 32 -218 36 -358 11 -405 -18
-35 -117 -139 -156 -165 -14 -9 -62 -21 -108 -26 -106 -13 -130 -26 -159 -81
l-24 -45 427 -3 c235 -1 429 -1 431 2 7 6 -35 179 -61 251 -13 39 -42 117 -62
175 -35 97 -38 114 -38 215 -1 91 4 130 29 225 24 96 29 135 29 235 1 110 -3
131 -37 245 -35 121 -58 241 -72 382 -6 59 -4 68 10 68 9 0 14 -4 10 -9 -3 -5
2 -16 10 -24 8 -9 15 -18 15 -21 0 -3 15 -27 34 -53 39 -56 191 -319 205 -356
6 -14 15 -79 20 -145 14 -153 37 -226 107 -337 73 -114 107 -190 134 -296 19
-73 21 -107 19 -259 -2 -127 -8 -197 -21 -255 -11 -44 -18 -90 -16 -103 l3
-22 220 -1 c121 0 226 0 234 0 27 2 7 117 -37 211 -22 47 -57 132 -77 190 -21
58 -52 137 -70 177 -45 98 -54 148 -65 363 -17 312 -19 320 -170 600 -65 120
-135 281 -161 374 -17 57 -22 117 -29 301 -13 348 -40 446 -180 634 -127 171
-158 250 -146 372 11 118 47 203 126 294 113 130 187 198 307 281 228 159 268
210 267 340 -1 91 -39 176 -116 259 l-55 59 -89 -1 c-49 -1 -113 -7 -143 -12
-67 -14 -152 -14 -184 -2 -20 8 -27 21 -36 61 -15 71 -14 150 4 200 19 55 19
89 -2 112 -12 14 -16 35 -14 89 2 67 0 75 -38 139 -22 37 -47 70 -55 73 -60
23 -356 48 -445 38z"/>
<path d="M1805 4424 c-128 -17 -188 -29 -242 -49 -135 -48 -271 -151 -367
-276 l-50 -64 90 86 c103 99 191 161 277 196 51 21 74 24 133 21 62 -3 79 -8
116 -35 26 -19 55 -54 75 -90 33 -60 49 -136 83 -388 7 -49 22 -121 34 -160
26 -82 72 -159 88 -149 6 4 8 3 5 -3 -3 -5 9 -25 28 -43 19 -19 35 -28 35 -22
0 7 -7 15 -16 19 -11 4 -12 8 -4 13 8 5 8 19 0 51 -25 102 -17 411 11 430 5 3
13 26 18 52 5 26 15 55 23 65 8 9 22 38 32 64 10 26 28 56 40 66 13 10 31 32
39 49 19 36 83 106 74 82 -4 -12 -1 -15 12 -12 10 2 18 10 18 17 0 32 -439 95
-552 80z"/>
<path d="M2390 4340 c8 -5 20 -10 25 -10 6 0 3 5 -5 10 -8 5 -19 10 -25 10 -5
0 -3 -5 5 -10z"/>
<path d="M2116 3463 c10 -7 18 -16 17 -18 -7 -13 -2 -25 8 -19 6 3 7 9 3 13
-17 12 -16 34 1 27 9 -3 14 -2 11 3 -3 5 -18 9 -33 9 -26 0 -26 -1 -7 -15z"/>
<path d="M3662 3310 c0 -14 2 -19 5 -12 2 6 2 18 0 25 -3 6 -5 1 -5 -13z"/>
<path d="M3232 2960 c0 -14 2 -19 5 -12 2 6 2 18 0 25 -3 6 -5 1 -5 -13z"/>
</g>
</svg>
