<?xml version="1.0" standalone="no"?>
<!DOCTYPE svg PUBLIC "-//W3C//DTD SVG 20010904//EN"
 "http://www.w3.org/TR/2001/REC-SVG-20010904/DTD/svg10.dtd">
<svg version="1.0" xmlns="http://www.w3.org/2000/svg"
 width="452.000000pt" height="394.000000pt" viewBox="0 0 452.000000 394.000000"
 preserveAspectRatio="xMidYMid meet">

<g transform="translate(0.000000,394.000000) scale(0.100000,-0.100000)"
fill="#000000" stroke="none">
<path d="M2074 3908 c36 -51 38 -58 17 -58 -11 0 -31 4 -45 10 -14 5 -26 7
-26 5 0 -3 15 -25 34 -50 37 -47 41 -64 51 -214 5 -74 12 -117 32 -196 2 -11
7 -41 10 -67 6 -56 0 -67 -72 -112 -125 -80 -265 -224 -265 -271 0 -16 -8 -26
-27 -33 -16 -6 -92 -38 -170 -71 -242 -102 -872 -332 -1333 -487 l-145 -48 67
-7 c90 -10 177 -40 272 -94 209 -119 315 -238 521 -583 93 -156 153 -227 226
-267 46 -25 66 -29 131 -30 l76 -1 51 -74 c27 -41 80 -109 116 -150 108 -121
165 -208 165 -248 0 -29 -9 -43 -61 -92 -34 -32 -91 -74 -127 -93 l-65 -35 58
-17 c67 -19 104 -16 190 13 33 11 87 29 120 39 41 12 61 24 63 36 2 10 -12 56
-32 102 -48 112 -85 250 -96 362 -5 51 -16 108 -24 128 -15 36 -15 36 7 29
114 -35 253 -143 369 -284 43 -52 106 -125 140 -161 84 -88 119 -100 307 -107
l143 -4 37 -77 c51 -108 49 -157 -13 -321 -37 -96 -47 -134 -43 -165 6 -58 48
-206 57 -203 4 2 44 42 90 91 l82 87 -16 148 c-13 118 -14 170 -6 267 5 66 10
128 10 138 0 9 6 17 13 17 34 0 140 -65 210 -128 81 -74 112 -91 130 -73 15
15 25 100 27 226 2 207 43 344 131 432 85 86 163 85 339 -6 179 -91 260 -107
343 -64 39 20 107 83 107 99 0 17 -35 35 -125 64 -133 43 -203 88 -235 151
-61 119 -17 251 98 296 77 29 247 23 392 -15 63 -16 116 -29 117 -28 1 0 -340
288 -757 639 l-758 637 -7 67 c-10 102 -21 136 -57 170 -39 38 -62 47 -189 78
-107 26 -179 59 -227 103 -29 27 -32 35 -32 90 0 36 12 100 30 163 32 111 36
134 20 124 -5 -3 -31 16 -58 43 -33 33 -66 55 -98 65 -53 18 -192 37 -262 37
-44 0 -44 0 -28 -22z m311 -546 c-53 -42 -60 -46 -33 -19 16 15 31 27 35 27 4
0 3 -3 -2 -8z m125 -236 c0 -12 -352 -336 -360 -331 -21 13 -120 240 -120 275
0 11 121 38 220 49 77 9 260 14 260 7z"/>
</g>
</svg>
