<?xml version="1.0" standalone="no"?>
<!DOCTYPE svg PUBLIC "-//W3C//DTD SVG 20010904//EN"
 "http://www.w3.org/TR/2001/REC-SVG-20010904/DTD/svg10.dtd">
<svg version="1.0" xmlns="http://www.w3.org/2000/svg"
 width="440.000000pt" height="360.000000pt" viewBox="0 0 440.000000 360.000000"
 preserveAspectRatio="xMidYMid meet">

<g transform="translate(0.000000,360.000000) scale(0.100000,-0.100000)"
fill="#000000" stroke="none">
<path d="M3107 3375 c11 -22 21 -57 21 -79 2 -53 10 -75 27 -72 24 3 25 10 10
58 -17 58 -39 101 -61 119 -14 12 -14 8 3 -26z"/>
<path d="M2915 3184 c-37 -40 -30 -45 27 -20 61 27 73 46 28 46 -21 0 -39 -9
-55 -26z"/>
<path d="M3038 3183 c7 -3 16 -2 19 1 4 3 -2 6 -13 5 -11 0 -14 -3 -6 -6z"/>
<path d="M3314 3153 c-15 -3 -24 -14 -28 -35 -3 -18 -14 -40 -23 -50 -9 -10
-12 -18 -6 -18 20 0 61 40 67 66 4 14 12 24 19 21 16 -5 66 -80 60 -90 -2 -4
1 -14 7 -22 10 -13 8 -15 -12 -15 -13 0 -35 -11 -47 -24 l-23 -24 41 -7 c23
-4 41 -12 41 -18 0 -7 7 -4 15 6 13 18 14 18 26 -1 7 -11 18 -18 24 -16 6 3
19 -14 28 -36 9 -24 21 -39 27 -35 6 3 8 11 5 16 -4 5 -4 9 -2 9 3 0 14 -16
26 -35 13 -22 28 -35 41 -35 22 0 27 -15 8 -26 -7 -4 -8 -3 -4 4 5 8 0 12 -13
12 -14 0 -19 -5 -15 -15 4 -8 15 -15 26 -15 10 0 16 -4 13 -10 -8 -13 1 -13
24 -1 24 13 47 -22 26 -39 -12 -10 -15 -9 -15 4 0 9 -7 16 -15 16 -11 0 -14
-7 -9 -24 5 -21 -1 -29 -36 -51 -58 -37 -85 -46 -98 -33 -8 8 -31 5 -84 -13
-40 -13 -75 -25 -77 -26 -2 -2 1 -14 7 -27 l11 -25 63 19 c35 10 71 21 80 25
12 5 43 -20 119 -96 56 -56 99 -97 95 -90 -4 7 -30 44 -57 83 -66 96 -67 129
-4 187 37 34 48 40 64 31 30 -15 38 -12 13 6 -12 8 -22 21 -22 29 0 8 -9 19
-21 25 -11 6 -28 25 -39 42 -10 16 -36 49 -57 72 -22 22 -58 66 -80 96 -23 30
-56 72 -74 92 -19 20 -44 51 -57 67 -13 17 -27 30 -30 30 -4 -1 -17 -4 -28 -6z"/>
<path d="M3201 3128 c-5 -13 -21 -34 -35 -47 -24 -23 -26 -23 -26 -5 0 11 5
25 12 32 9 9 5 10 -18 3 -16 -5 -36 -10 -44 -12 -8 -2 -23 -16 -33 -31 -18
-26 -53 -45 -64 -34 -3 3 -19 -2 -35 -10 -16 -8 -33 -12 -38 -9 -6 4 -13 -1
-16 -9 -10 -26 -24 -18 -24 14 0 21 9 39 26 55 15 14 23 25 17 25 -5 0 -20
-11 -32 -24 -23 -25 -42 -26 -466 -39 -27 -1 -58 2 -67 7 -14 6 -18 4 -18 -9
0 -13 -3 -15 -13 -6 -19 15 -28 2 -16 -22 7 -13 7 -17 1 -13 -6 3 -13 2 -16
-3 -7 -11 54 -51 77 -51 10 0 19 -11 23 -27 10 -48 12 -49 13 -10 1 30 6 39
25 47 13 5 26 15 28 22 4 11 8 11 21 0 12 -11 46 -13 137 -10 140 4 147 -1
131 -72 -5 -24 -5 -69 0 -112 10 -82 4 -95 -47 -100 -36 -3 -43 -22 -9 -24 39
-2 43 -4 47 -29 3 -13 1 -22 -3 -19 -15 9 -10 -6 7 -23 14 -15 14 -17 -1 -26
-9 -5 -26 -7 -38 -4 -12 3 -44 1 -72 -3 l-50 -7 70 -3 c96 -3 98 -4 102 -16 2
-6 -13 -15 -34 -20 -49 -12 -55 -37 -11 -53 52 -20 61 -26 64 -43 3 -23 -21
-31 -99 -34 -62 -2 -69 0 -77 20 -5 11 -9 17 -9 11 -1 -5 -9 2 -19 16 -14 21
-20 24 -39 14 -21 -11 -21 -11 -2 -50 10 -22 18 -45 19 -51 0 -14 47 -36 88
-40 18 -2 45 -9 60 -16 23 -11 27 -20 28 -58 1 -24 7 -46 13 -48 6 -2 11 -10
11 -18 0 -8 9 -14 19 -14 40 0 51 -11 51 -52 0 -34 -7 -47 -52 -94 -41 -44
-53 -52 -58 -39 -3 9 -9 16 -13 16 -33 -4 -55 10 -137 83 -86 77 -97 90 -117
147 -20 57 -20 66 -7 97 19 47 18 62 -6 62 -19 0 -43 -19 -156 -122 l-30 -28
7 67 c5 38 8 75 8 84 1 10 21 25 51 37 60 25 81 61 58 102 -8 14 -18 24 -23
23 -6 0 -18 3 -28 8 -13 7 -19 6 -23 -6 -10 -25 -27 -17 -21 11 4 23 -1 29
-42 47 -38 18 -63 21 -151 19 -58 0 -130 3 -161 9 -107 18 -294 27 -399 19
-153 -12 -160 -15 -160 -57 0 -31 -2 -34 -15 -23 -9 7 -17 11 -19 9 -8 -8 6
-59 14 -54 5 3 25 -4 44 -16 20 -12 43 -19 51 -16 20 8 28 -24 19 -78 -3 -25
-2 -45 3 -45 10 0 33 93 33 138 0 26 4 32 21 32 19 0 21 -4 15 -44 -8 -49 -8
-48 65 -60 42 -7 79 20 79 58 0 28 26 42 46 25 8 -6 17 -29 20 -49 6 -39 37
-61 48 -34 4 11 11 10 37 -3 19 -9 54 -15 89 -14 44 1 63 -4 83 -19 14 -11 33
-20 42 -20 12 0 15 -5 10 -21 -9 -27 3 -109 16 -109 5 0 9 6 9 14 0 8 4 17 9
21 6 3 5 -8 0 -27 -22 -70 -26 -97 -17 -106 7 -7 4 -35 -6 -80 -9 -39 -16 -91
-16 -116 0 -26 -4 -46 -10 -46 -12 0 -12 6 4 103 7 43 9 80 4 83 -4 3 -8 0 -8
-5 0 -6 -11 -11 -24 -11 -19 0 -23 4 -19 20 8 31 -12 24 -49 -16 -18 -20 -37
-40 -43 -45 -75 -63 -106 -82 -168 -103 -15 -5 -16 -9 -5 -26 7 -11 16 -20 20
-20 4 0 28 -20 55 -45 43 -41 51 -44 83 -38 19 3 50 12 68 20 38 16 55 9 47
-16 -3 -10 1 -24 10 -31 12 -10 16 -8 25 16 6 15 9 33 6 40 -3 8 0 11 9 8 8
-3 13 -11 12 -16 -1 -6 12 -21 30 -33 25 -17 29 -25 20 -34 -9 -9 -8 -11 6 -5
17 6 86 -18 147 -52 82 -46 154 -76 196 -83 52 -8 94 -29 94 -47 0 -6 11 -16
24 -22 48 -21 66 -73 70 -191 0 -25 6 -46 13 -48 9 -3 10 -10 3 -24 -8 -14 -7
-19 1 -19 7 0 9 -3 6 -7 -4 -3 -1 -13 7 -22 19 -23 27 -64 15 -81 -9 -13 -10
-13 -6 2 9 27 -25 32 -45 6 -10 -13 -18 -29 -18 -37 0 -8 -6 -11 -16 -7 -12 5
-41 -18 -101 -79 -47 -48 -87 -84 -90 -82 -7 8 147 165 184 188 17 11 39 34
48 51 19 39 19 43 -1 23 -21 -21 -31 -11 -13 12 8 10 -25 -17 -73 -60 -47 -43
-98 -94 -113 -113 -15 -19 -29 -33 -32 -30 -7 7 91 181 123 219 13 15 21 34
18 41 -3 8 8 23 24 35 36 25 39 26 45 4 3 -12 5 -10 6 7 3 71 -55 46 -115 -49
-22 -34 -54 -85 -73 -114 -18 -29 -38 -65 -44 -82 -12 -36 -39 -74 -51 -75 -4
0 -6 7 -2 15 4 13 2 14 -14 5 -17 -9 -20 -8 -20 14 0 14 4 28 10 31 5 3 15 16
21 28 l11 22 -21 -22 c-12 -13 -25 -23 -30 -23 -4 0 -6 -14 -3 -30 3 -22 0
-30 -11 -30 -8 0 -18 -6 -20 -12 -3 -7 -6 1 -6 18 -1 39 17 94 31 94 6 0 17 8
25 18 21 27 65 113 60 119 -3 2 -18 -19 -33 -47 -16 -29 -30 -48 -31 -43 -4
11 48 145 79 207 13 25 16 42 10 48 -11 11 -48 -46 -77 -117 -10 -22 -29 -67
-45 -100 -15 -33 -31 -71 -35 -85 -13 -44 -83 -188 -94 -195 -6 -3 -9 -10 -6
-15 3 -5 1 -19 -5 -31 -11 -19 -10 -20 9 -14 34 11 59 -2 56 -30 -3 -26 -15
-42 -59 -83 -16 -15 -38 -35 -48 -44 -14 -14 -18 -15 -18 -4 0 23 -40 6 -51
-20 -4 -13 -11 -24 -14 -24 -4 0 -3 5 1 12 5 8 2 9 -12 4 -10 -5 -25 -9 -31
-9 -19 -1 -16 -7 9 -16 19 -7 15 -10 -30 -20 -29 -7 -52 -18 -52 -24 0 -8 -3
-7 -9 1 -7 11 -9 11 -14 -2 -4 -9 -11 -16 -17 -16 -6 0 -8 6 -4 13 4 6 -2 4
-14 -6 -11 -11 -26 -16 -31 -12 -6 3 -11 1 -11 -4 0 -6 -5 -11 -11 -11 -5 0
-7 5 -4 10 10 17 -7 11 -22 -7 -8 -10 -12 -12 -8 -5 10 19 -13 14 -34 -7 -12
-12 -23 -15 -28 -10 -6 6 -21 5 -39 -3 -35 -14 -93 -18 -100 -6 -3 4 2 11 10
14 9 3 16 11 16 17 0 5 -9 2 -20 -8 -20 -18 -22 -35 -5 -47 6 -5 3 -8 -6 -8
-9 0 -20 -7 -23 -16 -3 -8 -11 -12 -17 -8 -7 4 -7 9 -2 13 13 8 25 44 13 36
-6 -3 -10 -2 -10 3 0 5 -14 9 -30 9 -20 0 -26 -3 -18 -9 10 -6 7 -10 -9 -14
-13 -4 -23 -11 -23 -18 0 -6 -7 -2 -15 8 -8 10 -12 24 -8 30 3 6 3 8 -2 4 -10
-9 -5 -17 -198 312 -82 140 -156 261 -165 267 -47 37 -37 -4 23 -97 23 -36 61
-96 85 -135 24 -38 92 -145 152 -237 59 -92 108 -170 108 -172 0 -3 -15 0 -32
5 -18 5 -57 9 -86 9 -46 0 -55 -3 -59 -21 -3 -11 -16 -25 -29 -30 -17 -6 -24
-17 -25 -36 l-1 -28 -7 29 c-5 27 -7 28 -20 12 -10 -12 -22 -15 -43 -11 -17 4
-28 2 -28 -4 0 -6 -6 -8 -14 -5 -8 3 -17 1 -21 -5 -4 -7 4 -11 19 -11 18 0 24
-4 20 -14 -4 -10 6 -18 34 -26 33 -11 38 -16 34 -36 -2 -13 -8 -22 -12 -19 -5
3 -11 -1 -13 -7 -4 -10 -6 -10 -6 0 -1 6 -13 12 -28 12 -27 0 -71 20 -46 20 7
0 10 7 7 15 -9 21 -24 19 -24 -4 0 -16 -11 -22 -57 -31 -77 -16 -158 -44 -272
-93 -90 -39 -94 -40 -121 -24 -34 20 -40 20 -63 3 -16 -12 -17 -18 -6 -38 6
-13 13 -25 15 -27 1 -2 17 7 34 19 17 12 32 21 34 19 2 -2 21 -32 44 -65 28
-42 50 -64 69 -69 50 -13 587 -15 595 -2 6 9 8 9 8 0 0 -7 5 -13 10 -13 6 0
10 8 10 17 0 15 2 14 15 -3 10 -13 14 -14 15 -5 0 11 3 11 15 1 18 -15 49 -5
40 12 -4 7 1 4 9 -6 16 -20 16 -20 31 0 13 16 14 16 9 2 -6 -17 34 -18 741
-18 495 0 744 3 740 10 -3 6 1 10 9 10 9 0 16 -5 16 -10 0 -7 103 -10 300 -10
165 1 298 5 295 9 -2 5 5 11 16 14 15 4 19 2 15 -9 -4 -10 2 -14 22 -14 l28 0
-7 63 c-10 93 -12 96 -77 99 -54 3 -57 4 -54 28 6 51 13 70 27 70 18 0 81 77
101 126 23 54 15 214 -32 677 l-16 157 44 53 c24 28 58 73 75 98 l30 46 -78
62 c-89 69 -97 91 -51 133 32 30 192 69 287 69 62 1 102 15 132 48 10 11 41
27 68 36 135 45 219 105 283 203 19 29 17 103 -3 142 -30 58 -244 294 -319
353 -23 18 0 -12 54 -69 152 -160 188 -206 214 -276 24 -64 24 -65 6 -93 -27
-41 -128 -135 -145 -135 -9 0 -15 10 -15 25 0 14 -4 25 -8 25 -12 0 -42 -34
-42 -46 0 -13 -48 -41 -102 -60 -54 -19 -198 -20 -210 -2 -4 7 -8 38 -8 68 0
57 21 116 61 171 l21 30 -27 39 c-32 46 -52 52 -162 45 -51 -3 -84 -1 -88 5
-4 6 -21 8 -41 4 -27 -5 -39 -1 -66 21 -29 25 -38 27 -91 22 -32 -3 -69 -12
-82 -21 -30 -20 -65 -20 -112 -1 -19 8 -44 15 -54 15 -10 0 -50 27 -88 60 -39
33 -75 60 -82 60 -7 0 -9 8 -5 23 4 12 9 36 12 52 3 17 17 66 30 111 23 75 27
81 49 77 30 -6 53 28 64 96 4 28 10 54 13 56 3 3 30 -6 61 -20 48 -21 55 -22
50 -7 -10 27 -35 52 -52 52 -9 0 -27 7 -39 16 -15 10 -32 14 -49 9 -18 -4 -29
-1 -38 11 -10 15 -13 12 -18 -22 -4 -22 -16 -57 -27 -79 l-20 -40 4 45 c18
181 18 181 32 163 13 -17 14 -16 21 7 6 23 8 21 19 -20 l12 -45 7 34 c5 20 15
36 27 38 10 3 18 9 18 14 0 5 9 9 20 9 10 0 24 9 30 21 6 11 19 19 28 17 18
-2 92 41 92 55 0 12 -35 8 -73 -8 -56 -23 -57 9 -2 73 l20 23 -25 19 c-32 25
-39 25 -49 -2z m-184 -194 c-3 -3 -12 -4 -19 -1 -8 3 -5 6 6 6 11 1 17 -2 13
-5z m-57 -44 c0 -11 -7 -20 -15 -20 -8 0 -15 9 -15 20 0 11 7 20 15 20 8 0 15
-9 15 -20z m-1390 -450 c0 -5 -4 -10 -10 -10 -5 0 -10 5 -10 10 0 6 5 10 10
10 6 0 10 -4 10 -10z m275 0 c3 -5 -1 -10 -9 -10 -9 0 -16 5 -16 10 0 6 4 10
9 10 6 0 13 -4 16 -10z m295 -190 c0 -5 -5 -10 -11 -10 -5 0 -7 5 -4 10 3 6 8
10 11 10 2 0 4 -4 4 -10z m-9 -43 c-10 -9 -11 -8 -5 6 3 10 9 15 12 12 3 -3 0
-11 -7 -18z m-26 -17 c3 -5 1 -10 -4 -10 -6 0 -11 5 -11 10 0 6 2 10 4 10 3 0
8 -4 11 -10z m665 -306 c0 -19 -28 -30 -42 -16 -8 8 -8 15 1 26 14 17 41 10
41 -10z m723 -386 c-35 -46 -674 -819 -696 -843 -74 -79 10 32 194 255 111
135 266 325 346 423 79 97 149 177 155 177 7 0 7 -4 1 -12z m143 -32 c60 -60
40 -86 -26 -33 -32 24 -43 44 -34 58 10 16 25 10 60 -25z m-59 -27 l62 -50
-21 -35 c-11 -19 -29 -39 -39 -45 -11 -5 -19 -20 -19 -32 0 -12 -4 -29 -10
-37 -5 -9 -5 -19 2 -27 13 -16 44 24 -372 -482 -372 -454 -449 -540 -357 -401
l30 45 -38 -35 -37 -35 37 60 38 60 -34 -30 c-30 -28 -32 -28 -18 -5 18 28 14
104 -4 93 -6 -3 1 15 16 41 15 27 21 43 13 37 -14 -11 -21 -6 -41 28 -5 9 -4
12 3 7 7 -4 12 -1 12 9 0 13 57 105 65 105 1 0 2 -18 2 -41 0 -73 77 -125 142
-96 17 7 85 80 160 172 l132 160 -4 49 c-3 39 -11 55 -31 73 -33 28 -90 31
-126 6 -24 -16 -25 -16 -9 3 9 10 76 93 149 184 177 219 220 270 228 270 4 0
35 -23 69 -51z m-971 -375 c-30 -21 -45 -16 -16 6 14 10 27 16 30 13 3 -2 -4
-11 -14 -19z m15 -47 c-17 -17 -24 -1 -10 25 12 21 14 21 17 4 2 -10 -1 -23
-7 -29z m72 28 c-3 -9 -8 -14 -10 -11 -3 3 -2 9 2 15 9 16 15 13 8 -4z m-113
-16 c12 -9 12 -10 -4 -5 -13 5 -17 2 -12 -9 3 -10 -5 -20 -26 -31 -22 -12 -27
-18 -18 -24 16 -10 40 -2 37 12 -1 6 4 13 12 16 10 3 11 0 5 -9 -7 -12 -5 -12
9 0 10 8 17 9 17 3 0 -6 -12 -20 -27 -31 -58 -43 -83 -78 -46 -64 11 4 14 3 9
-5 -25 -41 119 51 152 96 29 40 44 41 31 3 -10 -30 -53 -59 -204 -142 -33 -18
-66 -39 -73 -46 -8 -7 -17 -11 -22 -8 -5 3 -20 1 -34 -5 l-26 -10 15 29 c11
23 12 31 2 35 -9 4 -9 7 -1 11 7 3 10 15 7 25 -3 11 -1 20 5 20 11 0 104 82
145 128 23 25 26 26 47 11z m65 -48 c-3 -6 -11 -11 -17 -11 -6 0 -6 6 2 15 14
17 26 13 15 -4z m-300 -10 c-3 -6 -11 -11 -17 -11 -6 0 -6 6 2 15 14 17 26 13
15 -4z m190 -201 c-7 -23 -9 -23 34 -10 19 5 52 12 75 16 22 3 44 8 48 10 3 2
9 0 13 -6 3 -6 -15 -19 -42 -30 -26 -11 -61 -27 -78 -36 -16 -9 -60 -32 -97
-50 -37 -19 -74 -41 -82 -49 -13 -14 -15 -10 -12 30 1 25 -1 45 -5 45 -4 0 -9
8 -11 18 -3 15 35 42 67 47 15 3 48 15 65 25 24 14 32 11 25 -10z m40 -126
c-9 -14 -14 -28 -11 -32 3 -3 6 -1 6 5 0 11 49 27 57 19 6 -6 -44 -61 -57 -62
-6 -1 -17 -2 -26 -3 -8 0 -12 -6 -9 -12 5 -7 33 -8 84 -4 42 3 87 2 101 -3
l25 -10 -28 -11 c-16 -6 -44 -11 -64 -11 -33 0 -64 -8 -190 -50 -29 -10 -53
-16 -53 -13 0 22 26 42 62 48 24 3 57 9 73 12 56 11 -3 22 -83 16 -64 -5 -72
-4 -66 11 3 9 10 16 16 16 5 0 8 8 6 17 -2 11 11 25 37 39 52 28 100 40 89 22
-4 -7 3 -3 15 10 29 30 37 28 16 -4z m115 -30 c0 -8 -5 -12 -10 -9 -6 4 -8 11
-5 16 9 14 15 11 15 -7z m-59 -25 c-12 -12 -25 -18 -29 -14 -4 3 4 15 18 25
32 24 40 16 11 -11z m-957 -63 c-3 -8 -16 -16 -30 -19 -31 -6 -30 -1 4 17 34
19 32 19 26 2z m-166 -18 c-3 -7 -14 -14 -26 -16 -26 -4 -29 -17 -6 -26 9 -4
15 -9 12 -12 -3 -2 -18 0 -33 6 l-28 11 23 24 c24 26 65 35 58 13z m96 -6 c3
-5 -1 -9 -9 -9 -8 0 -12 4 -9 9 3 4 7 8 9 8 2 0 6 -4 9 -8z m56 -16 c0 -2 -7
-7 -16 -10 -8 -3 -12 -2 -9 4 6 10 25 14 25 6z m1015 -6 c-3 -5 -26 -10 -49
-10 -41 0 -130 -14 -170 -26 -11 -4 -16 -2 -12 4 7 11 122 32 219 41 10 0 15
-3 12 -9z m-1055 -22 c0 -7 -11 -13 -25 -13 -14 0 -25 1 -25 3 0 2 36 19 48
21 1 1 2 -5 2 -11z m-170 -31 c0 -6 12 -22 27 -34 14 -13 22 -23 16 -23 -5 0
-23 11 -39 25 -16 14 -25 25 -21 25 4 0 2 10 -4 23 -11 20 -11 21 4 8 10 -7
17 -18 17 -24z m90 21 c-1 -35 -49 -49 -72 -21 -11 14 -10 16 10 11 15 -4 25
-2 29 8 6 17 33 19 33 2z m-228 -20 c-4 -16 -7 -18 -10 -8 -3 8 -10 18 -16 22
-6 5 -2 8 11 8 17 0 20 -4 15 -22z m1396 15 c-10 -2 -28 -2 -40 0 -13 2 -5 4
17 4 22 1 32 -1 23 -4z m-1438 -19 c0 -8 -4 -12 -10 -9 -5 3 -10 10 -10 16 0
5 5 9 10 9 6 0 10 -7 10 -16z m110 0 c0 -8 -4 -12 -10 -9 -5 3 -10 10 -10 16
0 5 5 9 10 9 6 0 10 -7 10 -16z m1260 13 c-9 -8 -230 -16 -226 -8 3 4 56 9
118 10 62 1 110 0 108 -2z m-1295 -27 c3 -5 1 -10 -4 -10 -6 0 -11 5 -11 10 0
6 2 10 4 10 3 0 8 -4 11 -10z m240 -16 c14 -9 36 -14 50 -12 13 3 22 2 20 -3
-3 -4 1 -14 9 -22 18 -17 9 -32 -10 -16 -9 7 -14 5 -19 -11 -5 -15 -12 -19
-26 -15 -11 4 -19 2 -19 -4 0 -6 -4 -11 -10 -11 -18 0 -11 18 10 25 32 10 24
28 -10 23 -19 -3 -29 -1 -27 6 4 12 -21 41 -29 33 -3 -3 0 -14 7 -25 10 -16
10 -23 -3 -36 -12 -12 -18 -13 -21 -3 -4 9 -7 9 -18 0 -7 -7 -20 -13 -28 -13
-11 0 -10 4 5 18 10 10 26 17 35 15 13 -4 15 1 11 22 -8 43 29 58 73 29z m825
1 c0 -8 -4 -15 -10 -15 -5 0 -7 7 -4 15 4 8 8 15 10 15 2 0 4 -7 4 -15z m130
5 c-33 -11 -118 -12 -103 -2 7 4 38 8 70 9 41 0 51 -2 33 -7z m57 4 c-3 -3
-12 -4 -19 -1 -8 3 -5 6 6 6 11 1 17 -2 13 -5z m-1227 -14 c0 -5 -5 -10 -11
-10 -5 0 -7 5 -4 10 3 6 8 10 11 10 2 0 4 -4 4 -10z m267 4 c-3 -3 -12 -4 -19
-1 -8 3 -5 6 6 6 11 1 17 -2 13 -5z m1088 -4 c-3 -5 -18 -10 -33 -10 -21 0
-24 2 -12 10 20 13 53 13 45 0z m-1455 -10 c0 -5 -2 -10 -4 -10 -3 0 -8 5 -11
10 -3 6 -1 10 4 10 6 0 11 -4 11 -10z m1365 -7 c-95 -16 -146 -29 -177 -45
-21 -10 -38 -14 -38 -8 0 6 12 16 28 23 15 6 32 17 37 24 6 7 28 13 50 15 46
3 130 -4 100 -9z m-1410 -23 c3 -5 1 -10 -4 -10 -6 0 -11 5 -11 10 0 6 2 10 4
10 3 0 8 -4 11 -10z m95 -12 c0 -13 -23 -5 -28 10 -2 7 2 10 12 6 9 -3 16 -11
16 -16z m100 7 c0 -8 -2 -15 -4 -15 -2 0 -6 7 -10 15 -3 8 -1 15 4 15 6 0 10
-7 10 -15z m328 -15 c17 -11 32 -24 32 -30 0 -15 -11 -12 -26 8 -13 15 -13 14
-5 -8 5 -14 16 -24 25 -24 23 2 20 -13 -4 -21 -11 -4 -18 -10 -15 -14 2 -5 -2
-17 -10 -27 -13 -18 -14 -17 -9 10 4 26 3 28 -11 16 -20 -16 -20 -6 1 14 19
20 10 52 -16 59 -18 5 -35 -17 -25 -33 2 -4 -7 -7 -22 -7 l-26 0 24 18 c13 10
21 19 17 19 -9 0 23 40 32 40 3 0 20 -9 38 -20z m892 9 c-19 -6 -71 -21 -116
-34 -89 -28 -94 -29 -94 -17 0 17 158 60 220 60 20 0 17 -2 -10 -9z m-1395
-29 c3 -5 1 -10 -4 -10 -6 0 -11 5 -11 10 0 6 2 10 4 10 3 0 8 -4 11 -10z
m296 -33 c-10 -9 -11 -8 -5 6 3 10 9 15 12 12 3 -3 0 -11 -7 -18z m-151 -22
c0 -12 -19 -12 -23 0 -4 9 -1 12 9 8 7 -3 14 -7 14 -8z m180 5 c0 -5 -7 -10
-16 -10 -8 0 -12 5 -9 10 3 6 10 10 16 10 5 0 9 -4 9 -10z m-266 -16 c3 -8 2
-12 -4 -9 -6 3 -10 10 -10 16 0 14 7 11 14 -7z m1278 3 c9 -1 15 -4 13 -7 -2
-4 10 -23 27 -44 16 -20 28 -39 25 -42 -3 -3 -10 4 -17 15 -6 12 -18 21 -27
21 -13 0 -14 -3 -5 -12 7 -7 12 -18 12 -25 0 -7 -16 4 -36 25 -21 22 -29 27
-20 12 17 -26 22 -55 7 -46 -4 3 -16 -1 -26 -8 -17 -12 -99 -13 -150 -1 -11 2
-27 0 -34 -5 -9 -5 -22 -4 -34 5 -15 11 -25 11 -45 2 -18 -8 -26 -9 -29 -1 -2
6 -9 19 -16 28 -12 16 -16 16 -57 2 -61 -21 -114 -21 -106 0 5 13 1 14 -22 9
-21 -4 -33 -1 -47 15 -10 11 -16 22 -13 25 3 3 43 -2 89 -11 120 -23 241 -15
350 25 56 20 94 28 114 24 17 -3 38 -6 47 -6z m-1177 -18 c-6 -29 -15 -37 -15
-12 0 17 8 33 16 33 2 0 1 -10 -1 -21z m109 -23 c-5 -30 -12 -31 -20 -2 -3 14
-10 26 -15 26 -5 0 -9 4 -9 9 0 5 11 4 24 -2 16 -8 23 -18 20 -31z m-349 14
c33 -10 54 -19 48 -19 -7 -1 -13 -8 -13 -16 0 -21 -6 -19 -48 12 -70 51 -70
50 13 23z m623 -5 c-3 -3 -9 2 -12 12 -6 14 -5 15 5 6 7 -7 10 -15 7 -18z
m-414 -6 c-3 -5 -10 -7 -15 -3 -5 3 -7 10 -3 15 3 5 10 7 15 3 5 -3 7 -10 3
-15z m104 -8 c3 -10 -1 -12 -19 -8 -13 4 -30 7 -37 7 -7 0 -11 4 -8 8 8 13 59
8 64 -7z m-193 -11 c3 -6 -4 -10 -17 -10 -18 0 -20 2 -8 10 19 12 18 12 25 0z
m-10 -30 c3 -6 -1 -7 -9 -4 -18 7 -21 14 -7 14 6 0 13 -4 16 -10z m107 -6 c12
-7 4 -9 -33 -9 -47 0 -63 8 -36 18 17 6 49 2 69 -9z m142 1 c-4 -8 -10 -12
-15 -9 -14 8 -10 24 6 24 9 0 12 -6 9 -15z m-306 -15 c22 -11 45 -20 50 -20 6
0 12 -7 15 -14 4 -11 1 -13 -10 -9 -12 5 -14 3 -8 -7 5 -8 3 -11 -6 -8 -8 3
-13 12 -11 22 4 23 -15 20 -23 -5 l-7 -21 -24 23 c-13 12 -24 31 -24 41 0 22
-2 22 48 -2z m246 -9 c3 -4 -6 -20 -20 -37 l-24 -29 10 29 c10 27 9 28 -15 22
-15 -4 -25 -2 -25 4 0 6 4 9 9 5 5 -3 12 -2 15 3 6 10 44 13 50 3z m328 -23
c-7 -7 -12 -8 -12 -2 0 14 12 26 19 19 2 -3 -1 -11 -7 -17z m1798 -13 c7 -8 9
-16 4 -16 -5 -1 -14 -2 -21 -3 -7 0 -19 -10 -27 -21 -15 -19 -15 -19 -16 -1 0
19 26 56 40 56 4 0 13 -7 20 -15z m-2180 -9 c0 -3 -4 -8 -10 -11 -5 -3 -10 -1
-10 4 0 6 5 11 10 11 6 0 10 -2 10 -4z m64 -12 c3 -8 2 -12 -4 -9 -6 3 -10 10
-10 16 0 14 7 11 14 -7z m36 1 c-7 -9 -15 -13 -19 -10 -3 3 1 10 9 15 21 14
24 12 10 -5z m-170 -7 c0 -5 -7 -16 -15 -24 -13 -14 -15 -14 -15 0 0 9 -5 16
-11 16 -5 0 -7 -5 -3 -12 4 -7 3 -8 -4 -4 -24 14 -13 35 18 34 17 -1 30 -5 30
-10z m33 -3 c-3 -9 -8 -14 -10 -11 -3 3 -2 9 2 15 9 16 15 13 8 -4z m372 5 c3
-5 1 -10 -4 -10 -6 0 -11 5 -11 10 0 6 2 10 4 10 3 0 8 -4 11 -10z m-455 -58
c0 -3 -8 3 -19 14 -10 10 -16 25 -13 32 3 8 10 3 18 -14 8 -14 14 -29 14 -32z"/>
<path d="M3393 1310 c-13 -5 -23 -15 -22 -22 0 -10 2 -10 6 -1 3 9 25 -2 64
-33 l59 -45 0 36 c0 29 -6 39 -32 55 -36 22 -43 23 -75 10z"/>
<path d="M3361 1261 c-19 -12 -5 -67 22 -86 28 -19 68 -19 93 1 10 8 13 13 6
9 -7 -4 -16 3 -21 17 -17 43 -72 76 -100 59z"/>
<path d="M3316 1144 c-7 -19 10 -44 30 -44 16 0 33 30 27 48 -7 18 -50 15 -57
-4z"/>
<path d="M2510 730 c0 -5 5 -10 10 -10 6 0 10 5 10 10 0 6 -4 10 -10 10 -5 0
-10 -4 -10 -10z"/>
<path d="M2255 2923 c19 -48 27 -85 35 -163 12 -125 34 -220 51 -220 14 0 11
66 -5 79 -9 8 -15 42 -18 109 -3 78 -9 108 -30 155 -15 31 -30 57 -34 57 -3 0
-3 -8 1 -17z"/>
<path d="M2590 2908 c-67 -23 -92 -44 -66 -54 9 -4 22 -2 29 5 15 15 23 14 42
-5 13 -14 14 -19 3 -25 -9 -6 -4 -9 14 -9 50 0 96 72 62 97 -10 7 -20 12 -23
12 -3 -1 -31 -10 -61 -21z"/>
<path d="M2447 2913 c-4 -3 -7 -15 -7 -26 0 -19 1 -19 19 -3 10 9 26 14 37 11
12 -4 9 0 -6 9 -29 17 -34 19 -43 9z"/>
<path d="M3740 2330 c6 -11 13 -20 16 -20 2 0 0 9 -6 20 -6 11 -13 20 -16 20
-2 0 0 -9 6 -20z"/>
<path d="M3771 2280 c14 -31 19 -36 19 -24 0 6 -7 19 -16 30 -14 18 -14 18 -3
-6z"/>
<path d="M1650 2270 c0 -5 5 -10 11 -10 5 0 7 5 4 10 -3 6 -8 10 -11 10 -2 0
-4 -4 -4 -10z"/>
<path d="M1710 2262 c0 -14 9 -18 45 -20 40 -1 45 1 45 21 0 18 -2 19 -10 7
-8 -12 -13 -13 -30 -2 -28 17 -50 15 -50 -6z"/>
<path d="M1959 2218 c-7 -12 -13 -31 -14 -40 -1 -10 -9 -26 -17 -35 -20 -23
-32 -63 -20 -63 14 0 28 21 36 55 4 17 15 45 23 63 18 38 11 55 -8 20z"/>
<path d="M1700 2160 c0 -9 28 -15 58 -11 6 1 12 -5 12 -14 0 -20 39 -20 68 1
12 8 22 19 22 23 0 4 -36 8 -80 10 -51 1 -80 -2 -80 -9z"/>
<path d="M1600 2146 c0 -2 7 -6 15 -10 8 -3 15 -1 15 4 0 6 -7 10 -15 10 -8 0
-15 -2 -15 -4z"/>
<path d="M2602 1278 c-7 -7 -12 -18 -12 -25 0 -7 -4 -13 -10 -13 -5 0 -10 -5
-10 -11 0 -15 16 -3 40 31 21 30 15 41 -8 18z"/>
<path d="M6 1048 c34 -57 196 -298 200 -298 14 0 -185 309 -199 310 -5 0 -5
-6 -1 -12z"/>
<path d="M1122 489 c-45 -13 -31 -29 26 -28 26 0 41 3 34 6 -10 4 -9 8 5 19
17 12 16 13 -7 13 -14 -1 -40 -5 -58 -10z"/>
</g>
</svg>
