<?xml version="1.0" encoding="UTF-8" standalone="no"?>
<svg
   version="1.1"
   viewBox="0.0 0.0 960.0 720.0"
   fill="none"
   stroke="none"
   stroke-linecap="square"
   stroke-miterlimit="10"
   id="svg5"
   sodipodi:docname="MAKETBLU.svg"
   inkscape:version="1.3 (0e150ed6c4, 2023-07-21)"
   xmlns:inkscape="http://www.inkscape.org/namespaces/inkscape"
   xmlns:sodipodi="http://sodipodi.sourceforge.net/DTD/sodipodi-0.dtd"
   xmlns="http://www.w3.org/2000/svg"
   xmlns:svg="http://www.w3.org/2000/svg">
  <defs
     id="defs5">
    <clipPath
       id="p.1">
      <path
         d="M 0,0 H 1024 V 1024 H 0 Z"
         clip-rule="evenodd"
         id="path4" />
    </clipPath>
  </defs>
  <sodipodi:namedview
     id="namedview5"
     pagecolor="#ffffff"
     bordercolor="#000000"
     borderopacity="0.25"
     inkscape:showpageshadow="2"
     inkscape:pageopacity="0.0"
     inkscape:pagecheckerboard="0"
     inkscape:deskcolor="#d1d1d1"
     inkscape:zoom="1.1569444"
     inkscape:cx="479.71188"
     inkscape:cy="359.56783"
     inkscape:window-width="1920"
     inkscape:window-height="1111"
     inkscape:window-x="-9"
     inkscape:window-y="-9"
     inkscape:window-maximized="1"
     inkscape:current-layer="svg5" />
  <clipPath
     id="p.0">
    <path
       d="m0 0l960.0 0l0 720.0l-960.0 0l0 -720.0z"
       clip-rule="nonzero"
       id="path1" />
  </clipPath>
  <path
     style="display:inline;fill:#69bfd0;fill-opacity:1;stroke-width:0.864346"
     d="m 605.89845,684.64314 c -8.73753,-0.781 -21.57717,-3.5814 -34.99809,-7.63324 -14.63913,-4.41964 -38.79365,-16.87444 -52.1249,-26.87718 -11.01503,-8.26483 -24.62334,-21.52483 -34.3392,-33.46027 -8.61603,-10.58435 -21.54239,-32.88435 -24.64548,-42.51729 -0.57667,-1.79014 -1.32729,-3.64376 -1.66806,-4.11915 -0.60681,-0.84653 -2.98331,-7.82306 -5.59422,-16.42256 -5.03003,-16.56736 -7.37329,-41.40024 -5.7624,-61.06751 1.06116,-12.95576 4.3677,-31.97479 6.13212,-35.27164 0.48581,-0.90775 0.88329,-2.32617 0.88329,-3.15206 0,-1.27028 2.38067,-8.03532 5.13871,-14.60243 0.3993,-0.95078 1.76699,-4.2569 3.0393,-7.34694 3.78018,-9.18087 18.14042,-33.0075 20.99366,-34.83287 0.59424,-0.38016 1.08043,-1.0642 1.08043,-1.52008 0,-2.76161 29.02865,-31.93036 31.77699,-31.93036 0.48576,0 1.10709,-0.58344 1.38072,-1.29652 0.27364,-0.71309 0.95586,-1.29652 1.51606,-1.29652 0.5602,0 2.67988,-1.36135 4.71041,-3.02521 2.03053,-1.66387 3.89863,-3.02521 4.15133,-3.02521 0.25271,0 2.22642,-1.19251 4.38604,-2.65002 4.39857,-2.96856 21.79061,-12.04386 23.08102,-12.04386 0.45813,0 2.46469,-0.7091 4.45902,-1.57578 18.64095,-8.10087 37.90787,-12.10273 62.09125,-12.89674 13.86301,-0.45516 27.56622,0.78072 42.23108,3.80877 6.95196,1.43546 23.2894,6.44249 28.95558,8.87417 1.90156,0.81608 5.20768,2.22613 7.34694,3.13346 2.13925,0.90733 6.16341,2.92092 8.94258,4.47463 2.77916,1.55372 5.21368,2.82495 5.41005,2.82495 0.78414,0 15.78573,9.98705 20.62373,13.72989 16.13034,12.47898 30.60368,27.95659 40.79153,43.6219 2.20966,3.39769 4.64836,7.15001 5.41933,8.33848 1.42195,2.19199 8.93467,17.4453 11.7072,23.76951 2.71598,6.19518 7.42669,22.09046 9.34973,31.54862 5.51817,27.14021 4.39349,58.40441 -3.0005,83.40937 -2.78626,9.42253 -4.81589,15.46005 -6.4261,19.11567 -4.3997,9.98851 -10.58111,22.56777 -11.64619,23.70018 -0.67066,0.71305 -2.18365,3.1371 -3.36219,5.38676 -1.17855,2.24967 -2.45486,4.0903 -2.83625,4.0903 -0.3814,0 -0.94432,0.68067 -1.25095,1.51261 -0.66107,1.79359 -4.72701,7.43881 -5.65475,7.85114 -0.35654,0.15846 -0.64825,0.60057 -0.64825,0.98245 0,2.80401 -23.73986,26.02531 -34.9167,34.15401 -1.95068,1.41869 -3.67634,2.87727 -3.8348,3.2413 -0.15847,0.36402 -0.64865,0.66185 -1.0893,0.66185 -0.44065,0 -2.66402,1.26411 -4.94083,2.80913 -2.2768,1.54502 -4.89826,3.285 -5.82546,3.86664 -3.5057,2.19913 -17.30954,8.82954 -27.6162,13.26493 -5.03891,2.16846 -18.37905,5.84741 -31.09984,8.57674 -6.85045,1.46981 -12.36787,1.91504 -26.79472,2.16218 -9.99232,0.17117 -21.47755,0.0154 -25.52272,-0.3462 z M 739.12614,531.16338 c 4.24331,-1.85415 7.27533,-5.50811 8.40541,-10.12956 2.25626,-9.22696 0.29517,-16.45745 -5.70661,-21.04015 l -3.92227,-2.99487 H 686.5984 635.29412 v -50.15982 c 0,-53.32794 -0.017,-53.56625 -4.13861,-58.17986 -2.36725,-2.6498 -8.5726,-4.88961 -13.54658,-4.88961 -7.33137,0 -12.27237,2.68548 -15.90303,8.64346 -1.84074,3.02067 -1.8435,3.12788 -1.84672,71.52461 l -0.003,68.49939 h 68.17776 c 58.16211,0 68.60593,-0.18709 71.09244,-1.27359 z"
     id="path154"
     sodipodi:insensitive="true" />
  <path
     style="display:inline;fill:#3c78ce;fill-opacity:1;stroke-width:0.864346"
     d="m 203.12125,598.4409 c -6.03916,-1.59808 -13.85699,-4.65353 -15.62628,-6.10724 -0.75052,-0.61665 -1.64142,-1.12118 -1.97978,-1.12118 -2.05372,0 -18.69646,-15.21866 -18.69646,-17.09665 0,-0.5008 -0.29172,-1.0402 -0.64826,-1.19867 -1.8181,-0.80804 -6.81568,-10.36871 -9.86459,-18.87154 l -2.01456,-5.61825 -0.23952,-171.35654 -0.23952,-171.35654 H 436.90614 720 v 52.66475 52.66475 l -2.67681,-0.7677 c -1.47224,-0.42223 -3.12837,-1.14246 -3.68028,-1.60051 -0.55191,-0.45804 -2.75071,-1.45971 -4.88622,-2.22593 -14.42532,-5.17578 -23.94882,-8.25256 -30.89354,-9.98085 l -7.9952,-1.98972 V 284.23834 273.9976 H 643.5054 617.14286 v 8.08815 8.08815 l -5.31287,0.55531 c -2.92207,0.30541 -6.42267,0.5553 -7.77911,0.5553 h -2.46625 v -8.64345 -8.64346 H 574.78992 547.9952 v 15.53603 15.53602 l -2.55012,1.31872 c -1.40256,0.72529 -3.44458,1.3325 -4.53781,1.34935 -1.09323,0.0168 -2.96009,0.58649 -4.14857,1.26588 -4.34574,2.48425 -4.32173,2.5779 -4.32173,-16.85474 V 273.9976 h -26.36254 -26.36255 v 25.93037 25.93037 h 12.18177 12.18178 l -5.74368,6.26651 c -7.5643,8.25284 -10.33931,10.15606 -14.8082,10.15606 -3.53367,0 -3.59063,0.0491 -4.05233,3.49128 -0.25755,1.92021 -0.98261,4.11101 -1.61123,4.86846 -1.22652,1.47787 -13.39695,10.65587 -14.13014,10.65587 -0.2423,0 -0.44053,-4.27851 -0.44053,-9.5078 v -9.50781 h -26.36255 -26.36254 v 26.36255 26.36254 h 14.66675 c 16.46561,0 15.16976,-0.7476 11.98554,6.91477 -3.70815,8.92312 -2.37062,8.18088 -15.23137,8.45246 l -11.42092,0.24117 v 26.76964 c 0,26.72937 0.003,26.76962 1.83916,26.76962 1.63812,0 1.78437,0.35431 1.33797,3.2413 -0.27566,1.78271 -0.76443,5.28331 -1.08617,7.77911 -0.32174,2.4958 -0.92383,4.53781 -1.33797,4.53781 -0.41414,0 -0.75299,11.86315 -0.75299,26.36255 0,14.4994 0.3203,26.36254 0.71178,26.36254 0.68887,0 2.1827,6.21787 3.63401,15.12606 0.86484,5.30843 2.6747,13.00034 4.67764,19.87995 0.83044,2.85234 2.11778,7.32533 2.86078,9.93997 0.743,2.61465 2.06808,6.40273 2.94463,8.41795 0.87655,2.01523 1.59612,3.96001 1.59905,4.32173 0.003,0.36173 0.62385,1.82455 1.37982,3.25072 0.75597,1.42617 1.71633,3.46819 2.13414,4.53781 l 0.75966,1.94478 -111.6953,-0.0785 c -94.83005,-0.0667 -112.4131,-0.26849 -116.44919,-1.33651 z m 54.45378,-92.36647 v -26.36255 h -26.79472 -26.79472 v 26.36255 26.36254 h 26.79472 26.79472 z m 68.28331,0 V 479.71188 H 299.4958 273.13325 v 26.36255 26.36254 h 26.36255 26.36254 z m 68.28332,0 v -26.36255 h -25.93038 -25.93037 v 26.36255 26.36254 h 25.93037 25.93038 z M 257.14286,437.35894 V 410.9964 l -26.57863,-0.22858 -26.57864,-0.22857 v 26.81969 26.8197 l 26.57864,-0.22858 26.57863,-0.22857 z m 68.71548,0 V 410.56423 H 299.4958 273.13325 v 26.79471 26.79472 h 26.36255 26.36254 z m 68.28332,0 v -26.79471 h -25.93038 -25.93037 v 26.79471 26.79472 h 25.93037 25.93038 z M 257.57503,368.64346 v -26.36255 h -26.79472 -26.79472 v 26.36255 26.36254 h 26.79472 26.79472 z m 68.28331,0 V 342.28091 H 299.4958 273.13325 v 26.36255 26.36254 h 26.36255 26.36254 z m 68.28332,0 v -26.36255 h -25.93038 -25.93037 v 26.36255 26.36254 h 25.93037 25.93038 z m 0,-68.71549 V 273.9976 h -25.93038 -25.93037 v 25.93037 25.93037 h 25.93037 25.93038 z m 69.14766,0 V 273.9976 h -26.36255 -26.36254 v 25.93037 25.93037 h 26.36254 26.36255 z"
     id="path149"
     sodipodi:insensitive="true" />
  <path
     style="display:inline;fill:#8b9db0;fill-opacity:1;stroke-width:0.864346"
     d="m 154.04627,127.70708 0.33564,-42.569025 2.30673,-6.914766 c 2.48045,-7.435493 7.37365,-16.395597 11.21052,-20.527965 1.30732,-1.408008 2.4002,-2.810598 2.42863,-3.116865 0.10406,-1.121414 9.18917,-8.188039 15.07437,-11.725227 7.11382,-4.275626 14.10103,-6.820503 22.47299,-8.185098 4.44826,-0.725048 66.01709,-0.925327 232.509,-0.756335 215.07198,0.2183 226.7185,0.307968 231.62764,1.783328 22.22129,6.678229 38.25795,21.786647 45.14104,42.528162 l 2.29467,6.914766 0.35555,42.569025 0.35554,42.56903 H 436.93461 153.71064 Z m 229.0986,-8.47934 c 4.69565,-1.30399 9.05762,-5.46729 10.21617,-9.75087 0.53471,-1.97699 0.79619,-6.36516 0.58107,-9.751504 -0.46126,-7.261188 -2.29372,-10.417679 -7.98366,-13.752208 l -3.74852,-2.196776 -40.49272,0.248664 -40.49272,0.248663 -3.19773,1.988347 c -5.44805,3.387597 -7.17442,7.189862 -7.17442,15.801394 0,6.71219 0.22972,7.74938 2.41561,10.90657 2.11578,3.05592 5.01617,4.95225 10.1174,6.61497 2.69291,0.87773 76.50285,0.54714 79.75952,-0.35725 z m 192.74627,-1.55827 c 5.2252,-3.27155 7.54249,-8.11227 7.54089,-15.75261 -0.002,-7.870947 -1.60051,-11.419632 -6.77087,-15.028079 l -3.74702,-2.615072 -40.84901,-0.24026 -40.84899,-0.240261 -4.2343,2.833298 c -5.42484,3.629922 -7.175,7.200207 -7.22844,14.745814 -0.0475,6.71058 1.23104,10.34364 4.91807,13.97472 4.76129,4.68903 5.10646,4.72152 48.19768,4.53602 l 39.7599,-0.17116 z"
     id="path165"
     sodipodi:insensitive="true" />
  <g
     inkscape:groupmode="layer"
     id="layer1"
     inkscape:label="g1"
     style="display:inline" />
</svg>
