<?xml version="1.0" encoding="UTF-8" standalone="no"?><svg version="1.0" width="1200" height="1200" viewBox="0 0 900 900" xmlns="http://www.w3.org/2000/svg"><g style="fill:#ff5e15;fill-opacity:1"><path d="m4315 7465-38-10c-38-8-24-24 45-54 29-12 74-33 101-47 26-13 52-24 57-24 20 0 10 28-16 45-14 9-23 22-21 29 11 27-89 74-128 61zM4141 7425c17-17 79-38 79-26 0 17-38 41-65 41-26 0-28-2-14-15zM4250 7370c0-6 7-10 15-10s15 2 15 4-7 6-15 10c-8 3-15 1-15-4zM4306 7345c10-8 28-14 39-14 20 0 20 0 1 14-11 8-29 15-40 15-20 0-20 0 0-15zM3644 7333l12-48c4-16 21-45 38-63 32-35 104-78 113-68 3 3-13 26-36 51-33 36-41 52-41 82 0 53-14 72-39 56-13-8-22-9-26-3-10 17-27 11-21-7z" style="fill:#ff5e15;fill-opacity:1" transform="matrix(.08804 0 0 -.08804 -92 662)"/><path d="M3830 7336c0-7-13-19-30-26-39-16-38-38 4-93 35-46 86-135 86-150 0-12-53 1-114 28-65 29-136 41-136 22 0-15 84-77 104-77 8 0 16-10 19-21 5-17 10-20 29-14 50 16 73 11 76-15 4-28 29-60 47-60 7 0 16 12 20 28l7 27 18-41c22-51 37-62 54-38 12 16 14 13 20-27 20-123 51-145 51-36 1 78 18 107 35 61 7-16 9-49 6-74l-6-45 20 23c11 13 22 40 26 60 8 44 21 62 43 62 14-1 14-2 1-10-14-7-14-26-3-162 13-160 16-189 28-257 4-23 3-41-2-41-17 0-36 48-29 74 3 14 3 26-2 26-14 0-50 82-57 131-9 59-21 80-35 59-5-8-10-23-10-32 0-10-5-18-11-18s-26-12-45-26c-27-21-37-24-48-15-14 12-18 11-73-17-28-15-53-15-53-2 0 6-5 10-11 10s-8-9-4-20c5-16 2-20-15-20-12 0-18 5-15 10 3 6 2 10-3 10-9 0-44-62-38-68 3-2 121 52 168 78 18 10 48 13 48 6 0-29 36-132 52-148 14-14 17-23 9-31-28-28-7-88 40-112 27-14 32-14 51 0 28 19 38 19 38-1 0-9 7-28 15-42 8-15 24-61 35-102 12-41 33-99 48-128 20-42 23-55 13-61-10-7-11-20-3-62 6-30 13-83 16-119 5-53 4-60-5-37-6 15-16 27-22 27-7 0-59-43-116-96-103-94-157-130-216-144l-107-29c-101-27-114-27-189 9-35 16-95 35-134 41-86 14-140 2-184-42-27-27-39-31-103-35-40-3-80-8-88-11-57-21-155-25-209-9-91 27-225 5-254-41l-42-58-35-46 29-37a611 611 0 0 0 131-354c0-73-25-158-46-158-8 0-14 5-14 11 0 9-23 10-82 5-103-9-90-9-172 3-38 5-83 16-100 25-17 8-48 18-68 21-21 3-38 10-38 16s-13 15-30 20c-16 6-28 15-25 20 15 22-78 129-112 129-21 0-22-3-16-49 5-47 4-51-25-69-29-17-30-19-15-35 16-16 16-17-3-17-11 0-36 18-57 40-20 22-40 40-45 40-10 0-32 44-32 64 0 16-88 106-104 106-6 0-19 8-28 18-26 26-51 48-67 57-11 6-13 0-9-37 9-78 79-163 246-300 42-34 70-48 152-79 71-25 102-31 188-33 56-2 105-6 109-9 3-4-1-17-10-31-16-23-15-24 11-35 15-6 39-13 55-17 43-10 32-24-20-24h-48l40-27c36-25 51-28 175-35 126-7 183-15 270-38 135-35 168-43 195-44 21-1 45-16 83-51 44-41 54-57 59-92 8-58-4-72-146-187-66-53-123-101-126-107-9-13 53-109 70-109 8 0 84 59 170 130 87 72 160 130 164 130 3 0 14-12 23-28 10-15 41-54 69-87l165-200 204-250c50-60 112-137 138-170 25-33 68-85 96-115l71-80 129-160c61-74 112-137 116-140 10-9 164-202 222-280 31-41 77-97 102-124s46-53 46-56c0-4-19-31-42-60l-41-52 20-42c32-66 136-196 203-255l61-53 67 32c41 20 68 28 70 21 9-26 94-121 109-121 14 0 14 2 1 18-83 100-100 124-91 133 7 7 22-2 45-26l35-37 54 27c50 26 59 27 144 22 49-4 108-12 130-18 36-10 60-9 195 6 123 14 195 41 274 104 39 31 49 35 99 31 15-1 39 6 52 14 18 12 36 14 64 10 30-5 50-1 80 14 24 13 43 17 46 12 9-15-4-48-20-52-10-2-12-8-5-17 7-12 17-7 49 27 23 23 47 43 53 43 7 1-4 5-26 8l-38 6 31 35c17 19 31 39 31 43 0 9-62-33-73-50-18-29-35-12-42 44-11 83-7 552 5 593 5 19 10 54 10 77s13 81 29 129l29 87 27-29c15-16 44-54 65-84s64-85 97-121c49-54 64-79 86-146 37-112 44-181 23-225-9-19-50-68-92-110-46-47-71-79-64-83 16-10 70 15 70 31 0 8 5 14 11 14 5 0 8-4 4-9-10-17 12-21 31-5 14 11 15 17 7 20-7 3-13 14-13 25 0 14 9 21 30 26 29 5 30 7 14 24-16 18-16 19 13 19 19 0 33 6 37 16 9 22 8 24-9 24s-20 16-5 25c6 3 13-1 16-9 3-9 15-16 26-16 17 0 19 2 7 16-11 13-9 14 13 9 15-4 29-2 32 4 4 6 21 11 38 11 30 0 31 0 13 20a98 98 0 0 1-36 25c-23 8-25 42-4 64 68 71 122 137 118 143-2 5-14 8-26 8-20 1-20 2-6 13 15 11 15 16 3 37-29 54-11 78 82 111 70 24 195 50 207 42 5-3 20 1 34 8 20 11 26 11 33-1s12-8 20 16c6 16 23 38 39 47 21 12 27 23 26 44a616 616 0 0 1-55 193c0 8-12 42-26 75-77 178-97 240-95 293 1 34-2 52-8 48s-8-13-5-20c3-8 0-17-7-22-9-5-11 4-6 37 6 48-18 129-111 374-27 72-59 162-71 200-22 71-75 213-90 243-98 197-104 207-198 322-79 96-80 97-157 127-39 15-135 60-213 100-78 39-152 75-165 79-68 21-250 110-318 155-30 20-116 97-191 172-88 87-155 145-188 161-27 14-53 26-56 26-13 0-3-66 20-119l24-59-23-80c-40-132-84-203-155-251-20-13-79-65-132-116-104-99-162-146-153-122 8 23-13 30-50 17-33-10-34-13-29-53l4-42-33 40c-18 22-68 77-111 121-71 74-77 84-66 102 10 16 10 26 2 45-6 13-9 43-6 66 5 33 8 39 19 30s18-8 28 0c11 10 20 10 36 1 17-9 25-8 39 4 10 9 21 13 26 9 4-5 4 2 0 15-5 17-2 27 10 36 15 11 17 25 13 94-4 73-3 82 12 82 10 0 23 7 30 15 7 9 21 13 30 10 12-4 19 1 23 16 5 17 9 20 19 12 7-6 23-14 36-17 18-6 22-3 22 13s6 21 25 21c14 0 28-7 31-15 4-8 11-15 18-15 20 1 95 76 101 103 4 15 11 30 16 33s9 13 9 23 7 24 15 31 15 21 15 32 11 33 25 50c26 31 32 48 15 48-5 0-10-6-10-14s-15-20-32-27c-18-7-36-14-40-17-5-2-8 8-8 22 0 38-16 32-46-19-14-25-31-48-37-53-7-4-17-16-23-27-8-14-22-20-47-21-20-1-48-9-62-18-21-14-25-14-25-2s-28 29-52 31c-3 0-10 4-14 8-5 4-16-2-25-14-23-31-66-20-71 18-3 30-28 45-28 17 0-14-3-15-11-7-9 9-9 20 1 43 15 36 30 45 88 55 55 9 105 34 99 49-3 7-1 19 3 26 11 17-23 36-82 45-24 3-58 11-77 17-33 10-33 12-15 25 10 7 37 14 59 14 134 3 214 1 243-6 27-6 31-5 26 8-9 24-35 29-170 31-136 2-159 11-125 45 12 12 25 21 30 21 9 0 21 24 21 41 0 18-32 9-37-10-6-23-33-36-33-16 0 8 9 20 21 29 15 10 19 20 14 35-10 33 33 55 95 46 46-6 50-5 50 14 0 28-40 47-68 32-15-8-27-7-49 4-15 8-34 15-40 15-16 0-28 44-17 62 4 7 10 57 14 112 3 60 9 101 16 103 6 2 26-8 43-22 45-38 38-17-9 27-26 25-45 35-56 31-14-5-15-3-4 18 8 13 20 29 29 36s11 13 4 13c-6 0-20 15-32 32l-20 33 21 22c17 19 19 25 8 38-20 24-4 30 48 16 55-14 482-14 482-1 0 5-8 13-17 19-15 8-16 12-5 23s16 10 27-6c8-10 12-22 10-27-6-9 34-39 54-39 25 0 40-34 41-92 0-32 5-58 10-58 6 0 10 19 10 43 0 23 4 49 9 56 6 9 6 22 0 33-8 15-6 18 11 18 14 0 20 7 20 24 0 16 7 26 21 29 16 4 20 11 16 26-6 24 8 29 17 6 7-20 26-18 52 3 29 25 38 56 19 72-12 10-16 8-26-14-13-27-46-38-35-11l12 30c11 26-26 30-70 7-48-26-80-27-201-7-120 20-408 34-576 28l-135-6-56 57c-39 38-65 56-82 56-23 0-21-3 25-47 28-26 57-60 65-75 19-37 18-94-2-102-29-11-34-6-34 29 0 36-8 43-28 23-9-9-22-6-56 12-38 19-48 21-61 10-11-10-22-10-38-3l-50 22c-15 6-30 19-33 28-11 36-20 45-69 72-28 14-57 31-65 36s-23 8-33 7c-10-2-25 2-33 9-8 6-17 9-20 6-10-9 16-47 32-47 8 0 12-5 9-10-4-6-1-17 5-25 13-16 5-35-14-35-7 0-34 23-60 52-46 51-60 86-31 74 8-3 15-1 15 4 0 6-6 10-14 10-7 0-19 7-26 15-16 19-50 20-50 1zm0-77c0-6-4-7-10-4-5 3-10 11-10 16 0 6 5 7 10 4 6-3 10-11 10-16zm244-45c4-11 1-14-11-12-9 2-18 9-21 16-6 18 25 15 32-4zm1306-133c0-3-5-13-10-21-8-13-12-12-29 5l-20 20 29 1c17 1 30-2 30-5zm-1070-75c0-3-4-8-10-11-5-3-10-1-10 4 0 6 5 11 10 11 6 0 10-2 10-4zm-23-53c4-12-35-29-44-19-8 8 18 37 30 33 6-2 12-8 14-14zm115-71c-3-46-7-55-29-63-14-5-27-8-29-7-1 2 0 23 3 46 5 34 11 46 29 53 13 4 24 14 24 20 0 7 1 10 3 8s1-28-1-57zm179-77c-1-15-24-12-29 3-3 9 2 13 12 10 10-1 17-7 17-13zm106-142c-21-22-32-11-17 17 9 16 15 19 23 11s7-16-6-28zm8-432c-3-6-11-8-17-5-6 4-5 9 3 15 16 10 23 4 14-10zm381-418c-10-10-19 5-10 18 6 11 8 11 12 0 2-7 1-15-2-18zm-2210-343c42-16 23-21-37-10-66 13-95 36-32 26 23-3 54-11 69-16zm1587-148c9-8 17-21 17-29 0-11-8-9-30 7-16 12-30 28-30 36 0 16 12 12 43-14zm335-343c11-17 11-25-3-45-18-28-41-31-67-7-26 23-22 50 9 67 32 16 44 13 61-15zm-1409-739c12-17 96-122 187-233 171-210 228-279 604-736l274-335c142-175 233-285 263-319 35-39 41-57 20-57-13 0-37 27-267 311a33459 33459 0 0 1-460 560c-454 557-624 764-657 797-12 12-8 42 6 42 4 0 17-14 30-30zm-189-37c0-35-6-42-79-100-44-35-84-63-89-63-9 0-22 23-22 40 0 19 95 122 128 139 55 28 62 26 62-16zm3520-1407c0-2-8-10-17-17-16-13-17-12-4 4s21 21 21 13zm-1895-397 80-106 39-55-22-18a63 63 0 0 1-22-45c0-45-28-26-111 75-72 88-94 130-69 130 14 0 120-110 120-125 0-7 9-20 21-31 17-16 22-16 29-4 16 25 12 37-26 77-20 21-40 48-45 61-5 14-20 25-39 29-17 3-32 9-35 13-5 8 23 50 33 49 4 0 25-23 47-50zm78-38c59-72 80-112 27-51-34 39-93 120-87 120 1 0 29-31 60-69z" style="fill:#ff5e15;fill-opacity:1" transform="matrix(.08804 0 0 -.08804 -92 662)"/><path d="M4122 7259c2-7 10-15 17-17 8-3 12 1 9 9-2 7-10 15-17 17-8 3-12-1-9-9zM3527 7223c-4-3-7-11-7-17s5-5 12 2c6 6 9 14 7 17-3 3-9 2-12-2zM3424 7097c-33-34-66-73-73-86s-28-44-47-68c-19-25-34-50-34-58 0-7-7-15-15-19-8-3-15-13-15-21 0-9-4-14-9-10-11 6-101-77-101-94 0-6 11-13 25-17 28-7 55 10 55 35 0 9 16 34 35 56 40 47 45 31 11-39-26-52-25-52 28 12 20 24 40 60 46 81 14 52 35 79 51 64 9-9 7-20-10-48-11-20-21-41-21-46 0-19 20 2 36 39 34 79 62 127 70 122 5-3 8-25 8-49-1-24 1-39 5-34 3 5 14 12 24 16 9 3 17 15 17 25 0 37 111 44 147 10 13-12 26-18 30-14 9 8-113 123-139 132-10 3-18 13-18 22-1 20-23 52-36 52-5 0-36-28-70-63zm94 2c1-8-9-19-23-26-29-13-28-13-15 22 10 27 33 30 38 4zm-115-112c-5-32-9-37-32-36h-26l23 16c12 8 22 23 22 33 0 16 10 33 16 27 2-2 1-20-3-40zM5498 6993c7-3 16-2 19 1 4 3-2 6-13 5-11 0-14-3-6-6zM4782 6968c6-18 28-21 28-4 0 9-7 16-16 16s-14-5-12-12z" style="fill:#ff5e15;fill-opacity:1" transform="matrix(.08804 0 0 -.08804 -92 662)"/><path d="M3550 6950c0-13 5-20 13-17 6 2 12 10 12 17s-6 15-12 18c-8 2-13-5-13-18zM4857 6923c-18-5-18-6-1-24 17-19 17-20-4-26-25-6-24-30 0-25 11 2 14-4 10-23-3-20 0-25 17-25 14 0 21-6 21-20 0-43 99-76 160-54l35 12-32 1c-45 1-63 10-63 32 0 14 7 19 26 19 17 0 28 6 31 20 7 25 20 25 41 1 10-11 34-23 55-27 33-5 37-4 37 14 0 32-52 68-116 81-33 6-74 20-92 31-31 19-82 24-125 13zm111-104c-2-6-8-10-13-10s-11 4-13 10 4 11 13 11 15-5 13-11zM5228 6896c-50-30-55-36-38-46 11-7 23-1 42 17 26 25 28 25 34 7 4-10 15-27 26-37 10-10 18-28 19-40 0-21 1-21 8-2 4 11 5 43 2 70-5 44-9 50-31 52-14 1-42-8-62-21zM3327 6805c-4-8-2-17 2-20 5-2 11 4 14 15 6 23-8 27-16 5zM3400 6804c1-17 37-57 43-47 4 6-5 21-18 33-14 13-25 19-25 14zM3494 6735c12-28 26-33 26-10 0 8-9 19-19 24-17 10-18 9-7-14zM3185 6703c-11-3-24-10-30-16-5-7-23-13-40-15-55-6-70-35-35-67 21-19 18-38-5-29-22 9-38-5-25-21 12-14 6-35-9-35-4 0-21 11-37 25l-29 25-17-23c-16-21-16-22 2-25 22-4 145-111 173-151 15-21 17-38 13-86-9-98-23-129-101-227-85-106-100-142-22-54 67 76 256 264 283 283 19 12 33 10 130-22 60-19 118-35 129-34 14 0 15 2 5 6-102 33-316 134-402 189-78 51-104 88-73 110 13 9 19 28 20 59 2 48 25 90 25 47 0-39 25-26 59 31 12 20 19 36 14 36l-28-6zM3470 6690c0-5 4-10 9-10 6 0 13 5 16 10 3 6-1 10-9 10-9 0-16-4-16-10zM5357 6643c-4-3-7-13-7-22 1-13 3-13 11 2 11 19 8 33-4 20z" style="fill:#ff5e15;fill-opacity:1" transform="matrix(.08804 0 0 -.08804 -92 662)"/><path d="M3200 6466c0-9 5-16 10-16 6 0 10 4 10 9 0 6-4 13-10 16-5 3-10-1-10-9zM4780 6276c0-10 9-16 21-16 24 0 21 23-4 28-10 2-17-3-17-12zM5031 6021c-15-11-21-23-16-31 6-10 10-9 17 4 5 9 18 16 29 16 12 0 19 5 17 12-7 19-21 19-47-1zM5020 5954c0-8 5-12 10-9 6 3 10 10 10 16 0 5-4 9-10 9-5 0-10-7-10-16zM4790 5930c-13-8-12-10 3-10 9 0 17 5 17 10 0 12-1 12-20 0zM2721 5552c-17-31-13-40 5-14 9 13 14 26 11 29-3 2-10-4-16-15zM1783 5479c-7-7-13-17-13-21 0-5-11-20-24-34-32-35-68-110-63-132 2-11 7-3 15 21 6 21 21 49 34 61 47 45 69 78 66 97-2 16-5 18-15 8zM2545 5295c-21-31-36-58-33-60 2-2 21 21 42 51 20 31 35 58 33 60s-21-21-42-51zM2468 5183c-22-26-41-64-34-71 7-6 7-7 35 42 24 42 23 57-1 29zM3398 3865c-50-33-64-59-72-125-5-52-3-57 28-94 32-39 34-39 104-40 65-1 73 1 102 29 35 33 56 91 46 129-6 24-11 26-56 26-34 0-56-6-69-17-10-10-37-33-60-52-39-33-51-51-32-51 5 0 22 13 37 29 15 17 32 27 37 24 9-5-37-57-66-74-14-8-23-7-38 7-27 24-24 38 14 67l61 51c16 14 37 28 47 31 11 4 19 10 19 15s9 12 20 15c20 6 27 29 13 38-5 3-28 8-53 11-37 5-51 1-82-19zm52-229c0-3-4-8-10-11-5-3-10-1-10 4 0 6 5 11 10 11 6 0 10-2 10-4z" style="fill:#ff5e15;fill-opacity:1" transform="matrix(.08804 0 0 -.08804 -92 662)"/><path d="M3560 3825c0-8 5-15 10-15 6 0 10 7 10 15s-4 15-10 15c-5 0-10-7-10-15zM3250 3791c0-6 4-13 10-16s7 1 4 9c-7 18-14 21-14 7zM3172 3606c-6-50-21-194-32-321l-36-360c-17-157-37-480-38-626-1-104 0-108 37-180 53-104 101-166 152-197 34-20 46-35 51-60 3-18 10-35 15-38s9-27 9-54c0-58-4-60-123-67-67-5-90-10-96-22-13-25-30-110-36-181-5-69-5-68 32 22 16 38 56 81 85 91 11 4 28-3 45-17 33-27 63-98 44-104-26-9-94-91-122-149-31-62-31-63-15-104 9-23 27-55 40-73 13-17 26-39 29-48s24-22 46-28 42-14 45-19c3-4 40-13 83-20l158-26c92-16 349-34 445-32l64 2 1 36c2 37-34 96-42 72-9-24-25-13-19 12 4 14 1 33-6 44-10 17-8 23 13 40 13 11 27 20 31 21 12 0-4-34-21-47-14-11-14-14 5-33 18-18 25-20 43-11 11 7 21 18 21 26s5 15 10 15c11 0 4-82-14-165-9-40-16-51-34-53-12-2-22-8-22-13s-4-9-10-9c-5 0-10 7-10 16 0 10-7 14-22 12-17-2-24-11-26-30-3-23 2-30 25-39 22-8 30-7 39 5 14 20 24 20 24 1 0-31-36-36-163-25l-187 16c-36 3-83 10-105 16s-53 12-70 14c-69 7-114 15-180 34-85 23-323 70-359 70-25 0-35-13-17-24 11-7 20-76 9-76-4 0-8 7-8 16 0 22-24 12-29-12-1-10-10-27-18-36-14-16-14-18 0-23 19-8 17-79-2-98-12-10-13-9-7 7 3 10-1 39-10 63-24 61-44 42-44-43 0-59 2-64 33-87 93-71 298-133 471-143 94-6 104-5 141 17 46 27 101 65 132 92 33 30 133 67 160 61 20-5 23-3 23 25 0 30-13 41-24 22-3-5-24-7-46-4-31 4-41 2-46-11-7-17-34-22-34-6 0 17-26 11-44-9-10-11-15-25-11-31 10-16-22-48-54-54-36-8-98 16-119 45-31 45-45 57-57 52-9-3-5-12 11-28 23-23 35-73 14-60-5 3-10 13-10 21s-7 14-15 14-15 5-15 12c0 6-8 20-17 31-10 11-12 17-5 13 8-5 21-1 33 10 22 20 25 34 7 34-7 0-21 14-30 30-9 17-24 30-31 30-8 0-18 7-21 16-4 11-13 14-30 10-16-4-42 3-75 20-28 14-51 27-51 30 0 8 84-8 97-18 7-6 19-8 28-5 8 4 34-1 57-9 24-9 68-17 98-20 30-2 98-11 150-18 52-8 129-15 170-15 63-1 78-5 90-21 13-18 21-19 62-12 25 5 52 5 60 1 7-5 23-9 36-9 12 0 22-6 22-13 0-9-9-12-28-9-24 3-31-1-40-25-34-82-33-104 6-109 11-2 11 1 1 13s-10 16 1 23c37 23 47-17 25-102-8-33-19-35-42-9-9 11-22 17-29 14-21-8-16-23 7-23 12 0 23-8 26-20 3-11 11-20 18-20 8 0 11-8 9-18-5-16 41-17 910-19 504-1 916 1 916 5 0 10-249 314-612 747l-50 62-393 481-270 332-395 484-226 276c-140 173-520 637-589 721l-71 85zm1218-2156c0-11-51-60-62-60-14 0-8 38 8 54 17 18 54 22 54 6zm-1044-56c-3-26-6-60-6-75 0-31-17-39-26-14-8 20 17 135 29 135 6 0 7-20 3-46zm104 6c0-5-2-10-4-10-3 0-8 5-11 10-3 6-1 10 4 10 6 0 11-4 11-10zm335-90c-3-5-10-10-16-10-5 0-9 5-9 10 0 6 7 10 16 10 8 0 12-4 9-10zm625-20c0-5-4-10-10-10-5 0-10 5-10 10 0 6 5 10 10 10 6 0 10-4 10-10zm-980-50c0-13-7-20-20-20-23 0-26 10-8 28s28 15 28-8zm525 2c-3-3-11 0-18 7-9 10-8 11 6 5 10-3 15-9 12-12zm42-8c-3-3-12-4-19-1-8 3-5 6 6 6 11 1 17-2 13-5zm189-19c18-14 18-14-8-15-18 0-28 5-28 15 0 19 11 19 36 0zm-590-32c-11-11-19 6-11 24 8 17 8 17 12 0 3-10 2-21-1-24zm512 25c-6-18-28-21-28-4 0 9 7 16 16 16s14-5 12-12zm139-20c-3-8-6-5-6 6-1 11 2 17 5 13 3-3 4-12 1-19zm-82-58c7-22 26-25 57-9 19 10 20 9 13-7-4-11-11-37-14-59-5-33-10-41-31-43-14-2-31-9-38-14-7-6-14-9-16-7-1 2-1 39 2 82 4 75 14 97 27 57zm-783-20c20-12 26-20 17-20s-27 9-40 20c-31 25-18 25 23 0zm453-30c10-11 14-20 9-20s-15 9-22 20-11 20-9 20 12-9 22-20zm923 5c18-4 30-10 27-15-6-10-75 7-90 22-7 7-4 9 10 5l53-12zm-1308 1c0-11-19-15-25-6-3 5 1 10 9 10 9 0 16-2 16-4zm347-46c13 0 14-3 5-12s-17-6-37 12c-14 13-25 27-25 32 0 4 9-1 20-12s28-20 37-20zm955-72c49-10 60-16 65-37 3-13 15-39 27-58l21-33 83 6c52 4 82 3 82-4 0-9-155-39-175-33-12 4-63 2-270-10-22-2-181 12-195 16l-50 10c-97 16-177 40-218 64-56 33-61 46-23 59 27 9 30 8 40-17 9-21 24-30 74-44 89-26 345-56 357-42 5 6 12 35 16 65s12 58 18 62c17 11 83 9 148-4zm-539-13c-3-13-30-18-51-10-14 5-14 7-2 16 19 11 56 8 53-6zm-103-126c0-6-4-7-10-4-5 3-10 11-10 16 0 6 5 7 10 4 6-3 10-11 10-16zm15-162c2-34 0-56-4-51-5 5-12 43-15 84-5 56-3 69 4 51 6-13 12-51 15-84zm350 76c68-9 362-8 415 2 19 4 57 9 85 11 44 4 48 3 35-10-42-42-647-39-716 3-15 9-5 11 51 7l130-13zm-825-13c0-5-4-10-10-10-5 0-10 5-10 10 0 6 5 10 10 10 6 0 10-4 10-10zm340 0c0-5-4-10-10-10-5 0-10 5-10 10 0 6 5 10 10 10 6 0 10-4 10-10zm427-56c-3-3-12-4-19-1-8 3-5 6 6 6 11 1 17-2 13-5zm203-24c0-5-4-10-9-10-6 0-13 5-16 10-3 6 1 10 9 10 9 0 16-4 16-10zm65 0c-3-5-10-10-16-10-5 0-9 5-9 10 0 6 7 10 16 10 8 0 12-4 9-10zm-1255-24c0-9-7-12-20-9-14 4-20 0-20-12 0-9-6-15-12-12-16 5-17 32-1 32 6 0 15 3 19 8 12 12 34 8 34-7zm45-16c-3-5-10-10-16-10-5 0-9 5-9 10 0 6 7 10 16 10 8 0 12-4 9-10z" style="fill:#ff5e15;fill-opacity:1" transform="matrix(.08804 0 0 -.08804 -92 662)"/><path d="M4154 1046c-8-22 3-33 18-18 9 9 9 15 0 24s-13 7-18-6zM3280 3663c0-6 8-17 18-24 16-13 16-13 2 6l-17 24c-2 2-3 0-3-6zM3576 3574c-18-25-18-27 1-52 26-36 66-40 87-10 21 29 20 51-2 71-27 25-64 20-86-9zM3792 3354c-66-56-89-99-90-166 0-63 1-65 120-210l203-249c194-239 182-227 246-245 71-20 124-7 181 44 47 43 68 85 68 139-1 53-28 105-102 195l-220 271c-87 107-174 207-194 222-29 22-50 29-103 32-64 4-67 3-109-33zM3630 3331c0-6 4-13 10-16s7 1 4 9c-7 18-14 21-14 7zM3660 3291c0-5 5-13 10-16 6-3 10-2 10 4 0 5-4 13-10 16-5 3-10 2-10-4zM6876 2987c3-10 9-15 12-12s0 11-7 18c-10 9-11 8-5-6zM7225 2691c-6-6-26-12-45-14-20-2-41-7-48-11-16-10-15-45 1-52 20-7 121 48 125 69 4 18-18 23-33 8zM7100 2453c0-3 7-15 17-25 22-24 8-36-17-13-18 16-22 17-52 1-61-30-91-61-83-86 6-19 4-21-14-15-17 5-21 2-21-15s-4-20-21-15c-21 7-22 5-16-33 8-48-12-74-39-51-14 12-19 10-38-13a88 88 0 0 0-46-30c-14-2-29-13-35-26s-16-20-24-17c-7 3-19 1-25-4s-35-14-64-20-63-18-76-26-33-14-46-13c-12 2-25-3-27-9-3-7 2-13 11-13 22 0 20-19-1-27-10-4-31-17-46-30-16-13-32-23-37-23-16 0 2 38 21 43 22 6 26 37 4 37-8 0-15-7-15-16s-9-18-20-21c-20-5-27-27-11-37 4-3 7-42 5-86-2-47 0-80 6-80 14 0 94 33 185 76 86 40 219 125 249 158 10 12 22 20 27 19 4-2 29 16 54 39s53 42 63 43c9 1 50 23 90 48 40 26 76 47 80 47s24 17 44 38c38 39 66 92 47 92-5 0-12-7-15-15-4-8-12-15-19-15-20 0-25 25-10 47 13 18 11 22-18 43-18 13-36 29-40 37-8 14-27 18-27 6zM4390 2396c0-2 8-10 18-17 15-13 16-12 3 4s-21 21-21 13zM6371 2344c0-11 3-14 6-6 3 7 2 16-1 19-3 4-6-2-5-13zM4430 2346c0-2 8-10 18-17 15-13 16-12 3 4s-21 21-21 13zM4475 2290c3-5 8-10 11-10 2 0 4 5 4 10 0 6-5 10-11 10-5 0-7-4-4-10zM4510 2251c0-5 7-15 17-22 15-13 15-12 4 9-12 23-21 28-21 13zM6119 2219c-8-5-33-14-57-20-45-12-57-22-47-39 5-8 11-7 20 0 8 7 23 9 35 5 11-4 20-2 20 4s13 11 30 11c23 0 33-7 45-30 18-35 40-30 31 6-7 26 3 31 21 13 15-15 34-3 26 16-3 8-16 15-30 15-13 0-36 6-52 14-18 10-32 11-42 5zM4560 2190c6-11 13-20 16-20 2 0 0 9-6 20s-13 20-16 20c-2 0 0-9 6-20zM5965 2170c-3-5 1-10 9-10s18 5 21 10c3 6-1 10-9 10s-18-4-21-10zM4600 2143c1-11 50-70 50-59 0 4-11 21-25 38-14 16-25 26-25 21zM5790 2110c0-5 4-10 9-10 6 0 13 5 16 10 3 6-1 10-9 10-9 0-16-4-16-10zM4689 2033c18-24 38-46 44-50 17-10-28 49-54 72-16 14-13 6 10-22zM5170 2055c0-8 5-15 10-15 6 0 10 7 10 15s-4 15-10 15c-5 0-10-7-10-15zM4950 2025c13-14 26-25 28-25 3 0-5 11-18 25s-26 25-28 25c-3 0 5-11 18-25zM4980 1986c0-2 7-9 15-16 13-11 14-10 9 4s-24 23-24 12zM5903 1973c-20-7-15-23 7-23 11 0 20 4 20 9 0 13-12 19-27 14zM5167 1955c5-14 63-52 63-41 0 3-4 16-10 30-7 18-17 26-34 26-19 0-24-4-19-15z" style="fill:#ff5e15;fill-opacity:1" transform="matrix(.08804 0 0 -.08804 -92 662)"/><path d="M5276 1962c-9-15 17-57 34-57 9 0 16-11 18-27s-1-28-7-28c-19 0-47-35-76-95-26-52-30-56-42-39-17 23-17 34 2 34 8 0 15 6 15 14 0 28-12 46-32 46-17 0-19-5-14-26 6-22 4-25-13-19-12 3-31-1-46-11-14-9-28-14-32-11-3 4 8 14 26 24 20 12 31 26 31 41 0 13 6 22 15 22 8 0 15 4 15 9 0 19 35 22 48 4 11-15 14-16 21-4 14 22-4 56-27 54-13-2-28 9-43 31l-23 34-28-28c-32-33-36-55-11-69 10-5 15-12 12-16-4-3-24 6-45 20s-44 23-51 21c-7-3-13 1-13 9 0 27-26 16-58-24-18-22-32-44-32-49s-6-15-14-21c-9-8-13-30-11-71 2-50 8-66 39-107l82-113c26-36 66-85 89-110s64-74 91-110c28-36 67-83 88-105 20-22 53-61 73-87 36-47 65-65 136-88 24-7 42-8 50-2 7 5 25 12 41 16 67 16 136 121 136 205 0 22 4 31 13 29 13-5 159-174 260-302 221-281 397-481 397-452 0 6-97 127-405 507-250 306-257 316-246 324 6 3 44-34 85-82 107-126 132-153 141-153 4 0 0 12-9 26a75 75 0 0 0-14 47c1 12-1 27-5 34-4 6-3 14 3 18 5 3 10-1 10-9 0-9 5-16 10-16 6 0 10 42 10 105 0 97-1 105-17 97-29-15-43-4-37 27 9 44-10 44-50 1-39-42-69-52-65-22 3 22-74 102-98 102-29 0-75 49-69 74 5 23-18 58-46 69-10 3-18 13-18 20 0 8-11 19-25 25s-25 19-25 27c0 35-30 63-75 69-37 6-45 12-56 39-7 18-13 37-13 42-1 6-10 15-21 22-11 6-27 24-35 39-17 30-35 40-44 26zm-115-85c-1-12-15-9-19 4-3 6 1 10 8 8 6-3 11-8 11-12zm-1-157c0-5-7-10-16-10-8 0-12 5-9 10 3 6 10 10 16 10 5 0 9-4 9-10zm122-136c-12-8-28-13-35-11-7 3-1 9 13 15 37 16 47 14 22-4zm410-197c-3-30 1-47 12-56 23-19 20-50-6-72-30-24-53-25-43-1 4 9 9 46 12 82 5 52 16 90 27 90l-2-43zM4780 1927c0-11 81-111 93-116 6-2-8 20-33 50-60 74-60 74-60 66zM5706 1921c-9-14 42-51 73-53l51-4 43-3c10-1 17-9 17-21 0-18 30-43 47-38 15 3 78-29 97-50 28-32 16-47-17-22-16 13-34 19-44 16-14-6-11-12 16-40 18-19 32-42 31-52-4-36 0-43 24-41 36 3 33-17-4-24-42-9-100-72-100-109 0-43 18-46 22-4 4 43 1 41 143 94 91 34 102 39 63 35-33-4-48-3-48 5 0 7 9 14 20 17 13 3 20 14 20 29 0 28 18 41 26 20 3-9 11-16 18-16 6 0 17-4 25-9 12-8 12-12 2-25-12-14-11-16 7-16 11 0 34 6 52 14 26 10 36 24 51 67 25 72 25 81-6 73-20-5-25-2-25 13 0 27 25 59 34 45 10-16 26-15 26 2 0 26-28 39-57 28l-47-16c-18-6-18-7 3-27 23-21 21-50-4-76-16-15-75 4-75 24 0 17-36 53-54 53-8 0-16 7-20 15-3 8-18 15-33 15-46 0-73 11-73 30 0 10 7 21 16 24 9 4 14 9 11 13-4 3-13 0-21-6-11-10-20-10-37-1-16 9-28 9-46 1-17-8-30-8-44 0-12 6-48 10-81 10-34 0-69 4-79 10-11 5-20 5-23 0zm214-61c0-5-4-10-10-10-5 0-10 5-10 10 0 6 5 10 10 10 6 0 10-4 10-10zm388-197c-5-25-28-28-28-4 0 12 6 21 16 21 9 0 14-7 12-17zM4710 1910c0-5 5-10 11-10 5 0 7 5 4 10-3 6-8 10-11 10-2 0-4-4-4-10z" style="fill:#ff5e15;fill-opacity:1" transform="matrix(.08804 0 0 -.08804 -92 662)"/><path d="M5850 1705c0-36 89-138 109-125 18 11 9 45-11 45s-78 53-78 72c0 7-4 13-10 13-5 0-10-2-10-5zM3182 1547c-21-25-30-63-21-80 13-23 52-21 74 3 17 19 18 22 2 55-17 36-37 44-55 22zM5845 1480c-3-5 3-10 14-10 12 0 21 5 21 10 0 6-6 10-14 10s-18-4-21-10zM6103 1293c-7-2-15-21-19-41-3-20-10-52-16-71-10-32-8-35 40-85 70-72 74-82 62-167-10-68-9-74 12-106 30-43 39-42 34 5-3 20-8 88-11 149-7 139-14 162-49 156-31-6-35 13-6 22 16 5 20 15 20 56 0 63-29 98-67 82zM2983 1200c-13-5-23-12-23-16 0-10 44-43 58-44 13 0 15 13 6 48-7 24-9 25-41 12zM5980 1170c5-10 10-41 10-67 0-39 6-58 31-91 34-47 44-51 59-23 19 36 10 66-34 128-43 59-89 96-66 53zM3098 1123c7-3 16-2 19 1 4 3-2 6-13 5-11 0-14-3-6-6zM2940 1102c0-1 10-13 23-26 24-25 82-43 267-82 69-14 148-32 175-40 28-8 82-17 120-20 39-3 86-7 105-10s71-7 115-10 87-7 95-11c23-9 64-13 78-8 27 10-5 39-44 40-93 3-223 18-274 32-30 9-80 19-110 23s-108 22-173 39-144 32-175 33c-37 2-71 10-98 25-24 14-55 22-73 21-17-1-31-4-31-6zM5710 1094c0-3 16-22 35-42s38-45 41-54c5-17 24-26 24-12 0 3-18 26-40 51s-40 50-40 54c0 5-4 9-10 9-5 0-10-3-10-6zM5450 994a4243 4243 0 0 0 185-219c196-239 223-270 230-263 3 3-25 41-62 84-38 43-88 104-113 134l-77 90c-18 19-33 38-33 42s-6 13-13 20l-55 66c-39 46-62 64-62 46zM5548 973c6-10 25-34 43-53s66-76 107-128c41-51 77-91 79-88 6 6-204 268-224 279-12 7-13 6-5-10zM2910 960c0-5 5-10 10-10 6 0 10 5 10 10 0 6-4 10-10 10-5 0-10-4-10-10zM5756 905c-9-13-16-31-16-39 0-17 46-56 66-56 22 0 54 38 54 63 0 54-75 77-104 32zm32-34c3-8-1-12-9-9-7 2-15 10-17 17-3 8 1 12 9 9 7-2 15-10 17-17zM5899 863c12-24 31-39 31-25 0 5-10 17-21 28-22 19-22 19-10-3zM3425 850c3-5 13-10 21-10s12 5 9 10c-3 6-13 10-21 10s-12-4-9-10zM3490 830c19-13 30-13 30 0 0 6-10 10-22 10-19 0-20-2-8-10zM5986 815c-3-8-12-15-21-15-8 0-15-4-15-9 0-16 25-18 58-4 28 11 32 16 22 28-16 19-36 19-44 0zM5869 793c-61-69-67-135-19-201 31-41 37-45 98-57 40-8 86 9 105 39 13 20 12 25-15 54l-29 33-41-30c-53-39-61-32-14 12l36 35-23 48c-22 47-55 94-67 94-4 0-17-12-31-27zm19-202c-14-5-31 15-23 29 5 8 11 6 20-7 9-11 10-19 3-22zM3552 801c-6-3 0-11 12-17 19-9 25-8 34 6 9 15 7 18-13 18-12 0-28-3-33-7zM6037 776c-4-9 5-19 24-26 37-16 43-10 23 18-17 25-39 29-47 8zM3520 739c0-5 5-7 10-4 6 3 10 8 10 11 0 2-4 4-10 4-5 0-10-5-10-11zM3452 724c1-9 9-19 16-22 9-3 13 2 10 14-1 9-9 19-16 22-9 3-13-2-10-14zM3552 714c1-9 9-19 16-22 9-3 13 2 10 14-1 9-9 19-16 22-9 3-13-2-10-14z" style="fill:#ff5e15;fill-opacity:1" transform="matrix(.08804 0 0 -.08804 -92 662)"/><path d="M2820 684c0-9 11-30 25-48 28-37 31-47 13-43-9 1-12-10-10-38 2-22 6-42 9-45 2-3 157-6 344-8l338-3 30 30c36 37 65 42 31 6-13-14-20-28-17-32 9-8 84 14 125 38 18 10 39 19 45 19 7 0 21 12 31 27 16 21 17 29 7 45-7 11-9 28-6 38 8 24-8 33-46 25-54-12-58-78-4-67 46 8 28-24-26-47-61-25-79-26-79-6s-22 19-46-3c-44-41-107-55-216-48a1547 1547 0 0 0-430 106c-8 0-37 15-66 34-38 25-52 31-52 20zM3825 671c-3-17-2-39 4-50 8-15 8-22-2-28-14-8-27-35-33-65-3-14 3-18 22-18 20 0 24 4 19 19-4 12 0 23 10 28 9 5 17 21 19 36 1 14 9 33 16 42 12 14 10 20-13 41-14 13-28 24-31 24-2 0-7-13-11-29zM3910 629c0-5 5-7 10-4 6 3 10 8 10 11 0 2-4 4-10 4-5 0-10-5-10-11z" style="fill:#ff5e15;fill-opacity:1" transform="matrix(.08804 0 0 -.08804 -92 662)"/><path d="M3650 615c-7-9-10-18-7-21 10-11 37 5 37 21 0 19-14 19-30 0zM6121 595c0-12 59-79 64-73 2 2-12 21-30 43-19 22-34 36-34 30zM3864 556c-3-8-4-23-2-33 5-25 71-26 76 0 2 10-3 17-13 17-8 0-18 7-21 15-8 19-33 19-40 1zM3730 520c0-5 5-10 10-10 6 0 10 5 10 10 0 6-4 10-10 10-5 0-10-4-10-10z" style="fill:#ff5e15;fill-opacity:1" transform="matrix(.08804 0 0 -.08804 -92 662)"/></g><path style="fill:#b9b9b9;fill-opacity:1" d="M85 184h1s1 0 0 0v1l-1-1zm18 0h2l-1 1-1-1zm3 0h1-1s-1 0 0 0zm6 0h1-1c-1 0-1 0 0 0zm13 0h1-1zm3 0v1-1zm12 0h2-2zm6 0h2-2zm4 0h1l-1 1v-1zm1 0h6-6zm7 0h1-1s-1 0 0 0zm6 0h3-3zm17 0h-4l4-1 1 2-1-1zm8 0h-5l2-1-1-1h-5v-1h2l-2-1c-1 0-2 0-1 1s0 1-2 1h-2v2-2l-3-1h-1v1l-1-1-1 1h1v1l-1 1c1 0 0 0 0 0l-1-1v-2l1-1-2 1-3 1a140 140 0 0 1-20 0l1-1v-1l1 1v1h1l1-1 2-2-2-1h-2 4l4 1h1l-2 1 3-1 1 1c-1 0 0 0 0 0h4l1 1h4l1-1 1-1h-2l-1 1h-1l-1 1-1-1c0-1 0-2-1-1h-1l1-1h1l1 1c1 1 2 0 3-1l1-1 1 1h11-1v-2c0-2 1-1 1 1l-2 2h-2l1 1h1c0 1 0 0 0 0l1-1h1l4-1 3 1h-1l-1 1h9-1c-1-1-1-1 1-1h4s0-1 0 0v-2l1-1h1s1 0 0 0l-1 1v1-1l2 1 1 1v3l-2 1h-4v-1c0-1-1-2-2-1h-3l-2 1h-1v-1h-1v1h1l2 1 1 1h1-2zm-40-2s1 0 0 0h-1 1zm3 0h-2l1 1 1-1zm1 0 1-1h2c1 1 1 0 0 0h-3v1c0 1 0 1 0 0zm-2-1v1-1l1-1h-2v1c0 1 0 1 0 0h1zm48 0h-3 1l1 1 1-1zm-22 0h-1c-1 0-1 0 0 0h1zm-18-1h-1v1l1-1zm25 0h-1v1l1-1zm-1-1h2-4c2 0 2 0 1 1l1-1zm16 1h-1 1zm-28-1h-1 1zm1 0c-1 0 0 0 0 0 1 0 1 0 0 0zm28-1h-1 1zm-179 6 1-1 1-1v1h1l-2 1h-1zm78-1v1l1-1 2 1h-2l-1-1zm93 0h1l1 1h-1l-1-1zm-166 0-1-1h4l-1 1h-2zm62 0h-1 1v1-1zm9 0v-1 1c0 1 0 0 0 0zm-2 0s0-1 0 0c1 0 0 0 0 0zm31 0v-1a462 462 0 0 0 0 1zm5 0v-1h4c-1-1 0-1 0 0h1v-1l-1-1h3l1 1v1l-1 1h-7zm9 0v-1l1-1v1h1v1-1h1l-1 1h-2c-1 0-1 0 0 0zm-21 0v-1l2-1v1c1 1 0 1-1 1h-1zm4-1c1-1 2 0 2 1l-2-1zm50 1v-1l1 1h-1zm16-1c-1 0-1 0 0 0h4l-1 1-2-1v1l-1-1zm-133 0c-1 0-1 0 0 0 0 0 0 1 0 0zm58 0v-1l1 1-1 1v-1zm79 0h1v1l-1-1zm-162-1 2-1c1 1 0 2-1 2l-1-1zm28 1 1-1v1h-1zm6 0v-1l1 1h-1zm2 0h1-1zm6 0v-1l1 1h-1zm6 0 1-1v1h-1zm3 0 1-1-1 1zm3-1h1l-1 1v-1zm3 1c-1-1 1-2 2-1v1h-2zm18 0c-1-1 0-1 1-1h1l-2 1zm4-1 1-1v1l-1 1v-1zm2 0v-1l1 1c1 2 0 2-1 0zm16 0 1-1v1l-1 1v-1zm-98-1h1l-1 1v-1zm68 1zm1 0 1-1v1h-1zm27 0 1-1v1h-1zm-110 0 1-1h1l-2 1zm3 0 1-1 1 1h-2zm15 0 1-1v1h-1zm109 0 1-2h1l-1 1-1 1zm-87-1v-1c1 0 1 0 0 0v1h1-1zm-3 0v-1l1 1h-1zm87 0v-1l1 1h-1zm8 0v-1l1 1h-1zm-12-1v-1h4l-2 1h-1l-1 1v-1zm51 0c-1-1 1-1 2-1l2 1h-4c0 1 0 1 0 0zm-92 0v-1l3 1h-3zm11 0 1-1v1h-1zm11 0-1-1 1-1v2zm-80-1h5-2l-2 1-1-1zm28 0-1-1v-1l2 2h2l-1 1-2-1zm8 0 3-1c1 1 2 1 0 1h-3zm14 1-2-1h-1v-3h1v1h1l1 1h2c0-1 0-1 0 0l1 1h1l-1-1 3 1-1 1a101 101 0 0 0-3-1l-1-1-2 1h-1 4l-1 1h-1zm12-1h3l5-1-1 1-3 1-4-1zm9 1 2-1 2-1h1l1-1h2l-3 2h-1l-2 1h-2zm10-1h2-1l-1 1v-1zm-56 0c-2-1-2-1 0-1l1 1h-1zm61 0h1-1s-1 0 0 0zm3 0h6l2-1h3-1l-1 1h-9zm17 0h1-1zm2 0h1-1zm-129 0v-4 1h1v2l-1 1zm29 0v-1h1c1 1 0 1-1 1zm3 0 1-1v1h-1zm6 0v-1l1 1h-1zm2 0h3-3zm14 0v-2l1 1-1 1zm8 0v-1h2v1h-2zm3 0h1c1 0 1 0 0 0h-1zm33 0h1-1zm-63-1h1l-1 1v-1zm17 0h1l-1 1v-1zm54 0h3l-1 1-2-1zm67 0v-1 2-1zm1 0h1l1-8v-4 3l1 2v3h-1v1l1 3-1 1-2-1zm3-7v-1l-1 1h1zm-169 7v-2l-2-1v1l-1 1v-1l1-1v-1l-3-1v-1h2v1-1h1v1h1v1-7l1-1-1 1 1 2v-1c0-1 0-1 0 0l1-1-1-1c0 1 0 1 0 0v-6a502 502 0 0 1-1 5l-1 2-1-1h-1l-1-1h-1c-1 0-1 0 0 0v-6a28 28 0 0 1 1-9v1l1 1c1-1 1 0 1 1l-1 2h1l1-1v-3l-1-2-1-4v-2l1-1-1-3 1-2s0-1 0 0l-1 1-1 4h1v1l-2 3v-1l1-1v-1 1h-1v-4h1l-1-1v-2l-1-8c0-4-1-5-1-1 0 1 0 1 0 0 0-3 0-3 1-2 1 2 2 2 2 1s0-1 0 0v5-1l-1-3v8c0 1 1 2 2 0l1-1v1l1 2v-1l-1-1c0-2 2-2 3 0v4h1v2l1 2a163 163 0 0 1-2 34zm1-9h-1v1l1-1zm-3-4v-1 2-1zm-2-1v-1 1zm1-2v-3l-1 1v2c0 1 1 2 1 0zm1-1v1-1zm0-1v-1l-1 1h1zm-2-3c0-2 0-2 0 0l-1 1c1 1 1 1 1-1zm3-2v-4 8-4zm3-10-1-2v12l1-3v-7zm-5-5h-1l1 1v-1zm3-1h-1v1l1-1zm0-1zm-1-1v-1 2-1zm177 40v-1l1 1v1c1 0 0 0 0 0l-1-1zm-140 0v1-1zm23 0h-1c-2 0-2-1-1-2l1-1v2h-1l1 1 2 1-1-1zm-65-1v1-1zm27 1-1-1c-1 0-1 0 0 0h1l1 1h-1zm4 0c-1 0 0 0 0 0zm3 0-1-5 1-2 1-1 1-1-2-1v1l-1-3v-3 2h1v1l1 1v-1a142 142 0 0 1-1-12 13 13 0 0 1 1-5l1-2v-2 2c-1 3-2 10-1 13v5l1 3 1 2v1-3l1-2-1-1h1v-8l1-2v-1l-1-4v-3l1-2v-4h1v-1l1 14 1 18v-5c1-8 1-9 1-2v5l1-5v-7 13l1-11a239 239 0 0 1 0 13l-1 1c0 1 0 1 0 0l1 1v4-2l-1-1c0 1 0 1 0 0l-1-1c0 1 0 1 0 0l-1-1-1-2v-1 2c0 3 0 3-1 2l-1-1h-1v-1h-1l-1 1v-3 2l-1 1v-1 1l-1 1v3zm0-3h-1c0-1 0 0 0 0l1 1v-1zm6-3-1-1v-1l1-1-1-2c0 1 0 1 0 0l-1 2 1 4 1-1zm-5-2v1c0 1 0 1 0 0v-1zm6-2v-3 5-2zm-2-4c0-1 0 0 0 0v1-1zm-4-2v2-2zm4-1v1-1zm0-4v-1 2-1zm0-6c0-1 0 0 0 0 0 1 0 1 0 0zm1-5v-3 1l-1 2v2c0 2 1 1 1-2zm-4 32v-3l1 1v1c0 1 0 1 0 0s-1-2-1 0l1 1h-1zm12-1v-2l-1-1v4-1l-1-1v-3c0-1 0-1 0 0h1a129 129 0 0 1 0-12 1934 1934 0 0 0 3 10l1 3v2l-1-1c0 1 0 1 0 0v1c0 2-1 3-2 1zm0-5h-1v1l1-1zm8 6v-1l1 1v-3h-1l1-2 1-3v-2 4l1 1v1l-1 1v1c-1 2-1 3-2 2zm2-4v-1c0-1 0-1 0 0l-1 1h1zm2 4 1-1c-1 0-1 0 0 0v1h-1zm12-1v-8l1-3v-2 4h1v1c-1 1-1 1 0 0v-1l1-1v3l1 1h-1v1h-1v-1 5-1 1l-1-1v-3 6c1 0 1 0 0 0l-1-1zm1-6h-1 1zm1 7h1-1zm3 0 1-1c0-1 0-1 0 0v1h-1zm4 0h2-2zm10 0h-1l1-1 1-2h1v2h1l1-1v2h-1l-1-1h-1l-1 1h2-2zm-82 0 2-3v-2h2l2-3c0-1 0-1 0 0v1a37 37 0 0 1-5 6v1h-1zm4-1h1l-2 1 1-1zm4 1 2-2 1-1v2h-1c1-1 0-1-1-1v1l-1 1zm5 0c-1 0-1 0 0 0zm1 0h1-1zm72 0 1-2 1-1c0-1 0-1 0 0l-1 3h-1zm-63-1v-1 1c0 1 0 1 0 0zm28 0v-1 1c0 1 0 1 0 0zm11-1 1-2-1 3v-1zm10 1h1s0-1 0 0h-1zm8-3v-2a38 38 0 0 1 0 2zm11 3v-1 1c0 1 0 1 0 0zm74 0h1-1zm9 0v-2c-1 0-1 0 0 0v3-1zm-145 0 1-1v1h-1zm12 0v-1 1zm58-2 1-2v3c-1 1-1 0-1-1zm71 2v-1l1-1 1-1 1-1v-4l1-2v-1 7c0 1 0 1 0 0-1 0 0 0 0 0v1h-3l1 1h1v1h1-2v1h-2zm-184 0h1-1s-1 0 0 0zm18-2 1-1h1l1-2-1 1-4 4 2-2zm2 1h-1 1c1 0 1 0 0 0 0 1 0 1 0 0zm7 0v-1h1v2c-1 0-2 0-1-1zm7 0h1-1zm23 0h1c0 1 0 1 0 0l-1-1v1c0 1 0 1 0 0zm13 0v-1 2-1zm-57 0v-2a100 100 0 0 0 2-5c0 2 0 2 0 0l1-4 1-5v-8h1v8l-1 4v3l-1 1v2l-1 2v1l-1 1v2h-1zm2-4-1-1v2l1-1zm1-5 1-2h-1v1l-1 1h1zm14 9-1-1 1 1zm2 0c-1-1-1-1 0 0h1-1zm49 0v-1l-1-1 1-1v1h1l1-1v2c-1-1-1-1-1 1h-1zm-77-1v-5 2l1 3v1h-1v-1zm55-1-1-2-1-2c1-1 0-2-1-2l-1 1v-2l-1-4v-2l1 2 1 2 1-1-1-1 1-10h1v11h-1v2h1v-3l1-1c1 1 1 1 1-1-1-1 0-1 0 0v1a42 42 0 0 0 0 11v1l-1 2v-2zm0-4v-7 2l-1 2h-1l1 1v2l1 1v-1zm-4-8h-1l1 1v-1zm2-5v1-1zm17 19 1-1v1h-1zm-62-1v-1 1s0 1 0 0zm20-1-1-1 1 1 1 2-1-2zm40-1c0-2 0-3 1-2h1l-1 1v1-1l-1 1v3zm-51 2v-1c1 0 1 0 0 0v1zm1 0 2-1-2 1zm11-1v-2 1l1 1h-1zm37 0h-1l1-1v1c0 1 0 1 0 0zm-65 0v-2l-1-1h2l-1-1v-1h1l1 1h-1l1 1v1h-1c0-1 0-1 0 0l-1 2v1zm80 0h1-1zm-63-1h1l-1 1v-1zm3 1h1-1zm41-1 1-1v1c0 1 0 1 0 0l-1-1v1c0 1 0 1 0 0zm-54-1 1-2v3c-1 1-1 1-1-1zm9 1c1-1 1-1 0 0 0 1 0 1 0 0zm54 0v-1 1c0 1 0 0 0 0zm14-2v-3 3c0 3 0 4 0 0zm9 2v-1c0-1 0 0 0 0v1zm-95-1v-1 2-1zm21 1 1-1v1h-1zm12 0v-1h1v1h-1zm39-1v-1 1c0 1 0 1 0 0zm6-1 1-2v1c0 1 0 1 0 0h-1l1 2v1-1c1-1 1-1 0 0 0 2-1 1-1-1zm-55 1h1v1l-1-1zm58 0v-2h1l-1-1v-1l1-2h2v-6l-1 1v1-4c0-1 0-1 0 0h1v-5l-1-2v-2 1l2 5v1l1-12c0-13 0-14-2-15l-1-1v-2c-1 0-1 0 0 0 3 0 3 0 3 9a654 654 0 0 1-3 34l-1 2-1 2v-1zm4-17-1 1h1v-1zm-66 17 1-1c2 1 2 1 0 1h-1zm6 0c1 0 1 0 0 0zm1 0 1-1c-1 0-1 0 0 0l1-1v1l-1 1h-1zm10-1v-1 2-1zm135 1v-1 1s-1 0 0 0zm-156-1a150 150 0 0 0 1-2l-1 2v1h-1l1-1zm167 1v-1h1l-1 1zm-124-2v-1 2-1zm6 1 1-1v2l-1-1zm46-1h1v1l-1-1zm-91 1v-1h1c1 0 1 0 0 0l-1 1zm4 0h1c1 0 0 0 0 0h-1zm30-1v1-1zm-28 1 1-1c0-1 1-1 0 0l-1 1zm4-1c-1-1-1-1 0 0l1 1-1-1zm38 0v-1 2-1zm-66-1v1-1zm20 1 1-2 1-1 2-2 1-1 2-2-1-2v-1 1h1v3l-1 1-1 1c-2 1-3 2-3 4h-1v-1 1l-1 1zm13-1s0-1 0 0v1-1zm28 0a136 136 0 0 1 0-5l1 2 1 3-1-2c0-2 0-3-1-1v4zm6 1v-2h-2l3-3v-4l1 1-1 2v1h1l-1 1c-1 0-1 0 0 0v2c0 1 0 1 0 0v-1 3h-1zm-35-1c-1 0-1 0 0 0v1-1zm37 1v-4 3h1v-2l-1-2 1 1 1 1h-1c0-1 0-1 0 0l-1 3zm2-1h1v1l-1-1zm-68 0v-2l1 2h-1zm15 0h1c0-1 0-1 0 0h-1zm8 0h1-1zm-17-1 1-1c0-1 0-1 0 0v1l-1 1zm6 1v-1l1-1v-2l1-2h1v2l1-1c0-1 0-2 0 0 1 2 0 2-1 3l-1 1c0-1 0-1 0 0l-1 1h-1zm2-3h-1v1l1-1zm1-1h-1 1zm6 3 1-2 1 1h-1v2l-1-1zm47 0s0-1 0 0v1-1zm-72 0v-1 1c0 1 0 1 0 0zm3 0h-1c1-1 1 0 1 1v-1zm12-1 1-1-1 3v-2zm13 0 1-1v2l-1-1zm36 1v-1 1zm27-2v-1 2-1zm-25 1h-1v-1l1-1v-1l2-3c0-1 0-1 0 0l-1 2-1 3v2-1zm-57 0 1-1v1h-1zm12 0v-1 1c0 1 0 1 0 0zm162 0h1-1zm-124-1v-1c-1 1-1 1-1-2l1-3v6zm27 0v-2 2zm90 0v-2c0-1 0-1 0 0h1l-1-1 1 1v3l-1-1v-1 2-1zm-147-1v-1l1 2-1-1zm3 1v-1h1l-1 1zm2 0-1-1h1v1zm4-4v-7 11-4zm38 2-1-3h1v5zm-76 1v-1 1s0 1 0 0zm8 0c0-1 0-1 0 0zm2-1 1-1v2l-1-1zm13 0 1-1v1l-1 1v-1zm50 1v-1h1s0-1 0 0v1h-1zm111-1h-1l-1-1h1s1 0 0 0l-1-1 1-1v-1c0-1 0-1 0 0l1-1h-1v-2h1v-1c0-1 0-1 0 0h-1v-2l-1-1 1-1-1-1v-2l1 1 1 1v-1l-1-1-1-1c-1 0-1 0 0 0l1-1v1c1 1 1 1 1-1l-1-1c0 1 0 1 0 0v-2h-1l1-1v-1l-1-1 2 2 1-1c0-1 0 0 0 0-1 1-1 0-1-2h-1l-2 1 1-1 2-2c1-2 2-2 1 0v3h-1 1v5c-1-1-1 0 0 0v6l-1 1s0 1 0 0v1h1l1 1h-1v2l-1 1h1v3l-1 2h1v1h-1zm-113 0s0-1 0 0v-2l1-2v-2 1-1c1-1 1-1 1 1l-1 3v2h-1zm1-3v-1 1zm-71 3v-1 1zm10-1v-2l-1-6 1-3v-2l-1-7v-3l-1-3 1 2 1 5v2-1 2h1a9581 9581 0 0 0 0 12v-2 6h-1zm1-9-1-2v8l1-6zm60 9 1-1 2-4v-1 3l-2 4-1-1zm-43 0v-1l1 1h-1zm6-2v-2 4-2zm-5 1 1-2v-2 2c0 2 0 3-1 2zm3 0v-1l1 1h-1zm53 0v-1l1 1-1 1v-1zm-69 0v-1 1zm1-3v-5l1 8-1-3zm73 2c0-1 0-1 0 0v1-1zm-47-1v-1 2-1zm-15 0-1-3v-2 2l2 3v-10 11l-1-1zm5 1v-1 1zm-8-1v-1 1c1 1 1 1 0 0zm150-11zm1-8v2-2zM67 157l-1-2s0-2 1-1l1 3c0 2-1 2-1 0zm0-3v1-1zm131 4h1v1l-1-1zm-161-1v-1 1l1 1h1-1l-1-1zm3 0h1c1 0 1 0 0 0h-1zm-11 0v-1l1-3v-2 5l-1 1zm3-1h1v1l-1-1zm16 0 1-9c0 1 0 1 0 0l1-1-1 9v2l-1-1zm36 0s0-1 0 0v1-1zm-45 0c-1 0-1 0 0 0h1-1zm77-8zm-74 7h-2l1-1h1v2-1zm8 0v-6c1-1 1 2 1 5l-1 1zm14-2c0-1 0-2 1-1v3l-1-2zm24 2v-1 1zm-72-1v-1 2-1zm20 0v-1 1l1 1-1-1zm37 0h1v1l-1-1zm54 0v-1 2-1zm-90 0-1-2v-1l-1-2 1 1c0 1 0 1 0 0l1 1v3c0 1 0 1 0 0zm125 0v-1 1h1v-1h-1 1v1h-1zm2 0v-1h2l-2 1zm-76-1 1-4h1l-1 1v2c0 2 0 2-1 1v-1 1c0 1 0 1 0 0zm-55 0v-1 1zm7-2v-1 2-1zm-24 0v-1 2-1zm25 1v-1c0-1 0-1 0 0v1zm32 0c0-1 0-1 0 0zm20 0-1-1 1-1c1 0 1 0 0 0v2l1-1-1 1zm-39 0v-1l1-4c0-2 0-2 1-1l-2 6zm87 0h1c1 0 0 0 0 0h-1zm-99-1 1-1v1h-1zm5 0s0-1 0 0v1-1zm24 0-1-3v-7 3-1l1-4v-3 15zm70 0h-1l1-1 2 1h-2zm-109-1v-1 1c1 1 1 1 0 0zm42 0v-1c1-1 2-1 1 1h-1zm36 0 1-1v1h-1zm39-1v-2s0-1 0 0v-3l1 3-1 3v-1zm-70 1h-2l-1-1h1c0-1 0-1 0 0h2s0 1 0 0l1 1h-1zm-50-3v-5l-1-2h1v3l1 2v3-1l-1-2v2c1 3 0 3 0 0zm4 2v-1 1c0 1 0 0 0 0zm18 0 1-3v1h-1v2zm13 0v-1c0-1 0-1 0 0v1c0 1 0 1 0 0zm17 0 2-1-1 2-1-1zm49 0v-1 2-1zm-50 0-1-1h1v1zm47-1v-1h1v2l-1-1zm-55 0v1-1zm-41-1v-4h-1v1-1l-1-2v-7l-1-1v-1 2l-1-1v-1l1-1v-1l1 2 1 1-1-4h1c0 1 1 1 1-1v-1l1 2 1 1-1-1v2h-1c0-1 0-1 0 0v1l-1-1v-1 1l1 2v4l2 3v1l1 2v1h-1v-1h-1v-1l-2-5v-1 4c0 1 0 0 0 0l-1-1 1 2 1 1v2l1 2 1 1-1-1-1-1 1 1a30 30 0 0 0 0 2l-1-1zm2-5-1-2v1l1 1zm-2-5v-1 3-2zm-2-5h-1v1l1-1zm5 15v-1c1 1 1 1 0 0l1-1v3l-1-1zm-18 0v-1 2-1zm17 0h1l-1 1v-1zm2 0h1v1l-1-1zm3 1 1-1v1h-1zm69-3v-1 3-2zm-60 2v-2 2c0 1 0 1 0 0zm-10-1h-1 1l1 1-1-1zm3 1 1-1-1 1zm2 0h1l2-1 1-1c0 2-3 3-4 2zm87-1h1v1l-1-1zm16 0v-1 1c0 1 0 1 0 0zm-106 0h1-1zm22 0v-1 1zm-24-1-1-1h-1v-1l1 1v-1c0-2 0-1 1 1v1zm12 0v-1l1-1 1-4 3-4v1l-1 2-1 1c0-1 0 0 0 0l-1 4-1 2h-1c0 1 0 1 0 0zm-8 0h4c0-1 0-1 0 0h-4zm23 0c0-1 0-1 0 0zm36 0 1-1v1h-1zm-48-2 2-4 1-2c0 1 3 0 3-2l2-1v-1 12l-1-3 1-2v2-4l-1-2-2 2v1l-1-1v4h-1v-3l-1 1c0-1 0 0 0 0v2l-1 1v1h-1v1-2zm3-3c0-1 0 0 0 0v1-1zm-39 4v-1 1c0 1 0 0 0 0zm1 0v-1 1c0 1 0 0 0 0zm11 0v-2l-1-2a47 47 0 0 0 0-3l1 3v4zm18 0v-1 1c0 1 0 0 0 0zm1 0v-1l1-1 2-2-1 2-1 2h-1zm131 0v-1 1zm-114 0v-3 3zm47-1c0-1 0-1 0 0zm-66 0 2-3c0 1 0 1 0 0l-1 2-1 1zm16-1v1-1zm32 0h1v1l-1-1zm16 0v1-1zm35-1-1-4v-2 1l1 1v1l1 2-1 2v1-2zm0-2v1-1zm2 3v-1h1c0-2 1-2 1 0v1h-2zm-100 0v-1l1 1h-1zm108 0v-1c0-1 0-1 0 0h2l1-1 1-1-2 1-1 1 2-3h1v2l-2 1-2 1zm-120-2a578 578 0 0 0-2-7v1-1l1 2a52 52 0 0 0 3 6l-1-1-1-1 1 2v1l-1-2zm0-2-1-1 1 1v1-1zm7 3h-4v-1l2 1 2-2h-2c0 1-1 1-2-1l-1-2v1l1 1-1-3v-1l-1-2a64 64 0 0 1-1-2l-1-2c1-1 1-1 0 0l-1-4 1 2v1l1-1v-2l2 5 3 3v-2l1-1v1l2 3v-1l1-1h1v-3h1v-2l-1 1c0 1-1 2-3 2l-2-1-1-1 1 1v3l-1-1-1-3v-1h1l1 1 2 2 3-2h-4c-1-2-1-2 1-2h8-1l-1 1-1-1v1l1 1 3-2 1-1v1h1l2-1h1-1l-1 1v1h1l1-1h6l1-1-1 3v3l-1 2v-5l-1-1v2l-1 1c0-1-1-1-1 1v1l-1-1v-1 3l-1-1c1-1 1-1 0 0l-5 7v1h-1s0 1 0 0l4-6 1-2 1-2v-1h-1v-1 1h1v-1h-2l-1 1v-1 1l-2 4h-1l1-1c0 1 0 1 0 0 1 0 0 0 0 0l2-4h-1l-4 3v-1l-1-1v1c1 0 1 0 0 0l-1 1v1l-1 1v1l-2 2-2-1-1-1-1-1v-1l-2-2c0-1 0-1 0 0v3c0 2 0 2 1 1l1 1v4c1 1 2 0 1-1v-2l1-1v3l1 1v1h2l1-1h1l1-1-1 1-1 1-3 2 2-1 3-1h-1l-2 2h-2zm2-7v-1h-2l-1-1v1l1 1h2zm5-5h-1 1zm0-2-1 1h1v-1zm2 0h-1v1l1-1zm-9-1zm10-1-1 1h1v-1zm12 15-1-3v-10c1-1 1 0 1 3v11-1zm27 1v-1h1v1h-1zm17-3v-2a38 38 0 0 1 0 2zm-46-1v-2a38 38 0 0 1 0 2zm90 4-1-1v-1h1v2s-1 0 0 0zm25-1 1-2v3l-1-1zm-164 0h1-1zm179-2v-1 3-2zm-122-1 1-4v5c-1 2-1 2-1-1zm-5 0v-5 8-3zm-48 2v-1 1zm20-1-1-1 1 1 1 1-1-1zm12 1-1-1v1l1-2 2-3s0-1 0 0l-1 2a11 11 0 0 0-1 3zm61 0v-3l1-1-1 4c0 1-1 0 0 0zm-16-1v-1 2-1zm55 0h1v-4l1 1-1 1v3h-1v-1zm22 1v-1h-1c0-1 0-1 0 0l1-1 1-1v1l-1 2zm-124-1v-1 1c0 1 0 1 0 0zm86 0v-1 1c0 1 0 0 0 0zm21 0v-2c0-1 0-1 0 0v-1 3zm1 0v-1l1 1h-1c0 1 0 0 0 0zm9 0 1-1v1h-1zm1 0v-3h-3l-1-1h-1v1c1 0 0 0 0 0h-1l1 1 1 1 1 1-1-1-1-1h-1v-3l-1-1v-1h1c0 1 0 1 0 0l2-2 1-3c0-1 0-1 0 0h2v1c-1 0-1 0 0 0l1 1 1-1h1v-1l3-3v3h-1l-1 1h-1 1v1h-1v-1 1l-1 2v3c0 1 0 1 0 0v-1l-1 2v1l1-1v1l-1 3zm-2-4v-1 2-1zm2 0-1-1v1h1zm-2-1 1-1h1v-2l1-1h-2l-2 2-1-1 1-1h2v-1h-2l-1 1v4-1h1v1h-1 2zm7-8-1-1-1 1c-1 0-1 1 0 0h2zM28 138l-1-3 1 2v1zm30-1h1v1l-1-1zm92 1v-2 2zm-122-1v-2 2zm117-1v-2l1-3v-6c1 0 0-1 0 0h-1c-1-1-1 0-1 1v1h-1l1 1 1 2h-1v-5l1-1c0 1 0 1 0 0v-1h1l1 1v1c0-1 0 0 0 0a51 51 0 0 1-2 12v-1zm2-10v-1l-1 1 1 1v-1zm8 11h1l-1 1v-1zm-113 0 1-1v1h-1zm86 0c0-1 0-1 0 0l2-1-1-1-1 1v-3l1-1 1 1v2l1 1h-1v1h-2zm1-4v-1l-1 1h1zm22 3v-1 2-1zm10 1zm-126-1c0-1 0 0 0 0 0 1 0 1 0 0zm11-1 2-2h-1v1h1v1l-1 1h-1v-1zm70-1v-2 3-1zm39 1v-1l-1-2h1c0 1 0 2 1 1v1s0 1 0 0v2l-1-1zm23 1h-1v-3l-1-1h1l1-1 1-1c-1-1-1-1 0 0v2l-1 2v1h1l1 1c0-1 0 0 0 0h-2zm-162-1v-1 2-1zm40 0 1 1h-1v-1zm76 0v-1l-1-1 1-3v3l1 1v-3l1 2-1 2h-1zm-24 0v-1h1v1h-1zm61-1v-2l-1-4v-1l1 2 1 2 1-2v-1c0 1 0 1 0 0v-2h1l-1 3v3c0-1-1-1-1 1-1 2-1 3-1 1zm2 0v-1 2-1zm27 1 1-1c0-1 0 0 0 0 0 1 0 2-1 1zm-59-2v-2 2l1 2-1-2zm13 1c1 1 1 1 0 0zm1 0v-1l1 1h-1zm-127 0 1-1-1 1c-1 0-1 0 0 0zm8-1v-1 2-1zm1 0-1-2 1 3v-1zm10 1 1-1v1h-1zm13 0-2-1h-1l3 1zm8-3v-4l-1-2-1 5v1-5l1-2-1-1v2h-1v-1l-1-1h-3l-4-1h-1l-2 1v-1l1-2-1 1c0-1 0-1 0 0h1l3-2-1-1-1 1c0 1 0 1 0 0v-1h1l2-1h1v1h3l1 1h-1 1v2-1h7v2h-1 2l3 1h4l3-1 3-1 1 1h1l4 1 2-1h-2l-2-1-1-1h1c0 1 0 1 0 0h3l2 1v-1l-1-1h-3c0-1 0-1 0 0s0 1 0 0l-1-1h-1l-2 1-1 1h-1c0 1 0 1 0 0v-2l1 1v-1l5-1 3 1h1l1 1 1 1v1l1-1c-1 0 0 0 0 0h2v1h-4v-1l-1 2h-1 7l-2 1h-2l1 1h2v3-3l1 1-2 5v-4 1h-1v-2h-2v1h-2l-1-1-1 1v2-1l-1-1c-1-1-1 0-1 2v1l-1-1v-1h-1l-1-1v-1l-2 1h-3v1h-1l-1 1-1-1v-1c0 1-2 2-3 1v1h-1c0-1 0-1 0 0v2s0 1 0 0l-1 1c-1 2-2 1-1-3 0-2 0-3-1-2v2l-1-1v-2l-1-1-1-1v2h1l1 2h-1l-1 4v3zm0-1c0-1 0 0 0 0v1-1zm5-6h4-1l-1-1h-5v2h1c1-1 1 0 1 2s0 2 1 0v-3zm6 1 1 1v-1l4-1h4l1 1 1-1h1l-3-1-2-1-2 1h-3c-1 0-3 1-2 2v1-2zm15-1v-1l-1 1h1zm-35-2h-1 1zm3-2v-1 1zm32-1-1-1v1h1zm-36-1h-1 1zm129 16v-1l1 1h-1zm15 0h1-1zm-81-1v-1 1c0 1 0 0 0 0zm22 0 1-1c1 0 1 0 0 0l-1 1c0 1 0 1 0 0zm37 0h1v1l-1-1zm-130-1v-1h1v2l-1-1zm3 1 1-2 1-2h1l-1 1c0 2-2 4-2 3zm10 0v-2 2zm11 0v-1l1-1c1-1 1-1 1 1l-1 1h-1zm40-1v-1l1 2c-1 1-1 0-1-1zm38 1v-1 1zm1 0h1-1zm4-1v-1l1 1-1 1v-1zm-108 0v-1 2-1zm34 0c0-1 0-1 0 0zm10 0v-1 1c0 1 0 0 0 0zm40 0v-1 2-1zm53 0c0-1 0-1 0 0zm1 0 1-2 1-1-1 1-1 2c0 1 0 1 0 0zm7-1v-1 2-1zm7 1v-1h-1c-1 0-1 0 0 0v-1h3v-1 1l-1 1s-1 0 0 0v1c0 1 0 1 0 0h-1zm1-2h-1l1 1v-1zm-59 1v-4 1l1 2v1h-1zm26 1 1-1v1h-1zm-60-1v1-1zm28 0h1l-1 1v-1zm-119 0v-1 1zm29 0 1-1v1h-1zm85-1-1-1-1-1 2 2v1-1zm4 1-1-2c0-1 0-1 0 0h-1v-3l2-2v-1 2l-2 2h1v1l1 1 1-1 1-1v-3l1-1-1 1h1v1h2v1l-1 1v1h1l-1 1-1-2v-2c0-1 0-1 0 0a440 440 0 0 1-3 6zm16-1c0-2 0-2 0 0v1-1zm23 1v-1 1zm1-1h1v1l-1-1zm2 0 1-1v-1l1-2v-3 5c0 2-1 3-2 3v-1zm-21 0v1-1zm-48-1v1-1zm20 1v-1c0-1 0 0 0 0v1zm-101-1v-3l1 4-1-1zm65 0v-1 1c0 1 0 0 0 0zm101 0s0-1 0 0v1-1zm-84 0c1 0 0 0 0 0zm23-1 1 1h-1c0-1 0-1 0 0v-1zm54 1v-1 1zm5-1v-2c0-1 0-1 0 0l1 3-1-1zm-15 0v-1 1c0 1 0 1 0 0zm12 0c-1-2 0-2 0 0l1 1-1-1zm-164 0v-1h1l1-1v-2 4h-2zm87 0h1-1zm2 0zm2 0c-2 0-2 0 0 0h4-4zm58 0 1-1 1 1h-2zm-32 0v-1 1zm15 0v-2 2zm42 0 1-1c1 0 1 0 0 0l-1 1zm-185-1h1l-1 1v-1zm115 0v1-1zm15 0c-1-1-1-1 0 0 0 0 1 0 0 0 0 1 0 0 0 0zm-14 0v-1 1zm71 0v-1 1c1 0 0 0 0 0zm-169-1h1v1l-1-1zm78 0h1v1l-1-1zm84-1c0-1 0-1 0 0v1-1zm-81 1-1-1h1a159 159 0 0 0 1 1c0-1 0-1 0 0h-1zm28 0 1-1c0 1 0 1 0 0l1 1c0 1 0 1 0 0h-2zm36 0c0-1 0-1 0 0 1 0 1 0 0 0zm14 0v-1h1-1v1zm-60-1v1-1zm51 0 1-2v1l-1 2v-1zm7 0h1v1l-1-1zm11 1 2-1c1 0 0 0 0 0l-1 1h-1zm-72-1h-2 4v1l-2-1zm57 0v-2 1c0 1-1 1 0 0l1-1h2l1-1h1l-1-1v-1c1 0 1 0 0 0v1l1 2h-1v1h-1l-1 1h-1c0-1 0-1 0 0l-1 1v-1zm2-1v-1l-1 1h1zm6 1v1-1zm-77 0v-1l1 1h1v-1l1-1-1-1c1-1 0-3-1-3v-1l1 1 2 3h2v-1l-2-1-1-1-1-1 1 1 1 1h2l1 1c-1 1-1 2 1 2 1 0 1 0 0 0l1 1v1l-1-1c-1-1-6 0-6 1h-2zm5-3h-2l1 1h2zm15 2h1v1l-1-1zm9 0 1-1-1 1zm29 0v-1c1 0 1 0 0 0v2-1zm3 0v-1c-1 0-1 0 0 0v2-1zm-14 0h-1l-2-1h4c0 1 0 1 0 0h2l-1 1h-2zm-32-1 1-1v1l-1 1v-1zm1 1 1-1h2l-1 1h-2zm67 0v-1h1l-1 1zm3-1h1v1l-1-1zm-91 0 1-1h2v1h-3zm2 0v-1l-1 1h1zm26 0h1l-1 1v-1zm15 0c-1 0 0 0 0 0v1-1zm37 0h1v1l-1-1zm3 0h1-1zm-167 0v-1 1zm17 0v-1l-1-1v-1c1 0 0 0 0 0l-1-1h1v1-1h2-1v4zm2 0v-4h4l1 1c0-1 1-2 2-1v-1h1v1c-2 0-2 1-1 2v1h-1v-1l-1 1c0 1 0 1 0 0l-1-1h-2v1h-1l-1 1zm1-2c0-1 0-1 0 0 0 0 0 1 0 0zm57 2v-1l3-1-1 1h2v-1h-1v-1l1 1h2l-1 1-1 1h-4zm5 0h1-1zm6-1-3-1h-2c1-1 0-1-1-1l-1-1h3l1-1 1-1 1 1v1l-2 1h-1v1h1v-1l2 1 2-1h1v1l-2-1 1 2h2-3zm1 0h-1l1 1v-1zm9 1h1-1zm4 0h1-1s-1 0 0 0zm22 0v-1h3-2v1h-1zm8 0c1 0 0 0 0 0s-1 0 0 0zm12 0-1-1h1l1 1h-1zm-150-1h1l-1 1v-1zm0 0h2l2-1s1 0 0 0v1h-4zm8 0v-1l-1-1 2 2 1 1h-1l-1-1zm3 0h1l-1 1v-1zm7 0 1-1v-1 1l1 1-1 1-1-1zm3 0h1l-1 1v-1zm6 0h2l-1 1-1-1zm94 0 1-1v-1 1h1v-1c1 0 1 0 0 0v2-1h1v1l-1 1v-1h-1l-1 1v-1zm59 1h1-1zm-183-1 2-1v1h-2zm85 0h1-1zm7 0c1 0 0 0 0 0zm62 0-1-1v-1l-2-1c-1 0-1 0 0 0v2h-2 1v-2l2-1h5l2-1v2l1-1c0 1 0 1 0 0h3l4-1c5 0 6 1 2 1h-3v1h-2l-1 1-2 1-2-1-1-1-1-1h-1l1 1v1h-4l1 1h3c3 0 3 1 0 1h-3zm7-2h-2 2zm-10 0h-1 1zm13-2h-1v1l1-1zm8 4 1-1v1c1 0 1 0 0 0h-1zm-115 0-1-1h-2v-1h1l1 1v-2c-1-1-1-1 1-1l2 1v2h1-1l-1 1v-1c1 0 1 0 0 0h-1v1zm0-2c0-2 0-2 0 0v1-1zm72 1h-1l1-1h2l1 1c-1 0-1 0 0 0a118 118 0 0 1 1-1c-1 0-1 0 0 0l1 1h-1l-1 1v-1h-2v-1l-1 1v1-1zm2 0-1-1v1l1 1v-1zm5 0h1v1l-1-1zm2 1v-1 1zm3-1c1 0 1 0 0 0v1-1zm1 1h1-1s-1 0 0 0zm2 0 2-1-1 1h-1zm-148-1h1l-1 1v-1zm28 0v1-1zm36 0v-2l1-1v3h-1zm1 0v-1 1zm56 0c-1 0-1 0 0 0h1v-1l-1 1zm46 0h1-1c-1 0-1 0 0 0zm3 0v1-1zm1 0h1v1l-1-1zm18 0-1-1 2 1h-1zm-116 0h1-1zm14 0v-1 1zm25 0-1-1h1l1 1h-1zm3 0c-1 0-1 0 0 0zm9 0h1-1c-1 0-1 0 0 0zm49 0-1-1h2l-1 1zm7 0v-1c-1 0-1 0 0 0h1l1-1 2-1 2-1c2 0 2 0 1 1h2v1h-3v-1l-2 2-3 1h-1zm3-1h-1c-1 0-1 0 0 0h1zm1 1 1-1v1h-1zm3 0h-1v-1h2l-1 1zm-184-1v1-1zm14 0h1v1l-1-1zm7 0h1-1c0 1 0 1 0 0zm42 1 1-1v1h-1zm23-1c-1 0-1 0 0 0h3c1 0 1 0 0 0a1211 1211 0 0 0-3 0zm78 0h3-3zm-95 0 2-1c1 0 1 0 0 0l-2 1h-1 1zm38 0h1-1zm21 0h1-1zm7 0-1-1h2l4-1h2l5 1h1-7l1 1h-5l-1-1 1 1h-2zm5-1h-2l1 1 1-1zm6 1h1-1zm2 0h1-1s-1 0 0 0zm-85 0c0-1 0-2 2-2l1 1h-2l-1 1zm112-1h1l-1-1-1-1h1l1 1 3-1h2l-1 1-2 1h-3zm-71 0 3-1 1 1h4-4l-2-1-1 1c1 0 1 0 0 0h-1zm11 0h3-3zm10 0h3-3zm6 0h2-2zm-2 0h1-1zm45 0h1-1zm-151-1 3-1c2 0 2 0 0 0l-2 1h-1zm25 0h1v-1 1l-1 1v-1zm6 0h-1 2v1l-1-1zm25 0h2l-1 1-1-1zm5 0h2l-1 1-1-1zm5 0h1c1 1 2 1 0 1l-1-1zm24 0 2-1 2 1h3l2-1h1v1h1s1 0 0 0l-2 1-2-1-3 1-3-1-1 1v-1zm9 0h-1 1zm-108 0v-1l1 1h-1zm3 0c-1-1 0-1 2-1 3 0 3 0 2 1h-4zm3 0h-1 1zm31 0h1-1zm31 0h-1 1zm5 0v-1l1 1h-1zm6 0h-2l-2-1h2c3 0 4 0 3 1h-1zm18 0h-2l2-1 1 1h-1zm15 0 2-1c2 0 2 0 0 1h-2zm-116 0v-1l1 1h-1zm91 0 1-1c2 0 2 0 1 1h-2zm-95-1h1-1zm23 0h1-1zm3 0h1-1zm22 0h2-2zm6 0h1-1c-1 0-1 0 0 0zm3 0s0 1 0 0c0 0-1 0 0 0zm1 0h1-1zm4 0h1-1c-1 0-1 0 0 0zm9 0h1-1s-1 0 0 0zm2 0h1-1z" transform="matrix(4.1735 0 0 4.1735 23 129)"/><path style="fill:#a3a3a3;fill-opacity:1" d="M20 184v-1l1 1c-1 0 0 0 0 0h2l1-1h-1s-1 0 0 0v-1c0 1 0 0 0 0h-1v-1h4l1 1h-1c-1 0-2 1 0 1h1v1h-1l-1-1v1h-5zm47 0h1-1zm10 0h1-1c0 1 0 0 0 0zm9 0v-1h1l-1-2h-1v1s0 1 0 0a1140 1140 0 0 0 1-2c1 1 1 1 0 0h1v-1h2l1-1-1 1-1 1s-1 0 0 0h3v-1h2l1 1h1l-1 1-2 2v1h1v-2h1v1l1-1 1 1h1c0-1 0-1 0 0v1-2l-1-1 1-1h1v-1l-3-1c-1 1 0 1 2 1h-3v-2h-5 1v-7 2l1 4v-4l1 1v4-1h1l-1-2c0-2 1-2 1 0l1 3 3 1h2l2 1h1v2h1v-1h5v1h1v-1h1v-1h-2 4v1l-1 1h-1v2l-1 1h-3 1v-3l-1 1-2 2h-1l-1 1-1-1 1-1h-2v-1l1 1 1-1h-2l-1 1v1h-5l-3 1-3-1v-1s-1 0 0 0l-1 1h-1zm5 0v-1h-2c-1 1 0 1 1 1h1zm4-1c0-1 0 0 0 0s1 0 0 0zm3 0v-1 1zm-8-2c-1-1-3 0-2 1h2zm15 0v1-1zm-7 0zm2 0v-1l-1 1h1zm1-2h-2c-1-1-1 0-1 1l3-1zm8 5h1l1-1c0 1 0 0 0 0h1c0 1 0 1 0 0 1 0 1 0 0 0v-2l1 1h2l-1-1h-1v-2h1l2 1c0 2 1 2 1 1h3c1 0 1 0 0 0l-1 1v1c1 0 1 0 0 0h-5c-1-1-1 0-1 1 1 0 1 0 0 0a45 45 0 0 0-4 0zm5-3v-1l-1 1h1zm0 3h5l-3 1-2-1zm6 0v1-1zm1 0h2-2zm6 0v1-1zm3 0v1-1zm4 0h3-3zm9 0h1c1 0 1 0 0 0h-1zm7 0v-1c-1 0-1 0 0 0l1 1h-1c-1 0-1 0 0 0zm7 0h-4l1-1h3c-1 0-1 0 0 0 0 1 1 1 0 0h2l4-1 4-1 2-1-1 1v2c1 1 1 1-2 1-2 0-2 0-1-1 1 0 1 0 0 0l-1 1h-1l-2-1c-2 0-2 1 0 1h-4zm11-1s-1 0 0 0v1-1zm-13 0h-1 1zm25 1h1l-1 1v-1zm8 0h1c1 0 0 0 0 0h-1zm2 0-1-1-2-1h-1v-1h1v1h1l1-1h3c-1-1 0-1 0 0h1c1-1 2 0 2 1v1h3l3-1 1 1-1 1h-1l-2-1-1 1h-2c0-1 0-1 0 0h-2v-1l-2-1h-2v1h3l-1 1-1 1v-1zm2-1h-1 1zm2-1h-1l1 1v-1zm-181 2h1-1zm156 0 1-1v-1h-1l1-1 1 1v-1h1l3 1v2h-6zm3-1h-1c-2 0-1 1 0 1l1-1zm2-1h-1v1l1-1zm1 1v-1h4v-1c-1-1 0-1 1-1l2 1h-2v1h5l1 1h-5l-4 1-2-1zm7 0h-1 1zm2 0h-1 1zm-114 0-1-1 1-1h1l-1 1v1h1-1zm-43 0h1l1-1s0-1 0 0v-2h1v1h1l2-1h2-1l1 1h-1l-1 1v-2l-2 1v1l-1 1h-3zm38 0v-1l-1-1h2v2h-1zm1-1-1-1v1h1zm13 1-1-1v-1l1-2c1-1 1-1-2-1h-2 3c3 0 3 0 2-1h-2 3v-3c0-1 0-2-1-1v1h-1v2c-1 0-1 0 0 0v-8c1 1 1 1 0 0v1h1l2-1 1-1-1-1-1-1c0-1 0-1 0 0h1l1-1 1-1 1-1v1l-3 3h2v2l1-1v-3c-1 0-1 0 0 0l1 2v4-1h-1l-1-1s0-1 0 0h-1c0-1 0-1 0 0v2l-1 2-1 2c-1 2-1 2 1 2h3l-3 2h-1 1v1l-1 1v-1h-1v2c-1-1-1 0-1 1h1l1-1-1 1v1h-1zm3-12 1-1-1-1h-1v3h1v-1zm-1 0-2-1c-1 1 0 2 1 2 0-1 0 0 0 0l1-1zm0-2v-1l-1 1 1 1v-1zm40 14s0-1 0 0v-2l1-1 1 1h1v-1l1-1c2 0 2 0 0-1h1l3 1c0 1 1 2 2 1-1-1 0-2 2-2h2l1-1v1l1 2v-1h2l2-1h1c1 0 1 0 0 0v1h2v-1 1l-1 2-1-1c-1 1 1 2 2 2h-1l1 1h2-5l2-1h-2l-1-1h-1v-1h-4l1 1v1h-6l-1-1h-1l-2 2v-1c1 0 1 0 0 0h-3v1h-2zm11-2h-2l1 1 1-1zm-5 0v-1l-1 1h1zm7 0h-1 1zm-1-1v-1h1l1 1v-1l1-1h-2l-2 2h1zm-4 0-1-1v1h1zm12 0v-1l-1 1h1zm-3-1v1-1zm-14 4h1-1zm6 0h1c1 0 0 0 0 0h-1zm3 0c-1 0-1 0 0 0h2-2zm3 0h1c1 0 0 0 0 0h-1zm16 0h1-1zm-137-1c1 0 1 0 0 0h-1l-1-1 1-1h6c1 0 1 0 0 0h-1l-1 1-1 1c-1 0-1 0 0 0l-1 1-1-1zm2-1h-1 1zm39 2-1-1h2v1h-1zm11-1h1v-1 2l-1-1zm-36 0h1-1zm8 0h1v1l-1-1zm72 0s0-1 0 0c1 0 1 0 0 0zm-52-1 1-1v-1h1l1 1h1-3l1 1-1 1h-1v-1zm3 1v-1l1 1h-1zm10 0c-1-1 0-1 1-1l1-1h1v1c-1 0 0 0 0 0h1l-2 1-1-1v1h-1zm5 0v-1l1 1h-1zm62 0v-1h1l-1 1c-1 0-1 0 0 0zm7 0v-1l-1-1v1l-1 1v-2l1-1h4l1-1-1 2-1 1h-1l-1 1zm3-2-1-1v1h1zm0 2c1 0 0 0 0 0zm-100-1h-1v-1h1v2-1zm102 0 1-2v1l-1 1c0 1 0 1 0 0zm11 0-1-1h-3c-2 0-3-1-1-1h5v1l1 1 1-1h1l1-1h2l-1 1-1 1h-4zm-4-2h-1 1zm1 0s1 0 0 0zm38 2h-1 3l-1 1-1-1zm-161-1v1-1zm18 1-1-1c-1 0 0 0 0 0h1l-1-1h3v2h-2zm129-1h1l-1 1v-1zm17 1 1-1h1l-1 1h-1zm-179-1v-1h1c0 1 0 2-1 1zm36 0v-1 1zm-20-1h-1l-7-1h-2 10l1 1c0-1 0-1 0 0h-1zm9 0h-5l1-1 2-1h1v-1h1l1 1 1 1h1v-1c-1 0-1 0 0 0 1 1 0 2-1 1h-2v2-1zm0-2h-1v1c1 0 2 0 1-1zm21 3-1-1c-1 1-2-1-1-1l3 1c0-1-1-2-2-1l-1-2v-5l1 3 1 2c1-1 1-1 0 0l1 1v-4 5l1-2c0-1 0-1 0 0h1v2h1l1-1h2l1-1 1-2v-1l2-1c0-1 0-1 0 0l-1 1v1h1l-1 1-1 1-1 1h3-2l-3 1h1v1h-3l-1-1h-1v2h-2zm-1-3v-1l-1 1h1zm17 3v-1c0 1 0 1 0 0h1l-1 1zm70 0 1-1v1h-1zm-48-1c-1 0-1 0 0 0h2c0-1 0-1 0 0 1 0 1 0 0 0h-2zm11 0h1v1l-1-1zm4 0h-3 1l2-1v1c0 1 0 1 0 0zm50 0h1-1zm13 0h2c1 0 1 0 0 0h-2zm4 0h1s0-1 0 0h4-5zm-15 0c1 0 1 0 0 0 0 0-1 0 0 0zm-133-1h1-1zm23 0h1l-1-1s-1 0 0 0h2c0 1-1 2-2 1zm22 0h1l1 1h-1l-1-1zm38 1c0-1 0-1 0 0-1 0-1 0 0 0zm7-1h2-2zm51 1h2-2zm21 0-1-1-1-1h-1l1-1h1l1 1-1 1h1c0-1 0-1 0 0v1zm-1-2v-1 1zm-175 1h1-1zm30 0-1-1-3 1c-1 0-2-1 0-1v-1h-1v-1h1c0-1 0-1 0 0s3 3 3 1h-1v-3c1-1 1 0 1 2 0 1 0 2 2 2v-1h-1v-3c0-1 0-1 0 0l1 1 1 1v-1h-1v-1l-1-2h1v1h1l2 3-1-1v1l-1 1 1 1 1-1c0 2 1 1 1 0v-4s0-1 0 0l1 1c0 1 0 1 0 0l1 2v1l-1-1v1l-1-1c0-1 0-1 0 0l1 2v1h-3 1-4zm-3-1h-1v1l1-1zm60 1h1-1zm2 0c-1 0-1 0 0 0h1-1zm-98 0h-2l-2-1h2l2-1v-1 3zm1 0 1-1-1 1zm5 0v-1l-1-1h1c1 0 1 0 0 0v-2l2 1v2-2l1-1v2c0 1 0 1 0 0l-1 2h-2zm19 0zm62 0c-1-1-1-1 1-1l1 1h-2zm64 0v-1h2-1v1h-1zm-80-1h1v1l-1-1zm12 0v-2 1h1v2l-1-1zm7 0h1-1zm87 0v-3 1l1 2 1 1h-1l-1-1zm-98 0v-1h-1v-2l-1-1v-3c-1 1-1 0 0 0 0-2 1-2 1 1v3l1 1v1h1l1 1h-2zm-76-1v-1 2-1zm7 1 1-1c0-1 0-1 0 0h2-2l-1 1zm85-1h3c0 1 0 1 0 0h-3zm-81 0h1-1zm4 0 1-1 1-1-1 1v1h-1zm5 0h3-3zm-2 0-1-1c0 1 0 1 0 0h4-1l-1 1h-1zm15-1 1-1v2l-1-1zm19 0s0-1 0 0v1-1zm39 0h1c0 1 0 1 0 0l-1 1h-1l1-1zm-84 0v-1c0-1 0-1 0 0h1l-1 2v-1zm3 0v-1l1 1h-1s0 1 0 0zm1 0c0-1 1-2 2-1l-1 1h-1zm2 0h1-1zm12 0v1-1zm18 0v-1c0-1 0-1 0 0v1zm2 0c0-1 0-1 0 0zm-52 0c-1-1 0-1 2-1l1 1h-1l-1-1v1h-1zm72-1v-2 1c0 2 0 2 1 1l-1 1v-1zm12 1s0-1 0 0c0-2 0-2-1-1v-1h1l1 2h-1zm-68-1v-1 1l-1 1 1-1zm19 1 1-1v1h-1zm25 0v-1l1-2v-1l1-1s0-1 0 0v2l-1 2-1 1zm127-1c-1 0 0 0 0 0v1-1zm-181 0v-1l1 1h-1zm3-1v1-1zm13 1a54 54 0 0 0 1 0h-1zm12 0v-1 1s0 1 0 0zm4 0v-1l1 1h-1zm-13 0v-1l1 1h-1zm26-1v-1 1c0 1 0 0 0 0zm-39 0v-1l1-1 1-4v-2 2l-1 3v3h-1v1-1zm6 0c0-1 0-1 0 0h1a12762 12762 0 0 1-1 0zm3 0 1-1v1l-1 1v-1zm6 0c-1 0-1 0 0 0h2-2zm25-1s0-1 0 0v1-1zm5 1v-4h1v-2h-1c0 1 0 1 0 0v-1c1 0 2 1 1 2l1 2v1h-1v1h-1v1zm1 0h1-1zm127-1v-2 3-1zm-174 1v-1h-1v-1l1-1s0-1 0 0v3zm20 0c-1 0 0 0 0 0h1-1zm9-1h1v1l-1-1zm36-1v-2 4-2zm10 2v-1h1-1l1-1c0-1 0-1 0 0l-1 2zm102 0v-1h-1v1c-1-1 1-1 1-1h2l-1 1h-1zm-180 0-1-1-1-1v-2h1c0 1 0 2 1 1l1-1-1 1v1l-1 1h1v1zm27-2c-1 0-1-1 0 0l1 1-1-1zm15 1v-1l1 1h-1zm10 0v1-1zm121 0v-3l-1-1v-5 1h1v8zm-168 0 1-1v1h-1zm13 0c1 0 0 0 0 0s-1 0 0 0zm63 0v-2l1 1v1-10 2l-1 1v-4l1-4h-1l-1-1h1l1-5v-18c0-9 0-9-3-9h-2v3-3h-2l-1-1h2-1v-1l2 1h4l-2-1h-1l5 1-1 1 1 25v23h-2zm2-12-1-1v2l1-1zm-1-37c-1 0-1 0 0 0 0 0 1 0 0 0zm-76 47 1-4h1l-1 1v5zm3 1 1-1v1l-1 1v-1zm12 1h2-2zm13-1v-2 3zm5-1s0-1 0 0v1-1zm16 2v-1h-1 1v-2l1 2v-1 2h-1zm-43-1v-1 1l2-1 1-2-1 2c-1 2-2 2-2 1zm18 0v-1 1s0 1 0 0zm-15 0h1-1zm2 0-1-1c-1 0-1 0 0 0h1v1zm14 0s0-1 0 0v-1c0-1 0-1 0 0h1v1h-1zm14 0v-1h1l-1 1zm19-1v1-1zm14 1v-1c0 1 0 0 0 0 0-1 0-1 0 0v1zm102-1h2l-1 1h-1c1 0 0 0 0 0v-1zm-144-2 1-3v6l-1-3zm39 1v-1 3-2zm-56 1h1c1 0 1 0 0 0h-1zm24-1v-1l1 1-1 1v-1zm-22 1 1-1 1-2h1l-1 1v1h-1l-1 1zm2-2c-1 0-1 0 0 0zm47 1h1-1zm-59-1 1-1-1 1v1-1zm67 0 1-1h1v1h-1l-1 1v-1zm-86 0h1l-1 1v-1zm12 0h1l-1 1v-1zm24 0-1-1h1l1 1h-1zm4 0h-1l2-2-1 2v1-1zm-17 0c-1 0-1 0 0 0 0-1 0 0 0 0 1 0 1 0 0 0zm24-2v-3 3c0 3 0 3 0 0zm43 2v-1c0-1 0 0 0 0v1zm-65 0v-1c1 0 1 0 0 0v1zm16-1h1l-1 1v-1zm35 0v-2c0-1 0-1 0 0l-1-1v-2h1v1l1-1 1-1v2l-1 2-1 3v-1zm-1-4v-1 1c1 0 0 0 0 0zm-64 4a19 19 0 0 1 1-7v-1 3l-1 2c0-2 0-2 0 0v3s0 1 0 0zm56 0c0-1 0-1 0 0h1c0-1 0-1 0 0h-1zm13 0v-2 2c-1 1-1 1 0 0zm105-2v-1 2-1zm-179 1h1v1l-1-1zm6 1v-2l1 1-1 1zm63-1s0-1 0 0v1-1zm13 0v-1 2-1zm-68-1v-1c0 1 0 0 0 0v-1 2c0 1 0 1 0 0zm7 0 1-1v1c-2 1-2 2-1 0zm11 0v-2h1v3h-1v-1zm-34-1v-1 2-1zm60 1v1-1zm-29-1c-1 0-1 0 0 0v1-1zm27 1 1-2v2h-1zm-49-1h1v1l-1-1zm3 0h-1v-1h1v2-1zm63-2c0-3 1-3 1 0v3l-1-3zm-78 2-1-2v-1l2 1 1 1v1h-2zm38-2v-2 1l1 1v1l-1-1zm19 2v-2c0-2 1-1 1 1l-1 1zm9 0v-1 1zm-40-2c1 0 0 0 0 0v1-1zm6 0-1-3h2v-7l1 3-1 4v1c1 0 1 0 0 0v1l-1 1v-2l-1-1 1 1v3-1zm-19 0v-4 5zm8 0v-2l-1 1v-1l1-4a137 137 0 0 1 0-4v10c-1 1-1 1 0 0zm49-1 2-1 1 1h-2c-2 2-2 2-1 0zm-40 0 1-1-1 2v-1zm6 0 1-1v2l-1-1zm4 0v-1 2-1zm-24 0 1-1-1 1c0 1 0 1 0 0zm12 0c2-1 2-2 1-3l-1-1 1-1 1 1 1 2-1 1-2 2v-1zm1-4c0-1 0-1 0 0l1 1-1-1zm48 4v-2h1l-1 2c0 1 0 1 0 0zm110 0 1-2v-1 2c0 2 0 2-1 1zm1-1h-1l1 1v-1zm-134 0h1v1l-1-1zm125 0 1-1v2l-1-1zm5 0v1-1zm-171-1v-15l1 1v5l-1 7 1 2c0 2 0 2-1 0zm2-2v-1 2-1zm21 1v-1 2-1zm39 1v-1 1zm-58-1h-1s0 1 0 0v-2c1-2 2-3 1-5l-1-3v-3l1 2v4l1 4c0 1 0 1 0 0h-1v4-1zm168 1h1-1zm-148-1v-3l1 4-1-1zm147 0v-1 1c0 1 0 0 0 0zm-4-4zm6 3a54 54 0 0 0 1 1l-1-1zm-176-1v-6 8-2zm14 1h3v-1l2-1-1 1h-1v1c1 0 1 0 0 0h-3zm51-1v-3c0-1 0-1 0 0l1 2-1-1v2zm-51 0v-1s0-1 0 0l1 1h-1zm1 0h1-1zm159-1v-1 2-1zm-181 0v1-1zm184 1 1-1v1h-1zm-143-1v-1 2-1zm10 0v-1 1zm-15-1v-1 1c0 1 0 0 0 0zm48 0 1-1v1h-1zm-63-1h-1v-1h1v2-1zm125 1h1-1zm39 0v-1l1 1h-1zm-35-1v1-1zm34-1v-1l1 1h1-2zm-107 0v-2 2c1 0 1 0 0 0zm47-1h3l-1 1-2-1zm-94 0v-3l1-2v3c0 2 0 3-1 2zm155 0v-1 1zm-165-1v-1l-1-1c0-1 0-2 1 0v2zm-4-1v-1 1h1c0-1 0-1 0 0v1l-1-1zm19 0s0-1 0 0v1-1zm6 0s0-1 0 0 0 1 0 0zm22 0h-2l1-1 1 1c0 1 0 1 0 0zm-67 0v-1h1l-1 1zm137-1v-1 1zm48 0c0-1 0-1 0 0zm-148-1 1-2-1 2c0 1 0 1 0 0zm2 0v1-1zm-19 0v1-1zm5-1-1-1-1-4-2-4 3 6c0 2 2 3 3 3h1l2-1 2 1h-2 1l1 1-2-1h-5zm-6-1v-2 2l1 1-1-1zm3 0v-1 2-1zm17 1 1-1v1h-1zm148-1v-1h1c0 1 0 1 0 0l-1 1h1v1l-1-1zm2 0v-1 2-1zm-173 0v-5l1 2v3h-1zm17-1 1-3c1-1 1 0 0 0v3h-1zm2 1v-2 2zm-35-1v1-1zm6 0 1-1c0-1 0-1 0 0l-1 1zm8-3v-2 5-3zm6 0v-1l1 2-1-1zm-2 0-1-2 1 1v1zm125 0 1-1c1-2 2-2 2-1h-1c-1 0-1 0 0 0l-2 2c-1 0-1 0 0 0zm45 0-1-2v-1h1-1v1h1l1 1v-1l-1 2zm-188-1v-1l1-1 1-1-1 1v1l1 1-1 1-1-1zm1 0h-1 1zm24 0v-1l-1-1c-1-1-1-1 0 0l1 1h4l-1 1-2 1-1-1zm1 0s-1 0 0 0v1-1zm2-1c0 1 0 1 0 0zm1 2 3-2 2-2v-1 1l-1 2-2 1-2 1zm14-1s0-1 0 0v1-1zm-1 0s0-1 0 0v1-1zm6 0s0-1 0 0v1-1zm-40-1h1v1l-1-1zm4 0v-1 2-1zm3 0v-3c0-1 0-1 0 0l1 2v1h-1zm20 1v-2l1 1-1 1zm2-1 1-1-1 2v-1zm95 0v1-1zm-129 0zm3 0 1-1v1h-1zm13-1v-2 3-1zm21 1v-1 1c0 1 0 1 0 0zm97-1v-2c1 0 1 0 0 0l1 1v2l-1-1zm15 0v1-1zm-135-1v-1h-1v-3l1 4v1-1zm172 1v-2l1-1-1 1a122 122 0 0 1 0 2zm-32 0v-3l1-2v-1 2l1-2v1l-1 4-1 1zm1-2 1-1h-2v1h1zm-146 1zm31-1c0-1 0-1 0 0l1 1h1-1l-1-1zm105 0h-1l-1-1h2l1 1c0 1 0 2-1 0zm1 0v-1l-1 1 1 1v-1zm3 0v-1l1 1-1 1v-1zm-129 0-1-2v-2l1 2 1 2h-1zm93 0h1c0 1 1 0 0 0v-1 2l-1-1zm-107-1v-1l-1 1c-1 2-2 1-2 0v-7c0 1 0 0 0 0v-1l1 4v-1 2c0 2 0 3 1 2h1v1c0 2 0 2 0 0zm88 1v-1l1 1h-1zm-52-1-1-1 1 1v1-1zm96 0v-1l-1 1v-2c1 0 2 1 1 2 0 1 0 1 0 0zm-141 0a179 179 0 0 1 1 0h1l-1-1 1-1v2h1l-2 1-1-1zm48 1v-2h1l-1 1v1zm118-1v-2l1 3-1-1zm-152 0 1-1c0-1 0-1 0 0l-1 1zm21 0 1-2v1h-1v1zm8-1 1-1v1h-1c0 1 0 1 0 0zm94 0h1-1zm6 0h1v1l-1-1zm7 0v-1 2-1zm2 0 1-2v3-2l-1 1v1-1zm-141 0v-1 1h1-1zm9-1-1-2c0-1 0-1 0 0l1 3v-1zm9 1-1-1v-1l1 1h2v1h-2zm88 0 1-1h1v1h-2zm4-1v-2 2zm22 0v-1 1h1-1zm43 0c-1 0-1 0 0 0h1-1zm1 0h-1 1zm2 0h-1v-2c-1 0-1 0 0 0h1v3-1zm-172 0v-1l-1-2v-2l1-1h-1v-1l1-2v1l1 1v1-1l1-1v3l-1 1v-1l1 1h-1v2c0 2 0 3-1 2zm99 0 1-1v1h-1zm13 0 1-2v1l-1 1zm44 0 1-3h1l-1 1v2c1 0 1 0 0 0h-1zm-172 0 1-1-1-1v-1h-1 2l1-1v4h-2zm136-1v-1l1 1-1 1v-1zm11 0v1-1zm-123-1-1-2v-3c0 1 0 0 0 0v-2l-1-1v2h-1v1l-1-1v-1h-1c0 1 0 1 0 0l-3-1-2 1a26 26 0 0 1 0 3l-1-1v-3l-1 3v1-2l-1-1v3c1 0 1 0 0 0l-1 1h-1l-2 1v-4 1l1-1-1-2-1 2c1 1 0 1 0 0 0 2-1 2-2 0l-1-1h-3l-1-1v-2l1 1 1-1 1-1v1h2s1 0 0 0v1c-2 0-1 0 0 0h1l1-1h1-1v1l2 1v-1c-1-1 0-1 2-1h1v-1 1h1v-1h2c1 1 1 1 0 0-2-1-2 0 0 1v1l1 1v-1h1v-1h1v-1h-1 3v1-1h3v1l1-1c0-1 0-1 0 0h1l1-1 1 1 1 2v-1l1-1v1l1 1v1l1-2v-2 2l1 2h-3c-1 1 0 2 2 2 0-1 0-1 0 0h-2c-1 0-2 0-1 1v2-1h1l2 1v-1c-1 0-1 0 0 0v1c-2 1-3 1-4-1l-1-1h-1v1l1 3c2 2 1 3-1 1zm0-3-1-1v1h1zm-14-5h-1v2l1 1v-3zm16 1h-1v1l1 1v-2zm-20 0-1-1c-2-1-2 0-1 1h2zm6-2v1-1zm-10 0v1-1zm5 0h-1v1l1-1zm3 0h1l-1-1-2 1h2zm3 0v1-1zm5 0h-1v1l1-1zm8 0-1-1v-1 1l-1 1 1 1 1-1zm2 0h-1v1l1-1zm-27-1v1-1zm29 1v-1 1zm118 10v-1h1l-1 1zm32-1v1-1zm-166 0v-1h1l-1 1zm18 0v-1l1-1v1l-1 1zm85 0v-4 1l1 1c-1 0 0 0 0 0v1l-1 1h1-1zm1 0 1-1-1-1 1-2v-1h2-1c1 1 1 0 1-1h2v2l-1 1-1 1 1-1 1-2h-1l-1 1v1h-1c0 1 0 1 0 0l-1-1v4h-1zm4 0h1-1zm34 0v-1 1zm6 0v-1h1l-1-2v-1l1 1v3h-1zm3 0v-3 3zm20 0h1-1zm-164-1h-1l-1-1v-1h1c1-1 1-1 0 0l1 2v1-1zm-1-1-1-1v1h1zm33 1s0-1 0 0v1-1zm70 0c0-1 0-1 0 0h-1v-1c1-1 1-1 1 1 1 1 1 1 0 0zm28 0v-1c1-1 1-1 1 1h-1zm-22-1-1-1-1-3h-3v-1c-1 1-1 0-1-1l1 1h2l2 1v1l1 3c0 1 0 2 0 0zm12 1 1-2v1c0 1 0 1 0 0h-1v1zm47 0v-1 1zm-154-1h1-1zm151 0v-1c-1-1 0-1 1-1h2v-1h-1s-1 0 0 0h-1l1-1 2 1-1 2h-2v2l-1-1zm-144 0v-1l1-1-1 1v1zm107 0v-2l1 1h-1l1 1h-1zm-109-1c0-1 0-1 0 0v1-1zm18 1v-2c0-2 0-3-1-2h-1v-2 1h1l1-1h1v1l2-1 1 1h1-3l-1 3-1 2zm57-1 1-1v1h-1zm-101 0c0-1 0-1 0 0zm103 0-1-1h1v1c0 1 0 1 0 0zm9 0v-1c1 0 1 0 0 0v1c1 0 1 0 0 0 0 1 0 1 0 0zm54 0v-2c0 1 0 1 0 0l1 1-1 1c-1 0 0 0 0 0zm-180 0v-3 3c1 0 2-1 1-2h1l1-1v2l-2 1h-1zm131-1h1v1l-1-1zm29 1h1v-1l1-1v1l-2 1zm15 0v-2l1 1-1 1zm-143-1 1-1v2l-1-1zm2-1v-1l1 1 1-1h1-4l-1-1h2l-1-1v-1l1-1c0 1 0 0 0 0h2l1 1v1l1-2v1h1v-1c-1-1-1-2 1-2v-1l2-1h1l-1 1v1c0 1 0 1 0 0l1-1 1 1-3 2s0 1 0 0h-1l-1 2-1 1v1l-3 2-1-1zm2-2-1-1-1 1h2zm0-2h-2l1 1 1-1zm1 0-1-1v1h1zm3-2h-1 1zm2 0h-1 1zm108 7h1-1zm27-1 1-1 1 1h-2c0 1 0 1 0 0zm-127-1v-1l-1 1h-6l-1 1h-1l1-1 1-1h-1c-1 0-1 0 0 0l2-1h2-1a703 703 0 0 1-4 1l-1 1h-1v-1c0 1 0 0 0 0l3-2h1l4 1h3v4-2zm45 1s0-1 0 0l1-1 1 1 1 1-1-1h-2zm39 0 1-1v2l-1-1zm19 1 1-1-1 1zm7-1v-1l-1 1 1-1v1c0 1 0 1 0 0zm3 1c0-1 0-1 0 0 1 0 0 0 0 0zm3-1h1l-1 1v-1zm-137 0zm22-1 1-2 1 1c-1 3-1 3-2 1zm1-1v-1 1c0 1 0 1 0 0zm3 1h-1v-2l2 2c0 1 0 2-1 0zm44 1 1-1v-1l-1 2zm-34-1c-1-1 1-2 2-2h3l2-1-1 1h1l5 1h-1l-1 1-1-1h-4l-4 1v1l-1-1v-1 2zm32 0 1-1v-1l1 1c-1 0 0 0 0 0 0 1 0 1 0 0l-1 1h-1zm32 0 1-1v1h-1zm25 0h1l1-1 1 1h-3zm-23 0 1-1v1h-1zm40 0v-2h1v1l-1 1zm-92-1 1-1v1h-1zm24 0h-1s-1 0 0 0l-1-1h1l2-2v1l1 1-1 1-1 1v-1zm1-1h-1 1zm11 2c0-1 0-1 0 0-1 0-1 0 0 0zm18-1h-1v-1h1v1c0 1 0 1 0 0zm0 0zm42 0h1v1l-1-1zm5 0v-1l1 1h-1zm-18 0v-1l1 1h-1zm7 0v-1 1c0 1 0 1 0 0zm3 0 1-1v1h-1zm3 0-1-1h1v1c-1 0-1 0 0 0zm12-1v1-1zm1 0 1 1h-1v-1zm-89 0h1v-1h-1 2c0 1-1 2-2 1zm12 0v1-1zm2 0v1-1zm15 0 1-1h1v1h-2zm21 0c-1 0-1 0 0 0h1-1zm37 0v1-1zm-80 0h2-2zm10 0h1-1zm2 0h2-2zm9 0v-1 1h-1 1zm49 0v-2h-1v-1h1v1h1v1l1 1h-2zm5 0h1-1zm2 0h1-1s-1 0 0 0zm-46-1v-1h1l-1 1zm-75-1h1-1v1-1zm30 1h1-1zm3 0v-1l1 1h-1zm1-1h-1l-2-1c-1 0 0 0 0 0l1-1c1 0 1 0 0 0l1 1 1 1c0 1 0 1 0 0zm37 0h1v1l-1-1zm2 1 1-1v1h-1zm10 0 2-1-1 1h-1zm3-1h1l-1 1v-1zm2 1 2-1h1v1l-1-1v1c1 0 0 0 0 0h-2zm-117-1c0-1 0-1 0 0zm68 0v-1l1 1c1 0 1 0 0 0h-1zm5 0-2-1v-1s-1 0 0 0h1l1 1 1 1c-1 0-1 0 0 0h1-2zm52 0-1-1h4v-1l-1-1h1l1 1 1 1 3 1h1-6 1-1l-2-1v1h-1zm10 0v-1l1 1c-1 0-1 0 0 0v1l-1-1zm4 0h-3v-1l4 1h-1zm-113 0a40 40 0 0 0 0-2l-1 1c-1 1-1 1 0 0v-1c1-1 2 0 2 1s0 2-1 1zm6 0v-1 1zm14 0v-1h-1 1c2 0 2 1 1 1h-1zm41 0-1-1h12l-1 1h-10zm65 0v-1h-1l1-1-1 1h-3 1l2-1h1l2-1h1l-1 1v1l-1 1h-1zm-115-1v1-1zm12 0c0-1 0-1 0 0l1 1h-1v-1zm4 0h1l-1 1v-1zm12 0h2l-1 1-1-1zm14 0c-1 0-1 0 0 0h2-2zm4 0h1-1c-1 0-1 0 0 0h2l-1 1c-2 0-2 0-1-1zm32 1c0-1-3-2-4-1v-1h10l-1 1a860 860 0 0 1-5 1zm30-1h1l-1 1v-1zm1 0h1l1 1-2-1zm-95 0v-1l1 1h-1zm6 0v-1 1h1c1 0 1 0 0 0h-1zm42 0h1-1zm-96-1h1l1-1 2-1v1h-1v1c-1-1-2 0-2 1l-1-1zm36 0 1-1v1h-1zm37 0-1-1 1 1h2-2zm24 1v-1l1 1h-1zm3 0-2-1h1l3 1h-2zm4 0v-1 1zm1 0v-1c1-1 2 0 2 1 1 0 0 0 0 0l-1-1-1 1zm13 0h1-1zm-119-1c-1 1-1 0 0 0zm14 0h2l-1-1h-2 3v-1l1 1v1h-3zm5 0h1-1zm7 0v1-1zm13 0v-1h1v1h-1zm14 0c1 0 0 0 0 0s-1 0 0 0zm101 0c0 1 0 1 0 0zm-189 0h1-1zm33 0h1-1s-1 0 0 0zm46 0v-1l1 1h-1zm7 0h1-1c-1 0-1 0 0 0zm76 0 1-1 4-1-1 1h-2c0 1 0 1 0 0v1h-2zm-145-1c-1-1-1-1 0 0h1v-1h1l1 1h4l-3 1-4-1zm54 0s-1 0 0 0l1 1-1-1zm13 0-1-1h1v2-1zm72 0h1v1l-1-1zm11 0h1l-1 1v-1zm3 0h3l3-1h1l1 1 1 1h-1l-1-1h-1l-3 1-3-1zm-157 0v-1 1h1v-1l-1 1zm33 0c-1-1 1-1 3-1h-1l-1 1h1-2zm7 0c1 0 0 0 0 0s-1 0 0 0zm32 0 1-1-1 1c-1 0-1 0 0 0zm5 0c1 0 1 0 0 0zm34 0h1-1zm2 0c-1 0-1 0 0 0h1-1zm63 0v-1c1 0 1 0 0 0v1c1 0 1 0 0 0zm-183-1h1l-1 1v-1zm2 1v-1l1 1h-1zm2 0 1-1 1 1h-2c-1 0-1 0 0 0zm15 0v-1l1 1h-1zm2 0h1-1zm9-1h1l-1 1v-1zm86 1 1-1v1h-1zm-88-1h1-1zm30 0h1-1zm14 0c1 0 0 0 0 0s-1 0 0 0zm33 0h1-1zm74 0h1-1z" transform="matrix(4.1735 0 0 4.1735 23 129)"/><path style="fill:#8c8c8c;fill-opacity:1" d="M12 184h2v-2h-1 2c1 0 1 0 0 0l1 1v1l-2 1-2-1zm12 0h1l-1-1h1l-1 2v-1zm2 0v-1l1 1 1-1h1l-1 1h-2zm16 0-4-1-2-1h1l2-1 2 1 1 1 1 1h-1zm-2-2h-1l1 1v-1zm13 2v-1 2-1zm2 0v-1l-1-1c-1 1-2 0-2-1v-1h-1s0 1 0 0l1-1 1 1 1 1c1 0 1 0 0 0v1l2-1h1v2c-1 0-1 0 0 0l-2-1 1 1v1h-1zm2-3v-1 1zm11 3h-2l-3-1-1-2v2h-3 2v-2h-1l1-1h2-1l-1-1v-1h-2l3 1v-1h1l2 1v1l-1 1c1 0 0 0 0 0l1 1v1h1v-1h1l1 1v-2h1v3h1v-1l1 1h-2l-1-1v1c0 1 0 1 0 0zm7 0h-4l-1-1v-1l1-1-2-1v-2h1l1 1h2c0-1 0-1 0 0v1h-1 2v-1a88 88 0 0 1 3 0h-1 3l-1 2v1l1 1h1v-4h1v1l1-1c-1 0-1 0 0 0l1 1v-1l-1-1h1l2 1 1 1c1 1 0 1 0 0h-2 1l-2 1c-1 0-2 0-1 1l2 1h-1l2-1 2 1h-2c-1 0-1 0 0 0v1h-2l-1 1-1-1c1 0 1 0 0 0v-2l-1 2v1-1h-1l-1 1v-3 1l-1 1h-2zm2-1-1-1v2l1-1zm-2-1h-1 2l-1-1v-1h-1l-1 1c-2 0-2 1 0 1v1h2v1-2zm3 0v-3l-1 1v2h1zm-7-2h-1l1 1v-1zm12 0h-1 1zm4 4h1l-1 1v-1zm7 0h2l-1 1-1-1zm5 0h1-1c-1 0-1 0 0 0zm32 0v1-1zm0 0h-1l3-1 3 1h-4v1l-1-1zm48 0h1l-1 1v-1zm8 0h1l-1 1v-1zm-98 0v-1h2v1h-2zm3-1 2-2 1-1h-2v-1h3v1h1v-1 1l-1 1 1 2h-1l-1-1h-2v2h-1v-1zm13 1 1-1h2l-3 1zm3 0 1-1h1l1-1 1 1c0 1 0 1 0 0h-1s0 1 0 0l-1 1h-2zm5-1h4c1-1 1-1 0 0h2c1 0 1 0 0 0h-6zm7 1 5-1h4l-1 1h-8zm19 0 3-1h3l-3 1h-3zm7 0c1 0 1 0 0 0 0 0-1 0 0 0zm1 0h1-1zm2 0-1-1h-1l3 1h-1zm2 0-1-1h4l-3 1zm6-1c-1 0-1 0 0 0v1-1zm2 1h4-4zm5 0 1-1c1 0 1 0 0 0l-1 1zm33 0h1c1 0 1 0 0 0h-1zm3 0 1-1v1h-1zm-180-1h2c0-1 0-1 0 0h-2zm23 0h2c0-1 1-1 0 0h-2zm95 0v1-1zm30 0c-1 0 0 0 0 0v1-1zm2 0h2l-1 1-1-1zm-140 0 1-1v1c1 0 1 0 0 0h-1zm68 0v-1 1zm56 0h1-1zm27 0h1-1zm2 0h1-1zm8 0h1-1zm-143-1v-1h1v1h1-2zm51 1 1-1h2l-1 1-1-1-1 1zm-39-1c-1 0-1 0 0 0zm-43 0 1-1h-1v1c-1 0 0 0 0 0zm4-1h1c1 0 1 0 0 0h-1zm12 1 1-1v1h-1zm2 0v-1 1zm7-1-1-1 2 2-1-1zm16 0v-1l1-1 1 1-1 1v1l-1-1zm47 0v1-1zm21 1h1-1s-1 0 0 0zm16-1v-1l2 1v1l-2-1zm31 1h1-1zm-145-1 1-1v1h-1zm37 0v-1l1 1h-1zm46 0h1v1l-1-1zm5-1-1-1h-2l2-1 1 1 2 1h-1l1-1h2c0 1 0 0 0 0l1-1v2l1-1h4-1l-1 1v1h-7c0 1-1 1-1-1zm14 1h2l-1 1-1-1zm-111 0h1-1s-1 0 0 0zm4 0v-1l1 1h-1zm2 0h1-1zm77 0v-1l1-1h7v1h-1v1h-1v-1h-2l-2 1v-2l-1 2h-1zm11 0 1-1v1h-1zm20 0h1-1zm58 0h1-1zm-155-1h-1v-1l2 2-1-1zm4 0h1v1l-1-1zm7 0c-1 0-1 0 0 0h1-1zm2 1v-1l1 1h-1zm90-1h1v1l-1-1zm-121 0h1-1zm25 0c-1 0-1 0 0 0 0 1 0 1 0 0zm45 0h2v-1 1h-2zm42 0-1-1-1 1 1-2h1v1h1v1h-1zm2 0 2-2h2l-1 1v1l-1-1h-1v1h-1zm-111-1v-2s0-1 0 0h1l1 1-1 1c0 1 0 1 0 0l-1 1v-1zm16 1 2-1c1 0 1 0 0 0l-1 1h-1zm17 0v-1l1 1h-1zm12 0h1c1 0 1 0 0 0h-1zm33 0 2-1-1 1h-1zm-63-1h1v1l-1-1zm4 0h2l-1 1-1-1zm5 0h1l2-1-1 1c0-1 0 0 0 0h-2zm42 0h-1v-1l1 2v-1zm11 0h1-1zm14 0c0-1 0-1 0 0h1v1l-1-1zm26 0v1-1zm16 0h2l-1 1-1-1zm29 0s0-1 0 0c1 0 1 0 0 0 0 1 0 0 0 0zm-40 0h-1l-1-1 2 1c1 0 0 0 0 0zm3 0h3-3zm11 0h1-1zm2 0c1 0 0 0 0 0zm-141-1v-1 1h1-1zm2 1c0-1 0-1 0 0zm5-1h1-2l-1 1 1-1 1-2h1-1 1v-1h1v2h1-1l1-1c0-2 1-2 2-2l-1 1v1h1l2 1h2l-1-1h-1l2-2h2l-2 2 1 1v1h-8 4c2 1 2 1-2 1l-4-1zm10 1h1-1s-1 0 0 0zm8 0c0-1 0-1 0 0 1 0 0 0 0 0s-1 0 0 0zm6-1v-1l1-1v3l-1-1zm6 0c-1 0-1 0 0 0h1v1l-1-1zm2 0h1-1zm-42 0v-1l1 1h-1zm27 0-1-1-1 1-1-1h-1c-1 0-3-1-2-2l1 1h1l1-1h5v2l-2 1c-1 0-1 0 0 0zm0-2h1l-1-1-3 1 1 1 2-1zm53 2-2-4v-3c-1 0-1 0 0 0 0-1 0-1 0 0v2l1 1v2h1v1h1v-1l1-1v-2h-1 1v-2c-1 1-1 1 0 0h2l-1 2 1-1c0-1 0-1 0 0l1 1v1h-1v1c1 0 1 0 0 0 0 1 0 1 0 0l-1-1v-1l-1 1v1c-1 1 0 2 1 2h1-1l-1 1h-2zm105 0 1-1v1h-1zm-188-1c-1 0 0-1 0 0v1-1zm24 0h1v1l-1-1zm2 0v1-1zm33 0v-1h3c0 1-2 2-3 1zm22 0h1l-1 1v-1zm7 0 1-1v1h-1zm2 0h1c1 0 0 0 0 0h-1zm66 0v1-1zm-149 0v-1l1 1h-1zm28 0v-1h-1v-1h1v1l1 1h-1s-1 0 0 0zm12 0v-4 4zm6 0 1-1v1h-1zm11 0v-1h1v1l1-1h2l-1-1v-1h2v3h-5zm117 0v-1l1 1h-1zm-179 0h1-1s-1 0 0 0zm2-1v1-1zm29 0c-1-1-1-1 0 0l1 1-1-1zm6 0h-1 1l1 1-1-1zm2-1v-1 2h1l-1 1v-2zm2 1 1 1h-1v-1zm2 0 1-1v-1 1l1 1-1 1-1-1zm3-1c0-1 0-1 0 0l1 1v-1l1 1-1 1-1-2zm2 1c0-1 0-1 0 0h1-1zm1-1v-1 1c1 2 1 2 1 0l-1-3v-2l1 4-1 3v-2zm4 1 1-1v2l-1-1zm23 0c-1 0 0 0 0 0v1-1zm2 0v-2 3-1zm21 0h1v1l-1-1zm-92 0h2-2zm8 0 2-2-1 1-1 1zm40 0h1-1zm33 0 1-1v1h-1zm8 0h1c1 0 1 0 0 0h-1zm87-1v-2c-1 0-1 0 0 0v3zm-185 0h1l-1 1v-1zm1 0h2l-1 1-1-1zm8-1-1-1h-2l1-1 1 1 1 1c0 2 0 2 0 0zm56 1h1-1zm12 0h1-1zm-64 0v-2l1-3v-1 1l-1 4v1zm26-1s0-1 0 0v1-1zm19 0h-1v-1c0-2 0-2 1-1v-1h2-1v1l-1 1v2-1zm1 1v-1l1-1v2l1-1 1-2v-6 1l1 2v2l-1 2v1l-1 1h-2zm24 0v-1h1l-1 1c1 0 1 0 0 0zm98-2 1-4v-1 1h-1v-5l1 1-1 2v1l1-1 1 2-1 6-1-2zm1-2v-1 1c0 3 0 3 0 0zm-148 3c0 1 0 1 0 0zm38-1v-4c-1-1 0-2 0 0l1 3c0 3-1 4-1 1zm-57 1 1-1-1 1zm21 0h1-1zm8 0-1-1v-1c0-1 0-1 0 0l1 1v1c0 1 0 1 0 0zm4 0-1-1v-2l1 3c0 1 0 1 0 0zm16 0 2-1v-1c0-1 0-1 0 0v-3 1-2l1 2c0 3-1 4-2 4h-1zm-63 0h2-2zm20-2 3-1h1-3c1 1-1 3-2 3l1-2zm3 1h2-2zm13 0v-1c0 1 0 1 0 0l1 1h-1zm31 0v-2h1v2h-1zm-50 0 2-2-1 1-1 1zm10-1h-1v1c-1-1 0-1 3-1h1l-2 1-1-1zm5 1v-1l-1 1h1zm9 0v-1 1zm47 0a196 196 0 0 1 0-1h1l1-2v-3 2c0 3 0 4-1 3l-1 1zm-20-1h1-1zm118 0h1v1l-1-1zm-174-1v1-1zm23 0-2-1c0-1 0-1 0 0h1v1h1v1-1zm2 0v-1h1c0 2-1 2-1 1zm31 0v-2h1l1 1-2 1zm-61-1h1v1l-1-1zm31 0v1-1zm48 0-1-1h2l2 1-1-1v-1h-1v-2h1v1l1 2-1 2-2-1zm-83-1s0-1 0 0v1-1zm6 1v-2l1 2h-1zm11 0v-1h1v-1h2l-2 1-1 1zm5 0 1-1h1l-1 1h-1c-1 0-1 0 0 0zm4-1c-1 0 0 0 0 0v1-1zm7 0v-1 1zm20-1c0-1 0-2 1-1v2-2l-1 1c0 2 0 2 0 0zm10 1v-1h-1v-2l1 1c0-1 0 0 0 0h2c0 1 0 1 0 0v-1h-1l1-1 1 1 1 1-1 1-2 1v1l-1-1zm9 0v-1 1zm-76 0s0-1 0 0l1-1h1c1 0 1 0 0 0l-1 1h-1zm74-1h-1c1-1 2 0 2 1l-1-1zm-56 0 1-1c0-1 0-1 0 0 0 2-1 2-1 1zm21 0v-3 3zm24 0h1-1zm-48 0v-1 1zm16 0h1-1c-1 0-1 0 0 0zm5 0v-1 1zm4-1h1c-1 0 0 0 0 0v-1 1h-1zm51-2a5320 5320 0 0 0 2-42h2l-2 1h-2v1h1l-1 21a527 527 0 0 1 0 19zm-89 1h1v-3l1-1v4h-2zm23 0 2-2h-1c0 1 0 1 0 0l1-1h1l1-1h-1c-1 0-1 0 0 0l1 1-2 2-2 1zm51-1v-1 2-1zm14 0c-1 0-1 0 0 0v1-1zm-75 0 1-2c1 0 1 0 0 0v1l-1 2v-1zm19 0v-1 1l1 1-1-1zm-23-1v-1 2-1zm56 1v-1c0-1 0 0 0 0v1zm12 0 1-1v1h-1zm-59 0v-1 1zm43-1v1-1zm119 0-1-4v1-1a418 418 0 0 0 2 3c0 1 0 2-1 1zm-182 0h1-1zm13-1 1-1v2l-1-1zm20 0v-1l1 1v1l-1-1zm5 0v-1 2-1zm32 0s2-3 3-2l-1 1-1 1c0-1 0-1 0 0-1 0-1 0 0 0v1l-1-1zm2-1v-1 1c-1 0 0 0 0 0zm-52 1h1-1zm55 0v-1 1s1 0 0 0zm-76-1 1-1c1 0 1 0 0 0v1h-1zm22 0 1-1v1h-1zm9 0v-1l1-1-1 2zm155 0v-1 1zm-107-1v-1 1c0 1 0 1 0 0zm-64-2v-1 2-1zm175 1c-1 0-1 0 0 0 1 1 0 1 0 0zm-185-1s0-1 0 0v1-1zm13 1v-1c0-1 0-1 0 0s1 1 0 0l1-2v3h-1zm15 0 1-1v1h-1zm2-1h1-1zm5 0v1-1zm146 0v1-1zm-155-2h-4 1l1-1 2 1 1 1-1-1zm62 0 1-1v1h-1zm-78-2v1-1zm4 1v-1 1zm7-1v-1 1zm-11-1c0-1 0-1 0 0zm20-1h1v1l-1-1zm151-2v-1 3-2zm-167 2v-1 1zm74-2v-1 2-1zm97 1v-1 1zm-108-1h1l-1 1v-1zm-60-1-1-2 1 1v1zm-7-2v-1l1 1-1 2v-2zm169-1v-2 5-3zm-183 2-1-1 1 1zm1 0-1-2 1 2zm66 0 1-1-1 1zm-41-2 2-1-1 1h-1zm159-2v-1 2-1zm-160 1c-1-1 0-1 0 0zm7 0h1-1s-1 0 0 0zm60 0v-4l1 3-1 1zm-88-1v1-1zm-3 0h2l-1 1-1-1zm32 0v-1 1c0 1 0 0 0 0zm154 0h1-1zm-187 0-1-1h1c0 1 0 1 0 0h1l-1 1zm182-3 1-1v2c-1 1-1 1-1-1zm-40-1 1-1v1h-1zm-140-1 1-1h1l-1 1h-1zm14 0s0-1 0 0v1-1zm10 0c-1 0 0 0 0 0v1-1zm155-3v-2a43 43 0 0 1 0 2zm-180 2v-1c1 0 1 0 0 0v2-1zm27 0c0 1 0 1 0 0zm157 0c0-1 0-1 0 0zm-186-1h1v1l-1-1zm188 0h1l-1 1v-1zm-163-1-1-1 1 2v-1zm-20 0-2-1h-1 1l1-1-1-1h1l1 2v1zm148 0v-1 1c0 1 0 1 0 0zm-135 0v-1 1zm-2-1v-1 1c0 1 0 1 0 0zm30 0v-1c-1-1-1-1 0 0h1l-1 2v-1zm103 0 1-1v2l-1-1zm-31 0v-1 2-1zm40 0v-1h2c0 1-1 2-2 1zm28-1v1-1zm-185-2v-4 1l2 1v2h1-1l-1 1 1 1h-1l-1-1v1-2zm141 2v-1 1zm-95-1h-2 2v1-1zm106 0 1-1v2l-1-1zm-145-1v-2c1-2 1-3 3-3s2 1 0 1l-2 1v3h1l1 1c0-1 0-1 0 0h-2l-1-1zm5 1c1 0 0 0 0 0zm106-1h1v1l-1-1zm70 0c-1 0-1 0 0 0h1-1zm-172 0v-1 1zm142-1s0-1 0 0v1-1zm28 1h1-1zm-13-1v-1l1 1v1c1 0 1 0 0 0l-1-1zm12 0c0-1 0-1 0 0zm-182-1v-2l-1 1h-1v-1l2-1v-3h1v1l-1 2v4-1zm19 1v-1l-1-1h1v2zm97-1v-1l1-1v1h-1v2-1zm24-1v-1 2-1zm46 1v1-1zm-67 0 1-1 1 1h-2zm8 0v-1l1 1h-1zm33-1c-1 0 0-1 0 0v-2l1 2h-1zm18 0h-1 1c0 1 0 0 0 0zm-166-2v-2l1-1-1-1v1-1l2-1 3 1h-1v1l-1 1v1-1l-1-1v-1l-1 2v1h1l-1 1-1 2v-2zm3-4c0 1 0 1 0 0zm98 5v-3l-2-2 1-1 1 1 1 2 1 2h-1v-1l-1 1v1c0 1 0 1 0 0zm-96-1-1-1 2 2-1-1zm102 0v-1l1-1h1l-1 2-1 1v-1zm58 1v-1h1l-1 1zm7 0v-1h1v1l1-1c0 1 0 0 0 0v1h-2zm-173 0-1-3c0-1 0-1 0 0l1 1v-2 4zm145-1v-1 1zm7 0v-1l1 1h-1zm-166 0v-3c0-1 0-1 0 0v3zm24 0v-1l1 1h-1zm4-1 1 1h-1v-1zm2 1 1-1v1h-1zm89 0 1-1v1h-1zm7 0v-1 1zm54-1v-1 2-1zm-20 0v-1h2l1-1v1h-1l-1 1h-1zm-160 0 1-1v-1h2l-1 1h-1v1h-1zm185 0v-1 1zm3 0v-1c-1 0-1 0 0 0h1v1h-1zm-67-1 1-1c0 1 0 2-1 1zm60 0v-1 1c0 1 0 0 0 0zm-169 0v-2l1 1-1 1zm11-1v-2l1 1v2l-1-1zm152 1v-1 1zm-167 0v-1c0 1 0 1 0 0v-1h-1 2v1l-1 1zm2-1v-2l1 2v1zm16 0v-2 1l1-1v3zm71 0c-1 0-1 0 0 0v1-1zm32 1v-1 1zm31-1c0 1 0 1 0 0zm19 1-1-1-1-1h-1 2l1 1v1zm-84-1c0-1 0-1 0 0zm1 0v-1 1c0 1 0 1 0 0zm3 0h1l-1 1v-1zm-94-1-1-1 1 1h1c1 0 0 0 0 0l-1-1h1v2l-1-1zm95 0h-1l1-1c2 0 2 1 1 2l-1-1zm1 0h-1 1zm-72 0v-1h3l2 1h-3c1 0 1 0 0 0l-1 1-1-1zm0 0v-1 1h1-1zm84 1h1-1zm-75-1 1-1-1 1zm14 0v-1 1c0 1 0 1 0 0zm5 0c-1 0-1 0 0 0zm41 0v-1 1c0 1 0 1 0 0zm27 0h1c1 0 1 0 0 0l1-1v1h-2zm3 0v-1c-1 0-1 0 0 0h1l1 1-1-1-2 1h1zm5 0zm2 0v-1 1c0 1 0 1 0 0zm36 0zm-170-1c-1 0-1 0 0 0v1-1zm20 1v-1 1zm13 0 1-1 1 1h-2zm7 0 1-1a71 71 0 0 0 4 0h-2l-2 1h-1zm16 0v-1l1 1h-1zm2 0 1-1-1 1zm44-1h1-1zm7 1v-1 1zm1 0 1-1v1h-1zm21 0c-1 0-1 0 0 0zm-49-1h1-1zm104 0h1v1l-1-1zm-187 0v-2 2zm70 0h2-2zm15 0h4-4zm101 0h1-1zm-183-1v1-1zm8 0h1-1zm3 0v1-1zm-12-1v1-1zm15 1v-1l1 1h-1zm14 0v-1 1zm5 0v-1l1 1h-1zm60 0v-1 1zm1 0h1c1 0 0 0 0 0h-1zm50-1c-1 0-1 0 0 0h1-1zm5 1v-1l1 1h-1zm-144-1v1-1zm53 0h1v1l-1-1zm42 0s1 0 0 0v1-1zm56 0v-1 1h3-3zm-156 0h2-2zm9 0v-1h1c0 1 0 1 0 0-1 0-1 0 0 0l-1 1zm94 0h1c1 0 1 0 0 0h-1zm58 0h2-2zm5 0h1-1zm1 0h1-1zm6 0 2-1v1h-2zm-175-1v1c1 0 0 0 0 0v-1zm5 0v1-1zm14 0h-1v-1h1v2-1zm3 0-1-1h-1l2 1v1-1zm5 0-1-1c1-1 1 0 1 1v1-1zm42 0h1v1l-1-1zm9 0v1c1 0 0 0 0 0v-1zm36 0h-2c-2 0-2 0 0 0h3l-1 1v-1zm3 0h4-4zm61 0v1-1zm-140 0h1-1zm18 0v-1h-4s1 0 0 0l1-1 1 1h2l1 1h-1zm1 0-1-1v1h1zm28 0v-1h3l1-1 1 1h1l-1 1h-5zm40 0h1-1zm62 0c-1 0-1 0 0 0h1-1zm-171-1-1-1v-1l1 1v2-1zm24 1v-1 1zm52 0v-1h1l-1 1zm36 0h1-1c-1 0-1 0 0 0zm5 0h1-1zm2 0h1-1zm6 0 1-1v1h-1zm2-1h2l-1 1-1-1zm7 1h1-1zm34 0-1-1h1v1zm-173-1h1v-1l-1-1 1 1h1v-1 1l1 1h-3zm13 0-1-1h1l1 1-1 1v-1zm57 0h1l1-1h1l-2 1h-1zm-81 0v-1 1zm33 0h1-1zm18 0v-1 1zm21 0v-1h1v1h-1zm36 0v-1l1 1h-1zm-82-1v1-1zm1 0h2c-1 0-1 0 0 0l-1 1-1-1zm8 0c-1 0 0 0 0 0s1 0 0 0c0 1 0 1 0 0zm140 0h1-1zm-171 0 1-1v1h-1zm2 0h1c1 0 0 0 0 0h-1zm4 0h1-1zm21 0h1-1zm15 0c-1 0-1 0 0 0zm4 0s-1 0 0 0z" transform="matrix(4.1735 0 0 4.1735 23 129)"/><path style="fill:#767676;fill-opacity:1" d="m11 184 2-1v1h-2zm6 0h1l-1 1v-1zm6 0h1-1s-1 0 0 0zm2 0 1-1v2l-1-1zm2 0h2a84 84 0 0 0 2-1l-4 1zm14 0v-1l1 1h-1zm2 0-1-1-1-1-2-1-2 1c-1 0-1 0 0 0l1 1h-1l-2-1c-1-1-1-1 0 0l1-1 1-1v1h1v-2h4l4 1 1 1c-1 0-1 0 0 0 0 1 0 1 0 0h1v1l1 1 1-1v-2l1 1-1-1v-1l4-1-1 1-1-1v1h-1v1l1 1v-1 1l1 1h1l1 2h-2v-1 1l-2 1h-2l1-2 1-1-1 1h-3l-2 1h1-3zm9 0v-1l-1 1h1zm3 0-1-1v1h1zm-10-1c1-1 0-1 0 0h-2 2zm-1-1c1 0 0 0 0 0 0-1 0 0 0 0 0 1 0 1 0 0zm-2-1c-1-1-1-1 0 0l1 1-1-1zm-1-1h-1l1 1v-1zm4 0h-2c-1 0-1 0 0 0h2zm11 4 1-1 1-1-1-1c0-1 0-1 0 0-1 0-1 0 0 0v-3 1l1 1v3h1v-1c2 0 2 1 1 1h-1v1h4-1v-1h1v-1 1l3 1h1c-1 0-1 0 0 0l-5 1-6-1zm12 0h1-1zm2 0h5l-2 1-2-1h-1zm9 0h1l-1 1v-1zm1 0 1-2v2h1-2zm2 0h1v1l-1-1zm-67 0 1-1-1 1zm54 0h1-1zm7 0v-2 2zm40 0h1-1zm3 0h1-2zm4 0h1-1c-1 0-1 0 0 0zm5 0h2c2 0 2 0 0 0h-2zm5 0h1-1s-1 0 0 0zm3 0 1-1c3 0 2 1 0 1h-1zm4 0h1-1zm5 0 1-1 3 1h-4zm-126-1h1v1l-1-1zm6 0v1-1zm-11 0-1-1h1v1zm3 0 1-1v1h-1zm56 0 2-1-1 1h-1zm5 0v-1l1 1h-1zm7 0h1-1c-1 0-1 0 0 0zm-23-1c0 1-1 1 0 0zm-34-1-1-1c0-1 2-2 4-1h5l-4 1h-4v1c0 1 0 1 0 0zm2-2h-1 1zm24 2h1c1 0 1 0 0 0h-1zm12 0h1-1zm2 0h-2l-1-1 4 1h-1zm-46-1zm5 1c-1 0-1 0 0 0zm-14-1v1-1zm12 0h1l-1 1h-1zm45 0h1v1l-1-1zm8 0h-1l1-1v2-1zm-6 0 1-1c1 1 0 2-1 1zm10 0h1-1zm2 0v-1 1zm-64 0h-1v-3l2-1v1l-1 3zm0-1v-1 2-1zm28 0h1l-1 1v-1zm37 0h1v1l-1-1zm4 0h1c1 0 1 0 0 0h-1zm8 1v-1 1c1 0 0 0 0 0zm20 0h1-1zm4-1h1l-1 1v-1zm-74 0v-1 2-1zm11 0h2a63 63 0 0 0-2 0zm17 0c-1 0-1 0 0 0h2-2zm23 0h1v1l-1-1zm-44 0 1-1v1h-1zm8 0v-1 1zm50 0 1-1v1h-1zm-99-1h1l-1 1v-1zm5 0c-1 0-1 0 0 0 0 1 0 1 0 0zm5 1 2-1-1 1h-1zm59 0h1-1zm60 0h1-1zm4 0h1-1zm-132-1h1-1zm21-1c0-1 0-1 0 0h1v-1c-1 0-1 0 0 0h1l1 1h1-4zm6 0h-1c0-1 0-1 0 0h2-1zm60 0v1-1zm-74 0 1-1-1 1zm3 0h1l1-1v-1 1l2 1v-1c-1 0-1 0 0 0v1h-4zm41 0h1-1zm31-1v-1l1 1v-30a186 186 0 0 1 0-22h2v26a170 170 0 0 1-1 23l-1 2 1-1 1 1c1 0 1 1-1 1h-1l-1 1v-1zm3-20-1 1h1v-1zm-1-6v2-2zm0-8v1c0 3 1 4 1 2l-1-3zm0 35h1-1zm-92-1h1l-1 1v-1zm14 0 1-2-1 2c0 1-1 1 0 0zm3 0h1l-1 1v-1zm15 0h1l-1 1v-1zm6 0v1-1zm12 0v1-1zm11 1v-2h-2 2c1-1 1-1 1 1l-1 1zm4-1 1-1-1 2v-1zm20 0v-3l-1-1h1v-1l1 1v3-1c0-1 0-1 0 0v1l1 1h-2zm1 0h-1 1zm95 0 1-1 1-6-1-2-1 1v-1l1-2-1-4 1 2 1 1v-1l-1-11a2575 2575 0 0 0 2-10v3c1 0 1 0 0 0v-3l-1 2v10l1 5v-2l1-3v4l-1 4v2l-1 2-1-1v1l1 1v1c1 2 1 0 2-3v11l-1-2v-1l-1 2-1 1h-1zm4-5-1-1v1h1zm-2-30-1 1c0 2 0 2 1 1v-2zM14 176h1-1zm5 0c0-1 0-1 0 0h1-1zm44-1 1-1v2l-1-1zm27 1v-1 1zm16 0 1-1v1h-1zm-59-1s0-1 0 0l1 1h-1v-1zm-36 0h1-1zm4 0h1l-1 1v-1zm44-1 1-1v2l-1-1zm42 1c-1-1-1-1 0 0 0 1 0 0 0 0zm-21-1v-1l1 1h-1c0 1 0 1 0 0zm15 0h1l-1 1v-1zm4 0h1l-1 1v-1zm-80 0c-1-1 0-1 1-1v1c0 1 0 1 0 0l-1-1v1c0 1 0 1 0 0zm16 0 1-1c0 1 0 1 0 0l-1 1zm71-20a1428 1428 0 0 1 0 0zm-94 20c-1 0-1 0 0 0zm3 0v-2l-2-1v-1c0-1 0-1 0 0 0 0 0 1 0 0l1 1 1 1c1-1 1 1 1 1l-1 1zm12 0v-1h1l-1 1zm22-1h-1v-1l1 2v-1zm22 1v-1l1-1h-1c0 1 0 1 0 0h1l-1 2zm29-1v-2c-1 0-1 0 0 0l1 2h1-2zm-15-1v-1 2-1zm109-1v-1 3-2zm-156 1h1l-1 1v-1zm1 0h1v1l-1-1zm4 0h1c1 0 1 0 0 0l-1 1v-1zm39 0v-1 1zm-34-1c-1-1-1-1 0 0v1-1zm2 0v1-1zm-34 0c0-1 0-1 0 0zm6 0h1-1zm7 0v-1h1l-1 1zm-8-1v-1 1c0 1 0 1 0 0zm53 0h1l-1 1v-1zm25 0v-1 1c0 1 0 0 0 0zm-48-2v-2 4-2zm27 1v-1 2-1zm22 1v-2h1c1 2 1 2-1 2zm-87-1 1-1h1l-1 1h-1zm20 0 1-1v1h-1zm11 0 1-1v1h-1zm8-1 1-1-1 1v2zm17 0 1-1v1l-1 2v-2zm-58 0h1c1 0 1 0 0 0v1l-1-1zm63-1 1-3 1 2-1-1v-1 5l-1-2zm-38 1v-1h1l1-2v-1h1l-1 2-1 1-1 1zm-5-1v-1 1c0 1 0 1 0 0zm17 0-1-1v-1l-1-1 2 3c0 1 0 1 0 0zm33 0v-1 1s0 1 0 0zm-67 0v-1h2l-1 1h-1zm64-1h1-1v-1h1l-1 2v-1zm-46-1v1-1zm69 0v1-1zm-86 0-1-1 1 1zm-4-2h1v1l-1-1zm15-1c0-1 0-1 0 0v1-1zm13 1 1-1v1h-1zm44-1h1l-1 1v-1zm-50 0 1-1-1 1s0 1 0 0zm-18 0h1-1zm-2-1c-1 0-1 0 0 0v1-1zm15 0h1v-1 1h-1zm172-4h-1 1v1-1zm-188 0h1-1zm1-2v1-1zm3-1s0-1 0 0v1-1zm0-2c0-1 0-1 0 0zm180-1h1c0-1 0 0 0 0v1l-1-1zm-183 0v-1l1 1h-1zm-1-1v-1 1zm4-2v-1 3-2zm180 0 1-1v3l-1-2zm-1-2v-1 2-1zm-182-1c0-1 0 0 0 0h2-2zm3-1v-1 1c0 1 0 0 0 0zm181-3v-1 2-1zm-182 1v-1l1 1h-1zm-4-2 1-1v2l-1-1zm4 0v-1l1 1h-1zm-1 0c0-1 0-1 0 0-1 0-1 0 0 0zm0-1 1-1v1h-1zm1-1v-2c-1 0-1 0 0 0l1 1v1h-1zm178-2 1-1v2l-1-1zm4 1s0-1 0 0v1-1zm-141-1v-2l2 1h-2v1c1 0 1 0 0 0v1c1 0 1 0 0 0v-1zm2-1-1-1v1h1zm-46 1h1-1zm-1-4 1-1v2l-1-1zm3 2v-1l1 1h-1zm175 0h1-1zm-168-1h-1v-3l2-1h1l-1 2v1l-1 1c0 1 0 1 0 0zm176 0v1-1zm-175 0h1-1zm164 0v-2c0-1 0-1 0 0l1 1v1h-1zm-160-1h1l-1 1v-1zm167 0v-1 2-1zm-178 0h1-1zm91-2 1-2v3c-1 1-1 0-1-1zm25 1v-1 1zm4-1h1v1l-1-1zm60 0v-1 1c0 1 0 1 0 0zm-3-1h1v1l-1-1zm-5 0h1-1zm-174-1h1l-1 1v-1zm2 0h1v1l-1-1zm178 0v-1 1zm4 0c0-1 0-1 0 0zm-165-1h-1v-1l1-2v3zm-21-1h1v1l-1-1zm95 0 1-1-1 2v-1zm-81-1 1-2v4zm103 1 1-1c0 1 0 0 0 0v1h-1zm45 0-1-2h3l-1 2h-1zm2-1h-1v1l1-1zm-148 0v-1l1 1-1 1v-1zm-14 0c-1 0-1 0 0 0 0 1 0 1 0 0zm96 0-1-1 1 1c0 1 0 1 0 0zm82 0s0-1 0 0l-1-1 1-1v1c-1 0-1 0 0 0l1 1h-1zm-161-1v1-1zm157 1v-1 1zm10 0v-1 1zm-186-1h1v1l-1-1zm2 0h1-1zm94 0 1 1-1-1zm4 0v1-1zm17 0v-1 2-1zm-111 0v-1c-1 0 0 0 0 0l1 1s1 0 0 0h-1zm3 0zm18 0v-1l1 1h-1zm3 0v-1 1h1-1zm71 0h1-1zm13 0h2-2zm16 0v-1 1zm-98 0h1-1zm26 0c1 0 0 0 0 0s-1 0 0 0zm69 0c1 0 0 0 0 0zm1 0 1-1v1h-1c0-1 0-1 0 0zm59 0 1-1v1h-1zm-25-1v1-1zm-145-2h1v1l-1-1zm131 0h1v1l-1-1zm12 0h1-1zm-155-1v1-1zm9 0h-1 1v1-1zm101 0h1l-1 1v-1zm-99-1-1-1 1 1 1 1-1-1zm12 1h1-1zm-20-1h2l-1 1-1-1zm50 1v-1l1 1h-1zm28 0v-1l1 1h-1zm34 0c-1 0-1 0 0 0zm13 0h1-1zm52 0h1-1zm5 0c1 0 0 0 0 0zm-190-1h1c2 0 2 1 0 1l-1-1zm18 0h2-2zm3 0h1l-1 1v-1zm3 0h2-2zm69 0v1-1zm-64 0v-1h-1 2l-1 1zm25 0c0-1 0-1 0 0 1 0 1 0 0 0s-1 0 0 0zm2 0v-1l1 1h-1zm-43-1h1-1zm18 0c-1 0-1 0 0 0h2-2zm4 0h-1 3l-1 1-1-1zm2 0h1s1 0 0 0l1-1v1h-2zm-33 0c-1 0-1 0 0 0h1-1zm7 0h1-1zm38 0c-1 0-1 0 0 0zm2 0zm-35-1h1-1zm25 0c1 0 1 0 0 0 0 0-1 0 0 0z" transform="matrix(4.1735 0 0 4.1735 23 129)"/><path style="fill:#606060;fill-opacity:1" d="M16 184h1v1l-1-1zm2 0h1-1zm9 0h2l2-1h1c1 0 1 0 0 0h-1v1l-2 1-2-1zm6 0h1-1zm4 0h1-1zm2 0h2-2zm8 0h-1l1-1h3l1-1-1 1c-1 2-2 2-3 1zm1 0c-1 0 0 0 0 0s1 0 0 0zm-33 0 2-1-1 1h-1zm4 0v-1s1 0 0 0l1 1h-1zm6-1v1-1zm26 1 1-1v1h-1zm3-1v1-1zm8 1h1-1s-1 0 0 0zm4 0h1-1zm72 0h1-1zm-120-1v-1 1zm21 0h1-1s-1 0 0 0zm-5 0v-1h1l1 1h-2zm24-1 1 1h-1v-1zm4 1v-1l1 1h-1zm-18-1s0-1 0 0c0 0 1 0 0 0 0 1 0 1 0 0zm-25-1h1v1c-1 0-2 0-1-1zm27 0h1v1l-1-1zm-19 0-1-1 1-1v1l1 1h-1zm10 0 1-1v1h-1zm29 0h2-2zm-22-1-1-1 2 1h-1zm6 0h-1v-1h1v1l1 1-1-1zm-26 0h1s1 0 0 0h-1zm34 0v-2 2zm-40 0v-1h1v1h-1zm10 0v-1 1zm69 0c-1 0-1 0 0 0zm-82-1h1v1l-1-1zm5 0v1-1zm2 0h1-1zm17 0h1l-1 1v-1zm8 0h1l-1 1v-1zm-33 0v-1h-1c0 1 0 1 0 0h1v1h-1 1zm10 0h1-1zm5 0h1-1zm2 0h1-1zm21 0h1-1zm-35-1 1 1-1-1zm34 1c0-1 0-1 0 0zm-36-1h1-1zm182 0-1-1v-2 2c0 1 0 1 0 0h-2v-2c1 1 2-1 2-2v1l1 2v2zm-162-1v-1l1 1h-1zm66 0v-3l1-1c0-1 0-1 0 0v3l-1 1zm-69-1v1-1zm1 1h1-1zm13-1h1l-1 1v-1zm1 0v-1l1 2-1-1zm24 0h1-1zm2 0-1-1c0 1 0 1 0 0l1 1v1-1zm30 0h1c2 0 2-1 1-1l-1-1-1 1 1-2 1-1v-22a249 249 0 0 1 1 25l-1 1h-2zm1-2h-1 1zm-93 2h2-2zm3 0h2-2zm6 0h1-1zm77 0h1-1zm-48-1v-1l1 1v1l-1-1zm-29 0h-1v-2l2 2h-1zm49 0h1-1zm29-1c0-1 0-1 0 0zm-85-1h1l-1-1h-2 4v1h-4zm35 0h1l-1 1v-1zm2 0v-1 1zm21-1h1l-1 1v-1zm-27 0 1 1h-1v-1zm-16 0 1-1 1-2v1l-1 1-1 1zm69 0v-1l1 1h-1zm2 0 1-1v1h-1zm-84 0-1-2h-2l1-1h1l1-1v3l1 1h-1zm181-1v-1l1 1h-1zm-185-1h1v1l-1-1zm40-1v1-1zm144-1v-1l-1-1v-1l1 1 1-2v-2l1 3c-1 3-1 5-2 3zm1 0v-1l-1 1h1zm-184 0h2-2zm-1-1 1-1h1l-1-1c-1-1-1-1 1-1l1 1v2h-3zm2-2h-1a1021 1021 0 0 1 1 0zm2 2h1-1zm60-1v-1 1c0 1 0 2 0 0zm3 0 1-1v1h-1zm23 0v-1l1 1h-1zm-68-4v1-1zm-5 0c0-1 1 0 0 0 0 1 0 1 0 0zm-15 0 1-2v1h1l-1 1h-1zm1-1h-1 1zm2-1v-1 2-1zm-4 0v1-1zm1-1h-1l-1-1h1l3 1s1 0 0 0h-2zm16 0v-1 1zm167-2a126 126 0 0 1 0-3c-1 3-1 3-1-1a171 171 0 0 0 1-10v2l1 2v3l-1 1v8-2zm-183 0-1-1 1-2c1 0 2 1 1 2l1 1h-1l-1 1v-1zm1-1-1-1v1h1zm0-2-2-1h-1l1-1 1-1c0-1 0-1 0 0l1 1h1-1v1h1v1h-1zm0-3v-1l1 1h-1zm-3-1 1-1v2l-1-1zm2 0v-2l1-1v1s-1 0 0 0l-1 1v1c1 0 1 0 0 0zm2-4v-1 1c-1 0-1 0 0 0zm-2 0v-1 1h1-1zm0-2h-1v-1h1v1l1 1-1-1zm183-2c0-2 0-3-1-2v-2l-1-2v6-4l-1-6v-2l1-3v-2h2l-1 1v2l1 5v6h1c0-1 0-1 0 0v5c0 2-1 1-1-2zm-2-11v1s0 1 0 0v-1zm2-2h-1v1c0 1 0 1 0 0l1-1zM15 142v1-1zm-3-1c-1 0-1 0 0 0zm2-3h1-1zm-2-1h3-3zm1-1h1v1l-1-1zm43 0h1l-1 1v-1zm141-2s0-1 0 0v1-1zm-140 1v-1l1 1h-1zm-42-1h1-1zm172-1c0-1 0-1 0 0l1 1-1-1zm-166 0 1-1 1 1h-2zm176-1v1-1zm-11 0v-1h1l-1 1zm5 0v-1 1zm-165-1 1-1v1h-1zm-4-1h1c0-1 0 0 0 0h-1zm4-1h-2 2c1 1 0 1 0 0zm-13 0v-1 1zm18-2 1-1v1h-1zm97-2v-1l1 1h-1zm46 0h1l-1 1v-1zm-161 0-1-1h3v1h-2zm14 0v-1 1zm164-1c-1 0-1 0 0 0h1-1zm-82 0h1-1zm15 0h1-1zm48 0h2-2zm21-1h3l-2 1-1-1zm-181 0v1-1zm7-2h-2v-1l2-1v1h4l-2 1c0-1 0 0 0 0h-2zm10 0h-1v-1h1v1zm-17-1v1-1zm1-1-1-1h-1l1-1 1 1v1h1-1zm2 0v-1h-1 1l1 2-1-1zm6 0v1-1zm6 0v-1c0-1 0-1 0 0v1zm1-1 1 1-1-1zm-5 0h2-2zm17 0v1-1zm4 0h2l-1 1-1-1zm-27 0v-1l1 1h-1zm2 0c-1 0-1 0 0 0zm1 0h1c1 0 1 0 0 0h-1zm-5-1h1-1z" transform="matrix(4.1735 0 0 4.1735 23 129)"/><path style="fill:#494949;fill-opacity:1" d="M31 184zm3 0h1v1l-1-1zm4 0v-1h1l2 1h-3c0 1 0 1 0 0zm-22 0 1-1h1v-1c0-1 0-1 0 0h1v2h-3zm32 0c1 0 0 0 0 0s-1 0 0 0zm-36-1c-1 0 0 0 0 0l1-1v-1 2h-1zm9 0v-1 1zm14 0h1-1zm-2 0h1-1zm-22-3h1v1l-1-1zm15 0h1v1l-1-1zm-4 0 4-1-3 1h-1zm-9-1-1-1c-1 0-1 0 0 0l1 1c1 1 1 1 0 0zm4 0h-1 3-2zm-3 0 1-1v1h-1zm182-2v-1c0-1 0-1 0 0v2s1 0 0 0v-1zm-165-1h1l-1 1v-1zm74 0 1-1v-10 6l-1 6v-1zm-92 0v-1 1h1-1zm59 0h1-1zm29 0v-1l1 1h-1zm-82-1h1l1 1h-1l-1-1zm30-1v1-1zm54 0h1-1zm-88-1v-1 2-1zm-4 0 2-1v1h-1v-1 1h-1zm4-2 1-2v1h-1v1h1-1zm-3-1v-1 2-1zm9 0 1-1v1h-1zm174-2v-1l1 1v-1 1h-1zm-184-1h2-2zm3 0h1-1zm-3-1 1-1c1 0 1 0 0 0v1c1 0 1 0 0 0h-1zm3-1h1-1zm92-2s0-1 0 0v1-1zm-91-2h-1l-1-1s-1 0 0 0h-2l1-1h3-3v-2s0-1 0 0l-1-1c0-2 1-3 2-3h1v-1h1-2l1-1v-1l-1-1 1-1c-1 0 0 0 0 0v-1h-3 1l1-1h1l1-1h1l-1 2v1l-1 1v1l1 1v3l1 3h-1v1l1 1-1 2 1 1h-1v-1zm-1-4h1l-1-1c1-1 0-2-1-2h-1v2c0 2 1 2 2 1zm1-3v-1l-1 1h1zm91 4v-1 1c0 1 0 0 0 0zm90-3v-3 6zm-90-2v-1 3-2zm-94-1v-2l1 1-1 1c0 1 0 1 0 0zm94-13zm-93 5v-1h-1l-1-1h3v-1c1 0 2 0 1 1v1l-1 1h-1zm183-2v-9l-1-5v-2h1c0-1 0-1 0 0h1v2l-1 2v2a64 64 0 0 1 0 10zm-183-3h1-1zm182-1v-1 2-1zm-184-1 1-1v1h-1zm3 0h1-1zm1-4h1l-1 1v-1zm7-1v-1h1c0 2 0 2-1 1zm172 0v-1 1c0 1 0 0 0 0zm-4-1c0 1 0 1 0 0zm7 0v1-1zm-172 0h1-1zm162 0v-1c1-1 1-1 0 0v1zm6-4v-3h1c2 0 2 0 1 1h-1v2l-1 3v-3zm-181 2v-1 1h1-1zm94-5v1-1zm-91 0h1-1zm-3 0c1 0 0 0 0 0s-1 0 0 0zm161 0c-1 0-1 0 0 0zm23-1h1l-1 1v-1zm-175-3v-1h3-1l-1 1-1 1v-1zm-5 0v-2h3l1 1c1 0 1 0 0 0s-2 0-1 1h-3zm1-2h-1 1zm-4 1 1-2c1 0 1 0 0 0l1 1v2-1h-2zm14 0 1-1v2l-1-1zm1 0c0-1 0-1 0 0 0 0 0 1 0 0z" transform="matrix(4.1735 0 0 4.1735 23 129)"/><path style="fill:#333;fill-opacity:1" d="M35 184h-3 6-3zm-19 0h1-1zm23 0h1-1zm-21-1 1 1h-1v-1zm3 0-1-1h-2 2c1 0 2 0 1 1zm-9-3c0-2 0-2 1-1h3c1 0 1 0 0 0l-1 1h-3l1 1v1c-1 1-1 1-1-2zm184-3h1v1l-1-1zm-90-1v1-1zm0-6v-3a90 90 0 0 1 0 3zm-91 3h1v1l-1-1zm-3 0v-1 1zm3-2v-1l1 1h-1zm91-11v-1 2-1zm-91 1v-1h1l-1 1zm-3-1h1-1zm3-2v-1l1 1v1l-1-1zm-3-1v1-1zm3-1v-2l1-1v2c0 1 0 2-1 1zm91-3v-2a34 34 0 0 1 0 2zm-94 1zm3-2v-1l-1-1v-1l1-1v-1c1-1 1-1 1 1s0 5-1 4zm-3-6c-1 0-1 0 0 0h1l-1 1v-1zm2-2 1-1 1 1v1l-2-1zm-1-2h1-1zm2-1v-1h1l-1 1zm-1-2c-1 0-1 0 0 0zm-2-2h1c1 0 1 0 0 0h-1zm3-4 1-1-1 1c0 1 0 1 0 0zm9 0c-2-1-2-4 1-4l1 2c0 2-1 3-2 2zm2-2h-1 1zm162 2-1-3 3-1v4h-2zm2-2c0 1 0 1 0 0zm6 0v-1l1 1h-1zm-3-3v1-1zm3-2c0-1 0-2-2-2h1l2 1-1 2v-1zm-184-6c-1 0 0 0 0 0h1-1zm16-1c0-1 0-1 0 0zm-7-1h1l-1 1v-1zm-5 0h1-1zm-4 0 1-1 1 1h-2z" transform="matrix(4.1735 0 0 4.1735 23 129)"/></svg>