<?xml version="1.0" standalone="no"?>
<!DOCTYPE svg PUBLIC "-//W3C//DTD SVG 20010904//EN"
 "http://www.w3.org/TR/2001/REC-SVG-20010904/DTD/svg10.dtd">
<svg version="1.0" xmlns="http://www.w3.org/2000/svg"
 width="1024.000000pt" height="1024.000000pt" viewBox="0 0 1024.000000 1024.000000"
 preserveAspectRatio="xMidYMid meet">

<g transform="translate(0.000000,1024.000000) scale(0.100000,-0.100000)"
fill="#000000" stroke="none">
<path d="M1975 10163 c-11 -3 -34 -16 -51 -29 -54 -40 -61 -80 -57 -329 2
-121 1 -251 -2 -290 l-6 -70 -845 1 -846 2 4 -887 c2 -487 6 -891 11 -898 5
-8 869 -11 3525 -11 l3519 0 -1 898 0 898 -843 0 -843 0 -5 -21 c-3 -12 -6
-51 -7 -87 -2 -36 -3 113 -3 330 0 368 -1 397 -19 426 -19 32 -61 59 -108 70
-45 10 -114 -31 -139 -83 -20 -42 -21 -54 -17 -436 1 -215 1 -352 -2 -303 -5
88 -5 90 -33 97 -16 4 -328 7 -694 7 -628 -1 -665 -2 -671 -19 -4 -10 -7 132
-7 316 l0 334 -29 30 c-84 88 -191 71 -237 -36 -17 -41 -19 -72 -19 -336 l0
-292 -692 2 c-381 0 -697 -3 -703 -7 -7 -6 -10 100 -10 314 0 364 1 361 -78
397 -43 19 -56 21 -92 12z m1862 -965 c-2 -29 -3 -8 -3 47 0 55 1 79 3 53 2
-26 2 -71 0 -100z m1690 -135 c-2 -27 -3 -5 -3 47 0 52 1 74 3 48 2 -27 2 -69
0 -95z m-280 -20 c-2 -27 -3 -5 -3 47 0 52 1 74 3 48 2 -27 2 -69 0 -95z
m-1410 -105 c-2 -29 -3 -8 -3 47 0 55 1 79 3 53 2 -26 2 -71 0 -100z m1690
-135 c-2 -27 -3 -5 -3 47 0 52 1 74 3 48 2 -27 2 -69 0 -95z m-280 -20 c-2
-27 -3 -5 -3 47 0 52 1 74 3 48 2 -27 2 -69 0 -95z m-1410 -105 c-2 -29 -3 -8
-3 47 0 55 1 79 3 53 2 -26 2 -71 0 -100z m1690 -90 c-2 -18 -4 -4 -4 32 0 36
2 50 4 33 2 -18 2 -48 0 -65z m-280 -5 c-2 -16 -4 -3 -4 27 0 30 2 43 4 28 2
-16 2 -40 0 -55z"/>
<path d="M2615 6834 c-81 -9 -222 -48 -300 -84 -224 -103 -350 -270 -414 -543
-12 -49 -21 -103 -21 -122 l0 -33 93 -7 c50 -4 123 -11 160 -16 38 -5 72 -7
77 -4 4 3 11 31 14 62 17 147 58 246 135 323 95 95 199 139 351 147 199 11
362 -67 463 -221 110 -166 91 -368 -56 -593 -44 -67 -191 -237 -258 -299 -113
-102 -236 -210 -316 -276 -50 -42 -108 -91 -129 -109 -21 -19 -61 -54 -89 -79
-309 -273 -472 -513 -504 -745 -6 -42 -11 -83 -11 -91 0 -12 126 -14 893 -14
l892 0 0 160 0 160 -657 0 c-362 0 -658 3 -658 8 1 13 59 85 121 149 32 34
159 148 282 254 544 471 712 648 816 855 69 140 85 209 85 374 1 127 -2 154
-23 215 -88 261 -280 437 -550 505 -83 21 -299 34 -396 24z"/>
<path d="M4665 6819 c-202 -28 -397 -129 -505 -262 -89 -108 -161 -286 -176
-434 l-7 -60 44 -6 c116 -16 270 -29 275 -24 4 3 10 39 14 79 26 223 154 379
356 433 77 21 250 22 325 1 128 -35 254 -141 312 -263 31 -65 32 -74 32 -188
0 -113 -2 -124 -33 -195 -30 -70 -93 -177 -144 -245 -78 -103 -330 -335 -698
-641 -104 -87 -282 -269 -346 -354 -111 -150 -191 -328 -210 -467 l-7 -53 204
-2 c235 -3 216 9 179 -118 -20 -70 -48 -186 -69 -290 -5 -25 -19 -130 -31
-235 -18 -158 -21 -224 -17 -395 3 -113 10 -230 16 -260 5 -30 15 -91 21 -135
19 -131 92 -427 112 -450 4 -5 8 -15 8 -22 0 -12 56 -165 80 -218 166 -372
373 -677 642 -942 267 -264 541 -452 898 -616 98 -45 204 -84 390 -142 74 -23
238 -60 330 -74 41 -6 109 -17 150 -24 46 -7 173 -12 330 -12 323 1 531 28
810 106 92 26 248 76 275 89 11 5 49 21 85 36 343 140 700 383 971 660 555
570 860 1316 859 2103 -1 952 -466 1859 -1235 2413 -175 125 -379 242 -555
317 -41 18 -88 39 -105 46 -99 44 -374 124 -520 151 -262 49 -589 67 -830 45
-391 -35 -730 -132 -1093 -313 -89 -44 -165 -78 -169 -74 -4 3 -1 21 5 39 35
98 40 361 8 472 -55 193 -208 372 -389 454 -157 71 -388 99 -592 70z m2916
-1043 c249 -43 485 -116 689 -214 76 -37 289 -158 350 -200 357 -246 654 -581
853 -962 199 -380 297 -778 297 -1205 -1 -452 -105 -865 -319 -1257 -63 -116
-145 -247 -185 -294 -8 -11 -38 -48 -66 -84 -375 -474 -927 -813 -1523 -934
-145 -30 -377 -56 -491 -56 -161 0 -494 37 -616 69 -174 45 -206 55 -320 96
-498 179 -959 539 -1261 985 -222 326 -380 731 -428 1100 -30 233 -35 380 -17
575 25 265 49 389 116 595 22 69 47 139 54 155 7 17 19 46 27 65 27 70 110
233 171 333 118 196 232 340 401 506 145 141 178 170 277 242 178 131 315 210
515 298 196 87 357 136 580 177 197 36 290 43 530 39 177 -3 249 -9 366 -29z
m-3117 -1259 c-26 -53 -48 -75 -58 -59 -4 7 76 123 82 117 2 -1 -9 -28 -24
-58z"/>
<path d="M7097 5423 c-16 -18 -17 -85 -17 -1035 l0 -1015 -33 -23 c-60 -41
-82 -86 -82 -166 0 -58 -3 -73 -18 -80 -9 -5 -79 -45 -155 -90 -75 -45 -303
-176 -507 -292 -876 -499 -978 -559 -1051 -627 -68 -63 -39 -57 97 18 144 80
1492 852 1539 882 19 12 58 34 87 48 42 22 53 24 62 13 7 -8 35 -24 63 -36 57
-24 96 -22 159 10 l37 19 98 -53 c55 -29 140 -74 189 -101 81 -43 333 -179
700 -378 333 -180 388 -202 426 -169 27 23 24 44 -13 79 -44 41 -76 60 -333
198 -121 65 -314 169 -430 231 -115 62 -268 144 -340 183 -71 40 -153 83 -181
98 -49 25 -52 28 -57 72 -3 25 -4 47 -4 47 1 1 71 41 155 89 129 74 153 91
150 109 -2 11 -11 22 -20 24 -10 2 -84 -35 -164 -82 l-145 -85 -45 32 -44 31
0 1011 c0 977 -1 1012 -19 1029 -30 27 -83 31 -104 9z"/>
</g>
</svg>
