<?xml version="1.0" standalone="no"?>
<!DOCTYPE svg PUBLIC "-//W3C//DTD SVG 20010904//EN"
 "http://www.w3.org/TR/2001/REC-SVG-20010904/DTD/svg10.dtd">
<svg version="1.0" xmlns="http://www.w3.org/2000/svg"
 width="1024.000000pt" height="1024.000000pt" viewBox="0 0 1024.000000 1024.000000"
 preserveAspectRatio="xMidYMid meet">

<g transform="translate(0.000000,1024.000000) scale(0.100000,-0.100000)"
fill="#000000" stroke="none">
<path d="M5325 9558 c-11 -6 -26 -20 -33 -30 -7 -10 -20 -18 -28 -18 -11 0
-14 -25 -16 -132 l-2 -133 -5 94 -6 95 -30 8 c-48 13 -332 7 -425 -9 -95 -17
-124 -19 -330 -29 -146 -6 -202 -1 -313 30 -42 11 -92 15 -173 14 -63 -2 -115
-3 -116 -3 -1 0 -5 -79 -8 -175 l-6 -175 -2 163 c-1 89 -6 162 -10 162 -15 0
-92 64 -92 76 0 19 -28 25 -55 12 -14 -6 -25 -14 -25 -17 0 -4 -12 -8 -27 -9
-16 -1 -30 -7 -31 -12 -2 -6 -8 -8 -13 -4 -5 3 -9 -6 -9 -20 0 -13 -3 -33 -7
-43 -6 -15 -8 -13 -13 12 l-5 30 -125 1 c-103 1 -129 -2 -150 -16 -165 -114
-485 -119 -722 -11 -35 16 -76 21 -215 26 l-172 7 -5 -23 c-3 -13 -7 -53 -9
-89 -3 -48 -4 -41 -5 30 -1 159 -2 161 -12 155 -5 -3 -10 -2 -10 3 0 13 -38 8
-59 -9 -9 -8 -24 -15 -31 -17 -8 -2 -21 -13 -30 -24 -8 -11 -24 -28 -35 -37
-76 -63 -85 -78 -86 -132 -2 -45 -4 -38 -11 38 l-10 91 -49 7 c-43 6 -53 4
-81 -19 -46 -37 -47 -38 -102 -74 -27 -17 -53 -32 -58 -32 -5 0 -29 -9 -52
-20 -59 -26 -116 -39 -261 -56 -33 -3 -69 -9 -80 -11 -11 -2 -46 -4 -78 -3
-31 0 -65 -4 -75 -9 -9 -5 -34 -12 -55 -15 -41 -7 -92 -29 -102 -46 -4 -6 -11
-8 -16 -4 -15 9 -102 -83 -96 -100 3 -8 -1 -17 -9 -20 -8 -3 -14 -19 -14 -41
0 -19 -5 -35 -11 -35 -12 0 -4 -333 11 -395 6 -26 5 -44 -1 -52 -6 -7 -8 -17
-4 -22 10 -17 16 -70 20 -173 2 -53 6 -101 9 -107 4 -5 2 -12 -3 -16 -6 -3 -9
-21 -7 -40 1 -19 -2 -36 -8 -38 -8 -3 -8 -8 -1 -18 9 -11 12 -168 5 -189 -2
-6 -6 -27 -8 -51 -1 -8 -15 -29 -31 -45 -18 -18 -27 -35 -22 -42 5 -9 12 -7
26 8 18 20 41 28 30 10 -3 -5 -8 -39 -11 -74 l-5 -64 3100 0 3100 0 -1 37 c-1
56 10 82 50 124 31 31 33 37 16 37 -10 0 -25 -10 -33 -22 -14 -22 -14 -22 -21
-3 -8 21 -7 39 5 140 3 33 8 79 9 101 2 23 6 47 10 52 3 6 2 13 -4 17 -6 4 -9
9 -6 13 3 7 9 64 22 242 3 41 9 101 13 133 6 44 6 244 -1 322 0 6 2 40 6 78 4
41 3 67 -3 67 -6 0 -10 24 -11 53 0 71 -3 85 -27 135 -22 47 -75 102 -98 102
-8 0 -16 4 -19 9 -5 8 -51 19 -111 27 -11 1 -36 4 -55 7 -19 3 -107 8 -195 12
-172 6 -178 7 -361 30 -117 14 -167 28 -228 62 -21 12 -66 17 -182 20 l-153 4
-6 -23 c-3 -13 -6 -54 -8 -93 -3 -54 -4 -48 -5 30 0 55 -1 110 -1 122 -1 17
-9 23 -41 28 -22 4 -38 11 -34 16 3 5 0 10 -5 10 -26 3 -30 4 -36 11 -4 4 -14
4 -23 1 -10 -4 -13 -2 -8 5 9 15 -22 15 -49 0z m202 -490 c-2 -29 -3 -8 -3 47
0 55 1 79 3 53 2 -26 2 -71 0 -100z m-3380 110 c-3 -8 -6 -5 -6 6 -1 11 2 17
5 13 3 -3 4 -12 1 -19z m3100 -130 c-2 -29 -3 -8 -3 47 0 55 1 79 3 53 2 -26
2 -71 0 -100z m-1410 -110 c-2 -29 -3 -8 -3 47 0 55 1 79 3 53 2 -26 2 -71 0
-100z m1690 -135 c-2 -27 -3 -5 -3 47 0 52 1 74 3 48 2 -27 2 -69 0 -95z
m-280 -20 c-2 -27 -3 -5 -3 47 0 52 1 74 3 48 2 -27 2 -69 0 -95z m-1410 -105
c-2 -29 -3 -8 -3 47 0 55 1 79 3 53 2 -26 2 -71 0 -100z m1690 -90 c-2 -18 -4
-4 -4 32 0 36 2 50 4 33 2 -18 2 -48 0 -65z m-280 -5 c-2 -16 -4 -3 -4 27 0
30 2 43 4 28 2 -16 2 -40 0 -55z"/>
<path d="M2615 6834 c-81 -9 -222 -48 -300 -84 -224 -103 -350 -270 -414 -543
-12 -49 -21 -103 -21 -122 l0 -33 93 -7 c50 -4 123 -11 160 -16 38 -5 72 -7
77 -4 4 3 11 31 14 62 17 147 58 246 135 323 95 95 199 139 351 147 199 11
362 -67 463 -221 110 -166 91 -368 -56 -593 -44 -67 -191 -237 -258 -299 -113
-102 -236 -210 -316 -276 -50 -42 -108 -91 -129 -109 -21 -19 -61 -54 -89 -79
-309 -273 -472 -513 -504 -745 -6 -42 -11 -83 -11 -91 0 -12 126 -14 893 -14
l892 0 0 160 0 160 -657 0 c-362 0 -658 3 -658 8 1 13 59 85 121 149 32 34
159 148 282 254 544 471 712 648 816 855 69 140 85 209 85 374 1 127 -2 154
-23 215 -88 261 -280 437 -550 505 -83 21 -299 34 -396 24z"/>
<path d="M4665 6819 c-202 -28 -397 -129 -505 -262 -89 -108 -161 -286 -176
-434 l-7 -60 44 -6 c116 -16 270 -29 275 -24 4 3 10 39 14 79 26 223 154 379
356 433 77 21 250 22 325 1 128 -35 254 -141 312 -263 31 -65 32 -74 32 -188
0 -113 -2 -124 -33 -195 -30 -70 -93 -177 -144 -245 -78 -103 -330 -335 -698
-641 -104 -87 -282 -269 -346 -354 -111 -150 -191 -328 -210 -467 l-7 -53 204
-2 c235 -3 216 9 179 -118 -21 -74 -51 -198 -70 -295 -21 -108 -50 -425 -50
-554 0 -347 94 -805 231 -1126 81 -189 163 -341 279 -515 79 -120 104 -155
174 -240 286 -347 627 -611 1049 -809 156 -74 277 -117 286 -103 8 14 61 3 68
-14 3 -8 14 -14 25 -14 20 0 146 -34 183 -50 18 -8 114 -30 192 -45 18 -4 83
-13 145 -20 62 -8 142 -19 178 -25 87 -15 382 -5 580 21 716 92 1378 449 1853
999 363 421 606 932 693 1460 22 127 31 693 15 870 -40 432 -211 894 -485
1305 -247 373 -609 706 -1006 927 -137 76 -338 168 -447 203 -43 14 -87 30
-98 35 -11 5 -54 17 -95 25 -41 9 -84 20 -95 25 -36 16 -247 59 -390 80 -117
17 -459 23 -595 11 -396 -35 -733 -132 -1098 -313 -89 -44 -165 -78 -169 -74
-4 3 -1 21 5 39 35 98 40 361 8 472 -55 193 -208 372 -389 454 -157 71 -388
99 -592 70z m2900 -1038 c470 -82 850 -251 1215 -539 280 -222 524 -518 693
-842 199 -380 297 -778 297 -1205 -1 -452 -105 -865 -319 -1257 -63 -116 -145
-247 -185 -294 -8 -11 -38 -48 -66 -84 -375 -474 -927 -813 -1523 -934 -145
-30 -377 -56 -491 -56 -161 0 -494 37 -616 69 -174 45 -206 55 -320 96 -647
233 -1200 748 -1484 1383 -121 268 -186 511 -217 812 -24 231 -24 300 1 525
19 178 23 204 53 340 17 72 87 297 111 350 7 17 19 46 27 65 71 185 233 450
396 652 53 65 255 269 338 340 83 72 257 192 380 263 179 104 441 211 636 261
95 24 311 63 414 73 152 16 521 6 660 -18z m-3101 -1264 c-26 -53 -48 -75 -58
-59 -4 7 76 123 82 117 2 -1 -9 -28 -24 -58z"/>
<path d="M7097 5423 c-16 -18 -17 -85 -17 -1035 l0 -1015 -33 -23 c-60 -41
-82 -86 -82 -166 0 -58 -3 -73 -18 -80 -9 -5 -79 -45 -155 -90 -75 -45 -303
-176 -507 -292 -880 -500 -977 -559 -1050 -626 -107 -100 -63 -77 905 478 382
220 711 409 730 421 19 12 58 34 87 48 42 22 53 24 62 13 7 -8 35 -24 63 -36
57 -24 96 -22 159 10 l37 19 98 -53 c55 -29 140 -74 189 -101 81 -43 333 -179
700 -378 333 -180 388 -202 426 -169 27 23 24 44 -13 79 -44 41 -76 60 -333
198 -121 65 -314 169 -430 231 -115 62 -268 144 -340 183 -71 40 -153 83 -181
98 -49 25 -52 28 -57 72 -3 25 -4 47 -4 47 1 1 71 41 155 89 129 74 153 91
150 109 -2 11 -11 22 -20 24 -10 2 -84 -35 -164 -82 l-145 -85 -45 32 -44 31
0 1011 c0 977 -1 1012 -19 1029 -30 27 -83 31 -104 9z"/>
</g>
</svg>
