<?xml version="1.0" encoding="UTF-8" standalone="no"?>
<svg
   version="1.1"
   viewBox="0.0 0.0 960.0 720.0"
   fill="none"
   stroke="none"
   stroke-linecap="square"
   stroke-miterlimit="10"
   id="svg5"
   sodipodi:docname="redprog1.svg"
   inkscape:version="1.3 (0e150ed6c4, 2023-07-21)"
   xmlns:inkscape="http://www.inkscape.org/namespaces/inkscape"
   xmlns:sodipodi="http://sodipodi.sourceforge.net/DTD/sodipodi-0.dtd"
   xmlns="http://www.w3.org/2000/svg"
   xmlns:svg="http://www.w3.org/2000/svg">
  <defs
     id="defs5">
    <inkscape:path-effect
       effect="powerstroke"
       id="path-effect91"
       is_visible="true"
       lpeversion="1.3"
       scale_width="1"
       interpolator_type="CubicBezierJohan"
       interpolator_beta="0.2"
       start_linecap_type="zerowidth"
       end_linecap_type="zerowidth"
       offset_points="0,18.867925"
       linejoin_type="extrp_arc"
       miter_limit="4"
       not_jump="false"
       sort_points="true"
       message="&lt;b&gt;Ctrl + click&lt;/b&gt; on existing node and move it" />
    <inkscape:path-effect
       effect="powerstroke"
       id="path-effect89"
       is_visible="true"
       lpeversion="1.3"
       scale_width="1"
       interpolator_type="CubicBezierJohan"
       interpolator_beta="0.2"
       start_linecap_type="zerowidth"
       end_linecap_type="zerowidth"
       offset_points="0,18.867925"
       linejoin_type="extrp_arc"
       miter_limit="4"
       not_jump="false"
       sort_points="true"
       message="&lt;b&gt;Ctrl + click&lt;/b&gt; on existing node and move it" />
    <inkscape:path-effect
       effect="powerstroke"
       id="path-effect87"
       is_visible="true"
       lpeversion="1.3"
       scale_width="1"
       interpolator_type="CubicBezierJohan"
       interpolator_beta="0.2"
       start_linecap_type="zerowidth"
       end_linecap_type="zerowidth"
       offset_points="0,18.867925"
       linejoin_type="extrp_arc"
       miter_limit="4"
       not_jump="false"
       sort_points="true"
       message="&lt;b&gt;Ctrl + click&lt;/b&gt; on existing node and move it" />
    <inkscape:path-effect
       effect="powerstroke"
       id="path-effect85"
       is_visible="true"
       lpeversion="1.3"
       scale_width="1"
       interpolator_type="CubicBezierJohan"
       interpolator_beta="0.2"
       start_linecap_type="zerowidth"
       end_linecap_type="zerowidth"
       offset_points="0,18.867925"
       linejoin_type="extrp_arc"
       miter_limit="4"
       not_jump="false"
       sort_points="true"
       message="&lt;b&gt;Ctrl + click&lt;/b&gt; on existing node and move it" />
    <inkscape:path-effect
       effect="powerstroke"
       id="path-effect83"
       is_visible="true"
       lpeversion="1.3"
       scale_width="1"
       interpolator_type="CubicBezierJohan"
       interpolator_beta="0.2"
       start_linecap_type="zerowidth"
       end_linecap_type="zerowidth"
       offset_points="0,18.867925"
       linejoin_type="extrp_arc"
       miter_limit="4"
       not_jump="false"
       sort_points="true"
       message="&lt;b&gt;Ctrl + click&lt;/b&gt; on existing node and move it" />
    <inkscape:path-effect
       effect="powerstroke"
       id="path-effect81"
       is_visible="true"
       lpeversion="1.3"
       scale_width="1"
       interpolator_type="CubicBezierJohan"
       interpolator_beta="0.2"
       start_linecap_type="zerowidth"
       end_linecap_type="zerowidth"
       offset_points="0,18.867925"
       linejoin_type="extrp_arc"
       miter_limit="4"
       not_jump="false"
       sort_points="true"
       message="&lt;b&gt;Ctrl + click&lt;/b&gt; on existing node and move it" />
    <inkscape:path-effect
       effect="skeletal"
       id="path-effect80"
       is_visible="true"
       lpeversion="1"
       pattern="m 535.52774,180.86584 c 0,-0.62641 -1.43995,-1.50034 -3.19989,-1.94206 -6.98331,-1.75269 -6.86037,-0.37747 -7.41019,-82.893153 -0.48198,-72.334705 -0.3857,-76.498138 1.83454,-79.32069 1.28876,-1.638402 2.3432,-3.490626 2.3432,-4.116053 0,-0.625428 2.13156,-2.103284 4.73678,-3.2841258 4.29719,-1.9477415 5.12203,-1.9641627 8.88831,-0.1769481 9.53885,4.5264749 8.88149,-1.6886517 8.94561,84.5789549 0.0549,74.008975 -0.0488,77.521735 -2.38592,80.766795 -3.3265,4.61872 -13.75244,9.46102 -13.75244,6.38728 z"
       copytype="single_stretched"
       prop_scale="1"
       scale_y_rel="false"
       spacing="0"
       normal_offset="0"
       tang_offset="0"
       prop_units="false"
       vertical_pattern="false"
       hide_knot="false"
       fuse_tolerance="0" />
    <inkscape:path-effect
       effect="skeletal"
       id="path-effect79"
       is_visible="true"
       lpeversion="1"
       pattern="m 535.52774,180.86584 c 0,-0.62641 -1.43995,-1.50034 -3.19989,-1.94206 -6.98331,-1.75269 -6.86037,-0.37747 -7.41019,-82.893153 -0.48198,-72.334705 -0.3857,-76.498138 1.83454,-79.32069 1.28876,-1.638402 2.3432,-3.490626 2.3432,-4.116053 0,-0.625428 2.13156,-2.103284 4.73678,-3.2841258 4.29719,-1.9477415 5.12203,-1.9641627 8.88831,-0.1769481 9.53885,4.5264749 8.88149,-1.6886517 8.94561,84.5789549 0.0549,74.008975 -0.0488,77.521735 -2.38592,80.766795 -3.3265,4.61872 -13.75244,9.46102 -13.75244,6.38728 z"
       copytype="single_stretched"
       prop_scale="1"
       scale_y_rel="false"
       spacing="0"
       normal_offset="0"
       tang_offset="0"
       prop_units="false"
       vertical_pattern="false"
       hide_knot="false"
       fuse_tolerance="0" />
    <inkscape:path-effect
       effect="fill_between_many"
       method="bsplinespiro"
       autoreverse="false"
       close="false"
       join="false"
       linkedpaths="#path81,0,1"
       id="path-effect82" />
    <inkscape:path-effect
       effect="fill_between_many"
       method="bsplinespiro"
       autoreverse="false"
       close="false"
       join="false"
       linkedpaths="#path83,0,1"
       id="path-effect84" />
    <inkscape:path-effect
       effect="fill_between_many"
       method="bsplinespiro"
       autoreverse="false"
       close="false"
       join="false"
       linkedpaths="#path85,0,1"
       id="path-effect86" />
    <inkscape:path-effect
       effect="fill_between_many"
       method="bsplinespiro"
       autoreverse="false"
       close="false"
       join="false"
       linkedpaths="#path87,0,1"
       id="path-effect88" />
    <inkscape:path-effect
       effect="fill_between_many"
       method="bsplinespiro"
       autoreverse="false"
       close="false"
       join="false"
       linkedpaths="#path89,0,1"
       id="path-effect90" />
    <inkscape:path-effect
       effect="fill_between_many"
       method="bsplinespiro"
       autoreverse="false"
       close="false"
       join="false"
       linkedpaths="#path91,0,1"
       id="path-effect92" />
  </defs>
  <sodipodi:namedview
     id="namedview5"
     pagecolor="#ffffff"
     bordercolor="#000000"
     borderopacity="0.25"
     inkscape:showpageshadow="2"
     inkscape:pageopacity="0.0"
     inkscape:pagecheckerboard="0"
     inkscape:deskcolor="#d1d1d1"
     inkscape:zoom="0.57847222"
     inkscape:cx="418.34334"
     inkscape:cy="465.88235"
     inkscape:window-width="1920"
     inkscape:window-height="1111"
     inkscape:window-x="-9"
     inkscape:window-y="-9"
     inkscape:window-maximized="1"
     inkscape:current-layer="g285" />
  <clipPath
     id="p.0">
    <path
       d="m0 0l960.0 0l0 720.0l-960.0 0l0 -720.0z"
       clip-rule="nonzero"
       id="path1" />
  </clipPath>
  <g
     inkscape:groupmode="layer"
     id="layer1"
     inkscape:label="g0"
     style="display:inline"
     sodipodi:insensitive="true"
     transform="translate(2.8887394e-6)">
    <g
       id="g285">
      <path
         style="display:inline;fill:#9fdadf;fill-opacity:1;stroke-width:0.969216"
         d="m 617.74767,681.36257 c -1.09563,-0.21855 -6.69815,-1.26896 -12.4501,-2.33422 -36.25552,-6.71458 -73.01173,-25.19982 -100.96252,-50.77557 -27.5996,-25.25445 -45.6112,-54.54076 -56.575,-91.98926 l -3.31347,-11.31769 -0.003,-39.14034 -0.003,-39.14034 6.7902,-15.09025 c 17.45046,-38.78085 28.36898,-54.9025 52.14858,-76.9993 23.90236,-22.21094 48.77343,-36.63038 80.27902,-46.54315 18.12693,-5.70335 38.01022,-8.96882 54.61086,-8.96882 h 4.87452 l 0.0786,4.00835 c 0.0433,2.20459 0.30468,3.47784 0.58099,2.82942 0.86153,-2.0218 2.38809,-1.29818 3.47189,1.64572 0.82796,2.24906 1.47703,2.72073 3.1852,2.31463 l 2.14532,-0.51004 -0.34282,73.74274 c -0.33727,72.5553 0.20597,89.81085 2.92517,92.91342 1.64551,1.87746 5.55415,0.0414 16.35068,-7.68052 5.41642,-3.87393 10.1551,-7.04352 10.53041,-7.04352 0.87222,0 1.87957,3.53698 1.89715,6.66131 0.0166,2.94291 -2.8787,5.59717 -13.24139,12.1391 -4.27732,2.70028 -8.00952,5.48346 -8.29372,6.18487 -0.8122,2.00419 1.33078,4.91997 4.09962,5.57802 1.38795,0.32984 4.7411,2.18243 7.45146,4.11682 2.71033,1.93439 21.10202,12.16539 40.87037,22.73556 54.35766,29.06503 57.67983,31.38443 51.96632,36.28066 -3.90662,3.34777 -3.92436,3.34008 -63.41694,-27.47625 -34.18664,-17.7082 -46.76952,-23.77875 -49.28801,-23.77875 -0.8718,0 -3.31489,0.83508 -5.42905,1.85572 -2.11415,1.02066 -4.22582,1.63223 -4.6926,1.35906 -0.46678,-0.27318 -0.84873,1.25106 -0.84873,3.3872 0,2.34909 0.3936,3.65355 0.99603,3.301 0.65073,-0.38084 0.99599,5.6676 0.99599,17.44809 0,11.7805 -0.34526,17.82894 -0.99599,17.44811 -0.66006,-0.38629 -0.99603,19.88339 -0.99603,60.09549 0,53.39224 -0.18615,60.93007 -1.55049,62.77451 -0.85274,1.15288 -1.10329,2.09615 -0.55676,2.09615 0.54656,0 1.27071,-0.4244 1.60927,-0.94313 1.43194,-2.19392 2.49,-0.6337 2.49,3.67165 0,3.33805 -0.43586,4.77317 -1.57545,5.18727 -1.72933,0.62839 -22.62296,0.593 -25.81468,-0.0438 z M 499.45119,560.68695 c -0.33093,-0.31342 -1.18999,-0.34692 -1.90899,-0.0744 -0.79455,0.30106 -0.55854,0.52455 0.60173,0.56979 1.04997,0.0409 1.63823,-0.18195 1.30726,-0.49534 z m 18.1979,-4.1459 c 1.91727,-0.99397 3.03778,-1.80721 2.48998,-1.80721 -0.5478,0 -2.56472,0.81324 -4.48202,1.80721 -1.91732,0.99397 -3.03783,1.80722 -2.49004,1.80722 0.54782,0 2.56474,-0.81325 4.48208,-1.80722 z m 112.54865,-53.3359 c 0,-0.25936 -1.34463,0.18685 -2.98804,0.99158 -1.64339,0.80474 -2.988,1.67536 -2.988,1.93473 0,0.25936 1.34461,-0.18683 2.988,-0.99159 1.64341,-0.80473 2.98804,-1.67533 2.98804,-1.93472 z"
         id="path130"
         sodipodi:insensitive="true" />
      <path
         style="display:inline;fill:#9fdadf;fill-opacity:1;stroke-width:0.640864"
         d="m 638.46343,664.19307 c 0,-0.26895 1.20132,-2.71266 2.66959,-5.43049 l 2.6696,-4.94149 -0.13747,-66.66762 c -0.10726,-51.97391 -0.26878,-66.74484 -0.7332,-67.01799 -0.45684,-0.26868 -0.42872,-0.92054 0.12067,-2.79597 0.39395,-1.3451 0.71629,-4.57224 0.71629,-7.17144 0,-5.40228 -0.56074,-5.95586 -2.9677,-2.92981 -1.62092,2.03781 -2.17928,1.71534 -1.4121,-0.81553 0.73906,-2.43824 0.65305,-3.35077 -0.41058,-4.35579 -1.03363,-0.9767 -1.08061,-0.9334 -9.09977,8.38772 -2.57321,2.99099 -5.27623,5.74282 -6.00669,6.11518 -1.11753,0.56968 -2.99946,2.42257 -9.52374,9.37678 -0.39791,0.42412 -2.02568,1.96902 -3.6173,3.4331 -1.5916,1.4641 -4.30455,4.47577 -6.0288,6.69261 -1.72425,2.21683 -4.76275,5.31973 -6.75227,6.89532 -1.98949,1.5756 -4.15988,3.46803 -4.82305,4.20542 -2.082,2.31502 -3.0834,3.31027 -4.82304,4.79348 -2.16682,1.8474 -4.82305,5.291 -4.82305,6.2527 0,0.41018 0.37098,0.87191 0.8244,1.02608 0.59144,0.2011 0.10119,1.24138 -1.73522,3.68152 -7.11955,9.46053 -6.82308,8.94568 -6.49201,11.2747 0.28121,1.97817 0.20162,2.13222 -0.84585,1.63732 -0.63593,-0.30045 -1.64459,-0.55151 -2.24144,-0.5579 -0.63169,-0.007 -1.08519,-0.53627 -1.08519,-1.26708 0,-0.69051 -0.6511,-1.84993 -1.4469,-2.57653 -0.7958,-0.72658 -1.44691,-1.6944 -1.44691,-2.15074 0,-0.45632 -0.43408,-0.82968 -0.96461,-0.82968 -1.16435,0 -1.16324,0.50968 -0.0107,-5.05707 0.72399,-3.49724 0.82189,-4.88788 0.40627,-5.77202 -0.67896,-1.44444 -0.22552,-2.29886 2.14873,-4.04894 l 1.82071,-1.34208 -0.30552,2.1492 c -0.39344,2.76774 0.38761,2.76724 2.93404,-0.002 2.21418,-2.40781 3.13499,-2.65141 3.13499,-0.82934 0,0.70254 0.24554,1.27733 0.54563,1.27733 0.56584,0 8.36501,-7.61007 10.63265,-10.37484 0.71008,-0.86574 2.88044,-3.02814 4.82304,-4.80533 5.0003,-4.57453 16.40188,-16.20509 17.31264,-17.66035 0.42044,-0.67181 1.03147,-1.22147 1.35783,-1.22147 0.32636,0 0.45922,-0.38319 0.29529,-0.85155 -0.16393,-0.46835 0.0531,-0.85155 0.48231,-0.85155 0.4292,0 0.64624,-0.38319 0.4823,-0.85154 -0.16393,-0.46836 -0.0613,-0.85156 0.22782,-0.85156 0.28924,0 0.67012,-0.66354 0.84639,-1.47452 0.43383,-1.99613 4.99152,-9.59562 5.75482,-9.59562 0.19727,0 1.51908,-1.24172 2.93738,-2.75938 2.07665,-2.22214 2.52972,-3.1041 2.32703,-4.52994 -0.19578,-1.37722 0.48511,-2.93529 3.06488,-7.01328 1.8241,-2.88349 4.09729,-6.05603 5.05153,-7.05009 1.77849,-1.85268 2.15132,-2.95532 1.19047,-3.52081 -0.62728,-0.36917 4.1696,-10.8916 4.96519,-10.8916 0.3642,0 0.421,-1.89992 0.18382,-6.14976 -0.48213,-8.63855 -0.37843,-60.54301 0.19869,-99.4424 0.2675,-18.03156 0.48993,-34.26319 0.49429,-36.07029 0.007,-3.11399 0.0737,-3.25648 1.26646,-2.72791 1.22616,0.54335 1.25362,0.46598 1.06617,-3.00435 l -0.19241,-3.56206 7.25361,0.48012 c 9.08323,0.60121 14.67588,2.32523 22.8104,7.03164 17.24868,9.9796 33.88475,29.56695 44.99293,52.97478 10.67693,22.49909 17.14064,45.55586 21.47677,76.61014 l 1.73951,12.45798 -0.19042,24.33157 c -0.1795,22.93684 -0.26692,24.90989 -1.52483,34.42095 -3.25832,24.63613 -9.99672,50.44063 -18.00382,68.94502 -3.38764,7.82881 -11.8461,22.91471 -16.79057,29.94643 -14.08485,20.03061 -30.49375,32.46448 -48.39638,36.67245 -5.00792,1.17709 -18.39335,1.72293 -18.39335,0.75004 z"
         id="path93"
         sodipodi:insensitive="true" />
      <path
         style="display:inline;fill:#b2ebf2;fill-opacity:1;stroke-width:1.32937"
         d="m 716.32112,974.50927 c -0.43326,-0.71976 -0.46515,-15.99778 -0.0709,-33.95115 0.67751,-30.85111 0.86922,-32.80905 3.49349,-35.67711 2.94937,-3.22335 2.4765,-8.03041 -0.66806,-6.79146 -1.34963,0.53174 -1.98849,-1.61728 -2.64859,-8.90955 -1.08623,-11.99977 -0.44851,-163.39407 0.69321,-164.5651 0.45961,-0.47139 2.08315,-0.95358 3.60788,-1.07152 1.52472,-0.11796 2.77222,-0.72733 2.77222,-1.35425 0,-0.62694 0.53995,-0.79724 1.1999,-0.37848 0.65996,0.41878 1.40746,0.12218 1.66112,-0.6592 0.51396,-1.58307 9.95573,2.54839 23.3122,10.20074 4.65397,2.66641 14.69046,8.24489 22.30333,12.39662 7.61285,4.15174 20.33577,11.30694 28.27313,15.90045 7.93735,4.59352 16.79309,9.55098 19.67941,11.0166 2.88631,1.46563 14.64066,7.67274 26.12078,13.79359 l 20.87294,11.12884 4.38229,-2.14562 c 2.74349,-1.34325 4.3823,-3.12251 4.3823,-4.75785 0,-5.59411 -8.49861,-11.55954 -45.26262,-31.77125 -5.05107,-2.77689 -12.72603,-7.01471 -17.05549,-9.41734 -4.32947,-2.40264 -13.4804,-7.40768 -20.3354,-11.12232 -20.14383,-10.9157 -42.52095,-23.49553 -44.14322,-24.81616 -0.82748,-0.6736 -1.16788,-2.56631 -0.75646,-4.20602 0.63239,-2.52023 0.44424,-2.72578 -1.21662,-1.3292 -1.72635,1.45166 -7.10533,1.40142 -8.54805,-0.0798 -0.28542,-0.29304 -1.05814,-2.4631 -1.71715,-4.82236 -1.3069,-4.67869 -0.51349,-5.4691 12.43083,-12.38358 8.26955,-4.41733 10.34189,-5.71216 14.35559,-8.96946 3.2788,-2.66086 3.57711,-3.46135 2.33392,-6.26276 -0.78396,-1.76659 -1.12236,-4.40171 -0.75198,-5.85582 1.46419,-5.74876 -3.26281,-4.18051 -10.94097,3.62985 -4.22854,4.30131 -10.71729,9.39654 -14.41946,11.3227 -3.70218,1.92616 -6.94645,4.16505 -7.2095,4.97529 -0.2736,0.84273 -2.09787,0.0442 -4.26291,-1.86581 -3.52235,-3.10755 -3.63411,-3.49351 -1.61235,-5.5693 2.84327,-2.91926 2.74644,-3.85329 -0.31426,-3.03151 -2.355,0.63229 -2.53763,-0.73117 -3.45232,-25.77309 -0.53118,-14.54239 -0.31979,-50.38406 0.46978,-79.64813 1.82606,-67.68117 1.85564,-97.89122 0.0991,-101.26112 -0.98047,-1.88097 -0.93456,-3.17287 0.16091,-4.52811 0.84302,-1.04293 2.01723,-4.10163 2.60933,-6.79712 l 1.07655,-4.90088 -3.83024,3.76768 c -2.10665,2.07225 -3.9056,3.50274 -3.99769,3.17892 -0.0922,-0.32382 -0.34943,-1.80109 -0.57186,-3.28282 -0.22243,-1.48172 -0.77723,-4.8156 -1.2329,-7.40863 -0.76094,-4.33018 -0.27747,-5.29352 5.92979,-11.81537 l 6.75827,-7.10079 8.99908,0.36569 8.99908,0.36567 -3.2844,3.52598 c -3.1808,3.41474 -3.20061,3.54849 -0.62829,4.23913 1.64271,0.44105 3.96026,-0.43742 6.07429,-2.30249 3.26255,-2.87834 11.17062,-3.82589 13.3401,-1.59841 0.45553,0.46769 2.0582,0.86965 3.56149,0.89321 2.55128,0.0401 2.58039,0.16197 0.43733,1.83229 -1.26278,0.98417 -2.29594,2.17722 -2.29594,2.6512 0,1.52025 7.29092,0.91932 8.90086,-0.73364 1.86621,-1.91611 6.84267,-2.48982 6.84267,-0.78886 0,0.66361 1.03316,1.09868 2.29594,0.96678 1.26276,-0.13184 3.72719,-0.16997 5.47654,-0.0846 l 3.18059,0.15506 -2.92468,3.1964 -2.92467,3.19637 3.39872,0.66708 c 2.20223,0.43224 3.95963,-0.10026 4.99193,-1.51261 1.91254,-2.6166 4.87307,-3.44409 4.87307,-1.36203 0,0.82012 0.73797,1.20152 1.63995,0.84752 0.90198,-0.35398 3.5707,0.42083 5.93053,1.7218 3.47669,1.9167 3.87058,2.53084 2.07654,3.23769 -3.81505,1.50309 0.0961,3.97973 4.3605,2.76119 2.03717,-0.58211 4.88472,-0.90019 6.32787,-0.70682 2.99334,0.40106 25.21598,11.847 26.21115,13.50025 0.36034,0.5986 -0.23121,1.84365 -1.31453,2.76675 -1.48128,1.2622 -1.60619,2.12804 -0.50378,3.49189 1.1712,1.44891 2.03167,1.4858 4.28007,0.18347 3.40933,-1.9748 7.40601,-2.41919 7.40601,-0.82349 0,0.63971 0.74354,1.16311 1.65235,1.16311 0.90879,0 2.3583,1.16062 3.22115,2.57917 1.25564,2.06435 1.1877,2.90391 -0.34039,4.20601 -1.05005,0.89476 -1.90919,2.15877 -1.90919,2.80892 0,1.69948 5.76561,1.4587 7.49105,-0.31285 2.24613,-2.30618 14.5556,5.2177 12.45386,7.61213 -0.50681,0.57741 -0.22013,0.63704 0.63708,0.13247 1.73652,-1.02204 4.29916,1.1596 21.93075,18.67023 12.87994,12.79157 25.7092,27.88628 25.7092,30.24901 0,0.77332 0.49654,1.40603 1.10344,1.40603 0.60691,0 2.71009,3.0308 4.67375,6.73513 1.96367,3.70431 4.12383,6.7351 4.80037,6.7351 0.67655,0 1.23008,0.90924 1.23008,2.02055 0,1.11127 0.62523,2.02051 1.3894,2.02051 0.76415,0 1.02451,0.60617 0.57855,1.34703 -0.44596,0.74087 -0.0379,1.35631 0.90653,1.36765 1.24792,0.0156 1.17944,0.37757 -0.25055,1.3264 -1.73081,1.14842 -1.00975,1.88991 1.50869,1.55146 0.46901,-0.0629 1.21822,1.38058 1.66494,3.20805 0.44673,1.82745 1.42621,3.32264 2.17663,3.32264 0.75041,0 1.0424,0.53491 0.64885,1.18869 -0.39353,0.65378 0.38853,2.62978 1.73792,4.39113 4.25815,5.55802 14.06787,28.19842 18.88535,43.5865 16.07551,51.34893 17.02564,107.41112 2.68238,158.27522 -3.65004,12.94378 -5.20719,17.68356 -7.81124,23.77648 -0.99776,2.33455 -1.81412,4.62 -1.81412,5.07879 0,0.45878 -2.34711,5.93049 -5.2158,12.15937 -24.44786,53.08436 -65.44893,97.17227 -116.79653,125.58975 -22.3684,12.37941 -55.78853,23.62079 -83.19391,27.98355 -16.1888,2.57712 -38.4472,3.78388 -39.43785,2.13811 z m 97.70452,-415.45872 v -4.13842 l -3.41884,3.51021 c -2.52842,2.59599 -3.18087,4.28009 -2.5051,6.46612 0.87133,2.8187 1.03001,2.84786 3.41883,0.62822 1.42997,-1.32868 2.50511,-4.1038 2.50511,-6.46613 z m 19.43213,-94.22301 c -0.96065,-0.98632 -3.51194,-2.19933 -5.66954,-2.69556 -3.89136,-0.89499 -3.88599,-0.88104 0.66899,1.73687 5.37661,3.09015 7.46683,3.49088 5.00055,0.95869 z m -9.92041,-1.03294 c -0.54118,-0.51727 -4.23107,-1.27351 -8.19976,-1.68052 -3.96868,-0.40702 -6.03501,-0.4099 -4.59186,-0.006 1.44316,0.40351 3.06672,1.15972 3.60789,1.68051 0.54118,0.52078 3.0503,0.94687 5.57584,0.94687 2.52551,0 4.14907,-0.42321 3.60789,-0.94047 z m -64.89965,-25.25309 c 0.37597,-1.15929 -0.25486,-1.6447 -1.75052,-1.34701 -1.28607,0.25596 -2.60281,1.28098 -2.9261,2.27781 -0.37598,1.15929 0.25484,1.64471 1.75049,1.34703 1.28607,-0.25597 2.60281,-1.28099 2.92613,-2.27783 z"
         id="path78"
         sodipodi:insensitive="true"
         transform="matrix(0.67187507,0,0,0.67187507,143.24147,16)" />
      <path
         style="display:inline;fill:#005e60;fill-opacity:1;stroke-width:0.866208"
         d="m 604.96446,689.2387 c -11.82081,-1.47412 -28.77956,-4.52506 -34.28892,-6.1687 -28.0216,-8.35988 -48.82814,-18.55933 -69.81042,-34.22137 -10.23879,-7.64265 -29.1129,-26.16033 -36.72093,-36.0275 -28.79177,-37.34111 -44.10992,-84.38418 -42.21721,-129.65186 0.51945,-12.42378 2.4018,-28.27485 4.20835,-35.43818 2.91902,-11.57462 4.7676,-18.01389 5.70711,-19.87995 1.96103,-3.89509 3.84759,-8.45646 3.84759,-9.30279 0,-0.45664 1.1719,-3.40372 2.60424,-6.54908 1.43231,-3.14534 2.60421,-6.32628 2.60421,-7.06875 0,-1.84078 2.97216,-7.49829 6.33518,-12.05905 1.52879,-2.07325 4.34213,-6.33767 6.25189,-9.47648 4.13917,-6.80297 10.81628,-16.00418 15.11991,-20.83553 1.7103,-1.92003 5.25813,-5.96814 7.88405,-8.99582 4.4576,-5.13958 22.40826,-21.34492 26.85944,-24.24791 1.09336,-0.71309 2.88327,-1.97719 3.97755,-2.80913 1.0943,-0.83193 2.39689,-1.5126 2.89466,-1.5126 0.49778,0 1.21743,-0.53074 1.59923,-1.17942 0.38181,-0.64868 1.91692,-1.80142 3.41137,-2.56165 1.49445,-0.76023 3.88531,-2.36092 5.313,-3.5571 3.841,-3.21809 21.84116,-11.98193 32.83738,-15.9877 12.76864,-4.65145 31.24982,-9.11067 44.77119,-10.80261 12.45359,-1.55832 40.35201,-1.94365 45.5038,-0.62848 1.87489,0.47864 5.94803,1.11 9.0514,1.40303 6.41147,0.60539 15.17617,2.42797 23.43799,4.87383 3.10337,0.91873 6.30304,1.66479 7.11038,1.6579 0.80735,-0.007 1.69075,0.34651 1.96312,0.78533 0.27238,0.43881 1.70339,1.06206 3.18002,1.38499 2.44485,0.53467 4.67879,1.39607 13.78871,5.31692 6.46054,2.78057 16.25682,7.74912 20.57506,10.43541 2.48362,1.54502 4.71019,2.80913 4.9479,2.80913 0.23772,0 2.30733,1.24477 4.59909,2.76615 22.39218,14.86495 44.26411,36.36174 57.2281,56.24657 9.95529,15.26996 20.47579,35.99134 22.91857,45.14094 0.38075,1.42617 1.10029,3.7599 1.59897,5.18607 4.84373,13.85254 8.49652,34.17737 10.09714,56.18248 0.85549,11.761 -2.97133,42.59836 -6.91842,55.7503 -0.64204,2.13925 -2.04522,6.80672 -3.11819,10.37215 -1.07295,3.56542 -2.61718,8.03841 -3.43156,9.93997 -0.81441,1.90156 -2.80006,6.56322 -4.41255,10.35924 -7.75935,18.26644 -22.13921,39.69106 -37.93723,56.52287 -23.79122,25.34806 -54.27482,43.8153 -89.15085,54.00839 -13.66728,3.99449 -21.75113,5.4471 -41.66753,7.48737 -18.56258,1.90158 -19.86468,1.91488 -32.55279,0.33262 z m 47.74407,-25.5407 c 35.16257,-6.08286 68.36078,-22.90704 93.19939,-47.23157 16.20254,-15.8672 24.07489,-26.43513 35.23121,-47.29476 3.8737,-7.24285 9.59316,-20.76965 9.59316,-22.68822 0,-0.87995 0.33255,-1.9694 0.73902,-2.42103 1.39303,-1.54787 4.13286,-12.89401 7.08597,-29.34453 1.86181,-10.37138 1.37621,-47.58412 -0.72188,-55.31813 -0.51586,-1.90156 -1.77933,-7.34694 -2.80775,-12.10084 -1.0284,-4.7539 -2.37108,-9.81032 -2.98375,-11.2365 -0.61267,-1.42617 -2.00406,-5.12124 -3.09202,-8.21128 -2.87883,-8.17658 -8.17432,-19.03325 -14.34796,-29.41571 -17.11653,-28.78559 -43.89534,-53.20494 -74.15133,-67.61788 -14.39024,-6.85503 -15.03398,-7.11227 -26.29727,-10.50831 -14.33626,-4.32259 -27.5446,-6.52939 -42.7146,-7.13658 -10.95933,-0.43866 -30.36772,0.49476 -37.37557,1.79753 -0.92828,0.17257 -3.82653,0.60228 -6.44054,0.95492 -5.95338,0.80313 -29.41558,8.70807 -38.65091,13.02238 -28.4671,13.29844 -54.70421,35.43464 -72.66175,61.30461 -9.8668,14.21426 -16.00481,26.74596 -22.74602,46.43947 -1.25757,3.67377 -3.15648,8.14676 -4.21982,9.93998 -2.15032,3.62633 -2.10757,3.08074 -2.9212,37.26381 -0.40999,17.22454 -0.23581,22.78681 0.96096,30.68428 5.87886,38.79456 22.75043,72.18395 50.315,99.57501 16.11496,16.01352 30.54048,25.96324 52.14091,35.96319 20.975,9.71042 41.31331,14.78371 62.93534,15.69894 12.01554,0.50859 30.37478,-0.46556 39.93141,-2.11878 z"
         id="path24"
         sodipodi:insensitive="true" />
      <path
         style="display:inline;fill:#263238;fill-opacity:1;stroke-width:0.864346"
         d="m 266.23122,421.58463 c 0.0275,-7.94097 5.71872,-20.42691 14.28165,-31.33253 7.32718,-9.33179 16.92953,-18.49391 36.26984,-34.60704 9.38758,-7.82112 10.17808,-8.53101 19.67023,-17.66408 13.62685,-13.11137 20.93932,-23.57771 24.38631,-34.90416 3.22418,-10.59427 -0.27866,-23.67834 -8.28137,-30.93317 -8.14466,-7.38353 -15.44105,-9.80825 -27.50783,-9.14132 -18.78863,1.03843 -29.9987,10.8252 -32.76056,28.60107 -0.50735,3.26542 -1.14632,6.16099 -1.41993,6.4346 -0.60398,0.60398 -19.35989,-1.17419 -20.09039,-1.90469 -0.28463,-0.28463 -0.024,-3.27889 0.57912,-6.65391 4.77726,-26.73194 22.51957,-41.98029 50.80165,-43.66071 16.47104,-0.97865 30.35943,2.0871 40.25449,8.88586 16.87822,11.5968 24.92274,33.05402 19.70914,52.57036 -5.257,19.67883 -17.38728,33.77782 -60.97956,70.87635 -12.92987,11.00377 -25.53777,24.05717 -25.53777,26.44016 0,0.46246 18.16941,0.78673 44.08164,0.78673 h 44.08163 v 9.93998 9.93997 H 324.994 266.21849 Z"
         id="path16"
         transform="translate(2.8887394e-6)"
         sodipodi:insensitive="true" />
      <path
         style="display:inline;fill:#263238;fill-opacity:1;stroke-width:0.864346"
         d="m 406.2425,424.0181 c 0,-2.27452 2.62267,-13.74384 3.35821,-14.68594 0.39883,-0.51084 0.98067,-1.99843 1.29297,-3.30575 0.31231,-1.30732 0.91921,-2.37695 1.34867,-2.37695 0.42947,0 1.23013,-1.36134 1.77926,-3.02521 0.54912,-1.66387 1.3572,-3.02521 1.79572,-3.02521 0.43852,0 0.79732,-0.56411 0.79732,-1.25357 0,-0.68946 0.48732,-1.56461 1.08294,-1.94478 0.59562,-0.38016 2.18406,-2.31501 3.52988,-4.29966 4.33203,-6.38837 13.60005,-15.3147 31.34704,-30.19135 13.1975,-11.06297 17.77516,-15.06553 23.07291,-20.17422 3.23153,-3.11621 6.24594,-5.79548 6.69868,-5.95394 0.45274,-0.15847 0.82317,-0.57508 0.82317,-0.92581 0,-0.35072 1.72748,-2.44059 3.83885,-4.64414 4.41791,-4.61078 8.89497,-11.34613 11.97909,-18.02153 7.30904,-15.81996 3.00828,-33.57175 -10.19969,-42.10023 -6.42732,-4.15016 -12.23671,-5.71751 -21.17648,-5.71334 -8.11917,0.004 -12.97063,1.18725 -19.97109,4.87175 -2.45721,1.29328 -9.41666,7.82444 -9.41666,8.83715 0,0.34581 -0.57324,1.20198 -1.27386,1.9026 -1.83057,1.83057 -4.77656,11.95334 -4.77656,16.4128 0,3.15145 -0.27888,3.79851 -1.63711,3.79851 -3.00633,0 -19.49443,-1.82782 -19.86926,-2.20265 -0.48864,-0.48864 3.17137,-14.79754 4.63215,-18.10948 4.48477,-10.16804 8.5378,-15.8089 14.73401,-20.50625 11.18793,-8.48158 27.48097,-12.7865 43.74647,-11.55861 16.05422,1.21193 25.60196,5.28204 35.41846,15.09853 7.79569,7.7957 12.30876,16.03016 13.83385,25.24097 1.14403,6.90939 0.23381,22.70993 -1.50157,26.06578 -0.69292,1.33997 -1.14774,3.04161 -1.01071,3.78142 0.14635,0.79012 -1.068,2.11882 -2.94312,3.22028 -9.73881,5.72066 -23.85337,16.88816 -34.02415,26.92005 -13.17445,12.99454 -23.08802,25.78905 -34.01319,43.89763 -1.07916,1.78873 -2.70146,3.64791 -3.60509,4.13153 -1.60459,0.85874 -8.57467,9.4995 -8.57467,10.62996 0,0.31334 1.00481,0.56971 2.2329,0.56971 1.22809,0 2.09309,0.29172 1.92223,0.64826 -0.17087,0.35654 -1.01946,2.20408 -1.88576,4.10564 -0.8663,1.90156 -2.12025,4.55854 -2.78657,5.90438 -0.66632,1.34585 -1.21149,2.98061 -1.21149,3.63281 0,0.65219 -0.45139,2.17649 -1.00308,3.38733 l -1.00309,2.20153 h -13.69079 c -11.31608,0 -13.69079,-0.21508 -13.69079,-1.24 z"
         id="path17"
         sodipodi:insensitive="true"
         transform="translate(2.8887394e-6)" />
      <path
         style="display:inline;fill:#bdbdbd;fill-opacity:1;stroke-width:0.864346"
         d="m 172.29216,492.8058 c -7.80171,-2.69607 -13.69357,-8.3626 -16.2608,-15.63889 -1.15458,-3.27244 -1.31347,-20.85791 -1.31347,-145.36838 V 190.15295 l 236.61464,0.21764 236.61465,0.21765 0.22313,48.83553 0.22312,48.83553 -8.4344,0.0135 c -15.72735,0.0251 -28.92814,1.64218 -43.00825,5.2685 -2.85234,0.73462 -6.99043,1.66398 -9.19575,2.06524 -2.20532,0.40127 -4.73353,1.10311 -5.61825,1.55965 -0.88471,0.45655 -3.9423,1.67213 -6.79464,2.70129 -2.85234,1.02917 -6.28723,2.43619 -7.63307,3.12674 -1.34585,0.69053 -2.8386,1.25552 -3.31723,1.25552 -0.47864,0 -5.53239,2.33373 -11.23058,5.18607 -5.69818,2.85235 -10.48903,5.18608 -10.64633,5.18608 -0.1573,0 0.32865,-2.2365 1.07989,-4.96999 1.75187,-6.37443 1.91137,-21.6328 0.28689,-27.44298 -1.53181,-5.47864 -5.00591,-13.02485 -7.32843,-15.91823 -5.4338,-6.76944 -13.03622,-13.14676 -19.10595,-16.02709 -3.54737,-1.68337 -7.25123,-3.06068 -8.23081,-3.06068 -0.97958,0 -3.22713,-0.64074 -4.99458,-1.42386 -2.50301,-1.10904 -5.98466,-1.42386 -15.74655,-1.42386 -9.76189,0 -13.24354,0.31482 -15.74655,1.42386 -1.76745,0.78312 -4.23564,1.42386 -5.48488,1.42386 -2.16601,0 -3.56776,0.54708 -9.45284,3.68929 -1.42617,0.76147 -3.77334,1.99774 -5.21593,2.74727 -7.85332,4.08035 -15.97677,14.77246 -19.42549,25.5679 -1.6964,5.31021 -4.01577,17.87946 -3.39876,18.41879 0.20961,0.18322 5.4816,0.58045 11.71552,0.88273 l 11.33442,0.5496 1.05504,-6.6961 c 1.02701,-6.51817 4.66319,-15.77172 6.19749,-15.77172 0.41961,0 0.76292,-0.58344 0.76292,-1.29652 0,-0.71309 0.29171,-1.29832 0.64826,-1.30052 0.35654,-0.002 1.82689,-1.1089 3.26743,-2.45932 1.44054,-1.35043 5.13562,-3.58513 8.21128,-4.96599 5.08635,-2.2836 6.45202,-2.50969 15.09992,-2.49986 9.01461,0.0103 9.80794,0.15945 15.29384,2.87617 5.1513,2.55101 8.70793,5.64614 13.78932,12.00005 2.03436,2.54384 4.19415,10.5779 4.19415,15.60159 0,5.3323 -2.40313,13.02549 -5.94543,19.03322 -1.48392,2.51671 -2.69803,4.80731 -2.69803,5.09021 0,2.1536 -18.58817,21.01794 -30.68427,31.14015 -4.27851,3.58033 -8.94598,7.52602 -10.37215,8.76821 -1.42617,1.24219 -5.31573,4.57216 -8.64346,7.39994 -24.4019,20.73584 -37.59904,40.69656 -37.59904,56.8687 v 4.14012 h 13.39736 c 8.35535,0 13.39736,0.32529 13.39736,0.86435 0,0.47539 -0.30026,0.86435 -0.66723,0.86435 -0.36698,0 -1.12905,2.43451 -1.69351,5.41003 -0.56444,2.97552 -1.5836,7.35127 -2.26478,9.72389 -2.8515,9.93202 -4.24789,20.45448 -4.67312,35.21422 l -0.44201,15.34213 -122.83675,-0.0282 c -115.63861,-0.0266 -123.0985,-0.11866 -127.30331,-1.57174 z m 213.01504,-77.27159 -0.24117,-11.45258 -43.54521,-0.43217 -43.54521,-0.43217 4.019,-4.93332 c 2.21046,-2.71332 4.7309,-5.43601 5.601,-6.05042 1.30733,-0.92315 11.61401,-9.95229 15.13645,-13.26023 0.53098,-0.49865 5.43841,-4.76171 10.90539,-9.47349 13.21495,-11.3894 22.14872,-19.9779 35.43818,-34.06855 1.71868,-1.82229 7.8116,-11.02818 9.56576,-14.45305 4.70797,-9.19201 5.56124,-13.23677 5.53476,-26.23633 -0.0308,-15.09307 -1.03626,-18.37309 -9.48227,-30.93156 -1.51385,-2.25096 -7.45339,-7.964 -8.27975,-7.964 -0.43773,0 -0.79588,-0.36047 -0.79588,-0.80104 0,-1.24635 -11.13053,-6.93851 -15.55823,-7.95649 -1.66386,-0.38254 -5.55342,-1.28317 -8.64345,-2.00141 -7.19554,-1.67249 -19.59918,-1.67249 -26.79472,0 -3.09004,0.71824 -6.97959,1.61422 -8.64346,1.99107 -9.65126,2.18594 -23.47938,12.10004 -28.19532,20.21468 -2.39194,4.11579 -4.90237,9.85238 -5.58175,12.75487 -0.38946,1.66386 -1.32201,5.16446 -2.07233,7.77911 -0.75033,2.61465 -1.25648,5.92077 -1.12477,7.34694 0.23768,2.57358 0.28812,2.59716 6.72207,3.14285 3.56543,0.3024 8.85776,0.83817 11.76073,1.1906 l 5.27814,0.64079 0.4268,-5.96513 c 0.23475,-3.28082 0.84958,-6.73375 1.36632,-7.67319 0.51673,-0.93944 1.83428,-3.60269 2.9279,-5.91835 2.34963,-4.97521 8.83203,-11.08486 14.35171,-13.52648 9.80383,-4.33669 22.94273,-4.13847 31.79124,0.47962 4.11398,2.14713 13.34566,10.99444 13.34566,12.79002 0,0.48049 0.68067,1.62576 1.5126,2.54503 1.25227,1.38374 1.50024,3.25501 1.44076,10.87238 -0.0624,7.99307 -0.36668,9.83905 -2.31759,14.06138 -2.70892,5.86285 -7.39106,13.2714 -10.47631,16.57668 -1.24316,1.33182 -2.2603,2.55376 -2.2603,2.71544 0,0.27724 -12.31025,12.43281 -19.10733,18.86725 -1.71432,1.62285 -5.99283,5.218 -9.5078,7.98921 -3.51499,2.77123 -7.01589,5.65237 -7.7798,6.40255 -0.76391,0.75018 -4.26451,3.87787 -7.77911,6.95042 -10.37462,9.06973 -22.38058,21.60107 -22.38058,23.35997 0,0.37871 -0.4862,0.88236 -1.08043,1.11923 -0.59424,0.23686 -2.05283,2.3205 -3.2413,4.63029 -1.18848,2.30979 -2.42807,4.4019 -2.75465,4.64914 -2.27263,1.72045 -6.75315,17.04904 -6.75315,23.10358 v 2.80944 h 60.52929 60.52928 z"
         id="path15"
         transform="translate(2.8887394e-6)"
         sodipodi:insensitive="true" />
      <path
         style="display:inline;fill:#fe3d00;fill-opacity:1;stroke-width:0.864346"
         d="m 620.60024,188.60279 c 0,-0.84338 6.31475,-7.09018 7.1673,-7.09018 0.33649,0 0.61181,1.7503 0.61181,3.88955 v 3.88956 h -3.88955 c -2.13926,0 -3.88956,-0.31002 -3.88956,-0.68893 z"
         id="path14"
         transform="translate(2.8887394e-6)"
         sodipodi:insensitive="true" />
      <path
         style="display:inline;fill:#243035;fill-opacity:1;stroke-width:0.611185"
         d="m 625.24194,493.68447 c 3e-5,-1.08267 0.32459,-1.68076 0.9121,-1.68076 0.90981,0 4.21449,-3.28724 4.35941,-4.33639 0.042,-0.3042 0.11078,-0.98187 0.1528,-1.50594 0.0442,-0.55119 0.37138,-0.77053 0.77619,-0.52034 0.48306,0.29854 0.60396,-0.0689 0.39035,-1.1863 -0.2043,-1.06875 -0.0437,-1.6188 0.47258,-1.6188 0.43012,0 1.18499,-0.15463 1.6775,-0.34362 0.66439,-0.25495 0.97076,0.25759 1.18731,1.98635 0.16052,1.28148 0.0314,2.66171 -0.2869,3.06718 -0.31832,0.40546 -0.40134,1.02429 -0.18448,1.37516 0.21685,0.35088 0.0868,0.63796 -0.28905,0.63796 -0.37583,0 -0.52695,0.25301 -0.33584,0.56225 0.19112,0.30923 -0.33339,1.09782 -1.16557,1.75241 -0.83218,0.6546 -1.31611,1.4083 -1.0754,1.67489 0.24072,0.2666 0.096,0.28822 -0.32147,0.0481 -0.79093,-0.45494 -2.90797,0.43132 -2.90797,1.21738 0,0.24832 -0.75636,0.47394 -1.6808,0.50138 -1.43826,0.0427 -1.6808,-0.19266 -1.68076,-1.63087 z"
         id="path284"
         sodipodi:insensitive="true" />
      <path
         style="display:inline;fill:#243035;fill-opacity:1;stroke-width:0.611185"
         d="m 612.51766,483.98179 c 0.33481,-4.96614 1.89371,-8.18667 4.8732,-10.06754 l 2.35055,-1.48385 -0.31711,-69.45153 c -0.35203,-77.09797 -0.58785,-72.32793 3.57581,-72.32793 3.52965,0 4.30229,1.10252 4.77686,6.81636 0.23306,2.80596 0.44561,34.32056 0.47234,70.03246 l 0.0486,64.9307 2.44473,1.5433 c 1.34461,0.84881 2.44474,1.65493 2.44474,1.79138 0,0.13644 -0.96056,0.84173 -2.13459,1.56733 -2.01114,1.24294 -2.24634,1.2635 -4.0666,0.35544 -1.06261,-0.5301 -2.48262,-0.96382 -3.15558,-0.96382 -2.70257,0 -7.14521,4.86031 -7.14521,7.81695 0,0.99054 -0.87005,1.68021 -3.89597,3.08826 -0.29394,0.13677 -0.41624,-1.5046 -0.27177,-3.64751 z"
         id="path283"
         sodipodi:insensitive="true" />
      <path
         style="display:inline;fill:#243035;fill-opacity:1;stroke-width:0.611185"
         d="m 618.71318,494.66168 c 0.21887,-0.21888 -0.0488,-0.72463 -0.59481,-1.12389 -1.37605,-1.00619 -0.35011,-2.44184 1.77575,-2.48489 0.92441,-0.0187 1.68075,0.20378 1.68075,0.49446 0,0.29067 0.27504,0.35851 0.61119,0.15076 0.35658,-0.22038 0.61118,0.40111 0.61118,1.49189 0,1.74544 -0.14884,1.86962 -2.24101,1.86962 -1.23255,0 -2.06193,-0.17908 -1.84305,-0.39795 z"
         id="path282"
         sodipodi:insensitive="true" />
      <path
         style="display:inline;fill:#243035;fill-opacity:1;stroke-width:0.611185"
         d="m 623.23593,495.90578 c -0.24128,-0.24128 -0.43869,-1.35547 -0.43869,-2.47597 0,-1.92584 0.11854,-2.03728 2.16693,-2.03728 2.59604,0 5.00972,-2.11527 5.56143,-4.87386 0.20341,-1.01705 0.60186,-1.84918 0.88545,-1.84918 0.28358,0 0.37116,-0.3764 0.19462,-0.83645 -0.3005,-0.78309 1.32192,-1.57874 3.26247,-1.59994 1.66227,-0.0182 0.38301,6.84851 -1.83471,9.84813 -0.69454,0.93942 -1.4941,1.56509 -1.7768,1.39037 -0.28269,-0.17471 -0.51399,-0.0102 -0.51399,0.36566 0,0.37583 -0.25813,0.5238 -0.57362,0.32881 -0.31549,-0.19498 -0.7968,0.0312 -1.06957,0.5027 -0.55067,0.95178 -5.17348,1.92705 -5.86352,1.23701 z"
         id="path281"
         sodipodi:insensitive="true" />
      <path
         style="display:inline;fill:#d50000;fill-opacity:1;stroke-width:0.216086"
         d="m 623.62545,479.84972 c 0,-0.85079 0.28133,-1.43435 0.69148,-1.43435 0.0951,0 0.17287,0.51412 0.17287,1.14249 0,0.98758 -0.0586,1.1469 -0.43218,1.17504 -0.3693,0.0278 -0.43217,-0.10065 -0.43217,-0.88318 z"
         id="path271"
         transform="translate(2.8887394e-6)"
         sodipodi:insensitive="true" />
      <path
         style="display:inline;fill:#d50000;fill-opacity:1;stroke-width:0.216086"
         d="m 491.86081,562.78487 c -0.8589,-0.6016 -0.60387,-1.08574 1.08637,-2.0623 4.02625,-2.32622 14.57191,-8.56599 37.7611,-22.3429 13.84574,-8.22589 35.38416,-21.01369 47.86315,-28.41735 25.47923,-15.11657 29.8313,-17.74822 35.56629,-21.50656 l 4.01768,-2.63292 0.13477,-1.27277 c 0.19151,-1.80858 0.74657,-3.31852 1.52797,-4.15653 0.91919,-0.98581 2.47312,-2.03887 2.81502,-1.90767 0.169,0.0649 0.34025,0.69114 0.43088,1.57581 0.16256,1.58664 0.38538,2.02716 1.02539,2.02716 0.4724,0 0.83109,-0.7714 0.83549,-1.79678 0.008,-1.80962 0.34955,-1.97708 2.28668,-1.12039 0.67184,0.29712 1.33866,0.54022 1.48181,0.54022 0.14315,0 2.362,-1.30451 4.93076,-2.8989 8.72131,-5.41319 18.4124,-11.30055 19.54392,-11.87297 1.94738,-0.98516 2.94157,-0.61336 3.27773,1.22577 l 0.19004,1.03974 -0.89296,0.56473 c -0.49113,0.3106 -6.14386,3.71848 -12.56163,7.57306 -6.41776,3.85457 -11.98469,7.24585 -12.37095,7.53617 -0.38625,0.29032 -0.70228,0.67593 -0.70228,0.85691 0,0.69258 -1.13786,3.67948 -1.66555,4.37209 -0.61759,0.8106 -2.30258,1.67995 -3.64682,1.88153 -0.66629,0.0999 -1.28195,-0.0113 -2.48647,-0.44917 -0.88051,-0.32009 -1.84401,-0.62675 -2.14113,-0.68147 -0.64363,-0.11856 -0.89102,0.0244 -30.90036,17.85952 -94.34445,56.07059 -90.62671,53.87417 -93.87387,55.46015 -2.07336,1.01266 -2.77935,1.13372 -3.53303,0.60582 z"
         id="path270"
         transform="translate(2.8887394e-6)"
         sodipodi:insensitive="true" />
      <path
         style="display:inline;fill:#536d78;fill-opacity:1;stroke-width:0.216086"
         d="m 726.19559,542.66618 c -0.0826,-0.0826 -0.62675,-0.1284 -1.20927,-0.10182 -0.58251,0.0266 -1.12194,-0.0533 -1.19873,-0.17759 -0.0768,-0.12425 -0.4256,-0.22591 -0.77513,-0.22591 -0.34953,0 -0.63551,-0.0927 -0.63551,-0.20594 0,-0.23377 -1.10567,-0.7672 -2.00764,-0.96859 -0.33169,-0.0741 -0.54473,-0.22904 -0.47344,-0.34441 0.0713,-0.11536 0.002,-0.22414 -0.15322,-0.24174 -0.15558,-0.0176 -0.42872,-0.0518 -0.60699,-0.0761 -0.17828,-0.0242 -0.43488,-0.0584 -0.57023,-0.0761 -0.13536,-0.0176 -0.2326,-0.20216 -0.21609,-0.41014 0.0208,-0.2619 -0.13607,-0.38536 -0.5102,-0.40159 -1.28043,-0.0555 -1.32861,-0.0753 -1.19698,-0.49 0.094,-0.29618 -9.1e-4,-0.43926 -0.35235,-0.53117 -0.26455,-0.0692 -0.59896,-0.0279 -0.74312,0.0918 -0.29754,0.24694 -0.62655,-0.0991 -0.41684,-0.43843 0.17653,-0.28564 -0.51171,-0.62639 -1.00476,-0.49745 -0.23046,0.0603 -0.5258,-0.0431 -0.67159,-0.23508 -0.14312,-0.18846 -0.50332,-0.38676 -0.80044,-0.44067 -1.15665,-0.20985 -2.92037,-1.29438 -2.69584,-1.65768 0.12632,-0.20438 -0.57839,-0.4677 -1.00927,-0.37713 -0.16087,0.0338 -0.26875,-0.0584 -0.23973,-0.20483 0.0593,-0.29938 -0.88156,-0.60424 -1.21975,-0.39523 -0.12054,0.0745 -0.37451,-0.16495 -0.56437,-0.5321 -0.292,-0.56468 -0.45162,-0.65735 -1.03561,-0.60131 -0.55912,0.0537 -0.6782,-0.006 -0.62618,-0.31508 0.0672,-0.39899 -0.71485,-0.83162 -1.18211,-0.65394 -0.13945,0.053 -0.36656,-0.11478 -0.5047,-0.37289 -0.17818,-0.33294 -0.38378,-0.43461 -0.70761,-0.34993 -0.25104,0.0657 -0.58404,0.0135 -0.73999,-0.11596 -0.15596,-0.12943 -0.69583,-0.45973 -1.19972,-0.73401 -0.5039,-0.27428 -0.89186,-0.60189 -0.86215,-0.72802 0.0297,-0.12614 -0.0675,-0.24056 -0.21609,-0.25426 -0.14856,-0.0137 -0.36735,-0.0475 -0.48619,-0.0751 -0.11885,-0.0276 -0.34338,-0.065 -0.49895,-0.0831 -0.15558,-0.0181 -0.23155,-0.11594 -0.16884,-0.2174 0.14233,-0.2303 -0.91248,-0.73033 -1.18514,-0.56181 -0.10994,0.0679 -0.19989,-0.0281 -0.19989,-0.21334 0,-0.18529 -0.17017,-0.35169 -0.37816,-0.3698 -0.87221,-0.0759 -1.79782,-0.41608 -1.67461,-0.61542 0.19198,-0.31065 -0.51012,-0.68687 -0.99476,-0.53306 -0.37512,0.11906 -0.44791,0.0796 -0.34553,-0.18717 0.14591,-0.38023 -0.42051,-0.66564 -1.52291,-0.76737 -0.14856,-0.0137 -0.2458,-0.14648 -0.21609,-0.29504 0.033,-0.1652 -0.17676,-0.2668 -0.54021,-0.26159 -0.32683,0.005 -0.59424,-0.0682 -0.59424,-0.16206 0,-0.0938 -0.24086,-0.17058 -0.53524,-0.17058 -0.33247,0 -0.66932,-0.20466 -0.88919,-0.54022 -0.19468,-0.29712 -0.47824,-0.54022 -0.63013,-0.54022 -0.15188,0 -0.3347,-0.15256 -0.40625,-0.33902 -0.0865,-0.22533 -0.2754,-0.29292 -0.56334,-0.20153 -0.24888,0.079 -0.43323,0.0394 -0.43323,-0.0931 0,-0.12686 -0.1516,-0.23065 -0.33689,-0.23065 -0.18528,0 -0.27678,-0.0972 -0.20333,-0.21609 0.0734,-0.11885 0.006,-0.23089 -0.14931,-0.249 -0.15558,-0.0181 -0.3801,-0.0555 -0.49895,-0.0831 -0.11885,-0.0276 -0.34337,-0.0614 -0.49895,-0.0751 -0.15557,-0.0137 -0.22276,-0.12216 -0.14931,-0.24101 0.0734,-0.11884 0.006,-0.23089 -0.14931,-0.249 -0.97523,-0.11347 -2.0678,-0.66776 -1.9583,-0.99349 0.0499,-0.14856 -0.0632,-0.28227 -0.25133,-0.29712 -0.18818,-0.0149 -0.43938,-0.0513 -0.55823,-0.081 -0.11884,-0.0297 -0.31906,-0.0662 -0.44492,-0.081 -0.12586,-0.0149 -0.17027,-0.12179 -0.0987,-0.23762 0.0716,-0.11584 -0.31042,-0.32156 -0.84891,-0.45715 -0.53849,-0.1356 -0.92593,-0.33254 -0.86097,-0.43765 0.10717,-0.1734 -0.19767,-0.28175 -0.60967,-0.2167 -0.0891,0.0141 -0.16207,-0.0716 -0.16207,-0.19049 0,-0.11885 -0.24309,-0.21609 -0.54021,-0.21609 -0.29712,0 -0.54022,-0.0816 -0.54022,-0.18132 0,-0.0997 -0.38021,-0.36626 -0.84491,-0.5923 -0.4647,-0.22603 -0.79352,-0.49412 -0.73071,-0.59575 0.0628,-0.10163 -0.0627,-0.15072 -0.27883,-0.10909 -0.21616,0.0416 -0.62095,-0.15224 -0.89954,-0.43083 -0.27859,-0.27859 -0.64806,-0.45221 -0.82104,-0.38583 -0.17299,0.0664 -0.31452,0.0265 -0.31452,-0.0886 0,-0.11512 -0.20022,-0.20931 -0.44493,-0.20931 -0.28129,0 -0.38822,-0.0918 -0.29074,-0.24947 0.10192,-0.16491 0.0585,-0.19034 -0.12807,-0.075 -0.16872,0.10427 -0.37772,0.0525 -0.51958,-0.12868 -0.13054,-0.16672 -0.83574,-0.59484 -1.56712,-0.95138 -0.73138,-0.35654 -1.27899,-0.73054 -1.2169,-0.8311 0.0621,-0.10056 -0.0688,-0.14564 -0.29087,-0.10017 -0.22206,0.0455 -0.50098,-0.0357 -0.61983,-0.18041 -0.11884,-0.14468 -1.13985,-0.74181 -2.2689,-1.32696 -1.12905,-0.58515 -2.38629,-1.2675 -2.79386,-1.51632 -0.40757,-0.24883 -0.82083,-0.40309 -0.91837,-0.34282 -0.0975,0.0603 -0.17733,0.0161 -0.17733,-0.0981 0,-0.11423 -0.26741,-0.31446 -0.59424,-0.44495 -0.32683,-0.13049 -1.46938,-0.72392 -2.53901,-1.31872 -1.06963,-0.59481 -2.2365,-1.23213 -2.59304,-1.41627 -0.35654,-0.18414 -1.48731,-0.79141 -2.51281,-1.34948 -1.84441,-1.00371 -4.13391,-2.23134 -6.91846,-3.70965 -0.78984,-0.41932 -1.90808,-1.01904 -2.48499,-1.3327 -4.97916,-2.70712 -12.90535,-6.88469 -13.06248,-6.88469 -0.383,0 -0.16249,-0.34859 1.40479,-2.22074 1.28945,-1.54028 1.71456,-2.24471 2.26272,-3.74946 0.37124,-1.01907 0.67498,-1.98883 0.67498,-2.15501 0,-0.16619 0.0345,-0.30216 0.0766,-0.30216 0.0421,0 6.9704,3.87322 15.39616,8.60717 25.85361,14.52563 52.52231,29.4718 54.21512,30.38425 0.47539,0.25623 1.10744,0.61866 1.40456,0.80537 0.29712,0.18672 1.31813,0.75277 2.26891,1.2579 0.95078,0.50512 2.36075,1.29135 3.13325,1.74718 0.77251,0.45582 2.00266,1.14903 2.73367,1.54046 0.731,0.39143 2.31216,1.27081 3.51368,1.95419 1.20153,0.68337 2.2808,1.24249 2.39839,1.24249 0.1176,0 0.21381,0.0854 0.21381,0.18988 0,0.10442 0.31602,0.3198 0.70228,0.47861 0.82084,0.33748 4.69988,4.00871 4.69988,4.44808 0,0.16454 0.12155,0.34603 0.27011,0.40332 0.25393,0.0979 0.32237,1.12468 0.20459,3.06955 -0.0401,0.66165 -0.09,0.70228 -0.86366,0.70228 -0.45162,0 -0.91998,0.0989 -1.04081,0.21969 -0.12083,0.12083 -0.28726,0.15212 -0.36984,0.0695 z"
         id="path278"
         transform="translate(2.8887394e-6)"
         sodipodi:insensitive="true" />
      <path
         style="display:inline;fill:#242f35;fill-opacity:1;stroke-width:0.864346"
         d="m 611.95678,484.73868 c 0,-3.89257 3.07199,-9.75979 5.74862,-10.97935 l 2.26572,-1.03233 -0.40387,-69.56077 c -0.33916,-58.41422 -0.21165,-69.83521 0.79574,-71.27346 1.44284,-2.05995 3.50152,-2.18396 6.09535,-0.36717 l 1.92101,1.34553 v 69.98153 69.98152 l 2.16087,0.98455 c 4.67138,2.12843 1.67143,4.58584 -4.47337,3.66437 -4.69379,-0.70388 -7.65973,1.03333 -8.53014,4.99627 -1.1143,5.07338 -5.57993,6.88152 -5.57993,2.25931 z"
         id="path132"
         transform="translate(2.8887394e-6)"
         sodipodi:insensitive="true" />
      <path
         style="display:inline;fill:#fe3d00;fill-opacity:1;stroke-width:0.864346"
         d="m 156.44658,185.10395 c 0,-3.09005 0.45313,-4.59784 1.72869,-5.75221 2.44303,-2.21092 2.1446,-3.32448 -0.73654,-2.74825 l -2.46523,0.49304 0.0572,-53.84054 0.0572,-53.840538 53.18835,-0.09894 c 29.25359,-0.05442 54.64693,0.113996 56.42964,0.37425 l 3.2413,0.47319 v 30.999808 c 0,22.22775 0.29278,31.64239 1.03467,33.27066 1.15031,2.52464 6.41835,5.58959 9.6074,5.58959 2.6682,0 7.61109,-3.3385 8.99646,-6.07636 0.80407,-1.58905 1.08354,-10.11934 1.09303,-33.36226 l 0.0127,-31.227334 46.24249,0.02392 46.2425,0.02393 v 31.938104 31.9381 l 2.88783,2.88783 c 1.58831,1.5883 3.98075,3.16213 5.31656,3.4974 3.16247,0.79373 7.93335,-0.95952 10.48175,-3.85194 l 2.00353,-2.27398 0.0273,-32.02516 0.0273,-32.025152 43.0012,-0.135207 c 23.65066,-0.07436 44.45978,0.07703 46.2425,0.336421 l 3.24129,0.471629 0.003,30.824389 c 0.003,28.82266 0.11051,31.00032 1.65519,33.53354 1.68084,2.7565 6.04268,5.50213 8.74097,5.50213 3.09978,0 7.64783,-2.65283 9.39519,-5.48011 1.75451,-2.83886 1.81407,-3.95603 1.81407,-34.02919 V 69.420743 l 56.18247,-0.01317 56.18247,-0.01317 v 55.245777 c 0,36.92684 -0.28909,55.06709 -0.87184,54.70694 -0.4795,-0.29635 -3.26748,1.81995 -6.19548,4.70289 l -5.32364,5.24172 h -6.33753 c -3.48564,0 -6.33753,-0.34759 -6.33753,-0.77242 0,-0.42483 2.41666,-3.24218 5.37037,-6.26079 3.73803,-3.82017 4.95889,-5.56762 4.01661,-5.74908 -0.76726,-0.14776 -4.09339,2.56467 -7.67732,6.26078 l -6.32354,6.52151 h -6.76869 c -3.72278,0 -6.76366,-0.29172 -6.75751,-0.64826 0.006,-0.35655 2.581,-3.17647 5.72188,-6.26651 3.673,-3.61353 5.25643,-5.70924 4.4376,-5.87325 -0.7002,-0.14024 -4.1187,2.67969 -7.59665,6.26651 l -6.32355,6.52151 h -6.76869 c -3.72278,0 -6.76869,-0.28196 -6.76869,-0.62657 0,-0.34461 2.61502,-3.26178 5.81115,-6.48259 3.55502,-3.58247 5.26758,-5.85603 4.41105,-5.85603 -0.77004,0 -4.22871,2.91717 -7.68591,6.48259 l -6.28582,6.4826 h -6.76869 c -3.72278,0 -6.76869,-0.28196 -6.76869,-0.62657 0,-0.34461 2.61501,-3.26178 5.81115,-6.48259 4.05909,-4.09044 5.33908,-5.85603 4.24542,-5.85603 -0.86115,0 -4.42665,2.91717 -7.92333,6.48259 l -6.35759,6.4826 h -6.53128 c -3.59221,0 -6.52247,-0.29172 -6.51169,-0.64826 0.0108,-0.35655 2.34452,-2.97598 5.18608,-5.82096 2.84155,-2.84499 5.16647,-5.47044 5.16647,-5.83434 0,-1.85946 -2.79407,0.0364 -8.62776,5.85425 l -6.4669,6.44931 h -6.71437 c -3.69291,0 -6.71438,-0.18102 -6.71438,-0.40227 0,-0.22124 2.62142,-3.03662 5.82538,-6.25639 4.07314,-4.09324 5.41131,-5.93388 4.44879,-6.11924 -0.79633,-0.15336 -4.04213,2.48386 -7.70016,6.25639 l -6.32354,6.52151 h -6.33652 c -3.48509,0 -6.33652,-0.36625 -6.33652,-0.81388 0,-0.44764 2.31656,-3.26756 5.14791,-6.26651 7.35288,-7.7881 4.60351,-7.37789 -3.3155,0.49469 l -6.62456,6.5857 h -6.24738 c -3.56091,0 -6.24738,-0.36923 -6.24738,-0.85862 0,-0.47224 2.38066,-3.27653 5.29035,-6.23175 3.04896,-3.09667 4.84046,-5.52309 4.22849,-5.72709 -0.58403,-0.19467 -4.04293,2.60962 -7.68643,6.23176 l -6.62456,6.5857 h -6.24738 c -3.58583,0 -6.24739,-0.36799 -6.24739,-0.86375 0,-0.47506 2.13926,-3.05489 4.7539,-5.73296 2.61465,-2.67805 4.7539,-5.20653 4.7539,-5.61884 0,-1.79209 -2.0873,-0.33975 -8.23935,5.73295 l -6.56729,6.4826 h -6.42621 c -3.53441,0 -6.41266,-0.29172 -6.3961,-0.64826 0.0166,-0.35655 2.35029,-2.95768 5.18607,-5.78031 2.83578,-2.82262 5.15597,-5.44807 5.15597,-5.83433 0,-1.96414 -2.83187,-0.0703 -8.64346,5.7803 l -6.43932,6.4826 h -6.28814 c -3.45848,0 -6.28814,-0.33217 -6.28814,-0.73816 0,-0.40599 2.32567,-3.03144 5.16814,-5.83434 2.84248,-2.80289 5.17622,-5.38789 5.18608,-5.74443 0.0534,-1.93214 -2.88556,0.0558 -8.62553,5.83433 l -6.43933,6.4826 h -6.28814 c -3.45848,0 -6.28814,-0.33858 -6.28814,-0.75241 0,-0.41382 2.33373,-3.09339 5.18608,-5.9546 2.85234,-2.8612 5.18607,-5.43978 5.18607,-5.73018 0,-1.78752 -3.0189,0.29224 -8.64346,5.95459 l -6.43932,6.4826 h -6.28814 c -3.45848,0 -6.28814,-0.32812 -6.28814,-0.72914 0,-0.40103 2.33373,-3.12154 5.18607,-6.0456 2.85234,-2.92404 5.18608,-5.5131 5.18608,-5.75345 0,-1.76692 -3.32959,0.53245 -8.75096,6.0433 l -6.37509,6.4803 -6.26651,0.002 c -3.44658,0.001 -6.26651,-0.33483 -6.26651,-0.74687 0,-0.41203 2.37888,-3.23196 5.2864,-6.2665 3.81797,-3.98478 4.90032,-5.59461 3.89651,-5.79549 -0.80734,-0.16154 -4.16883,2.46499 -8.01999,6.26651 l -6.63009,6.54464 h -6.34205 c -3.48812,0 -6.32769,-0.29172 -6.31015,-0.64826 0.0175,-0.35655 2.56601,-3.17647 5.66329,-6.26651 4.18507,-4.17529 5.25819,-5.69554 4.17825,-5.9192 -0.8973,-0.18584 -3.98016,2.21121 -8.05937,6.2665 l -6.60621,6.56747 h -6.31941 c -3.81527,0 -6.20524,-0.34136 -6.03129,-0.86145 0.15846,-0.4738 2.78505,-3.39097 5.83686,-6.4826 4.18715,-4.24176 5.1363,-5.62114 3.86792,-5.62114 -0.94307,0 -4.50715,2.84532 -8.12015,6.48259 l -6.43933,6.4826 h -6.28814 c -3.45848,0 -6.28814,-0.2984 -6.28814,-0.6631 0,-0.36471 2.56781,-3.28187 5.70623,-6.4826 4.15894,-4.24149 5.26636,-5.81949 4.08401,-5.81949 -0.89222,0 -4.51992,2.91717 -8.06155,6.48259 l -6.43932,6.4826 h -6.28814 c -3.45848,0 -6.28814,-0.3039 -6.28814,-0.67532 0,-0.37142 2.33373,-2.98469 5.18607,-5.80728 2.85234,-2.82258 5.18608,-5.43585 5.18608,-5.80728 0,-1.99083 -3.11422,0.0248 -9.0274,5.8428 l -6.62472,6.5181 -6.62565,-0.25159 -6.62564,-0.25161 6.01538,-6.0403 c 4.60708,-4.62617 5.65795,-6.10915 4.48866,-6.33433 -0.98035,-0.1888 -3.85571,2.05014 -8.03476,6.2564 l -6.50804,6.55041 h -6.43408 c -3.53874,0 -6.42531,-0.29172 -6.4146,-0.64826 0.0107,-0.35655 2.54694,-3.17647 5.63605,-6.26651 4.0982,-4.09944 5.23293,-5.69925 4.19749,-5.91788 -0.86515,-0.18268 -3.93271,2.26337 -7.85873,6.26651 l -6.43967,6.56614 h -6.42077 c -3.53142,0 -6.42076,-0.28196 -6.42076,-0.62657 0,-0.34461 2.61501,-3.26178 5.81115,-6.48259 4.40628,-4.44031 5.39884,-5.85573 4.10564,-5.85477 -0.98362,7.3e-4 -4.37875,2.74463 -8.02115,6.4826 l -6.31565,6.48133 h -6.43345 c -3.5384,0 -6.43346,-0.28196 -6.43346,-0.62657 0,-0.34461 2.61502,-3.26178 5.81115,-6.48259 4.48915,-4.52381 5.41497,-5.85603 4.06966,-5.85603 -1.02621,0 -4.35112,2.66262 -8.09507,6.48259 l -6.35356,6.4826 h -6.35955 c -3.49775,0 -6.35954,-0.3039 -6.35954,-0.67532 0,-0.37142 2.33373,-2.98469 5.18607,-5.80728 5.27194,-5.21692 6.0665,-6.48259 4.06963,-6.48259 -1.33997,0 -7.52701,5.68224 -7.52701,6.91287 0,0.47644 -0.41088,0.86624 -0.91307,0.86624 -0.50219,0 -1.99482,1.18436 -3.31696,2.63193 -2.33917,2.56105 -2.58734,2.62505 -9.21691,2.37695 l -6.81302,-0.25498 6.01539,-6.0403 c 4.48723,-4.50583 5.63938,-6.11272 4.53531,-6.32535 -0.92081,-0.17733 -3.93577,2.18667 -7.97917,6.2564 l -6.4991,6.54143 h -6.48967 c -3.56932,0 -6.48967,-0.28196 -6.48967,-0.62657 0,-0.34461 2.61502,-3.26178 5.81115,-6.48259 4.30462,-4.33787 5.38042,-5.85603 4.14969,-5.85603 -0.93354,0 -4.41101,2.84019 -7.93716,6.48259 l -6.27568,6.4826 h -6.51746 c -3.5846,0 -6.51745,-0.28196 -6.51745,-0.62657 0,-0.34461 2.61502,-3.26178 5.81115,-6.48259 4.1142,-4.14597 5.34794,-5.85603 4.2249,-5.85603 -0.87243,0 -4.42866,2.91717 -7.90271,6.48259 -5.53825,5.68391 -6.69773,6.4826 -9.41098,6.4826 h -3.09451 z"
         id="path13"
         transform="translate(2.8887394e-6)"
         sodipodi:insensitive="true" />
      <path
         style="display:inline;fill:#0091ea;fill-opacity:1;stroke-width:1.50202"
         d="m 536.57306,187.27675 c 0,-0.64031 -1.92031,-1.53361 -4.26737,-1.98513 -9.31297,-1.79156 -9.14901,-0.38585 -9.88226,-84.73163 -0.64277,-73.939015 -0.51436,-78.194788 2.44655,-81.079942 1.7187,-1.67474 3.1249,-3.568044 3.1249,-4.207343 0,-0.639298 2.84266,-2.149933 6.31697,-3.356964 5.73075,-1.9909407 6.83076,-2.0077259 11.85349,-0.180873 12.72102,4.626868 11.84438,-1.726104 11.92988,86.454828 0.0732,75.650414 -0.0651,79.241084 -3.18187,82.558104 -4.43623,4.72117 -18.34029,9.67086 -18.34029,6.52895 z"
         id="path12"
         sodipodi:insensitive="true"
         transform="matrix(0.67187507,0,0,0.67187507,143.24147,16)" />
      <path
         style="display:inline;fill:#0091ea;fill-opacity:1;stroke-width:1.5066"
         d="m 198.1675,189.35751 c 0,-0.66809 -1.85163,-1.60017 -4.1149,-2.07127 -8.98013,-1.86931 -8.82196,-0.4026 -9.5291,-88.408611 -0.61971,-77.147632 -0.496,-81.588083 2.3592,-84.598438 1.65719,-1.747413 3.01322,-3.722884 3.01322,-4.3899294 0,-0.6670335 2.74099,-2.2432255 6.09127,-3.5026348 5.52582,-2.0773366 6.5866,-2.094849 11.42985,-0.1887238 12.26637,4.827658 11.42112,-1.8010074 11.50355,90.206577 0.0708,78.93331 -0.0629,82.67978 -3.06814,86.14076 -4.27769,4.92604 -17.68495,10.09052 -17.68495,6.81227 z"
         id="path12-9"
         sodipodi:insensitive="true"
         transform="matrix(0.67187507,0,0,0.67187507,143.24147,16)" />
      <path
         style="display:inline;fill:#0091ea;fill-opacity:1;stroke-width:1.02006"
         d="m 392.98384,141.51029 c 0,-0.43954 1.29021,-1.05276 2.86715,-1.36271 6.25714,-1.22982 6.14698,-0.26486 6.63963,-58.164292 0.43187,-50.755679 0.34559,-53.677066 -1.64377,-55.657587 -1.15476,-1.14963 -2.09954,-2.449299 -2.09954,-2.888151 0,-0.438844 -1.90992,-1.475826 -4.24423,-2.304396 -3.85034,-1.366686 -4.58941,-1.378207 -7.96405,-0.124161 -8.54695,3.176133 -7.95795,-1.184889 -8.0154,59.3472 -0.0492,51.930477 0.0438,54.395297 2.13781,56.672277 2.9806,3.24086 12.3224,6.63859 12.3224,4.48182 z"
         id="path12-6"
         sodipodi:insensitive="true" />
    </g>
  </g>
</svg>
